<?xml version="1.0" encoding="UTF-8"?>
<!-- Creator: CorelDRAW -->
<svg xmlns="http://www.w3.org/2000/svg" xmlns:xlink="http://www.w3.org/1999/xlink" xmlns:xodm="http://www.corel.com/coreldraw/odm/2003" xml:space="preserve" width="532px" height="262px" version="1.1" style="shape-rendering:geometricPrecision; text-rendering:geometricPrecision; image-rendering:optimizeQuality; fill-rule:evenodd; clip-rule:evenodd" viewBox="0 0 31590.1 15532">
 <defs>
  <style type="text/css">
   <![CDATA[
    .fil17 {fill:#00689D}
    .fil15 {fill:#0A97D9}
    .fil18 {fill:#19486A}
    .fil7 {fill:#26BDE2}
    .fil3 {fill:#323232}
    .fil14 {fill:#3F7E44}
    .fil5 {fill:#4C9F38}
    .fil16 {fill:#56C02B}
    .fil9 {fill:#A21942}
    .fil13 {fill:#BF8B2E}
    .fil4 {fill:#C5192D}
    .fil11 {fill:#DD1367}
    .fil1 {fill:#DDA63A}
    .fil2 {fill:#E5243B}
    .fil8 {fill:#FCC30B}
    .fil10 {fill:#FD6925}
    .fil12 {fill:#FD9D24}
    .fil6 {fill:#FF3A21}
    .fil0 {fill:#323232;fill-rule:nonzero}
   ]]>
  </style>
 </defs>
 <g id="Plan_x0020_1">
  <metadata id="CorelCorpID_0Corel-Layer"></metadata>
  <g id="_1838302527584">
   <path class="fil0" d="M87.2 4447.5c-58.1,0 -87.2,-26.8 -87.2,-80.5l0 -4232.8c0,-53.7 26.9,-80.5 80.5,-80.5l1140.4 0c460.6,0 805,91.6 1033,275 228.1,183.4 342.2,456.2 342.2,818.4 0,241.5 -48.1,440.5 -144.3,597 -96.1,156.5 -249.3,279.5 -459.5,369l0 26.8c250.5,58.1 440.5,174.4 570.2,348.8 129.7,174.4 194.6,404.7 194.6,691 0,433.7 -120.8,753.5 -362.3,959.2 -241.5,205.7 -626.1,308.6 -1153.8,308.6l-1153.8 0zm791.6 -724.5l382.3 0c214.7,0 372.4,-49.2 473,-147.6 100.6,-98.4 150.9,-250.4 150.9,-456.1 0,-196.8 -51.4,-344.4 -154.3,-442.8 -102.9,-98.3 -261.6,-147.5 -476.3,-147.5l-375.6 0 0 1194zm0 -1851.4l328.7 0c183.3,0 317.5,-48.1 402.5,-144.3 84.9,-96.1 127.4,-238.1 127.4,-425.9 0,-178.9 -44.7,-310.8 -134.1,-395.8 -89.5,-85 -230.3,-127.5 -422.7,-127.5l-301.8 0 0 1093.5zm2482 2575.9c-53.7,0 -80.5,-26.8 -80.5,-80.5l0 -4232.8c0,-53.7 26.8,-80.5 80.5,-80.5l724.5 0c22.3,0 40.2,7.8 53.6,23.5 13.4,15.6 20.2,34.6 20.2,57l0 3535.1 1321.5 0c49.1,0 73.8,26.9 73.8,80.5l0 617.2c0,53.7 -24.7,80.5 -73.8,80.5l-2119.8 0zm3991.3 53.7c-491.9,0 -866.4,-132 -1123.6,-395.8 -257.1,-263.9 -385.7,-650.7 -385.7,-1160.5l0 -1381.9c0,-514.3 128.6,-903.4 385.7,-1167.2 257.2,-263.9 631.7,-395.8 1123.6,-395.8 500.9,0 879.9,131.9 1137.1,395.8 257.1,263.8 385.7,652.9 385.7,1167.2l0 1381.9c0,509.8 -128.6,896.6 -385.7,1160.5 -257.2,263.8 -636.2,395.8 -1137.1,395.8zm0 -778.2c219.2,0 381.3,-66 486.4,-197.9 105.1,-131.9 157.6,-336.5 157.6,-613.8l0 -1314.8c0,-281.7 -52.5,-488.5 -157.6,-620.5 -105.1,-131.9 -267.2,-197.9 -486.4,-197.9 -210.1,0 -367.8,66 -472.9,197.9 -105.1,132 -157.6,338.8 -157.6,620.5l0 1314.8c0,277.3 52.5,481.9 157.6,613.8 105.1,131.9 262.8,197.9 472.9,197.9zm3568.8 778.2c-487.5,0 -860.9,-129.7 -1120.3,-389.1 -259.4,-259.4 -389.1,-657.4 -389.1,-1194.1l0 -1328.2c0,-527.7 129.7,-924.6 389.1,-1190.7 259.4,-266 632.8,-399.1 1120.3,-399.1 339.8,0 626,64.8 858.6,194.5 232.5,129.7 403.6,310.8 513.1,543.4 109.6,232.5 144.3,507.6 104.1,825.1 -4.5,58.1 -29.1,87.2 -73.8,87.2l-731.2 0c-49.2,0 -71.6,-29.1 -67.1,-87.2 17.9,-250.5 -22.4,-443.8 -120.8,-580.3 -98.4,-136.4 -257.1,-204.6 -476.2,-204.6 -214.7,0 -374.6,66 -479.7,197.9 -105.1,132 -157.6,343.3 -157.6,633.9l0 1267.9c0,299.6 53.7,515.4 161,647.3 107.3,131.9 266.1,197.9 476.3,197.9 232.5,0 394.6,-72.7 486.3,-218 91.7,-145.3 130.8,-336.5 117.4,-573.5 -4.5,-53.7 17.9,-80.5 67.1,-80.5l724.5 0c44.7,0 71.5,26.8 80.4,80.5 44.8,482.9 -62.6,865.3 -321.9,1147.1 -259.4,281.7 -646.2,422.6 -1160.5,422.6zm2160 -53.7c-49.2,0 -73.8,-26.8 -73.8,-80.5l0 -4232.8c0,-53.7 24.6,-80.5 73.8,-80.5l731.2 0c49.1,0 73.7,26.8 73.7,80.5l0 972.6c0,89.5 -1.1,189 -3.3,298.6 -2.2,109.5 -6.7,220.2 -13.4,332 -6.8,111.8 -14.6,212.4 -23.5,301.9l20.1 0c58.1,-129.7 121.9,-271.7 191.2,-426 69.3,-154.3 146.5,-314.1 231.4,-479.6l657.4 -1039.8c13.5,-26.8 42.5,-40.2 87.2,-40.2l845.3 0c26.8,0 44.7,8.9 53.6,26.8 8.9,17.9 4.5,42.5 -13.4,73.8l-1053.2 1717.3 1187.4 2475.3c13.4,26.8 15.6,50.3 6.7,70.4 -9,20.1 -26.9,30.2 -53.7,30.2l-878.7 0c-40.3,0 -69.4,-17.9 -87.3,-53.7l-784.8 -1784.3 -369 536.6 0 1220.9c0,53.7 -24.6,80.5 -73.7,80.5l-731.2 0zm4608.4 53.7c-487.4,0 -860.8,-129.7 -1120.2,-389.1 -259.4,-259.4 -389.1,-657.4 -389.1,-1194.1l0 -1328.2c0,-527.7 129.7,-924.6 389.1,-1190.7 259.4,-266 632.8,-399.1 1120.2,-399.1 339.9,0 626.1,64.8 858.7,194.5 232.5,129.7 403.6,310.8 513.2,543.4 109.5,232.5 144.2,507.6 103.9,825.1 -4.4,58.1 -29,87.2 -73.8,87.2l-731.1 0c-49.2,0 -71.6,-29.1 -67.1,-87.2 17.9,-250.5 -22.4,-443.8 -120.8,-580.3 -98.4,-136.4 -257.1,-204.6 -476.2,-204.6 -214.7,0 -374.6,66 -479.7,197.9 -105.1,132 -157.6,343.3 -157.6,633.9l0 1267.9c0,299.6 53.7,515.4 161,647.3 107.3,131.9 266.1,197.9 476.3,197.9 232.5,0 394.6,-72.7 486.3,-218 91.7,-145.3 130.8,-336.5 117.4,-573.5 -4.5,-53.7 17.9,-80.5 67.1,-80.5l724.4 0c44.8,0 71.6,26.8 80.5,80.5 44.8,482.9 -62.6,865.3 -321.9,1147.1 -259.4,281.7 -646.3,422.6 -1160.6,422.6zm2166.8 -53.7c-53.7,0 -80.5,-26.8 -80.5,-80.5l0 -4232.8c0,-53.7 26.8,-80.5 80.5,-80.5l717.7 0c53.7,0 80.5,26.8 80.5,80.5l0 1697.1 1220.9 0 0 -1697.1c0,-53.7 24.6,-80.5 73.8,-80.5l724.5 0c49.2,0 73.8,26.8 73.8,80.5l0 4232.8c0,53.7 -24.6,80.5 -73.8,80.5l-724.5 0c-49.2,0 -73.8,-26.8 -73.8,-80.5l0 -1764.3 -1220.9 0 0 1764.3c0,53.7 -26.8,80.5 -80.5,80.5l-717.7 0zm3293.6 0c-58.1,0 -76,-29.1 -53.6,-87.2l1106.8 -4246.3c9,-40.2 35.8,-60.3 80.5,-60.3l945.9 0c44.7,0 73.8,20.1 87.2,60.3l1113.5 4246.3c13.5,58.1 -6.7,87.2 -60.4,87.2l-804.9 0c-40.3,0 -67.1,-20.1 -80.5,-60.4l-550.1 -2616.1c-35.8,-152.1 -67.1,-304.1 -93.9,-456.2 -26.8,-152 -53.7,-301.9 -80.5,-449.5l-13.4 0c-26.9,147.6 -54.8,297.5 -83.9,449.5 -29,152.1 -57,304.1 -83.8,456.2l-563.5 2609.4c-4.5,44.7 -31.3,67.1 -80.5,67.1l-784.9 0zm912.3 -885.5l134.2 -711 1093.4 0 147.6 711 -1375.2 0zm2770.5 885.5c-49.2,0 -73.8,-26.8 -73.8,-80.5l0 -4232.8c0,-53.7 24.6,-80.5 73.8,-80.5l731.2 0c49.2,0 73.8,26.8 73.8,80.5l0 4232.8c0,53.7 -24.6,80.5 -73.8,80.5l-731.2 0zm1549.6 0c-49.2,0 -73.8,-26.8 -73.8,-80.5l0 -4232.8c0,-53.7 24.6,-80.5 73.8,-80.5l952.6 0c40.2,0 67,17.9 80.5,53.6l717.7 2019.2c49.2,116.3 96.2,243.7 140.9,382.4 44.7,138.6 87.2,273.8 127.5,405.8 40.2,131.9 73.7,251.5 100.6,358.9l20.1 0c-9,-120.8 -19,-262.8 -30.2,-426 -11.2,-163.2 -19,-328.7 -23.5,-496.4 -4.4,-167.7 -6.7,-309.7 -6.7,-426l0 -1791c0,-53.7 22.4,-80.5 67.1,-80.5l690.9 0c49.2,0 73.8,26.8 73.8,80.5l0 4232.8c0,53.7 -24.6,80.5 -73.8,80.5l-945.8 0c-35.8,0 -62.6,-17.9 -80.5,-53.7l-717.8 -1965.4c-71.5,-196.8 -137.5,-398.1 -197.9,-603.8 -60.3,-205.7 -115.1,-393.5 -164.3,-563.5l-20.1 0c13.4,125.3 22.3,272.8 26.8,442.8 4.5,169.9 10,337.6 16.8,503.1 6.7,165.4 10,313 10,442.7l0 1717.3c0,53.7 -26.8,80.5 -80.5,80.5l-684.2 0z"></path>
   <path class="fil0" d="M73.8 10065c-49.2,0 -73.8,-26.8 -73.8,-80.5l0 -4232.8c0,-53.7 24.6,-80.5 73.8,-80.5l2213.7 0c49.2,0 73.8,26.8 73.8,80.5l0 617.1c0,53.7 -24.6,80.5 -73.8,80.5l-1408.8 0 0 1086.7 1214.2 0c44.8,0 67.1,29.1 67.1,87.2l0 590.3c0,53.7 -22.3,80.5 -67.1,80.5l-1214.2 0 0 1690.5c0,53.7 -24.5,80.5 -73.7,80.5l-731.2 0zm4259.6 53.7c-491.9,0 -866.4,-132 -1123.6,-395.8 -257.1,-263.9 -385.7,-650.7 -385.7,-1160.5l0 -1381.9c0,-514.3 128.6,-903.4 385.7,-1167.2 257.2,-263.9 631.7,-395.8 1123.6,-395.8 500.9,0 879.9,131.9 1137.1,395.8 257.1,263.8 385.7,652.9 385.7,1167.2l0 1381.9c0,509.8 -128.6,896.6 -385.7,1160.5 -257.2,263.8 -636.2,395.8 -1137.1,395.8zm0 -778.2c219.2,0 381.3,-66 486.4,-197.9 105.1,-131.9 157.6,-336.5 157.6,-613.8l0 -1314.8c0,-281.7 -52.5,-488.6 -157.6,-620.5 -105.1,-131.9 -267.2,-197.8 -486.4,-197.8 -210.1,0 -367.8,65.9 -472.9,197.8 -105,131.9 -157.6,338.8 -157.6,620.5l0 1314.8c0,277.3 52.6,481.9 157.6,613.8 105.1,131.9 262.8,197.9 472.9,197.9zm2200.3 724.5c-49.2,0 -73.8,-26.8 -73.8,-80.5l0 -4232.8c0,-53.7 24.6,-80.5 73.8,-80.5l1180.7 0c509.7,0 882.1,108.4 1116.8,325.3 442.2,408.5 671.6,1532.7 -141.8,1871.6l688.6 2096.3c31.3,67 13.4,100.6 -53.7,100.6l-805 0c-40.2,0 -69.3,-17.9 -87.2,-53.7l-528.1 -1662.4 -565.3 5.5 0 1630.1c0,53.7 -24.6,80.5 -73.8,80.5l-731.2 0zm805 -2647.6l368.9 0c374.4,0 674.1,-158.6 658,-523 -13.5,-303.1 -271.1,-384.7 -1026.9,-384.7l0 907.7z"></path>
   <path class="fil0" d="M1308.1 15532c-402.5,0 -721.1,-128.6 -955.9,-385.8 -234.8,-257.1 -352.2,-638.3 -352.2,-1143.7l0 -1388.6c0,-518.7 130.8,-912.3 392.4,-1180.6 261.7,-268.3 633.9,-402.5 1116.9,-402.5 335.4,0 616.1,60.4 841.9,181.1 225.8,120.8 392.4,290.7 499.8,509.8 107.3,219.2 147.5,474.1 120.7,764.7 -4.5,53.7 -29.1,80.6 -73.8,80.6l-731.2 0c-49.2,0 -71.5,-29.1 -67,-87.2 13.4,-210.2 -26.9,-374.6 -120.8,-493.1 -93.9,-118.5 -246,-177.7 -456.1,-177.7 -219.2,0 -381.3,64.8 -486.4,194.5 -105.1,129.7 -157.6,337.6 -157.6,623.8l0 1321.5c0,281.8 49.2,486.4 147.5,613.8 98.4,127.5 259.4,191.2 483,191.2 205.7,0 361.2,-61.5 466.2,-184.4 105.2,-123 157.7,-303 157.7,-540.1l0 -234.8 -576.9 0c-49.2,0 -73.8,-26.8 -73.8,-80.5l0 -469.5c0,-53.7 24.6,-80.5 73.8,-80.5l1355 0c49.2,0 73.8,26.8 73.8,80.5l0 1194c0,201.3 3.4,380.1 10.1,536.7 6.7,156.5 19,295.1 36.9,415.9 13.4,58.1 -9,87.2 -67.1,87.2l-576.9 0c-40.2,0 -64.8,-24.6 -73.8,-73.8 -13.4,-49.2 -23.5,-111.8 -30.2,-187.8 -6.7,-76 -12.3,-156.6 -16.8,-241.5l-6.6 0c-58.2,111.8 -129.8,209 -214.7,291.8 -85,82.7 -187.8,147.6 -308.6,194.5 -120.7,47 -263.9,70.5 -429.3,70.5zm3796.8 0c-492,0 -866.5,-132 -1123.6,-395.8 -257.2,-263.9 -385.8,-650.7 -385.8,-1160.5l0 -1381.9c0,-514.3 128.6,-903.4 385.8,-1167.2 257.1,-263.9 631.6,-395.8 1123.6,-395.8 500.9,0 879.9,131.9 1137,395.8 257.1,263.8 385.7,652.9 385.7,1167.2l0 1381.9c0,509.8 -128.6,896.6 -385.7,1160.5 -257.1,263.8 -636.1,395.8 -1137,395.8zm0 -778.2c219.1,0 381.2,-65.9 486.3,-197.9 105.1,-131.9 157.7,-336.5 157.7,-613.8l0 -1314.8c0,-281.7 -52.6,-488.5 -157.7,-620.5 -105.1,-131.9 -267.2,-197.8 -486.3,-197.8 -210.2,0 -367.9,65.9 -472.9,197.8 -105.1,132 -157.7,338.8 -157.7,620.5l0 1314.8c0,277.3 52.6,481.9 157.7,613.8 105,132 262.7,197.9 472.9,197.9zm3568.7 778.2c-491.9,0 -866.5,-132 -1123.6,-395.8 -257.2,-263.9 -385.7,-650.7 -385.7,-1160.5l0 -1381.9c0,-514.3 128.5,-903.4 385.7,-1167.2 257.1,-263.9 631.7,-395.8 1123.6,-395.8 500.9,0 879.9,131.9 1137,395.8 257.2,263.8 385.7,652.9 385.7,1167.2l0 1381.9c0,509.8 -128.5,896.6 -385.7,1160.5 -257.1,263.8 -636.1,395.8 -1137,395.8zm0 -778.2c219.1,0 381.2,-65.9 486.3,-197.9 105.1,-131.9 157.7,-336.5 157.7,-613.8l0 -1314.8c0,-281.7 -52.6,-488.5 -157.7,-620.5 -105.1,-131.9 -267.2,-197.8 -486.3,-197.8 -210.2,0 -367.8,65.9 -472.9,197.8 -105.1,132 -157.7,338.8 -157.7,620.5l0 1314.8c0,277.3 52.6,481.9 157.7,613.8 105.1,132 262.7,197.9 472.9,197.9zm2213.7 724.5c-58.2,0 -87.2,-26.8 -87.2,-80.5l0 -4232.8c0,-53.7 26.8,-80.5 80.5,-80.5l1160.5 0c576.9,0 1010.6,157.6 1301.3,472.9 290.7,315.3 436.1,786 436.1,1412l0 509.9c0,670.8 -144.3,1171.7 -432.7,1502.6 -288.5,330.9 -716.7,496.4 -1284.6,496.4l-1173.9 0zm791.5 -771.4l342.1 0c304.1,0 526.6,-101.8 667.5,-305.3 140.9,-203.4 211.3,-510.9 211.3,-922.3l0 -509.9c0,-371.1 -71.6,-649.5 -214.6,-835.1 -143.2,-185.6 -371.2,-278.4 -684.3,-278.4l-322 0 0 2851z"></path>
   <g>
    <path class="fil1" d="M10357.1 8172.4l2339.9 0c28.2,0 51.8,19.7 57.9,46.1l531.5 1594.6c10.3,31 -6.5,64.5 -37.5,74.7 -6.2,2.1 -12.4,3 -18.6,3l0 0.3 -2339.9 0c-28.2,0 -51.8,-19.7 -57.9,-46.1l-531.5 -1594.7c-10.2,-31 6.6,-64.5 37.6,-74.7 6.1,-2 12.4,-3 18.5,-3l0 -0.2z"></path>
    <path class="fil2" d="M13286.4 5923l-531.5 1594.8c-6.1,26.4 -29.7,46.1 -57.9,46.1l-2339.9 0 0 -0.2c-6.2,0 -12.4,-1 -18.6,-3 -31,-10.3 -47.8,-43.7 -37.5,-74.7l531.5 -1594.8c6.1,-26.4 29.7,-46.1 57.9,-46.1l2339.9 0 0 0.3c6.2,0 12.4,0.9 18.6,3 31,10.2 47.8,43.7 37.5,74.6z"></path>
    <path class="fil3" d="M14183.3 7886.7l-394.1 1182.5c-5.7,17.2 -19.2,31.5 -37.6,37.6 -31,10.2 -64.4,-6.6 -74.7,-37.6l-394.2 -1182.5c-3.8,-11.6 -4.1,-24.6 0,-37.1l394.2 -1182.6c5.7,-17.2 19.1,-31.5 37.6,-37.6 31,-10.2 64.4,6.6 74.7,37.6l394.1 1182.6c3.9,11.6 4.2,24.6 0,37.1z"></path>
   </g>
   <g>
    <path class="fil4" d="M14707.8 8172.3l2339.8 0c28.2,0 51.9,19.7 57.9,46.1l531.5 1594.7c10.2,31 -6.6,64.5 -37.6,74.7 -6.1,2 -12.4,3 -18.5,3l0 0.2 -2339.8 0c-28.3,0 -51.9,-19.7 -57.9,-46.1l-531.6 -1594.7c-10.2,-31 6.6,-64.5 37.6,-74.7 6.2,-2 12.4,-3 18.6,-3l0 -0.2z"></path>
    <path class="fil3" d="M18534.2 7886.7l-394.2 1182.5c-5.7,17.2 -19.1,31.5 -37.6,37.6 -31,10.2 -64.4,-6.6 -74.7,-37.6l-394.1 -1182.5c-3.9,-11.6 -4.2,-24.6 0,-37.1l394.1 -1182.6c5.7,-17.2 19.1,-31.5 37.6,-37.6 31,-10.2 64.4,6.6 74.7,37.6l394.2 1182.6c3.8,11.6 4.1,24.6 0,37.1z"></path>
    <path class="fil5" d="M14651.6 7486l531.6 -1594.8c6,-26.4 29.6,-46.1 57.9,-46.1l2339.8 0 0 0.2c6.1,0 12.4,1 18.5,3 31,10.3 47.8,43.7 37.6,74.7l-531.5 1594.8c-6.1,26.4 -29.7,46.1 -57.9,46.1l-2339.9 0 0 -0.3c-6.1,0 -12.4,-0.9 -18.5,-2.9 -31,-10.3 -47.8,-43.7 -37.6,-74.7z"></path>
   </g>
   <g>
    <path class="fil6" d="M21987.9 5923l-531.5 1594.8c-6.1,26.4 -29.7,46.1 -57.9,46.1l-2339.9 0 0 -0.2c-6.2,0 -12.5,-1 -18.6,-3 -31,-10.3 -47.8,-43.7 -37.6,-74.7l531.6 -1594.8c6.1,-26.4 29.7,-46.1 57.9,-46.1l2339.9 0 0 0.3c6.1,0 12.4,0.9 18.5,3 31,10.2 47.8,43.7 37.6,74.6z"></path>
    <path class="fil7" d="M19058.6 8172.4l2339.9 0c28.2,0 51.8,19.7 57.9,46.1l531.5 1594.6c10.2,31 -6.6,64.5 -37.6,74.7 -6.2,2.1 -12.4,3 -18.6,3l0 0.3 -2339.8 0c-28.2,0 -51.8,-19.7 -57.9,-46.1l-531.6 -1594.7c-10.2,-31 6.6,-64.5 37.6,-74.7 6.1,-2 12.4,-3 18.6,-3l0 -0.2z"></path>
    <path class="fil3" d="M22884.9 7886.7l-394.1 1182.5c-5.7,17.2 -19.1,31.5 -37.6,37.6 -31,10.2 -64.4,-6.6 -74.7,-37.6l-394.1 -1182.5c-3.9,-11.6 -4.1,-24.6 0,-37.1l394.1 -1182.6c5.7,-17.2 19.2,-31.5 37.6,-37.6 31,-10.2 64.5,6.6 74.7,37.6l394.1 1182.6c3.9,11.6 4.2,24.6 0,37.1z"></path>
   </g>
   <g>
    <path class="fil8" d="M25749.4 7563.9l-2339.9 0 0 -0.2c-6.1,0 -12.4,-1 -18.5,-3 -31,-10.3 -47.8,-43.7 -37.6,-74.7l531.6 -1594.8c6,-26.4 29.6,-46.1 57.9,-46.1l2339.8 0 0 0.3c6.2,0 12.4,0.9 18.6,3 31,10.2 47.8,43.7 37.6,74.6l-531.6 1594.8c-6,26.4 -29.7,46.1 -57.9,46.1z"></path>
    <path class="fil9" d="M25805.5 8213.2l531.5 1594.4c3.3,7.4 5.1,15.5 5.1,24.1 0,32.8 -26.6,59.4 -59.4,59.4l-2339.8 0 0 -0.3c-24.8,0 -48,-15.7 -56.1,-40.5l-531.5 -1594.5c-3.3,-7.3 -5.1,-15.5 -5.1,-24.1 0,-32.8 26.6,-59.3 59.4,-59.3l2339.8 0 0 0.2c24.8,0 47.9,15.7 56.1,40.6z"></path>
    <path class="fil3" d="M27236 7886.7l-394.2 1182.5c-5.7,17.2 -19.2,31.5 -37.6,37.6 -31,10.2 -64.5,-6.6 -74.7,-37.6l-394.1 -1182.5c-3.9,-11.6 -4.2,-24.6 0,-37.1l394.1 -1182.6c5.7,-17.2 19.1,-31.5 37.6,-37.6 31,-10.2 64.4,6.6 74.7,37.6l394.2 1182.6c3.8,11.6 4.1,24.6 0,37.1z"></path>
   </g>
   <g>
    <path class="fil3" d="M31587.1 7886.7l-394.2 1182.5c-5.7,17.2 -19.1,31.5 -37.6,37.6 -31,10.2 -64.4,-6.6 -74.7,-37.6l-394.1 -1182.5c-3.9,-11.6 -4.2,-24.6 0,-37.1l394.1 -1182.6c5.7,-17.2 19.2,-31.5 37.6,-37.6 31,-10.2 64.4,6.6 74.7,37.6l394.2 1182.6c3.8,11.6 4.1,24.6 0,37.1z"></path>
    <path class="fil10" d="M30100.5 7563.9l-2339.9 0 0 -0.2c-6.1,0 -12.4,-1 -18.5,-3 -31,-10.3 -47.8,-43.7 -37.6,-74.7l531.6 -1594.8c6.1,-26.4 29.7,-46.1 57.9,-46.1l2339.9 0 0 0.3c6.1,0 12.4,0.9 18.5,3 31,10.2 47.8,43.7 37.6,74.6l-531.6 1594.8c-6,26.4 -29.7,46.1 -57.9,46.1z"></path>
    <path class="fil11" d="M30156.6 8213.2l531.5 1594.4c3.3,7.4 5.1,15.5 5.1,24.1 0,32.8 -26.6,59.4 -59.4,59.4l-2339.8 0 0 -0.3c-24.8,0 -47.9,-15.7 -56.1,-40.5l-531.5 -1594.5c-3.3,-7.3 -5.1,-15.5 -5.1,-24.1 0,-32.8 26.6,-59.3 59.3,-59.3l2339.9 0 0 0.2c24.8,0 47.9,15.7 56.1,40.6z"></path>
   </g>
   <g>
    <path class="fil12" d="M17047.9 12977.2l-2339.9 0 0 -0.3c-6.2,0 -12.4,-0.9 -18.6,-3 -31,-10.2 -47.8,-43.7 -37.6,-74.7l531.6 -1594.8c6.1,-26.4 29.7,-46.1 57.9,-46.1l2340 0 0 0.3c6.2,0 12.4,0.9 18.6,3 31,10.2 47.8,43.6 37.5,74.6l-531.5 1594.8c-6.1,26.5 -29.7,46.2 -58,46.2z"></path>
    <path class="fil3" d="M18534.3 13299.9l-394.2 1182.8c-5.7,17.1 -19.1,31.4 -37.6,37.5 -30.9,10.3 -64.4,-6.5 -74.6,-37.5l-394.3 -1182.8c-3.8,-11.7 -4.1,-24.6 0,-37.1l394.3 -1182.8c5.6,-17.2 19.1,-31.5 37.5,-37.6 31,-10.2 64.5,6.6 74.7,37.6l394.2 1182.8c3.9,11.6 4.2,24.5 0,37.1z"></path>
    <path class="fil13" d="M15185.2 15263.6l-531.5 -1594.6c-3.3,-7.4 -5.1,-15.6 -5.1,-24.1 0,-32.8 26.6,-59.4 59.4,-59.4l2339.9 0 0 0.2c24.8,0 47.9,15.7 56.1,40.6l531.6 1594.6c3.3,7.4 5.1,15.5 5.1,24.1 0,32.8 -26.6,59.4 -59.4,59.4l-2340 0 0 -0.3c-24.8,0 -47.9,-15.7 -56.1,-40.5z"></path>
   </g>
   <g>
    <path class="fil14" d="M21398.9 12977.2l-2340.1 0 0 -0.3c-6.1,0 -12.4,-0.9 -18.5,-2.9 -31,-10.3 -47.8,-43.7 -37.6,-74.7l531.6 -1594.8c6.1,-26.4 29.7,-46.1 57.9,-46.1l2340 0 0 0.2c6.2,0 12.4,1 18.6,3 31,10.3 47.8,43.7 37.6,74.7l-531.6 1594.8c-6.1,26.4 -29.7,46.1 -57.9,46.1z"></path>
    <path class="fil15" d="M21455 13626.4l531.5 1594.5c3.3,7.4 5.1,15.6 5.1,24.1 0,32.8 -26.6,59.4 -59.4,59.4l-2340 0 0 -0.2c-24.8,0 -47.9,-15.8 -56.1,-40.6l-531.5 -1594.6c-3.3,-7.3 -5.1,-15.5 -5.1,-24.1 0,-32.8 26.6,-59.4 59.3,-59.4l2340.1 0 0 0.3c24.8,0 47.9,15.7 56.1,40.6z"></path>
    <path class="fil3" d="M22885.2 13299.9l-394.2 1182.8c-5.7,17.1 -19.1,31.4 -37.6,37.5 -30.9,10.3 -64.4,-6.5 -74.6,-37.5l-394.3 -1182.8c-3.8,-11.7 -4.1,-24.6 0,-37.1l394.3 -1182.8c5.6,-17.1 19.1,-31.4 37.5,-37.5 31,-10.3 64.5,6.6 74.7,37.5l394.2 1182.8c3.9,11.6 4.2,24.5 0,37.1z"></path>
   </g>
   <g>
    <path class="fil16" d="M26339.2 11336.2l-531.6 1594.8c-6,26.5 -29.7,46.2 -57.9,46.2l-2340 0 0 -0.3c-6.1,0 -12.4,-0.9 -18.5,-3 -31,-10.2 -47.8,-43.7 -37.6,-74.7l531.6 -1594.8c6,-26.4 29.6,-46.1 57.9,-46.1l2340 0 0 0.3c6.1,0 12.4,0.9 18.5,3 31,10.2 47.8,43.6 37.6,74.6z"></path>
    <path class="fil17" d="M25805.8 13626.4l531.6 1594.5c3.2,7.4 5.1,15.5 5.1,24.1 0,32.8 -26.6,59.4 -59.4,59.4l-2340 0 0 -0.3c-24.8,0 -48,-15.7 -56.1,-40.5l-531.5 -1594.6c-3.3,-7.3 -5.1,-15.5 -5.1,-24.1 0,-32.8 26.6,-59.4 59.3,-59.4l2340 0 0 0.3c24.8,0 47.9,15.7 56.1,40.6z"></path>
    <path class="fil3" d="M27236.1 13299.9l-394.2 1182.8c-5.7,17.1 -19.2,31.4 -37.6,37.5 -31,10.3 -64.4,-6.5 -74.7,-37.5l-394.2 -1182.8c-3.9,-11.7 -4.2,-24.6 0,-37.1l394.2 -1182.8c5.7,-17.2 19.1,-31.5 37.6,-37.6 31,-10.2 64.4,6.6 74.7,37.6l394.2 1182.8c3.9,11.6 4.2,24.5 0,37.1z"></path>
   </g>
   <g>
    <path class="fil18" d="M30100.6 12977.2l-2339.9 0 0 -0.3c-6.2,0 -12.4,-0.9 -18.6,-2.9 -31,-10.3 -47.8,-43.7 -37.5,-74.7l531.6 -1594.8c6,-26.4 29.6,-46.1 57.9,-46.1l2339.9 0 0 0.2c6.1,0 12.4,1 18.5,3 31,10.3 47.8,43.7 37.6,74.7l-531.6 1594.8c-6,26.4 -29.6,46.1 -57.9,46.1z"></path>
    <path class="fil3" d="M30156.8 13626.4l531.5 1594.5c3.2,7.4 5.1,15.6 5.1,24.1 0,32.8 -26.6,59.4 -59.4,59.4l-2339.9 0 0 -0.2c-24.8,0 -48,-15.8 -56.2,-40.6l-531.5 -1594.6c-3.3,-7.3 -5.1,-15.5 -5.1,-24.1 0,-32.8 26.6,-59.4 59.4,-59.4l2339.9 0 0 0.3c24.8,0 48,15.7 56.2,40.6z"></path>
    <path class="fil3" d="M31587.1 13299.9l-394.3 1182.8c-5.7,17.1 -19.1,31.4 -37.6,37.5 -31,10.3 -64.4,-6.5 -74.7,-37.5l-394.2 -1182.8c-3.9,-11.7 -4.1,-24.6 0,-37.1l394.2 -1182.8c5.7,-17.2 19.2,-31.5 37.6,-37.6 31,-10.2 64.5,6.6 74.7,37.6l394.3 1182.8c3.8,11.6 4.1,24.5 0,37.1z"></path>
   </g>
  </g>
 </g>
</svg>
