<?xml version="1.0" encoding="UTF-8"?>
<svg width="14px" height="10px" viewBox="0 0 14 10" version="1.1" xmlns="http://www.w3.org/2000/svg" xmlns:xlink="http://www.w3.org/1999/xlink">
    <title>Fill 1 Copy 13</title>
    <g id="TFG_design" stroke="none" stroke-width="1" fill="none" fill-rule="evenodd">
        <g id="ALU_dashboard" transform="translate(-442.000000, -799.000000)" fill="#02A8C0">
            <g id="Group-9" transform="translate(346.000000, 795.000000)">
                <path d="M104.3,4.2925 L104.3,4.2925 C103.91,4.6825 103.91,5.3025 104.3,5.6925 L106.2,7.5925 L97,7.5925 C96.45,7.5925 96,8.0425 96,8.5925 C96,9.1425 96.45,9.5925 97,9.5925 L106.2,9.5925 L104.3,11.4925 C103.91,11.8825 103.91,12.5025 104.3,12.8925 C104.69,13.2825 105.31,13.2825 105.7,12.8925 L109.29,9.3025 C109.68,8.9125 109.68,8.2825 109.29,7.8925 L105.7,4.2925 C105.31,3.9025 104.69,3.9025 104.3,4.2925" id="Fill-1-Copy-13"></path>
            </g>
        </g>
    </g>
</svg>