<?xml version="1.0" encoding="UTF-8"?>
<svg width="51px" height="51px" viewBox="0 0 51 51" version="1.1" xmlns="http://www.w3.org/2000/svg" xmlns:xlink="http://www.w3.org/1999/xlink">
    <title>Combined Shape</title>
    <g id="TFG_design" stroke="none" stroke-width="1" fill="none" fill-rule="evenodd">
        <g id="ALU_dashboard" transform="translate(-122.000000, -21.000000)" fill="#002D59">
            <path d="M155,49 L153.07542,71.2063284 C151.044205,71.7354428 148.944719,72 146.831336,72 C146.664888,72 146.499345,71.997864 146.331387,71.9945075 C137.510825,71.8211874 129.388984,66.9480862 125,59.2356484 C128.265532,57.8268126 139.948041,52.9775124 155,49 Z M172.978203,45 C172.999658,45.5278095 173.005481,46.0568817 172.994754,46.5793248 C172.851925,54.0942968 169.627242,61.1174463 164.111782,66 C163.878523,63.6823376 163.367747,58.7030422 162.786337,53.6012621 L162.676545,52.6438629 C162.455508,50.7286733 162.226357,48.8185761 162,47.0474716 C162.485878,46.947534 162.956392,46.8517155 163.411611,46.7598835 L164.301681,46.5814956 C168.795239,45.686881 171.660927,45.2084949 172.978203,45 Z M150.080053,27 C151.493891,27 153.356253,27.6000882 154.199844,30.4548855 C155.286575,34.1233201 154.980309,40.9731744 154.894228,42.5568173 C153.097105,43.2380234 143.591383,46.75344 130,50 C130.29618,49.5521383 130.685079,48.9666986 131.169176,48.2410477 L131.471078,47.7888107 C132.567857,46.146945 134.086649,43.8844247 136.050414,40.9768616 L136.080316,40.9323082 C138.766939,36.9541507 141.307678,33.1956876 144.381815,29.8455794 C145.990164,28.0917119 148.174197,27 150.080053,27 Z M147.454736,21 C147.622958,21 147.791792,21.0030422 147.963072,21.0039549 C158.132243,21.2026114 167.121413,27.3220244 171,36.6381956 C169.664012,37.2548523 166.074155,38.8693552 161.082245,40.8032905 C160.397428,36.3303236 159.528485,31.0590798 158.70695,28.2921864 C157.73738,25.0330628 155.379826,23.1666646 152.238051,23.1666646 C150.450311,23.1666646 148.486701,23.7519866 146.404113,24.9086362 C143.989975,26.2505567 139.676764,29.6599657 133.5804,35.0507685 C129.112689,39.0017161 124.89266,43.1173291 122.569513,45.4309966 L122.179573,45.8201852 C122.117976,45.881799 122.058105,45.9417539 122,46 L122.002141,45.8366331 L122.002141,45.8366331 C122.133048,39.160495 124.846622,32.9078331 129.642171,28.2368181 C134.430992,23.5706706 140.757055,21 147.454736,21 Z" id="Combined-Shape"></path>
        </g>
    </g>
</svg>