<?xml version="1.0" encoding="UTF-8"?>
<svg
  width="100%"
  height="100%"
  viewBox="0 0 24 24"
  version="1.1"
  xmlns="http://www.w3.org/2000/svg"
>
  <g
    id="TFG_design"
    stroke="none"
    stroke-width="1"
    fill="none"
    fill-rule="evenodd"
  >
    <g
      id="ALU_benefits_detail"
      transform="translate(-56.000000, -539.000000)"
      fill="#002D59"
    >
      <g id="Group-11" transform="translate(56.000000, 539.000000)">
        <path
          d="M15.5294118,13.1764706 L14.6237272,23.6265075 C13.6678612,23.8755025 12.6798676,24 11.6853347,24 C11.607006,24 11.5291038,23.9989948 11.4500643,23.9974153 C7.29921162,23.9158529 3.47716894,21.6226288 1.41176471,17.9932463 C2.94848573,17.3302648 8.44613717,15.0482411 15.5294118,13.1764706 Z M23.9897424,11.2941176 C23.9998388,11.5424986 24.0025793,11.7914738 23.9975311,12.0373293 C23.9303175,15.5737867 22.41282,18.8787983 19.8173093,21.1764706 C19.7045998,20.0565917 19.4542048,17.616181 19.1715145,15.1487448 L19.0858439,14.4089967 C18.9994153,13.6710249 18.9110286,12.9422623 18.8235294,12.2576337 C21.5673138,11.6932801 23.269865,11.4080579 23.9897424,11.2941176 Z M13.2141427,2.82352941 C13.8794779,2.82352941 14.755884,3.10592385 15.1528678,4.44935789 C15.6642705,6.17568003 15.5201453,9.39914092 15.4796368,10.1443846 C14.6339319,10.4649522 10.1606508,12.1192659 3.76470588,13.6470588 C4.22465561,12.9515559 5.15976353,11.5510067 6.61195956,9.40087606 L6.62603095,9.37990975 C7.89032416,7.50783565 9.08596603,5.73914711 10.5326188,4.1626256 C11.2894891,3.33727617 12.3172692,2.82352941 13.2141427,2.82352941 Z M12.2179164,0.001861119 C17.0034085,0.0953465583 21.2336062,2.97507031 23.0588235,7.35915087 C22.4301232,7.64934227 20.7407788,8.40910832 18.3916445,9.31919551 C18.069378,7.21426992 17.6604637,4.73368461 17.273859,3.43161712 C16.8175907,1.8979119 15.7081533,1.01960689 14.2296712,1.01960689 C13.3883814,1.01960689 12.4643301,1.2950525 11.4842887,1.83935823 C10.3482237,2.47085022 8.31847725,4.07527797 5.44960005,6.61212634 C3.35230094,8.4668388 1.37098703,10.3986614 0.276060858,11.4889185 L0,11.7647059 L0,11.7647059 C0,11.7395092 0.00100753263,11.7133104 0.00100753263,11.6878274 C0.0626109562,8.54611531 1.3395866,5.60368616 3.59631575,3.40556145 C5.84987837,1.20972735 8.82684942,0 11.9786994,0 C12.0578626,0 12.1373138,0.00143163 12.2179164,0.001861119 Z"
          id="Combined-Shape"
        />
      </g>
    </g>
  </g>
</svg>
