<?xml version="1.0" encoding="utf-8"?>
<!-- Generator: Adobe Illustrator 25.2.0, SVG Export Plug-In . SVG Version: 6.00 Build 0)  -->
<svg version="1.1" id="Laag_1" xmlns="http://www.w3.org/2000/svg" xmlns:xlink="http://www.w3.org/1999/xlink" x="0px" y="0px"
	 viewBox="0 0 31.4 32" style="enable-background:new 0 0 31.4 32;" xml:space="preserve">
<style type="text/css">
	.st0{fill:#4285F4;}
	.st1{fill:#34A853;}
	.st2{fill:#FBBC05;}
	.st3{fill:#EB4335;}
</style>
<g>
	<path class="st0" d="M31.4,16.4c0-1.3-0.1-2.3-0.3-3.3H16V19h8.8c-0.2,1.5-1.1,3.7-3.3,5.2l0,0.2l4.7,3.7l0.3,0
		C29.6,25.3,31.4,21.2,31.4,16.4"/>
	<path class="st1" d="M16,32c4.3,0,7.9-1.4,10.6-3.9l-5-3.9c-1.4,0.9-3.2,1.6-5.5,1.6c-4.2,0-7.8-2.8-9.1-6.6l-0.2,0L1.8,23
		l-0.1,0.2C4.3,28.4,9.7,32,16,32"/>
	<path class="st2" d="M6.9,19.2c-0.3-1-0.5-2.1-0.5-3.2s0.2-2.2,0.5-3.2l0-0.2l-5-3.9L1.7,8.8C0.6,11,0,13.4,0,16s0.6,5,1.7,7.2
		L6.9,19.2"/>
	<path class="st3" d="M16,6.2c3,0,5,1.3,6.2,2.4l4.5-4.4C23.9,1.6,20.3,0,16,0C9.7,0,4.3,3.6,1.7,8.8l5.2,4C8.2,9,11.8,6.2,16,6.2"
		/>
</g>
</svg>
