<?xml version="1.0" encoding="UTF-8"?>
<svg width="63px" height="50px" viewBox="0 0 63 50" version="1.1" xmlns="http://www.w3.org/2000/svg" xmlns:xlink="http://www.w3.org/1999/xlink">
    <title>colored logo</title>
    <g id="TFG_design" stroke="none" stroke-width="1" fill="none" fill-rule="evenodd">
        <g id="ALU_dashboard" transform="translate(-36.000000, -21.000000)">
            <g id="colored-logo" transform="translate(36.000000, 21.000000)">
                <g id="Group-4-Copy" transform="translate(44.850913, 14.793093)" fill="#F15F2B">
                    <path d="M2.47380874,2.57044815 C4.03417205,0.985219045 6.20297451,0 8.6034362,0 C11.0038979,0 13.1724194,0.985219045 14.7329232,2.57044815 L2.47380874,2.57044815 Z" id="Fill-1"></path>
                    <path d="M0.382638117,6.06154859 L7.78983324,6.06154859 C7.9322847,6.19430661 8.12250095,6.2759282 8.33210409,6.2759282 C8.77182113,6.2759282 9.12851173,5.91951858 9.12851173,5.47980153 C9.12851173,4.7832785 8.29684244,4.42546403 7.78983324,4.89805448 L0.847501916,4.89805448 C1.04207319,4.49247522 1.26094832,4.10164685 1.51339929,3.73427941 L15.6933607,3.73427941 C15.9459522,4.10164685 16.1648273,4.49247522 16.3589771,4.89805448 L9.9420585,4.89805448 L9.9420585,17.092546 C9.56134502,17.152252 9.17402877,17.1903233 8.77884537,17.1981904 L8.77884537,7.22518317 L0.120774677,7.22518317 C0.184554721,6.82859493 0.266597773,6.43804752 0.382638117,6.06154859" id="Fill-3"></path>
                    <path d="M8.37270416,5.85683431 C8.13373973,5.88226204 7.95082868,5.69527693 7.95082868,5.47991392 C7.95082868,5.26384849 8.1340207,5.07728484 8.37270416,5.10243159 C8.82506483,5.15061784 8.82380046,5.80878855 8.37270416,5.85683431" id="Fill-5"></path>
                    <path d="M11.105679,6.06154859 L16.8242483,6.06154859 C16.9404292,6.43804752 17.0223317,6.82859493 17.0861118,7.22518317 L13.0730265,7.22518317 C12.5574477,6.74458509 11.7342075,7.1240342 11.7342075,7.80707071 C11.7342075,8.49966017 12.5648934,8.86281306 13.0730265,8.38909873 L17.1961113,8.38909873 C17.1977971,8.46102688 17.2067881,8.53126922 17.2067881,8.60361883 C17.2067881,12.4845081 14.63634,15.7625775 11.105679,16.8346161 L11.105679,6.06154859 Z" id="Fill-7"></path>
                    <path d="M7.61426953,8.38904253 L7.61426953,17.1460144 C7.21711935,17.1004974 6.83022455,17.0226689 6.45119689,16.9246106 L6.45119689,10.4318302 C6.58367394,10.2893788 6.66543602,10.0991625 6.66543602,9.88941889 C6.66543602,9.18039272 5.78614242,8.81176093 5.28742182,9.34700755 C5.0015355,9.65326415 5.00111404,10.1248712 5.28742182,10.4318302 L5.28742182,16.5429137 C2.18228898,15.2444138 0,12.1796001 0,8.60356264 C0,8.53121303 0.00927198873,8.46097069 0.0109578049,8.38904253 L7.61426953,8.38904253 Z" id="Fill-9"></path>
                    <path d="M12.1493257,7.80702856 C12.1493257,7.30254808 12.912017,7.30353148 12.912017,7.80702856 C12.912017,8.31150904 12.1493257,8.3109471 12.1493257,7.80702856" id="Fill-11"></path>
                    <path d="M5.48769677,9.8893627 C5.48769677,9.38474173 6.25052857,9.38558464 6.25052857,9.8893627 C6.25052857,10.3935622 5.48769677,10.3928598 5.48769677,9.8893627" id="Fill-13"></path>
                </g>
                <path d="M1.58230702,17.7094001 C1.58230702,17.5721466 1.61967595,17.4645353 1.69483525,17.3862854 C1.76985407,17.3077544 1.85962378,17.265609 1.96400389,17.2590063 L11.3341914,17.2590063 C11.4843695,17.2590063 11.5968978,17.3012921 11.6720571,17.3857234 C11.7470759,17.4704357 11.7845853,17.5843688 11.7845853,17.7273822 L11.7845853,20.1486356 C11.7845853,20.2593375 11.7455306,20.365263 11.6671401,20.4659905 C11.5887496,20.566718 11.4745356,20.6172925 11.324498,20.6172925 L5.37145975,20.6172925 L5.37145975,23.6524639 L9.76764677,23.6524639 C9.89155426,23.6524639 9.99607486,23.6867422 10.0809276,23.7551582 C10.1656399,23.8237148 10.2082067,23.9332928 10.2082067,24.08319 L10.2082067,26.4233837 C10.2082067,26.5343666 10.1706973,26.640573 10.0956785,26.7415815 C10.0205192,26.842871 9.91782489,26.8934455 9.78717414,26.8934455 L5.37145975,26.8934455 L5.37145975,31.3777164 C5.37145975,31.6582643 5.22114115,31.798749 4.92106587,31.798749 L1.93478308,31.798749 C1.69975221,31.7661565 1.58230702,31.6291839 1.58230702,31.3874098 L1.58230702,17.7094001 Z" id="Fill-15-Copy" fill="#F29323"></path>
                <path d="M16.376622,24.5335698 C16.376622,25.0755597 16.4677966,25.5813045 16.6502862,26.0515067 C16.8329162,26.5212875 17.0887388,26.9310813 17.4180349,27.2801857 C17.7471905,27.6292902 18.1367545,27.9035162 18.586446,28.1024426 C19.0362779,28.3016498 19.5316269,28.4013939 20.0729144,28.4013939 C20.6137804,28.4013939 21.1108152,28.3016498 21.5640187,28.1024426 C22.0169413,27.9035162 22.4081912,27.6292902 22.7373468,27.2801857 C23.0666428,26.9310813 23.322325,26.5212875 23.504955,26.0515067 C23.6874446,25.5813045 23.7787597,25.0755597 23.7787597,24.5335698 C23.7787597,23.9987446 23.6874446,23.4944046 23.504955,23.0208308 C23.322325,22.5478189 23.0666428,22.1349344 22.7373468,21.7823179 C22.4081912,21.4298418 22.0169413,21.1523846 21.5640187,20.9500866 C21.1108152,20.7480697 20.6137804,20.6466397 20.0729144,20.6466397 C19.5316269,20.6466397 19.0362779,20.7480697 18.586446,20.9500866 C18.1367545,21.1523846 17.7471905,21.4298418 17.4180349,21.7823179 C17.0887388,22.1349344 16.8329162,22.5478189 16.6502862,23.0208308 C16.4677966,23.4944046 16.376622,23.9987446 16.376622,24.5335698 M12.5874693,24.5435442 C12.5874693,23.8516572 12.6755532,23.1875861 12.8520019,22.55105 C13.0281697,21.9145139 13.2797778,21.3174541 13.6062642,20.759168 C13.932891,20.2011628 14.3231575,19.6935917 14.7770635,19.2367355 C15.2311099,18.7797389 15.7357309,18.3898939 16.2907859,18.0667791 C16.8459813,17.7436644 17.4420578,17.4921968 18.0788748,17.3126574 C18.7158324,17.1333989 19.3804654,17.0434887 20.0729144,17.0434887 C20.7584796,17.0434887 21.4215673,17.1333989 22.0616155,17.3126574 C22.7016636,17.4921968 23.299426,17.7436644 23.8547619,18.0667791 C24.4098168,18.3898939 24.9159831,18.7797389 25.3732608,19.2367355 C25.8303979,19.6935917 26.2206643,20.2011628 26.5440601,20.759168 C26.8673153,21.3174541 27.1189234,21.9145139 27.2984628,22.55105 C27.4781427,23.1875861 27.5679124,23.8516572 27.5679124,24.5435442 C27.5679124,25.2354312 27.4781427,25.8996428 27.2984628,26.5360384 C27.1189234,27.1722935 26.8673153,27.7665437 26.5440601,28.317946 C26.2206643,28.8697699 25.8303979,29.3722836 25.3732608,29.8259086 C24.9159831,30.2796741 24.4098168,30.6695191 23.8547619,30.995865 C23.299426,31.3223514 22.7016636,31.573538 22.0616155,31.7495653 C21.4215673,31.926014 20.7584796,32.0142384 20.0729144,32.0142384 C19.3804654,32.0142384 18.7158324,31.926014 18.0788748,31.7495653 C17.4420578,31.573538 16.8459813,31.3223514 16.2907859,30.995865 C15.7357309,30.6695191 15.2311099,30.2796741 14.7770635,29.8259086 C14.3231575,29.3722836 13.932891,28.8697699 13.6062642,28.317946 C13.2797778,27.7665437 13.0281697,27.1722935 12.8520019,26.5360384 C12.6755532,25.8996428 12.5874693,25.2354312 12.5874693,24.5435442" id="Fill-17-Copy" fill="#F29323"></path>
                <path d="M37.3550444,22.0566704 C37.3550444,21.8605538 37.3190803,21.6647181 37.2472926,21.469023 C37.175505,21.2731873 37.074356,21.0936479 36.9438457,20.9306857 C36.813195,20.7674425 36.6564141,20.6304699 36.473784,20.5193466 C36.2910134,20.4083637 36.088575,20.3367165 35.8668902,20.3038431 C35.6839792,20.291059 35.5125878,20.2793987 35.3528568,20.2697053 C35.1928447,20.2598714 35.0180818,20.2550949 34.8288489,20.2550949 L33.4776673,20.2550949 L33.4776673,23.8482715 L35.2792428,23.8482715 C35.396969,23.8482715 35.5012086,23.8451808 35.5926641,23.838578 C35.6839792,23.8319753 35.7851281,23.8222818 35.8962515,23.8092168 C36.1245391,23.7832271 36.3302087,23.7160754 36.5129792,23.6084641 C36.6957498,23.5005719 36.8491591,23.3671115 36.973207,23.2069589 C37.0971145,23.0470874 37.1918012,22.867548 37.2571266,22.6686217 C37.3223115,22.4694144 37.3550444,22.2655711 37.3550444,22.0566704 L37.3550444,22.0566704 Z M29.688655,17.709372 C29.688655,17.5721185 29.7244786,17.4631024 29.7962663,17.3811998 C29.868054,17.2998592 29.9756652,17.2589782 30.1193811,17.2589782 L36.4445632,17.2589782 C37.1167824,17.2589782 37.7465752,17.3845715 38.3342226,17.6357581 C38.921589,17.8872256 39.4340771,18.2283224 39.8712655,18.6590485 C40.3085943,19.089634 40.6529222,19.5941145 40.9043898,20.1717875 C41.1555764,20.7494605 41.2814507,21.3647834 41.2814507,22.0173347 C41.2814507,22.4614068 41.2209018,22.8838442 41.1002254,23.2853494 C40.9794086,23.6867141 40.8113889,24.0620892 40.5958854,24.4114746 C40.3805224,24.7604385 40.1242784,25.0769505 39.8274342,25.3610105 C39.5303091,25.6450705 39.2056491,25.8882495 38.8530325,26.0905474 L41.3693941,30.8293766 C41.4150516,30.9206916 41.4737742,31.0285839 41.5457023,31.1524913 C41.6173495,31.2766798 41.6533136,31.3842911 41.6533136,31.4756061 C41.6533136,31.5801267 41.6191758,31.6600625 41.5506193,31.7154134 C41.4820628,31.7710454 41.3890619,31.7987209 41.2714762,31.7987209 L37.91319,31.7987209 C37.8022071,31.7987209 37.702744,31.7661284 37.6145196,31.700803 C37.5264357,31.6357586 37.4692584,31.5475343 37.4432688,31.4365514 L35.0640203,26.9619739 L33.4776673,26.9619739 L33.4776673,31.3776883 C33.4776673,31.6582362 33.3276297,31.7987209 33.0272734,31.7987209 L30.1193811,31.7987209 C29.9887303,31.7987209 29.8843502,31.7644426 29.8061002,31.6960266 C29.7278503,31.62747 29.688655,31.5212636 29.688655,31.3776883 L29.688655,17.709372 Z" id="Fill-19-Copy" fill="#F29323"></path>
                <path d="M10.8966378,39.10738 C10.5562435,38.8671512 10.1922477,38.6804471 9.80521237,38.5467057 C9.41817709,38.4133857 9.00444971,38.346515 8.56388976,38.346515 C8.00981819,38.346515 7.50252802,38.4515975 7.04215973,38.6617626 C6.58165096,38.8722087 6.18618659,39.1572521 5.85562614,39.5177358 C5.52520618,39.8782195 5.26657389,40.3005164 5.07972927,40.7843456 C4.89274416,41.2683153 4.79946234,41.7838941 4.79946234,42.3312224 C4.79946234,42.8784102 4.89274416,43.3923032 5.07972927,43.8730417 C5.26657389,44.3533589 5.52520618,44.7725651 5.85562614,45.1293962 C6.18618659,45.4863678 6.58165096,45.7686015 7.04215973,45.9752545 C7.50252802,46.1824694 8.00981819,46.2857256 8.56388976,46.2857256 C8.7973753,46.2857256 9.0293155,46.2691484 9.25971037,46.2355726 C9.48996476,46.2022777 9.73525101,46.1591489 9.99556911,46.1053433 L9.99556911,43.4824943 C9.99556911,43.3559177 10.0322356,43.2505541 10.1057091,43.1671062 C10.1790421,43.0837988 10.2891821,43.0417939 10.4361291,43.0417939 L13.1592841,43.0417939 C13.2593091,43.0417939 13.365937,43.082113 13.4795891,43.1620488 C13.5931007,43.2419846 13.6498566,43.3491744 13.6498566,43.4824943 L13.6498566,48.3279514 C13.6498566,48.5080527 13.5529221,48.6551402 13.3594747,48.7683708 C13.045632,48.982048 12.6986348,49.1656615 12.3182023,49.3190708 C11.9377698,49.4726205 11.5406196,49.5996187 11.1268922,49.6996438 C10.7128839,49.7998093 10.2940991,49.8748282 9.87039727,49.9247002 C9.44641451,49.9748532 9.03437295,50 8.63385113,50 C7.92651078,50 7.24726736,49.9098088 6.59654233,49.7294265 C5.94581731,49.5494656 5.33667574,49.2925192 4.76939862,48.9587276 C4.201981,48.6250765 3.68640224,48.2263809 3.22266231,47.7623601 C2.75864142,47.2986201 2.35980542,46.7847272 2.0262948,46.2206812 C1.69236272,45.6567757 1.43555673,45.0491795 1.25531489,44.3985949 C1.07507305,43.7478699 0.985022367,43.0686265 0.985022367,42.3612861 C0.985022367,41.6538053 1.07507305,40.9747024 1.25531489,40.3238369 C1.43555673,39.6729713 1.69236272,39.0624249 2.0262948,38.4916357 C2.35980542,37.9209869 2.75864142,37.4020365 3.22266231,36.9347845 C3.68640224,36.4675324 4.201981,36.0689774 4.76939862,35.7385575 C5.33667574,35.4081375 5.94581731,35.1510505 6.59654233,34.9674371 C7.24726736,34.784245 7.92651078,34.6922276 8.63385113,34.6922276 C9.43489476,34.6922276 10.1908428,34.8040534 10.9015548,35.0275645 C11.6124073,35.2514971 12.2815358,35.5733475 12.9089404,35.9936776 C13.0223115,36.0604078 13.109131,36.1489132 13.1692585,36.2589127 C13.2292454,36.3691932 13.2158994,36.494365 13.1292203,36.6345687 L11.5073247,38.9771507 C11.4205052,39.0840596 11.3336857,39.1558472 11.2470066,39.1926542 C11.1601871,39.2290398 11.0433038,39.2008023 10.8966378,39.10738" id="Fill-21-Copy" fill="#36AE72"></path>
                <path d="M19.131962,42.3510167 C19.131962,42.9052288 19.2252439,43.4223529 19.4118075,43.9030914 C19.5985116,44.3834085 19.8600941,44.8026148 20.1968359,45.1594459 C20.5334372,45.5164175 20.9318517,45.7969654 21.3916581,46.0003872 C21.8516049,46.20409 22.3580522,46.3059413 22.9114213,46.3059413 C23.4645095,46.3059413 23.9727831,46.20409 24.436242,46.0003872 C24.89942,45.7969654 25.2993799,45.5164175 25.6359812,45.1594459 C25.9727229,44.8026148 26.2341649,44.3834085 26.4208691,43.9030914 C26.6074327,43.4223529 26.700855,42.9052288 26.700855,42.3510167 C26.700855,41.8041099 26.6074327,41.2883906 26.4208691,40.8041399 C26.2341649,40.3205917 25.9727229,39.8982947 25.6359812,39.537811 C25.2993799,39.1774678 24.89942,38.8936888 24.436242,38.6867549 C23.9727831,38.4802424 23.4645095,38.3765647 22.9114213,38.3765647 C22.3580522,38.3765647 21.8516049,38.4802424 21.3916581,38.6867549 C20.9318517,38.8936888 20.5334372,39.1774678 20.1968359,39.537811 C19.8600941,39.8982947 19.5985116,40.3205917 19.4118075,40.8041399 C19.2252439,41.2883906 19.131962,41.8041099 19.131962,42.3510167 M15.2575351,42.3612721 C15.2575351,41.6537912 15.3475858,40.9746883 15.5278276,40.3238228 C15.7080695,39.6729573 15.9654374,39.0624109 16.299229,38.4916216 C16.6331611,37.9209729 17.032278,37.4020225 17.4964394,36.9347704 C17.9606008,36.4675184 18.476601,36.0689634 19.0442996,35.7385434 C19.6118577,35.4081234 20.2214207,35.1510365 20.8725672,34.967423 C21.5238542,34.784231 22.2033785,34.6922135 22.9114213,34.6922135 C23.6124399,34.6922135 24.2905594,34.784231 24.9450775,34.967423 C25.5995956,35.1510365 26.210704,35.4081234 26.778543,35.7385434 C27.3461011,36.0689634 27.8637872,36.4675184 28.3313202,36.9347704 C28.7987127,37.4020225 29.1978297,37.9209729 29.5283901,38.4916216 C29.8589506,39.0624109 30.116178,39.6729573 30.2997915,40.3238228 C30.4835455,40.9746883 30.5752819,41.6537912 30.5752819,42.3612721 C30.5752819,43.0686124 30.4835455,43.7478559 30.2997915,44.3985809 C30.116178,45.0491654 29.8589506,45.6567617 29.5283901,46.2206672 C29.1978297,46.7847131 28.7987127,47.2986061 28.3313202,47.762346 C27.8637872,48.2263669 27.3461011,48.6250624 26.778543,48.9587135 C26.210704,49.2925051 25.5995956,49.5494516 24.9450775,49.7294125 C24.2905594,49.9097948 23.6124399,49.999986 22.9114213,49.999986 C22.2033785,49.999986 21.5238542,49.9097948 20.8725672,49.7294125 C20.2214207,49.5494516 19.6118577,49.2925051 19.0442996,48.9587135 C18.476601,48.6250624 17.9606008,48.2263669 17.4964394,47.762346 C17.032278,47.2986061 16.6331611,46.7847131 16.299229,46.2206672 C15.9654374,45.6567617 15.7080695,45.0491654 15.5278276,44.3985809 C15.3475858,43.7478559 15.2575351,43.0686124 15.2575351,42.3612721" id="Fill-23-Copy" fill="#36AE72"></path>
                <path d="M35.8533053,42.3510167 C35.8533053,42.9052288 35.9465872,43.4223529 36.1331508,43.9030914 C36.319855,44.3834085 36.5814374,44.8026148 36.9181792,45.1594459 C37.2547805,45.5164175 37.653195,45.7969654 38.1130014,46.0003872 C38.5729482,46.20409 39.0793955,46.3059413 39.6327646,46.3059413 C40.1858528,46.3059413 40.6941264,46.20409 41.1575853,46.0003872 C41.6207633,45.7969654 42.0207232,45.5164175 42.3574649,45.1594459 C42.6940662,44.8026148 42.9555082,44.3834085 43.1423528,43.9030914 C43.328776,43.4223529 43.4221983,42.9052288 43.4221983,42.3510167 C43.4221983,41.8041099 43.328776,41.2883906 43.1423528,40.8041399 C42.9555082,40.3205917 42.6940662,39.8982947 42.3574649,39.537811 C42.0207232,39.1774678 41.6207633,38.8936888 41.1575853,38.6867549 C40.6941264,38.4802424 40.1858528,38.3765647 39.6327646,38.3765647 C39.0793955,38.3765647 38.5729482,38.4802424 38.1130014,38.6867549 C37.653195,38.8936888 37.2547805,39.1774678 36.9181792,39.537811 C36.5814374,39.8982947 36.319855,40.3205917 36.1331508,40.8041399 C35.9465872,41.2883906 35.8533053,41.8041099 35.8533053,42.3510167 M31.9788784,42.3612721 C31.9788784,41.6537912 32.0689291,40.9746883 32.2491709,40.3238228 C32.4294128,39.6729573 32.6867807,39.0624109 33.0205723,38.4916216 C33.3545044,37.9209729 33.7536213,37.4020225 34.2177827,36.9347704 C34.6819441,36.4675184 35.1979443,36.0689634 35.7656429,35.7385434 C36.333201,35.4081234 36.942764,35.1510365 37.5939105,34.967423 C38.2451975,34.784231 38.9247218,34.6922135 39.6327646,34.6922135 C40.3337832,34.6922135 41.0119027,34.784231 41.6664208,34.967423 C42.3210794,35.1510365 42.9321878,35.4081234 43.4998863,35.7385434 C44.0674444,36.0689634 44.585271,36.4675184 45.052804,36.9347704 C45.520056,37.4020225 45.9193135,37.9209729 46.2498739,38.4916216 C46.5802939,39.0624109 46.8376618,39.6729573 47.0212753,40.3238228 C47.2048888,40.9746883 47.2967657,41.6537912 47.2967657,42.3612721 C47.2967657,43.0686124 47.2048888,43.7478559 47.0212753,44.3985809 C46.8376618,45.0491654 46.5802939,45.6567617 46.2498739,46.2206672 C45.9193135,46.7847131 45.520056,47.2986061 45.052804,47.762346 C44.585271,48.2263669 44.0674444,48.6250624 43.4998863,48.9587135 C42.9321878,49.2925051 42.3210794,49.5494516 41.6664208,49.7294125 C41.0119027,49.9097948 40.3337832,49.999986 39.6327646,49.999986 C38.9247218,49.999986 38.2451975,49.9097948 37.5939105,49.7294125 C36.942764,49.5494516 36.333201,49.2925051 35.7656429,48.9587135 C35.1979443,48.6250624 34.6819441,48.2263669 34.2177827,47.762346 C33.7536213,47.2986061 33.3545044,46.7847131 33.0205723,46.2206672 C32.6867807,45.6567617 32.4294128,45.0491654 32.2491709,44.3985809 C32.0689291,43.7478559 31.9788784,43.0686124 31.9788784,42.3612721" id="Fill-25-Copy" fill="#36AE72"></path>
                <path d="M53.2576009,38.4965386 L53.2576009,46.1955204 L54.0986826,46.1955204 C54.2519514,46.1955204 54.40227,46.1906034 54.5490765,46.1807695 C54.695883,46.1705141 54.8426895,46.1591349 54.9897769,46.1456483 C55.4903238,46.1054697 55.9572949,45.9836695 56.3912521,45.7802477 C56.8249283,45.5765449 57.203675,45.3094835 57.5276326,44.9792041 C57.8513093,44.6487841 58.1047437,44.260063 58.2884976,43.8129003 C58.4718302,43.3657375 58.5637071,42.8783962 58.5637071,42.3510167 C58.5637071,41.7903424 58.4586246,41.2749041 58.2486,40.8041399 C58.038154,40.3337972 57.7526891,39.9269536 57.3924864,39.5827661 C57.0321432,39.2392811 56.6098462,38.9722197 56.1258765,38.7820035 C55.6420473,38.5916467 55.126328,38.4965386 54.5791402,38.4965386 L53.2576009,38.4965386 Z M62.4181852,42.3612721 C62.4181852,43.0687529 62.3279941,43.7411126 62.1480332,44.3784916 C61.9676509,45.0158706 61.7108449,45.6098398 61.3771938,46.1605397 C61.0432617,46.7110992 60.6444257,47.2102412 60.1805453,47.6572635 C59.7165244,48.1044262 59.2029124,48.4849992 58.638726,48.7984205 C58.0749609,49.1122633 57.4658194,49.3541779 56.8117227,49.5243048 C56.1574856,49.6944318 55.4800685,49.779706 54.7793309,49.779706 L49.8435422,49.779706 C49.7235683,49.779706 49.6167999,49.7531544 49.5233776,49.6997702 C49.4296744,49.6462455 49.3830334,49.5327339 49.3830334,49.3590949 L49.3830334,35.3731428 C49.3830334,35.2327986 49.4215262,35.1195679 49.4982309,35.0326079 C49.5746545,34.9459289 49.6899925,34.9023786 49.8435422,34.9023786 L54.7793309,34.9023786 C55.4800685,34.9023786 56.1559402,34.9893386 56.8068058,35.1626967 C57.4576713,35.3363358 58.0647056,35.5833078 58.628892,35.9037534 C59.192657,36.223918 59.7083763,36.6080031 60.1756283,37.0550253 C60.6428804,37.502188 61.0415759,38.002735 61.3719958,38.556666 C61.7022753,39.1108781 61.9595028,39.7080785 62.1429758,40.3489696 C62.3265892,40.9895797 62.4181852,41.6602535 62.4181852,42.3612721 L62.4181852,42.3612721 Z" id="Fill-27-Copy" fill="#36AE72"></path>
                <path d="M0,0.575762403 C0,0.459862544 0.0391952251,0.366861687 0.117866645,0.296900318 C0.196678549,0.227219918 0.294174915,0.192379718 0.410777198,0.192379718 L9.81383813,0.192379718 C9.91878019,0.192379718 10.011781,0.224410224 10.0934026,0.288330753 C10.1750242,0.352251281 10.2215247,0.447921347 10.2333254,0.575762403 L10.2333254,2.74554825 C10.2333254,2.85006885 10.1967994,2.95023443 10.1240283,3.04604498 C10.0511168,3.14199601 9.94786052,3.18990129 9.81383813,3.18990129 L6.79889646,3.18990129 L6.79889646,12.7587341 C6.79889646,12.8635357 6.76110609,12.9582224 6.68566581,13.0430751 C6.60994457,13.1275064 6.51118384,13.1697923 6.38924314,13.1697923 L3.82652165,13.1697923 C3.72762044,13.1697923 3.63476007,13.1303161 3.54751908,13.0516447 C3.46041858,12.9731138 3.41686833,12.8751959 3.41686833,12.7587341 L3.41686833,3.18990129 L0.410777198,3.18990129 C0.294174915,3.18990129 0.196678549,3.15225139 0.117866645,3.07667064 C0.0391952251,3.00123036 0,2.89080941 0,2.74554825 L0,0.575762403 Z" id="Fill-29-Copy" fill="#05A6AA"></path>
                <path d="M14.345635,6.68552533 C14.345635,7.16907359 14.4269756,7.62059134 14.5897974,8.03979762 C14.7527596,8.45942536 14.9813282,8.82510697 15.2750816,9.13670199 C15.5689756,9.44843749 15.9165347,9.69302131 16.3180399,9.87087491 C16.7195451,10.0487285 17.1616504,10.1373743 17.6444962,10.1373743 C18.1273421,10.1373743 18.5709927,10.0487285 18.9754481,9.87087491 C19.379763,9.69302131 19.7288674,9.44843749 20.0229018,9.13670199 C20.3166553,8.82510697 20.5449429,8.45942536 20.7079051,8.03979762 C20.8707268,7.62059134 20.952208,7.16907359 20.952208,6.68552533 C20.952208,6.20773694 20.8707268,5.757905 20.7079051,5.33518661 C20.5449429,4.91303015 20.3166553,4.54425787 20.0229018,4.22971268 C19.7288674,3.91516748 19.379763,3.66777397 18.9754481,3.48711067 C18.5709927,3.30644738 18.1273421,3.21625621 17.6444962,3.21625621 C17.1616504,3.21625621 16.7195451,3.30644738 16.3180399,3.48711067 C15.9165347,3.66777397 15.5689756,3.91516748 15.2750816,4.22971268 C14.9813282,4.54425787 14.7527596,4.91303015 14.5897974,5.33518661 C14.4269756,5.757905 14.345635,6.20773694 14.345635,6.68552533 M10.9636069,6.6940949 C10.9636069,6.07666474 11.0422783,5.48395988 11.1997616,4.91583984 C11.356964,4.34786029 11.5814585,3.81472094 11.8729642,3.31670276 C12.1644699,2.81840361 12.5127314,2.36562149 12.9178892,1.95779447 C13.323047,1.54996745 13.7734409,1.20170593 14.2689304,0.913431375 C14.7645603,0.624875847 15.2965758,0.400802786 15.8649768,0.240369284 C16.4333778,0.080216751 17.0265041,3.19425175e-14 17.6444962,3.19425175e-14 C18.2564475,3.19425175e-14 18.8483094,0.080216751 19.4196606,0.240369284 C19.9910118,0.400802786 20.5244321,0.624875847 21.0199216,0.913431375 C21.515411,1.20170593 21.9672098,1.54996745 22.3754582,1.95779447 C22.7834257,2.36562149 23.1318277,2.81840361 23.4205237,3.31670276 C23.7089388,3.81472094 23.9334333,4.34786029 24.0938668,4.91583984 C24.2540193,5.48395988 24.3340956,6.07666474 24.3340956,6.6940949 C24.3340956,7.31180602 24.2540193,7.90451088 24.0938668,8.47249043 C23.9334333,9.04061047 23.7089388,9.57079964 23.4205237,10.0629175 C23.1318277,10.5555972 22.7834257,11.0040243 22.3754582,11.4090417 C21.9672098,11.813778 21.515411,12.161899 21.0199216,12.4531238 C20.5244321,12.744489 19.9910118,12.968843 19.4196606,13.1260454 C18.8483094,13.2833882 18.2564475,13.3622001 17.6444962,13.3622001 C17.0265041,13.3622001 16.4333778,13.2833882 15.8649768,13.1260454 C15.2965758,12.968843 14.7645603,12.744489 14.2689304,12.4531238 C13.7734409,12.161899 13.323047,11.813778 12.9178892,11.4090417 C12.5127314,11.0040243 12.1644699,10.5555972 11.8729642,10.0629175 C11.5814585,9.57079964 11.356964,9.04061047 11.1997616,8.47249043 C11.0422783,7.90451088 10.9636069,7.31180602 10.9636069,6.6940949" id="Fill-31-Copy" fill="#05A6AA"></path>
                <path d="M26.2479043,0.576914378 C26.2479043,0.472112808 26.2813397,0.381640676 26.3482104,0.306059919 C26.4150811,0.230479162 26.5094868,0.192407815 26.631568,0.192407815 L29.2115691,0.192407815 C29.2986696,0.192407815 29.3901251,0.227248015 29.4860761,0.297209384 C29.5818867,0.367170754 29.6299325,0.46045258 29.6299325,0.576914378 L29.6299325,5.33976641 C30.2649232,4.52397188 30.8882537,3.71997807 31.5000645,2.92764449 C32.1117348,2.13559188 32.7322556,1.33159807 33.3614865,0.515803543 C33.4255475,0.416761845 33.5084334,0.336545094 33.6105658,0.275574744 C33.7124172,0.21418294 33.8128637,0.18355728 33.9120459,0.18355728 L37.2328227,0.18355728 C37.3727455,0.18355728 37.4425664,0.227248015 37.4425664,0.314910454 C37.4425664,0.37307111 37.4105358,0.44303248 37.3464748,0.524373108 L33.2302738,5.95143669 L37.7833822,12.8027339 C37.8474432,12.9017756 37.8794737,12.9805875 37.8794737,13.0387482 C37.8794737,13.1261297 37.8154127,13.1698204 37.6871502,13.1698204 L34.3839339,13.1698204 C34.2848922,13.1698204 34.1873959,13.1405996 34.0911639,13.0824389 C33.9949319,13.0241378 33.9149961,12.9454664 33.8507946,12.8464247 C33.5420093,12.4270779 33.2610399,12.0248703 33.0076056,11.6405042 C32.7541712,11.2559976 32.5079016,10.8728959 32.2690776,10.4913395 C32.0301132,10.1097832 31.788339,9.72387175 31.5437552,9.33346483 C31.2990309,8.94319839 31.0309861,8.53256168 30.7397614,8.10127372 L29.6299325,9.37701508 L29.6299325,12.7853138 C29.6299325,13.0415579 29.4904312,13.1698204 29.2115691,13.1698204 L26.640278,13.1698204 C26.3786956,13.1698204 26.2479043,13.0415579 26.2479043,12.7853138 L26.2479043,0.576914378 Z" id="Fill-34-Copy" fill="#05A6AA"></path>
                <path d="M39.2461929,0.594320429 C39.2461929,0.47209876 39.2794878,0.374602393 39.3463585,0.301690845 C39.4132292,0.228919782 39.5076349,0.192393766 39.6298566,0.192393766 L48.2998685,0.192393766 C48.42785,0.192393766 48.5270322,0.230184145 48.5969936,0.305764901 C48.666674,0.381345658 48.7016547,0.482775595 48.7016547,0.610616652 L48.7016547,2.77155197 C48.7016547,2.87059366 48.666674,2.9647184 48.5969936,3.05490956 C48.5270322,3.14481975 48.4248998,3.18991534 48.2910179,3.18991534 L42.6282211,3.18991534 L42.6282211,5.35717246 L46.9975755,5.35717246 C47.108137,5.35717246 47.1998735,5.38344309 47.272785,5.43570339 C47.3456965,5.48824466 47.3822226,5.57548565 47.3822226,5.69798829 L47.3822226,7.58539993 C47.3822226,7.66716202 47.3500516,7.74583344 47.2859906,7.82155468 C47.2219295,7.8974164 47.1286477,7.9350663 47.0064261,7.9350663 L42.6282211,7.9350663 L42.6282211,10.1722848 L48.5007616,10.1722848 C48.762906,10.1722848 48.8939782,10.3061667 48.8939782,10.5729471 L48.8939782,12.7690036 C48.8939782,12.8273047 48.8706577,12.8791436 48.8241573,12.9257845 C48.8006964,13.0884657 48.6812844,13.1698064 48.4657809,13.1698064 L39.6298566,13.1698064 C39.5133948,13.1698064 39.4203939,13.1391807 39.350854,13.0780699 C39.2810331,13.0168185 39.2461929,12.9222724 39.2461929,12.7938694 L39.2461929,0.594320429 Z" id="Fill-36-Copy" fill="#05A6AA"></path>
                <path d="M50.9789253,0.576914378 C50.9789253,0.472112808 51.0109558,0.381640676 51.0750169,0.306059919 C51.1390779,0.230479162 51.2351694,0.192407815 51.3634319,0.192407815 L54.2210307,0.192407815 C54.3025118,0.192407815 54.3872241,0.213059062 54.4744651,0.253518649 C54.5618466,0.294399691 54.6374273,0.364220576 54.7016288,0.463262273 C55.4415616,1.65780349 56.175594,2.83464363 56.9038666,3.99392319 C57.6321392,5.15334324 58.3691218,6.33018339 59.114955,7.52444363 L59.114955,0.524373108 C59.1379944,0.419712023 59.1847758,0.337949941 59.2547372,0.279789284 C59.3245581,0.221628628 59.4061797,0.192407815 59.499321,0.192407815 L61.9899739,0.192407815 C62.112336,0.192407815 62.2141874,0.226124137 62.295809,0.292854359 C62.3774306,0.360006035 62.4181712,0.454411739 62.4181712,0.576914378 L62.4181712,12.8290046 C62.4181712,12.9454664 62.383331,13.0313025 62.3133696,13.0866535 C62.2434082,13.1420044 62.1471762,13.1698204 62.0249546,13.1698204 L59.2371766,13.1698204 C59.1614554,13.1698204 59.0943037,13.1435498 59.0362835,13.0910085 C58.9778419,13.0387482 58.9167311,12.9687868 58.8526701,12.8815458 C58.0777566,11.5996232 57.3115532,10.3325919 56.5543407,9.07988998 C55.7968474,7.82746908 55.0279747,6.56029729 54.2473014,5.2783746 L54.2473014,12.7853138 C54.2473014,12.9134359 54.2180805,13.0096679 54.1597794,13.0735884 C54.1016187,13.1377899 53.9966767,13.1698204 53.8452342,13.1698204 L51.3634319,13.1698204 C51.2294095,13.1698204 51.1317727,13.1335754 51.0706618,13.0603828 C51.0094105,12.9876118 50.9789253,12.8989659 50.9789253,12.7938834 L50.9789253,0.576914378 Z" id="Fill-38-Copy" fill="#05A6AA"></path>
            </g>
        </g>
    </g>
</svg>