<?xml version="1.0" encoding="UTF-8"?>
<svg width="16px" height="20px" viewBox="0 0 16 20" version="1.1" xmlns="http://www.w3.org/2000/svg" xmlns:xlink="http://www.w3.org/1999/xlink">
    <title>Combined Shape</title>
    <g id="TFG_design" stroke="none" stroke-width="1" fill="none" fill-rule="evenodd">
        <g id="ALU_dashboard" transform="translate(-1027.000000, -434.000000)" fill="#F15F2B">
            <path d="M1041.90909,451.893048 C1042.35862,451.893048 1042.7295,452.279334 1042.78019,452.77648 L1042.7861,452.893048 C1042.7861,453.445048 1042.3932,453.893048 1041.90909,453.893048 L1027.87701,453.893048 C1027.42748,453.893048 1027.05659,453.506762 1027.0059,453.009617 L1027,452.893048 C1027,452.341048 1027.3929,451.893048 1027.87701,451.893048 L1041.90909,451.893048 Z M1035.24477,434.2925 L1038.40199,437.8825 C1038.71552,438.24 1038.74165,438.790764 1038.48037,439.180475 L1038.40199,439.2825 C1038.05996,439.6725 1037.51621,439.6725 1037.17418,439.2825 L1035.50787,437.3825 L1035.50787,446.5825 C1035.50787,447.1325 1035.11322,447.5825 1034.63087,447.5825 C1034.14851,447.5825 1033.75386,447.1325 1033.75386,446.5825 L1033.75386,437.3825 L1032.08755,439.2825 C1031.74552,439.6725 1031.20178,439.6725 1030.85974,439.2825 C1030.51771,438.8925 1030.51771,438.2725 1030.85974,437.8825 L1034.00819,434.2925 C1034.35022,433.9025 1034.90274,433.9025 1035.24477,434.2925 Z" id="Combined-Shape"></path>
        </g>
    </g>
</svg>