<?xml version="1.0" encoding="UTF-8"?>
<svg width="1067px" height="1067px" viewBox="0 0 1067 1067" version="1.1" xmlns="http://www.w3.org/2000/svg" xmlns:xlink="http://www.w3.org/1999/xlink">
    <title>Combined Shape Copy 3</title>
    <g id="TFG_design" stroke="none" stroke-width="1" fill="none" fill-rule="evenodd" opacity="1">
        <g id="ALU_dashboard" transform="translate(0.000000, -93.000000)" fill="#F3F5F9">
            <g id="Group-4" transform="translate(0.000000, 92.000000)">
                <path d="M-218.082033,965.097689 C-173.604483,916.763738 -95.2082611,950.052002 -95.2082611,1014.07863 C-95.2082611,1033.03163 -102.510545,1050.19589 -114.321959,1063.05957 L-114.321959,1063.05957 L-114.321959,1674.08444 L-218.082033,1674.08444 L-218.082033,1063.05957 C-243.608715,1035.34049 -243.558614,992.753335 -218.082033,965.097689 Z M96.4163242,776.999395 C96.4163242,849.648726 92.1318525,1325.69369 90.766888,1672.99939 L90.766888,1672.99939 L-8.35733507,1672.99939 L-8.35733507,881.555868 L-692.36882,881.555868 C-692.381459,881.74519 -692.469929,882.098592 -692.583676,882.515101 L-692.583676,882.515101 L-692.583676,776.999395 Z M853.927957,564.165611 L853.927957,668.78433 L304.457239,668.78433 L304.457239,1670.16561 L193.927957,1670.16561 C195.193173,1297.09036 199.659386,775.588396 199.659386,564.165611 L199.659386,564.165611 L853.927957,564.165611 Z M-132.208172,1014.07863 C-132.208172,968.58636 -200.220871,968.510243 -200.220871,1014.07863 C-200.220871,1059.54553 -132.208172,1059.60896 -132.208172,1014.07863 Z M361.513004,829.059735 C361.513004,768.208835 435.374126,734.416685 481.631859,777.220075 L481.631859,777.220075 L852.513004,777.220075 L852.513004,880.911912 L481.631859,880.911912 C436.042153,923.127068 361.513004,890.761698 361.513004,829.059735 Z M467.187346,829.059735 C467.187346,784.203785 398.758672,784.116176 398.758672,829.059735 C398.758672,873.953232 467.187346,874.003294 467.187346,829.059735 Z M6.75308142,565.746445 C52.3958098,523.611307 127.265567,555.500743 127.265567,617.613747 C127.265567,656.817962 95.1550408,688.59467 55.5701863,688.59467 C36.7009841,688.59467 19.5770566,681.30494 6.75308142,669.481049 L6.75308142,669.481049 L-693.734433,669.481049 L-693.734433,565.746445 Z M59.2251457,583.970769 C37.7380314,581.716213 21.2464499,598.362348 21.2464499,617.613747 C21.2464499,636.815045 37.7127376,653.498756 59.2251457,651.231675 C99.8344006,646.935494 99.9482229,588.254424 59.2251457,583.970769 Z M856.839772,355.583956 L856.839772,459.583956 L-692.160228,459.583956 L-692.160228,355.583956 L856.839772,355.583956 Z" id="Combined-Shape-Copy-3" style="mix-blend-mode: multiply;" transform="translate(81.552670, 1014.834199) rotate(45.000000) translate(-81.552670, -1014.834199) "></path>
            </g>
        </g>
    </g>
</svg>
