<?xml version="1.0" encoding="utf-8"?>
<!-- Generator: Adobe Illustrator 27.0.1, SVG Export Plug-In . SVG Version: 6.00 Build 0)  -->
<svg version="1.1" id="Calque_1" xmlns="http://www.w3.org/2000/svg" xmlns:xlink="http://www.w3.org/1999/xlink" x="0px" y="0px"
	 viewBox="0 0 2000 2000" style="enable-background:new 0 0 2000 2000;" xml:space="preserve">
<style type="text/css">
	.st0{fill-rule:evenodd;clip-rule:evenodd;fill:#FFFFFF;}
	.st1{fill:#FFFFFF;}
</style>
<g>
	<g>
		<path class="st0" d="M1512.9,995.6c0.7-2.6,0.4-5.5,0.6-8.4c-1.4,0.3-2.4,0.4-3.4,0.7c-2.9,0.7-5.8,1.2-8.5,2.1
			c-2.6,0.9-3.6,2.8-3.5,5.2c0.1,2.4,1.8,4.4,4.2,5c1,0.3,2,0.4,3,0.5C1508.6,1000.7,1511.9,999.6,1512.9,995.6z"/>
		<path class="st0" d="M1539.7,1065.8c-3.8,0.9-7.6,1.7-11.2,2.9c-2,0.6-4,1.9-4.9,4.1c-1.8,4.8,0.4,9.7,5.2,11.5
			c2.5,0.9,5,0.8,7.6,0.8c5.3-0.1,10-5,10.4-9.9c0.2-3.6,0-7.2,0-10.8C1544.3,1064.9,1542,1065.3,1539.7,1065.8z"/>
		<path class="st0" d="M1567.6,1124.8c-1.5-0.6-2.9-0.3-4.2,0.9c-1.7,1.6-1.2,3.5-1.2,5.5h7.9c0-1,0.1-2,0-3
			C1569.9,1126.6,1569.1,1125.4,1567.6,1124.8z"/>
		<path class="st0" d="M1330,1038.1c-2.4-1.4-5.1-1.5-7.9-1.3c-3.7,0.3-8.1,3.3-9.3,6.8c-1.1,3.5-0.7,7.1-0.8,10.8h24
			c-0.1-2.5-0.3-5-0.4-7.5C1335.5,1042.9,1333.4,1040.1,1330,1038.1z"/>
		<path class="st0" d="M1365,1134.5c-2.3,0.7-2.7,2.6-2,4.5c0.6,1.7,2.6,2.5,4.5,2.1c1.5-0.3,3.1-2.1,3.1-3.7c0.1-1.3,0-2.7,0-4.4
			C1368.7,1133.6,1366.8,1134,1365,1134.5z"/>
		<path class="st0" d="M1474.7,1124.8c-1.5-0.8-3.1-0.3-4.4,0.9c-1.7,1.6-1.2,3.5-1.2,5.4h7.9c0-1,0-1.8,0-2.7
			C1477,1126.7,1476.1,1125.5,1474.7,1124.8z"/>
		<path class="st0" d="M1631.2,977.5c0-4.2-2.6-7.2-6.8-7.5c-3.8-0.3-7.3,1.5-8.1,5.4c-0.1,0.6-0.2,1.2-0.2,1.8c0,1.4-0.3,3.2,0.4,4
			c0.6,0.7,2.5,0.3,3.9,0.3c1.1,0,2.1,0,3.2,0c2.1,0,4.3,0,6.4,0c0.9,0,1.2-0.3,1.2-1.2C1631.2,979.4,1631.2,978.4,1631.2,977.5z"/>
		<path class="st0" d="M1651.6,823.1h-323.3c-32.5,0-58.8,26.3-58.8,58.8v323.3c0,32.5,26.3,58.8,58.8,58.8h323.3
			c32.5,0,58.8-26.3,58.8-58.8V881.9C1710.3,849.4,1684,823.1,1651.6,823.1z M1535.1,966c0-3.6,1.8-5.3,5.4-5.2c1.8,0,3,1,4.1,2.5
			c0.5-0.4,0.9-0.6,1.2-0.9c1.4-1,2.9-1.5,4.6-1.6c4-0.1,7.8,0.3,11.3,2.6c4.2,2.8,6.7,6.7,6.9,11.7c0.3,6.7,0.2,13.3,0.3,20
			c0,3.3,0,6.7,0,10c-0.1,3.5-2.8,5.6-6.2,4.6c-2-0.5-3.1-2-3.1-4.1c-0.1-4.3,0-8.5,0-12.8c0-5.1,0-10.2,0-15.2
			c0-3.5-1.9-6.1-4.9-7.1c-3.3-1.1-6.8-0.1-8.8,2.5c-1.2,1.5-1.5,3.3-1.5,5.2c0,9-0.1,17.9,0,26.9c0.1,3.9-3.5,5.6-6.3,4.6
			c-2-0.7-3.1-2.3-3.1-4.9c0-5.2,0-10.4,0-15.6C1535.1,981.3,1535.1,973.7,1535.1,966z M1447.7,997.9c0-10.7,0-21.4,0-32
			c0-3.4,1.8-5.1,5.1-5.1c1.9,0,3.2,0.9,4.4,2.5c0.4-0.3,0.7-0.6,1-0.8c1.5-1.1,3.1-1.7,5-1.7c3.9-0.1,7.6,0.3,10.9,2.4
			c4.3,2.8,7,6.8,7.1,11.9c0.3,9.1,0.2,18.2,0.3,27.3c0,1.3,0,2.6-0.2,3.8c-0.4,2.3-2.5,3.8-4.8,3.6c-2.6-0.2-4.3-1.9-4.3-4.4
			c0-9.1,0-18.3,0-27.4c0-1.8-0.3-3.6-1.4-5.1c-1.9-2.6-5.4-3.7-8.7-2.6c-3.2,1-5.1,3.7-5.1,7.3c0,9,0,18,0,27c0,1-0.2,2.2-0.6,3.1
			c-0.9,1.7-3.2,2.4-5.4,1.8c-2-0.5-3.2-2.1-3.3-4.5C1447.7,1002.7,1447.7,1000.3,1447.7,997.9z M1361.9,982.5
			c0.1-0.6,0.8-1.1,1.3-1.4c0.4-0.2,1-0.1,1.5-0.1c17.9,0,35.9,0,53.8,0c0.6,0,1.2,0,2.1-0.1c-0.5-0.6-0.8-0.9-1.1-1.2
			c-3.2-3.3-6.5-6.5-9.8-9.8c-0.8-0.8-1-1.6-0.6-2.5c0.6-1.2,2.1-1.4,3.2-0.3c2,1.9,3.9,3.9,5.8,5.8c2.8,2.8,5.6,5.6,8.3,8.3
			c1.5,1.5,1.5,2.3,0,3.8c-4.6,4.6-9.2,9.2-13.8,13.7c-0.5,0.5-1.5,1.1-2.2,1c-1.7-0.2-2.2-2.1-0.9-3.4c2.2-2.3,4.5-4.5,6.8-6.8
			c1.4-1.4,2.9-2.9,4.3-4.3c-0.1-0.2-0.1-0.3-0.2-0.4h0h-1.8c-18.2,0-36.5,0-54.7,0C1362.3,984.7,1361.5,984,1361.9,982.5z
			 M1347.9,1136.9c-1.9,2-3.9,3.9-5.9,5.9c-0.3,0.3-0.5,0.5-0.8,0.8c-0.7,0.9-1.5,1.1-2.2,0.5c-0.9-0.7-0.8-1.6-0.1-2.3
			c0.8-1,1.8-1.8,2.7-2.7c0.9-0.9,1.8-1.7,2.8-2.6c-0.3-0.1-0.4-0.2-0.5-0.2c-3.8,0-7.7,0-11.5,0c-5.4,0.1-10.8,0.2-16.2,0.2
			c-0.3,0-0.8,0.1-1-0.1c-0.4-0.4-1-0.9-1-1.4c0-0.5,0.6-1,1-1.4c0.1-0.2,0.6-0.1,0.9-0.1c9.2-0.1,18.3-0.2,27.5-0.2
			c0.2,0,0.4,0,1-0.1c-1.9-1.8-3.6-3.4-5.3-5c-1-0.9-1.1-1.9-0.2-2.5c0.4-0.3,1.4-0.3,1.7,0c2.6,2.5,5.1,5,7.7,7.6
			C1349.3,1134.5,1349.1,1135.6,1347.9,1136.9z M1351.2,1061.8c0.1,3.3-3.4,7.1-7.1,7.1c-10.2-0.1-20.4,0-30.6,0h-1.5
			c0,3.6-0.5,7.3,1.3,10.5c1.9,3.5,4.9,5.5,8.9,5.6c2,0,4-0.1,5.9-0.4c2.5-0.5,3.8-2.8,5.3-4.6c1.2-1.5,2.2-3.1,3.6-4.4
			c0.7-0.7,1.9-1.1,2.9-1.2c2.6-0.3,5.1,0.1,7.2,1.9c1.7,1.4,2.6,3.8,2.2,5.9c-0.6,3.4-2.5,6.2-4.5,8.8c-2.5,3.2-5.4,5.9-9.2,7.5
			c-2.6,1.1-5.4,1.8-8.3,1.9c-2.1,0.1-4.1,0-6.1,0c-5.2-0.1-9.9-1.8-14.1-4.8c-4.6-3.3-7.9-7.7-9.6-13.3c-0.4-1.2-0.6-2.5-1-3.7
			v-35.1c0.3-1,0.5-2,0.8-3c1.5-5.1,4.2-9.4,8.2-12.8c3.7-3.2,7.9-5.4,12.8-6c6.6-0.8,13.1-0.6,19.2,2.7c5.8,3.1,9.9,7.6,12.2,13.9
			c1.1,2.9,1.6,5.9,1.5,9C1351.2,1052.2,1351.2,1057,1351.2,1061.8z M1375.9,1144.6l-1.1-0.4c-1.2-0.4-2.5-0.4-3.7,0l-1,0.4
			c-0.4,0.1-0.8,0.2-1.2,0.2h-4.8c-2.3-1-4.1-2.5-4.6-5.1c-1-4.6,1-7.6,5.3-8.7c1.5-0.4,3.1-0.7,4.6-1c0.9-0.2,1.3-0.6,1.3-1.5
			c0.1-1.9-0.7-3-2.4-3.6c-1.9-0.6-3.6-0.1-4.7,1.3c-0.6,0.8-0.9,1.9-2.3,1.8c-1.1-0.1-1.9-1.1-1.5-2.2c1.9-5.4,8.3-6.6,12.2-3
			c1.5,1.4,2.3,3.2,2.3,5.4c0,3.7,0,7.4,0,11.1c0,1.1,0.2,1.9,1.5,2.3c1.2,0.3,1.4,1.4,0.8,2.9
			C1376.4,1144.6,1376.2,1144.7,1375.9,1144.6z M1392.3,1126.1c-0.4,0.1-1.1-0.2-1.5-0.4c-0.7-0.3-1.3-1-2-1.1
			c-2-0.4-3.4,0.8-3.4,2.9c0,5,0,10,0,15c0,0.9-0.2,1.7-0.8,2.3h-2.1l0,0c-0.6-0.6-0.8-1.4-0.8-2.3c0-6.6,0-13.2,0-19.7
			c0-1.1,0.5-1.8,1.4-2c0.6-0.1,1.4,0.3,2.2,0.4c1.1-0.2,2.6-0.6,4-0.5c1.4,0.1,2.7,0.8,3.6,2
			C1394,1124,1393.8,1125.6,1392.3,1126.1z M1401.2,1136.7c-0.1,2.2,1.9,4.4,3.6,4.5c2.8,0.2,4.1-2,4.4-4.2c0.1-1.2,0.9-2.1,1.9-2
			c0.9,0.2,1.8,0.6,1.7,1.7c-0.1,1-0.2,2.1-0.5,3.1c-0.7,2.2-2.2,3.7-4.2,4.8c-0.3,0.1-0.5,0.2-0.8,0.2h-3.8c-0.4,0-0.8-0.1-1.2-0.3
			c-3.2-1.7-4.7-4.4-4.6-8.1c0.1-2.7,0-5.5,0-8.2c0-3,2.2-6.1,5-7.1c4.2-1.5,8.3,0.7,9.6,4.8c0.3,0.9,0.5,1.9,0.5,2.8
			c0,1.1-0.9,2-1.8,1.9c-1-0.1-1.7-0.7-1.8-1.8c-0.1-1.8-0.8-3.3-2.5-4c-2.9-1.2-5.4,1.2-5.4,3.7
			C1401.2,1131.2,1401.3,1134,1401.2,1136.7z M1411.4,1099.4c-2.6-1.5-3.5-3.7-3.5-6.6c0-14.9,0-29.8,0-44.7
			c0-5.5-3.7-10.2-8.9-11.2c-4.2-0.7-8.2-0.2-11.4,3c-2,2-3.2,4.4-3.3,7.3c0,15.2-0.1,30.4,0,45.6c0,4.7-3.6,7.7-7.7,7.7
			c-2.4,0-4.5-0.6-6.2-2.3c-1.2-1.1-1.7-2.6-1.7-4.2c0-21.9,0-43.9,0-65.9c0-3.8,3.3-6.5,6.7-6.7c2.4-0.2,4.8-0.1,6.8,1.5
			c0.7,0.6,1.3,1.4,2,2.2l0,0c2.7-2.8,6.1-3.9,10.1-3.8c4.3,0.1,8.5,0,12.6,1.6c8.4,3.4,13.7,9.5,15.8,18.4c0.5,2.2,0.8,4.6,0.8,6.9
			c0.1,14.8,0,29.7,0,44.6c0,2.2-0.6,4.1-2.3,5.6C1418.7,1100.8,1414,1100.9,1411.4,1099.4z M1434,1143c0,0.5-0.3,0.9-0.5,1.3
			c-0.1,0.2-0.4,0.4-0.7,0.4h-1.1c-0.3,0-0.6-0.2-0.7-0.4c-0.2-0.5-0.5-0.9-0.5-1.4c-0.1-4.8-0.1-9.6,0-14.3c0-2.2-1.8-4.1-4-4.1
			c-2.2,0-4,1.8-4,4.1c0.1,4.8,0,9.6,0,14.3c0,0.5-0.3,1-0.6,1.5c-0.1,0.2-0.3,0.3-0.5,0.3h-1.2c-0.3,0-0.5-0.2-0.7-0.4
			c-0.2-0.4-0.5-0.9-0.5-1.3c-0.1-10.2-0.1-20.4,0-30.6c0-1.2,0.8-2,1.8-2c1,0,1.8,0.8,1.8,2c0,3.1,0,6.2,0,9.4
			c2.8-1.6,5.6-1.7,8.2,0.1c2.1,1.5,3.2,3.6,3.3,6.1C1434.1,1133,1434,1138,1434,1143z M1444.2,1143c0,0.5-0.4,1-0.6,1.5
			c-0.1,0.1-0.2,0.2-0.4,0.2h-1.5c-0.2,0-0.3-0.1-0.4-0.3c-0.3-0.5-0.6-1-0.6-1.5c-0.1-6.8,0-13.6,0-20.4c0-1.2,0.8-2,1.8-2
			c1,0,1.8,0.8,1.8,2C1444.3,1129.5,1444.3,1136.3,1444.2,1143z M1440.7,1112.9L1440.7,1112.9c0-1.6,0.7-2.5,1.8-2.5
			c1.1,0,1.8,0.8,1.8,2.4c0,0.6,0,1.3-0.4,1.6c-0.5,0.4-1.3,0.8-1.9,0.7C1440.8,1114.8,1440.5,1113.8,1440.7,1112.9z M1460.2,1144.8
			h-3.1c-2.9-1.7-4-4.1-3.9-7.4c0.1-4.1,0-8.3,0-12.6c-1.5,0-3.3,0.2-3.3-2c0-1.3,0.7-1.7,3.3-1.9v-8.1c0-1.4,0.7-2.3,1.8-2.3
			c1.1,0,1.8,0.9,1.8,2.3v8.2c0.8,0,1.5,0,2.3,0c1.1,0,1.8,0.9,1.8,2c0,1.1-0.7,1.8-1.8,1.9c-0.7,0-1.4,0-2.3,0v1.8
			c0,3.9,0,7.9,0,11.8c0,1.2,0.9,2.5,2,2.8c2.1,0.6,2.6,1.5,1.7,3.4C1460.5,1144.7,1460.3,1144.8,1460.2,1144.8z M1480.6,1132.8
			c0,1-0.7,1.7-2,1.7c-3,0-6.1,0-9.1,0c-0.1,0-0.2,0-0.3,0.1c-0.2,2.1-0.4,4.1,1.5,5.8c1.5,1.2,4.2,1,5.3-0.6c0.3-0.5,0.6-1,0.9-1.5
			c0.5-0.8,1.3-1,2-0.6c0.8,0.4,1.4,1.1,1.1,2.2c-0.7,2.2-2.2,3.7-4.3,4.8c-0.2,0.1-0.3,0.1-0.5,0.1h-4.3c-0.2,0-0.4,0-0.5-0.1
			c-3.4-1.7-5-4.5-4.9-8.3c0.1-2.6,0-5.3,0-7.9c0-3.3,2.1-6.4,5.2-7.4c4.3-1.4,8.6,0.9,9.6,5.5
			C1480.8,1128.5,1480.7,1130.7,1480.6,1132.8z M1472.3,1100.1c-2,0.2-4.1,0.3-6.1,0.4c-4.9,0.4-9.5-0.7-13.8-2.8
			c-3.7-1.7-7-4-9.5-7.3c-2-2.6-3.8-5.2-4.6-8.4c-1.1-4.7,2.8-8.6,6.8-8.9c3.1-0.2,5.2,1,7.1,3.4c2.1,2.6,4.6,5,7.2,7.2
			c0.9,0.8,2.4,1.1,3.7,1.2c2.2,0.2,4.5,0.2,6.7,0c3-0.1,5.8-1,7.9-3.3c2.5-2.7,2.4-8.1,0-10.8c-2.3-2.5-5.2-3.4-8.3-4
			c-5.7-1.1-11.5-2.1-16.9-4.4c-4.5-1.9-8.5-4.5-10.9-9c-1-1.8-1.7-4-1.9-6c-0.3-3.7-0.5-7.5,0.9-11.2c1.2-3,3.1-5.6,5.6-7.8
			c4.1-3.6,8.9-5.6,14.1-6.5c7.3-1.2,14.6-1,21.6,2.1c3.2,1.4,6.1,3.2,8.5,5.7c3.4,3.6,3.5,7.8-0.3,10.9c-1,0.8-2.4,1.1-3.7,1.4
			c-2.8,0.6-5.2-0.7-7.5-2.1c-3.2-2-6.5-3.4-10.4-3.3c-3.1,0.1-6.1,0-8.9,1.4c-4,1.9-5.1,4-4.1,8c0.5,2,2.4,2.9,4.2,3.4
			c4.9,1.4,9.8,2.6,14.7,3.9c4.4,1.1,8.6,2.6,12.2,5.3c4.2,3.1,7.1,7,8,12.3c0.8,4.6,0.7,9.1-0.7,13.6c-1.7,5.1-5.1,8.8-9.5,11.6
			C1480.8,1098.6,1476.6,1099.7,1472.3,1100.1z M1490.1,1136.7c-0.1,2.2,1.9,4.4,3.6,4.5c2.8,0.2,4.2-2,4.4-4.2
			c0.1-1.2,0.9-2.1,1.9-2c0.9,0.2,1.8,0.6,1.7,1.7c-0.1,1-0.2,2.1-0.5,3.1c-0.7,2.4-2.5,3.9-4.6,5l-1.1,0.3l-1.3,0.1l-1.3-0.1
			l-1.2-0.3c-3.6-1.7-5.2-4.5-5.1-8.4c0.1-2.7,0-5.5,0-8.2c0-3,2.2-6.1,5-7.1c4.2-1.5,8.3,0.7,9.6,4.8c0.3,0.9,0.5,1.9,0.5,2.8
			c0,1.1-0.9,2-1.8,1.9c-1-0.1-1.7-0.7-1.8-1.8c-0.1-1.8-0.8-3.3-2.5-4c-2.9-1.2-5.4,1.2-5.4,3.7
			C1490.1,1131.2,1490.3,1134,1490.1,1136.7z M1496.2,1007.7c-4.5-2.3-6.8-6.1-7.2-11.1c-0.5-5.7,0.8-10.7,7-13.7
			c2.2-1.2,4.7-1.9,7.2-2.6c2.7-0.7,5.4-1,8.1-1.6c1.5-0.3,2-0.9,2-2.5c-0.1-3.9-3.5-6.6-7.6-6.3c-3,0.2-5.2,1.5-6.5,4.3
			c-1,2.3-3.6,3.1-6,2.1c-2.4-1.1-3.5-3.6-2.5-6.1c1.2-3.1,3.4-5.5,6.3-7.2c5.8-3.4,15.3-3.2,20.8,1.9c3,2.8,4.7,6.3,4.7,10.4
			c0,7.4,0,14.9,0,22.3c0,2.2,0.3,2.5,2.2,3.1c2.6,0.9,3.8,3.3,3.1,5.9c-0.6,2.2-2.9,3.4-5.4,3c-2.5-0.4-4.5-1.7-6-3.2
			c-2.5,1-4.7,2.2-7.1,2.8C1505,1010.5,1500.4,1009.8,1496.2,1007.7z M1514.5,1141.2c1.4,0.4,2.2,1,2.2,1.9c0,1-0.8,1.7-1.8,1.7
			h-1.6c-0.4,0-0.8-0.1-1.1-0.3c-2.5-1.6-3.4-4-3.3-7.1c0.1-4.1,0-8.3,0-12.6c-1.5,0-3.3,0.2-3.3-2c0-1.3,0.7-1.7,3.3-1.9v-8.1
			c0-1.4,0.7-2.3,1.8-2.3c1.1,0,1.8,0.9,1.8,2.3v8.2c0.8,0,1.6,0,2.3,0c1.1,0,1.8,0.9,1.8,2c0,1.1-0.7,1.8-1.8,1.9
			c-0.7,0-1.4,0-2.3,0v1.8v11.8C1512.5,1139.6,1513.4,1140.8,1514.5,1141.2z M1535.3,1144.8h-8.6c-0.3,0-0.5-0.1-0.8-0.2
			c-3.1-1.5-4.3-4.1-4.3-7.5v-14.2c0-1.4,0.7-2.3,1.8-2.3c1.1,0,1.8,0.8,1.8,2.2c0,4.7,0,9.5,0,14.2c0,1.6,0.7,3,2.2,3.7
			c1.4,0.7,2.8,0.6,4-0.5c1-0.8,1.5-2,1.5-3.3c0-4.7,0-9.5,0-14.2c0-1.3,0.7-2.2,1.7-2.2c1.1,0,1.8,0.8,1.8,2.2c0,6.6,0,13.1,0,19.6
			c0,0.7-0.1,1.3-0.4,1.8C1536,1144.6,1535.7,1144.8,1535.3,1144.8z M1524.4,1099.1c-3.3-1.1-6.3-2.6-9-4.9c-3-2.6-5.2-5.7-6.3-9.5
			c-1.9-6.3-1.9-12.7,0.7-18.9c0.5-1.2,1.3-2.3,2.1-3.2c4.3-5,9.9-8,16.2-9.4c4.7-1.1,9.5-1.9,14.2-2.8c0.9-0.2,1.8-0.3,2.7-0.5
			c1.4-0.4,1.8-1.5,1.8-2.7c0.2-5.7-4-10.3-9.5-10.4c-2.7-0.1-5.4,0-7.9,1.3c-1.9,1-3.3,2.6-4,4.5c-1.9,5.1-8,6.5-12.3,3.3
			c-3.1-2.3-3.5-6.9-2.2-9.8c2.6-5.5,6.6-9.6,12.1-12.2c3.3-1.6,6.8-2.4,10.4-2.5c4-0.1,8-0.1,11.9,1.3c7,2.4,12.2,6.9,15.3,13.7
			c1.2,2.6,1.7,5.3,1.8,8c0.1,6.2,0,12.3,0,18.5l0,0c0,5.7,0.1,11.4,0,17c-0.1,2.9,0.4,4.9,3.7,5.8c3.7,1,5.1,4,5.1,7.8
			c0,2.7-2.2,6.4-5,6.8c-2.1,0.3-4.3,0.2-6.3-0.3c-2.8-0.6-5.2-2.2-7.1-4.3c-0.6-0.6-1-0.8-1.9-0.2c-4.2,3.1-8.9,4.9-14.2,4.9
			C1532.5,1100.4,1528.4,1100.4,1524.4,1099.1z M1553.5,1126.1c-0.4,0.1-1.1-0.2-1.5-0.4c-0.7-0.3-1.3-1-2-1.1
			c-2-0.4-3.4,0.8-3.4,2.9c0,5,0,10,0,15c0,0.8-0.1,1.6-0.7,2.2c-0.1,0.1-0.1,0.1-0.2,0.1h-1.9v0c-0.8-0.6-0.8-1.4-0.8-2.3
			c0-6.6,0-13.2,0-19.7c0-1.1,0.5-1.8,1.4-2c0.6-0.1,1.4,0.3,2.2,0.4c1.2-0.2,2.6-0.6,4-0.5c1.4,0.1,2.7,0.8,3.6,2
			C1555.2,1124,1555,1125.6,1553.5,1126.1z M1573.7,1132.8c0,1-0.7,1.7-2,1.7c-3,0-6.1,0-9.1,0c-0.1,0-0.2,0-0.3,0.1
			c-0.1,2.1-0.4,4.1,1.5,5.8c1.5,1.2,4.2,1,5.3-0.6c0.3-0.5,0.6-1,0.9-1.5c0.5-0.8,1.3-1,2-0.6c0.7,0.4,1.4,1.1,1,2.2
			c-0.7,2.2-2.2,3.7-4.2,4.8c-0.2,0.1-0.4,0.1-0.6,0.1h-4.4c-0.1,0-0.3,0-0.4-0.1c-3.5-1.7-5-4.5-4.9-8.3c0.1-2.6,0-5.3,0-7.9
			c0-3.3,2.1-6.4,5.2-7.4c4.3-1.4,8.6,0.9,9.6,5.5C1573.8,1128.5,1573.7,1130.7,1573.7,1132.8z M1600,1005.8
			c-0.3,2.4-2.6,3.9-5.4,3.6c-5.9-0.6-9.9-3.5-11.9-9c-0.5-1.3-0.7-2.8-0.7-4.2c-0.1-8,0-16.1,0-24.1v-1.6c-1-0.1-2-0.2-2.9-0.4
			c-2.3-0.4-3.7-2.4-3.5-4.9c0.2-2.2,1.9-4,4-4.1c2.4-0.2,2.4-0.2,2.4-2.6v-13.6c0-2.8,0.8-3.9,3.5-5c0.1,0,0.2-0.2,0.3-0.3h1.5
			c0.3,0.1,0.6,0.3,0.9,0.4c1.9,0.7,3.1,2.2,3.1,4.2c0,5.1,0.1,10.1,0,15.1c0,1.2,0.3,1.7,1.6,1.6c0.9-0.1,1.8,0,2.7,0
			c2.2,0.1,3.8,1.8,4,4c0.2,2.7-1.1,4.6-3.3,5.1c-1.1,0.2-2.3,0.3-3.4,0.2c-1.2-0.1-1.5,0.3-1.5,1.5c0.1,4.9,0,9.8,0,14.7
			c0,2.9,0,5.9,0,8.8c0,2.9,1.6,4.6,4.4,4.9C1598.8,1000.6,1600.4,1002.7,1600,1005.8z M1640.5,985.3c0,2.8-2.1,4.8-4.9,4.8
			c-3,0-6.1,0-9.1,0c-3.1,0-6.1,0-9.2,0c-0.9,0-1.2,0.3-1.2,1.2c0.1,1.3-0.1,2.7,0.2,4c0.8,4.1,4.3,5.5,7.8,5.5
			c3-0.1,4.8-1.7,6.3-4.1c1.6-2.7,3.5-3.4,6.1-2.4c2.7,1,3.6,3.5,2.2,6.3c-3.6,7.2-9.1,10.2-17.4,9.3c-6-0.6-10.4-3.6-13.1-9
			c-1-2-1.5-4.1-1.5-6.4c0-5.9,0-11.9,0-17.8c0-7.4,5.7-14.2,13-15.4c6.2-1,11.8,0,16.4,4.7c2.8,2.9,4.2,6.5,4.3,10.5
			C1640.6,979.3,1640.6,982.3,1640.5,985.3z M1682.1,997.9c-0.1,0.1-0.3,0.2-0.3,0.4c-1.1,5.5-4.6,8.7-9.8,10.3
			c-6,1.8-11.9,2-17.6-1.2c-3.2-1.8-5.6-4.3-7.1-7.7c-1.6-3.5,0.7-7,4.6-6.6c0.8,0.1,1.8,0.6,2.5,1.1c0.9,0.8,1.6,1.8,2.3,2.7
			c1.7,2.3,3.9,3.8,6.8,3.7c1.8,0,3.6-0.2,5.4-0.6c2.1-0.5,3.5-1.9,3.8-4.2c0.3-2.9-0.6-5-3-5.9c-2.3-0.9-4.7-1.4-7.1-1.9
			c-4-0.9-7.9-1.9-11.1-4.6c-2.4-2-3.6-4.5-3.7-7.7c-0.1-3.8,0.5-7.2,3.3-10c2.3-2.2,5.1-3.6,8.2-4.3c6.5-1.5,12.7-0.9,18.3,3.1
			c0.7,0.5,1.3,1.1,1.8,1.8c1.4,1.8,1.5,3.6,0.5,5.2c-1.1,1.6-3.2,2.3-5.1,1.7c-1-0.3-2-0.9-3-1.5c-3.6-2.2-7.4-2.3-11.3-1.1
			c-2.4,0.8-3.3,2.1-3.3,4.3c0,1.5,0.7,2.5,2,3c2.2,0.8,4.5,1.4,6.8,2.1c2.8,0.8,5.7,1.5,8.4,2.6c4,1.6,6.6,4.6,7.5,8.9
			c0,0.2,0.2,0.5,0.3,0.7V997.9z"/>
	</g>
	<path class="st1" d="M341.9,1264c53.3-0.5,106.6-0.1,159.9-0.1c54,0,107.9,0,161.9,0c33.3,0,59.1-25.9,59.1-59.1
		c0-107.3,0-214.7,0-322c0-33.7-25.5-59.5-59.1-59.6c-107.7-0.1-215.5-0.1-323.2,0c-32.8,0-58.7,26.2-58.7,59.1
		c0,107.2,0.2,214.4-0.1,321.5C281.5,1238.3,309.6,1264.3,341.9,1264z M455.3,1216.6c-1.5-4.4-3-8.9-4.6-13.6c-7.9,0-15.9,0-24.1,0
		c-1.5,4.4-3,8.9-4.6,13.5c-1.8,0-3.6,0-6.2,0c6.4-19,12.6-37.6,19-56.5c2.5,0,4.9,0,7.6,0c6.3,18.7,12.6,37.3,19.1,56.5
		C459.3,1216.6,457.5,1216.6,455.3,1216.6z M462.5,1093.1c0-3.5,0-6.6,0-9.9c13.8,0,27.5,0,41.5,0c0,3.2,0,6.3,0,9.9
		c-4.8,0-9.6,0-14.6,0c0,17.4,0,34.3,0,51.6c-4.1,0-7.8,0-11.9,0c0-17,0-34.1,0-51.5C472.2,1093.1,467.4,1093.1,462.5,1093.1z
		 M507.7,1216.6c-3.4,0-6.5,0-9.7,0c-7.6-16.4-15.2-32.7-22.8-49c-0.3,0-0.6,0.1-0.9,0.1c0,16.3,0,32.5,0,48.9c-2,0-3.8,0-5.8,0
		c0-18.9,0-37.6,0-56.5c3.3,0,6.4,0,9.9,0c7.4,16,14.8,32.2,22.2,48.4c0.3,0,0.5-0.1,0.8-0.1c0-16,0-31.9,0-48.2c2.4,0,4.3,0,6.3,0
		C507.7,1178.9,507.7,1197.7,507.7,1216.6z M553.2,1165.2c-5.2,0-10.3,0-15.9,0c0,17.2,0,34.1,0,51.4c-2.5,0-4.3,0-6.5,0
		c0-16.9,0-33.7,0-51c-5.5,0-10.8,0-16.3,0c-0.2-2.1-0.3-3.7-0.4-5.5c13.1,0,26,0,39.1,0C553.2,1161.7,553.2,1163.3,553.2,1165.2z
		 M593.1,1216.4c-10.8,0-21.8,0-33,0c0-18.6,0-37.3,0-56.3c10.9,0,21.8,0,32.9,0c0,1.5,0,3.1,0,5c-8.7,0-17.5,0-26.5,0
		c0,6.6,0,12.9,0,19.8c7.3,0,14.2,0,21.6,0c0,1.9,0,3.6,0,5.5c-7.1,0-14.1,0-21.4,0c0,6.9,0,13.6,0,20.8c8.8,0,17.5,0,26.4,0
		C593.1,1213.1,593.1,1214.6,593.1,1216.4z M633.1,1209.7c-2.6,4.9-7.3,6.7-12.5,6.9c-6.3,0.3-12.6,0.1-19.3,0.1
		c-0.1-1.8-0.2-3.3-0.3-5.5c4.1,0,7.8,0,11.6,0c2.2,0,4.3,0,6.5-0.2c5.9-0.6,8.7-3.2,9.1-8c0.5-5.7-1.3-8.5-7.1-10.3
		c-3.3-1.1-6.7-1.9-10-2.9c-8.9-2.6-12.1-7.9-10.9-18.3c0.8-7,6-11.3,14.4-11.6c6.1-0.2,12.3,0,18.9,0c0,2,0,3.4,0,5.5
		c-4.1,0-8,0-11.9,0c-2.3,0-4.7,0-7,0.3c-4.9,0.6-7.8,3.5-8.3,7.8c-0.6,5.2,1.5,8.5,6.6,10.2c3.5,1.1,7,1.9,10.5,3
		C633.7,1189.8,638.1,1200.3,633.1,1209.7z M651,1083.2c12.2,0,24.3,0,36.7,0c0,2.9,0,6,0,9.5c-8,0-16.2,0-24.9,0
		c0,5.4,0,10.3,0,15.8c6.4,0,13.1,0,20,0c0,3.6,0,6.5,0,10.1c-6.6,0-13.3,0-20.2,0c0,5.6,0,10.5,0,16c8.3,0,16.7,0,25.2,0
		c0,3.7,0,6.7,0,10c-12.3,0-24.4,0-36.8,0C651,1124.2,651,1103.9,651,1083.2z M612.6,1083.3c3.7,0,7.4,0,11.5,0
		c0,16.9,0,33.9,0,51.4c7.1,0,13.8,0,20.8,0c0,3.6,0,6.8,0,10.2c-10.7,0-21.3,0-32.4,0C612.6,1124.1,612.6,1103.9,612.6,1083.3z
		 M574.3,1083.1c5.3,0,10.4,0,15.8,0c5.3,20.4,10.6,40.8,16.1,61.6c-3.8,0-7.4,0-11.7,0c-1-3.7-2.1-7.7-3.2-11.8
		c-6.2,0-12.1,0-18.3,0c-1,3.9-1.9,7.8-3,11.8c-3.6,0-7.2,0-11.4,0C563.9,1123.9,569.1,1103.6,574.3,1083.1z M548.6,1117.9
		c-0.8,1-1.7,2-3,3.5c2.5,7.5,5,15.1,7.7,23.2c-4.3,0-8.3,0-12.9,0c-2.1-6.6-4.3-13.5-6.5-20.6c-3.5,0-6.9,0-10.9,0
		c0,6.8,0,13.7,0,20.8c-4.2,0-7.7,0-11.5,0c0-20.6,0-40.9,0-61.6c8.9,0,17.9-0.5,26.8,0.2c6.7,0.5,12,4.3,14,11
		C554.7,1102.6,554.4,1110.8,548.6,1117.9z M512.3,923.5c0,26,0,52,0,78.2c-6.8,0-13.1,0-19.6,0c0-32.7,0-65.3,0-98.2
		c19.5,0,38.9,0,58.5,0c0,32.7,0,65.2,0,98.1c-6.2,0-12.6,0-19.7,0c0-26.1,0-52,0-78.1C525,923.5,518.9,923.5,512.3,923.5z
		 M453.1,864.4c32.8,0,65.4,0,98.2,0c0,6.5,0,12.7,0,19.6c-25.9,0-51.9,0-78.1,0c0,45.9,0,91.3,0,137.1c25.9,0,51.8,0,78,0
		c0,6.8,0,13.2,0,19.8c-32.6,0-65.1,0-98.1,0C453.1,981.8,453.1,923.1,453.1,864.4z M406.7,1083.1c6.2,0,12.3,0,18.6,0
		c5.8,16.3,11.6,32.6,17.3,48.9c0.2-0.1,0.4-0.1,0.6-0.2c0-16.1,0-32.2,0-48.6c3.9,0,7.6,0,11.6,0c0,20.4,0,40.7,0,61.4
		c-6.3,0-12.5,0-19,0c-5.7-16.3-11.3-32.2-16.8-48c-0.3,0-0.5,0.1-0.8,0.1c0,15.9,0,31.9,0,48c-4.1,0-7.7,0-11.6,0
		C406.7,1124.3,406.7,1103.8,406.7,1083.1z M403.1,1208.8c0-16.1,0-32.3,0-48.7c2.1,0,3.8,0,5.9,0c0,18.7,0,37.4,0,56.4
		c-3.1,0-6,0-9.5,0c-7.4-15.8-14.9-32-22.4-48.1c-0.3,0-0.6,0.1-0.9,0.1c0,15.9,0,31.9,0,48c-2.4,0-4.2,0-6.3,0
		c0-18.7,0-37.4,0-56.5c3.5,0,6.6,0,9.9,0c7.5,16.4,15,32.7,22.5,49C402.6,1208.9,402.9,1208.9,403.1,1208.8z M362.7,1083.2
		c12,0,24.1,0,36.6,0c0,3.3,0,6.2,0,9.6c-8.2,0-16.2,0-24.6,0c0,5.3,0,10.2,0,15.6c6.2,0,12.6,0,19.4,0c0,3.6,0,6.8,0,10.4
		c-6.4,0-12.9,0-19.5,0c0,5.4,0,10.5,0,15.9c8.2,0,16.3,0,24.6,0c0,3.4,0,6.5,0,9.9c-12,0-24.1,0-36.4,0
		C362.7,1124.3,362.7,1103.9,362.7,1083.2z M317.8,1098.5c0.9-10,8-15.3,18.1-15.6c6.3-0.1,12.6,0,19.2,0c0,3.3,0,6.5,0,10.1
		c-4.7,0-9.3,0-13.9,0c-8.3,0.1-11.3,2.3-11.9,10.6c-0.6,7.2-0.4,14.6,0.1,21.8c0.4,6.5,3.5,9.1,10,9.3c5.1,0.2,10.3,0,15.9,0
		c0,3.6,0,6.7,0,10c-7.5,0-14.8,0.4-22-0.1c-8.2-0.5-14.7-6.3-15.4-15C316.9,1119.4,316.8,1108.8,317.8,1098.5z"/>
	<path class="st1" d="M523.1,1092.9c0,7.1,0,13.5,0,20.8c5.9-0.7,12.1,2,16.6-3.3c2.6-3.1,2.5-11.2-0.1-14.2
		C535.1,1090.8,528.9,1093.8,523.1,1092.9z"/>
	<path class="st1" d="M582.7,1095.3c-0.3,0.1-0.6,0.1-1,0.2c-2,8.7-4,17.3-6.1,26.2c4.5,0,8.8,0,13.4,0
		C586.8,1112.7,584.7,1104,582.7,1095.3z"/>
	<path class="st1" d="M438.3,1166.8c-3.2,10-6.4,20-9.7,30.2c7.2,0,13.4,0,20.2,0c-3.3-10.3-6.5-20.2-9.7-30.2
		C438.8,1166.8,438.6,1166.8,438.3,1166.8z"/>
	<g>
		<path class="st1" d="M1216.8,887.3c0-2.7,0-5.3-0.1-8c-0.3-8.9-2.5-17.4-6.9-25.1c-12-21.1-30.5-31.1-54.5-31.1
			c-105.5-0.1-211-0.1-316.5,0.1c-6.2,0-12.7,0.5-18.7,2c-26.3,6.6-44,29.7-44,56.7c0,53.9,0,107.8,0,161.6
			c0,53.5,0,107.1,0.1,160.7c0,5.1,0.5,10.3,1.7,15.2c5.8,23.8,27.5,44.5,59.1,44.4c106.7-0.2,213.3,0,320-0.1
			c3.6,0,7.3-0.2,10.9-0.9c29.2-5.5,48.9-29.3,48.9-58.9C1216.8,1098.5,1216.8,992.9,1216.8,887.3z M1057.8,1029.4
			c-2.7-23.4-5.3-45.9-7.9-69.1c13.6-3.1,27.4-5.3,41.9-7.7C1092.9,983.9,1081.7,1008.9,1057.8,1029.4z M924.6,910.9
			c13-20.4,31.1-34.1,54.6-40c47.5-12,91.9,15.5,106.3,54.6c-8.1,4.5-33.5,15-38.2,15.7c-1-6.4-2-12.9-3.2-19.3
			c-1.5-8.1-2.9-16.2-4.9-24.1c-1.8-7.3-5.4-13.7-12.8-16.7c-5.9-2.4-11.9-1.8-17.9,0c-8,2.5-14.8,7.1-21.3,12.1
			c-17.7,13.6-34.3,28.4-50.4,43.7c-7.7,7.3-15.3,14.9-22.9,22.4c-0.6,0.6-1.3,1.2-2,1.9C909.5,949,914.9,926.2,924.6,910.9z
			 M855.2,1169.8c-2.2-5.3-4.5-10.6-6.8-16c-10.2,0-20.2,0-30.5,0c-2.1,5.3-4.3,10.5-6.5,15.9c-4.7,0-9.4,0-14.5,0
			c10.4-23.9,20.7-47.5,31-71.3c3.6,0,7.2,0,11.2,0c10.1,23.5,20.3,47.2,30.8,71.4C864.7,1169.8,860.2,1169.8,855.2,1169.8z
			 M915.6,1169.9c-1.7,0-3.6,0-5.4,0c-1.8,0-3.6,0-5.7,0c-0.1-2.1-0.3-3.9-0.4-6.2c-0.6,0.6-1.2,1-1.6,1.5c-5.3,6.6-12.4,7-19.6,5
			c-7.4-2-10.8-7.8-11-15.1c-0.3-10.9-0.1-21.9-0.1-33.2c3.7,0,7.6,0,11.8,0c0.1,1.1,0.3,2.4,0.3,3.6c0,7.2,0,14.4,0,21.6
			c0,1.9,0.3,3.9,0.7,5.8c0.7,3.7,2.7,6.3,6.6,7.1c4.1,0.8,8.8-1.1,10.4-4.7c1.2-2.6,1.8-5.6,1.9-8.5c0.2-8.2,0.1-16.3,0.1-25
			c4.3,0,8,0,12.1,0C915.6,1137.6,915.6,1153.3,915.6,1169.9z M973.9,1169.6c-3.6,0-7.3,0-11.2,0c-0.1-1.8-0.2-3.4-0.3-5.2
			c-0.5,0.2-1,0.2-1.2,0.4c-7.2,7.4-16,7.8-24.9,4.5c-9.4-3.5-13.5-11.4-14.3-21c-0.6-7.6,1-14.6,6.2-20.5
			c8.1-9.1,21.8-10.2,31.4-2.6c0.5,0.4,1,0.8,2.3,1.8c0-10,0-18.9,0-28.3c4.1,0,7.9,0,12,0C973.9,1122.1,973.9,1145.7,973.9,1169.6z
			 M1029.3,1150.2c-12.4,0-24.3,0-36.3,0c2.2,12.4,13.9,14.5,25.7,4.8c1.3,1,2.8,2,4.2,3c1.4,1.1,2.8,2.2,4.2,3.2
			c-7.8,11.8-26.5,12.4-36.7,5c-10.5-7.6-13.4-22.9-6.4-34.3c7.1-11.6,22.3-14.3,32.5-9.9c8.2,3.5,11.5,10.8,12.7,19.1
			C1029.6,1143.9,1029.3,1146.7,1029.3,1150.2z M1025.4,1045.1c-33.1,11.2-81.7-2.6-102.9-43.4c12.8-7.7,93.7-35.1,110-37
			C1030.1,991.6,1027.7,1018.4,1025.4,1045.1z M1033.5,946.6c-13.5,6.7-80.4,25.9-93.7,27.3c8.1-11.8,15.8-23.2,23.6-34.4
			c9-13.1,17.9-26.1,28.6-37.9c5.2-5.6,11.2-9.7,18.9-11.1c9.6-1.8,16.8,3.4,19.6,11.6c2.3,7,2.9,14.3,3.1,21.6
			C1033.6,931.4,1033.5,939.1,1033.5,946.6z M1080,1169.7c-4.2,0-8,0-12.4,0c0-1.5,0-3,0-4.6c0-6.4,0.1-12.8,0-19.1
			c0-2.4-0.3-4.9-0.8-7.3c-1.1-5-3.1-6.9-7.3-7.2c-4.8-0.4-8.8,1.6-10.4,5.7c-0.8,2.1-1.1,4.4-1.2,6.7c-0.1,8.5-0.1,17-0.1,25.7
			c-4.2,0-8.2,0-12.4,0c0-15.9,0-31.7,0-47.8c3.8,0,7.5,0,11.5,0c0,1.9,0,3.6,0,5.9c1-0.8,1.5-1.2,1.9-1.6c4.2-5.3,9.9-6.5,16.3-5.7
			c8,1,13.2,6,14.2,13.9c0.6,4.8,0.5,9.8,0.6,14.7C1080.1,1155.8,1080,1162.7,1080,1169.7z M1102.1,1155.7c5,5.6,12,5.7,20.1,0.2
			c2.5,2.7,5,5.4,7.5,8.1c-8.5,9.5-26.3,9.5-36.1,0.2c-10-9.4-10.3-26.5-0.8-36.3c10.4-10.6,29.6-9.7,37.1-0.1
			c-1.2,1.3-2.6,2.6-3.8,4c-1.3,1.5-2.5,3-4.1,5c-3.7-3.8-7.4-6.5-12.1-5.1c-2.9,0.8-5.9,2.3-7.9,4.4
			C1096.7,1141.3,1097,1150,1102.1,1155.7z M1144.2,1169.7c-4.1,0-8,0-11.9,0c0-16,0-31.8,0-47.8c4,0,7.9,0,11.9,0
			C1144.2,1137.7,1144.2,1153.5,1144.2,1169.7z M1137.9,1113.4c-4.4-0.1-7.5-3.2-7.5-7.4c0-4.4,3.4-7.4,8.1-7.2
			c4.3,0.2,7.7,3.5,7.6,7.4C1146.1,1110.3,1142.5,1113.5,1137.9,1113.4z M1194.4,1169.6c-3.8,0-7.3,0-11.1,0
			c-0.1-1.6-0.2-3.2-0.3-5.5c-6.5,7.2-14.1,8.2-22.3,5.9c-6.8-1.9-10.6-6.6-10.9-12.9c-0.4-6.8,3-12.5,10-14.6
			c5.5-1.7,11.5-2.1,17.3-3c1.9-0.3,3.9,0,6.2,0c-0.9-7-3.6-9.7-9.8-10c-4.9-0.3-7.4,0.6-14.1,4.6c-2.1-2-4.1-4.1-6.2-6.1
			c6.5-8.2,22.7-9.7,31.5-5.9c4.7,2,7.5,5.7,8.8,10.5c0.4,1.6,0.7,3.2,0.9,4.8c0.1,1.1,0.1,2.3,0.1,3.4
			C1194.4,1150.4,1194.4,1159.8,1194.4,1169.6z"/>
		<path class="st1" d="M822.4,1142.3c7.3,0,14.1,0,21.5,0c-3.6-9.3-7-18.3-10.7-28.1C829.4,1124.1,825.9,1133.1,822.4,1142.3z"/>
		<path class="st1" d="M948.7,1131.4c-8.1-0.2-14.3,5.8-14.6,14c-0.2,7.9,6.2,14.6,14,14.6c8,0,14.2-6.2,14.3-14.3
			C962.5,1137.8,956.5,1131.5,948.7,1131.4z"/>
		<path class="st1" d="M1005.4,1129.6c-7-0.1-11.1,3.5-12.2,10.7c8,0,15.9,0,23.9,0C1015.8,1132.9,1012.2,1129.6,1005.4,1129.6z"/>
		<path class="st1" d="M1166.3,1150.3c-2.4,1-4.2,2.6-4.2,5.5c0,2.4,1.8,4.4,4.9,5.4c8.8,3,15.7-2.5,15.5-12.8
			C1176.7,1148,1171.4,1148.3,1166.3,1150.3z"/>
	</g>
	<path class="st1" d="M1698.1,790.5H297.5c-8.8,0-15.9-7.1-15.9-15.9v-29.4c0-8.8,7.1-15.9,15.9-15.9h1400.7
		c8.8,0,15.9,7.1,15.9,15.9v29.4C1714,783.4,1706.9,790.5,1698.1,790.5z"/>
	<path class="st1" d="M1694.4,1330.7h-1397c-8.8,0-15.9-7.1-15.9-15.9v-2.4c0-8.8,7.1-15.9,15.9-15.9h1397c8.8,0,15.9,7.1,15.9,15.9
		v2.4C1710.3,1323.6,1703.2,1330.7,1694.4,1330.7z"/>
	<g>
		<path class="st1" d="M295.8,671.9V507.8h25.9v164.1H295.8z"/>
		<path class="st1" d="M381,555.9v116h-25.9V507.8h21.3l92.9,118.6V508h26.1v163.9h-22.7L381,555.9z"/>
		<path class="st1" d="M518.6,588.4c0-10,1.8-19.8,5.3-29.5c3.5-9.6,8.7-18.4,15.6-26.4c6.9-7.9,15.2-14.3,25.1-19
			c9.9-4.7,21-7,33.5-7c14.8,0,27.6,3.4,38.4,10.1c10.8,6.7,18.8,15.3,24,25.8l-20.3,13.6c-3.1-6.6-7-11.9-11.7-15.7
			c-4.7-3.8-9.8-6.5-15.3-8.1c-5.5-1.5-10.8-2.3-16.1-2.3c-8.6,0-16.2,1.7-22.7,5.2c-6.5,3.5-11.9,8.1-16.3,13.8
			c-4.4,5.7-7.7,12.1-9.9,19.2c-2.2,7.1-3.4,14.2-3.4,21.3c0,7.9,1.3,15.4,3.9,22.8c2.6,7.3,6.3,13.8,11,19.4
			c4.7,5.6,10.3,10.1,16.8,13.3c6.5,3.2,13.6,4.9,21.3,4.9c5.2,0,10.7-0.9,16.4-2.8c5.7-1.8,11-4.7,15.8-8.7
			c4.9-3.9,8.7-9.1,11.4-15.6l21.5,12.3c-3.4,8.2-8.7,15.1-15.8,20.8c-7.2,5.7-15.2,10-24,12.9c-8.9,2.9-17.6,4.4-26.2,4.4
			c-11.6,0-22.1-2.4-31.7-7.3c-9.6-4.9-17.8-11.3-24.7-19.4c-6.9-8.1-12.3-17.2-16.2-27.3C520.5,609,518.6,598.8,518.6,588.4z"/>
		<path class="st1" d="M752,673c-13.1,0-24.2-2.2-33.2-6.7c-9-4.5-16.3-10.6-21.7-18.3c-5.5-7.7-9.5-16.5-12-26.3
			c-2.5-9.9-3.8-20.1-3.8-30.7v-83.2h25.9V591c0,7.6,0.8,14.8,2.3,21.8c1.5,7,4,13.3,7.4,18.8c3.4,5.5,8,9.9,13.8,13.2
			c5.8,3.2,12.9,4.9,21.4,4.9c8.6,0,15.8-1.7,21.6-5c5.8-3.3,10.3-7.8,13.6-13.4c3.3-5.6,5.7-11.9,7.3-18.8
			c1.5-6.9,2.3-14.1,2.3-21.5v-83.2H823V591c0,11.2-1.4,21.8-4,31.8c-2.7,9.9-6.9,18.6-12.5,26.1c-5.6,7.5-12.9,13.4-21.8,17.7
			C775.7,670.9,764.8,673,752,673z"/>
		<path class="st1" d="M982.9,629.6c0,8.8-2.3,16.3-6.8,22.7c-4.5,6.3-10.7,11.2-18.4,14.6c-7.7,3.4-16.2,5.1-25.4,5.1h-78.4V507.8
			h84.6c7.7,0,14.4,2,20,6.1c5.6,4.1,9.9,9.3,12.9,15.7c3,6.4,4.5,13.1,4.5,20c0,8-2,15.5-6.1,22.5c-4.1,7-9.9,12.2-17.5,15.6
			c9.4,2.8,16.8,7.8,22.3,15.1C980.2,610.2,982.9,619.1,982.9,629.6z M879.8,530.2v48.3h47.6c4.3,0,8.2-1,11.6-3.1
			c3.4-2.1,6.1-4.9,8.1-8.6c2-3.6,3-7.7,3-12.4c0-4.8-0.9-9-2.8-12.6c-1.8-3.6-4.4-6.5-7.5-8.6c-3.2-2.1-6.8-3.1-11-3.1H879.8z
			 M956.3,624.7c0-4.6-1-8.8-2.9-12.6c-1.9-3.8-4.5-6.9-7.9-9.2c-3.3-2.4-7.2-3.6-11.7-3.6h-54.1v50.2h52.5c4.6,0,8.7-1.1,12.4-3.4
			c3.6-2.2,6.5-5.2,8.6-9C955.3,633.3,956.3,629.2,956.3,624.7z"/>
		<path class="st1" d="M1050.4,507.8h24.5l63.8,164.1h-27.3l-16-44.6h-65.6l-16.1,44.6h-27.5L1050.4,507.8z M1088.5,608.1
			l-25.8-71.9l-26,71.9H1088.5z"/>
		<path class="st1" d="M1260.5,530.7H1206v141.2h-26.1V530.7h-54.8v-22.9h135.4V530.7z"/>
		<path class="st1" d="M1391.6,649v22.9H1279V507.8h110.5v22.9h-84.6v46.7h73.3v21.5h-73.3V649H1391.6z"/>
		<path class="st1" d="M1483.3,673c-13.1,0-24.2-2.2-33.2-6.7c-9-4.5-16.3-10.6-21.7-18.3c-5.5-7.7-9.5-16.5-12-26.3
			c-2.5-9.9-3.8-20.1-3.8-30.7v-83.2h25.9V591c0,7.6,0.8,14.8,2.3,21.8c1.5,7,4,13.3,7.4,18.8c3.4,5.5,8,9.9,13.8,13.2
			c5.8,3.2,12.9,4.9,21.4,4.9c8.6,0,15.8-1.7,21.6-5c5.8-3.3,10.3-7.8,13.6-13.4c3.3-5.6,5.7-11.9,7.3-18.8
			c1.5-6.9,2.3-14.1,2.3-21.5v-83.2h26.1V591c0,11.2-1.4,21.8-4,31.8c-2.7,9.9-6.9,18.6-12.5,26.1c-5.6,7.5-12.9,13.4-21.8,17.7
			C1507,670.9,1496.1,673,1483.3,673z"/>
		<path class="st1" d="M1585.3,671.9V507.8h71.4c7.4,0,14.2,1.5,20.3,4.6c6.2,3.1,11.5,7.2,16.1,12.3c4.5,5.1,8.1,10.8,10.6,17.1
			c2.5,6.3,3.8,12.8,3.8,19.4c0,7.2-1.3,14.2-3.9,20.8c-2.6,6.6-6.4,12.3-11.2,17.1c-4.9,4.8-10.5,8.2-17,10.4l38.6,62.4h-29.1
			l-35.6-57.1h-38.1v57.1H1585.3z M1611.2,591.9h45.3c4.8,0,9-1.4,12.7-4.2c3.7-2.8,6.6-6.5,8.8-11.2c2.2-4.7,3.2-9.8,3.2-15.4
			c0-5.7-1.2-10.8-3.7-15.4c-2.5-4.5-5.7-8.2-9.6-11c-3.9-2.8-8.2-4.2-12.8-4.2h-43.9V591.9z"/>
	</g>
</g>
<g>
	<path class="st1" d="M336.9,1404.1h5.9l40.2,95.1h-7.2l-13-31.4h-46l-13,31.4h-7.4L336.9,1404.1z M360.4,1462.3l-20.6-49.8
		l-20.7,49.8H360.4z"/>
	<path class="st1" d="M419.7,1500.6c-4.7,0-9.1-1-13.2-2.9c-4.1-2-7.6-4.7-10.5-8.1c-2.9-3.4-5.2-7.3-6.8-11.5
		c-1.7-4.2-2.5-8.6-2.5-13.2c0-4.7,0.8-9.3,2.3-13.7c1.6-4.4,3.8-8.2,6.7-11.6c2.9-3.4,6.3-6,10.3-8c3.9-2,8.3-2.9,13.1-2.9
		c6.1,0,11.4,1.6,15.9,4.7c4.5,3.1,8.3,7,11.5,11.5v-15.1h6.2v70.9c0,6.2-1.5,11.5-4.6,15.8c-3,4.3-7.1,7.5-12.1,9.6
		c-5,2.1-10.4,3.1-16.2,3.1c-8.1,0-14.6-1.5-19.4-4.4c-4.8-2.9-8.6-6.8-11.6-11.7l4.6-3.1c2.8,4.6,6.5,8.1,11.3,10.3
		c4.7,2.2,9.8,3.4,15.1,3.4c4.7,0,9.1-0.9,13.1-2.6c4-1.7,7.1-4.3,9.5-7.7c2.4-3.4,3.6-7.6,3.6-12.5v-15.3
		c-2.8,4.6-6.5,8.2-11.3,10.9C429.9,1499.2,424.9,1500.6,419.7,1500.6z M421.3,1494.8c2.9,0,5.8-0.5,8.6-1.6
		c2.8-1.1,5.3-2.5,7.6-4.4c2.3-1.8,4.2-3.9,5.8-6.1c1.5-2.2,2.4-4.5,2.7-6.7v-22.9c-1.3-3.6-3.4-6.8-6.1-9.6c-2.7-2.8-5.8-5-9.2-6.6
		c-3.4-1.6-6.9-2.3-10.5-2.3c-4.2,0-8,0.9-11.3,2.7c-3.3,1.8-6.1,4.1-8.4,7c-2.3,2.9-4,6.2-5.2,9.8c-1.2,3.6-1.8,7.2-1.8,10.8
		c0,4,0.7,7.8,2.1,11.4c1.4,3.6,3.4,6.8,6,9.6c2.5,2.8,5.5,5,8.8,6.6C413.9,1494.1,417.5,1494.8,421.3,1494.8z"/>
	<path class="st1" d="M504.7,1435.6c-6.3,0.2-11.7,2-16.4,5.6c-4.7,3.5-8,8.4-9.8,14.5v43.5h-6.7v-69.5h6.4v17
		c2.4-4.9,5.6-8.9,9.6-12c4-3.1,8.3-4.8,12.7-5.3c0.9-0.1,1.7-0.1,2.4-0.1c0.7,0,1.3,0,1.7,0V1435.6z"/>
	<path class="st1" d="M542.4,1500.6c-4.9,0-9.5-1-13.7-2.9c-4.2-1.9-7.8-4.5-10.9-7.9s-5.5-7.2-7.2-11.6c-1.7-4.4-2.6-9.1-2.6-14
		c0-6.6,1.5-12.5,4.4-17.9c2.9-5.3,7-9.6,12.2-12.9c5.2-3.2,11-4.9,17.4-4.9c6.6,0,12.5,1.6,17.6,4.9c5.1,3.3,9.1,7.6,12.1,13
		c3,5.4,4.5,11.3,4.5,17.7c0,0.5,0,1.1,0,1.6c0,0.5,0,1-0.1,1.3H515c0.4,5.2,1.8,10,4.4,14.3c2.6,4.3,5.9,7.6,10,10.1
		c4.1,2.4,8.5,3.7,13.3,3.7s9.4-1.2,13.7-3.8c4.3-2.5,7.3-5.7,9-9.6l5.9,1.6c-1.3,3.3-3.5,6.3-6.4,8.8c-2.9,2.6-6.3,4.6-10.2,6.1
		C550.8,1499.9,546.7,1500.6,542.4,1500.6z M514.7,1462h55.1c-0.4-5.4-1.8-10.2-4.3-14.4c-2.5-4.2-5.8-7.5-9.8-9.9
		c-4.1-2.4-8.6-3.6-13.5-3.6c-4.9,0-9.4,1.2-13.4,3.6s-7.3,5.7-9.8,9.9C516.5,1451.8,515.1,1456.6,514.7,1462z M544.2,1415l-4.7-2.1
		l8.2-11.4h7.8L544.2,1415z"/>
	<path class="st1" d="M617.2,1500.6c-4.7,0-9.1-1-13.2-2.9c-4.1-2-7.6-4.7-10.5-8.1c-2.9-3.4-5.2-7.3-6.8-11.5
		c-1.7-4.2-2.5-8.6-2.5-13.2c0-4.7,0.8-9.3,2.3-13.7c1.6-4.4,3.8-8.2,6.7-11.6c2.9-3.4,6.3-6,10.3-8c3.9-2,8.3-2.9,13.1-2.9
		c6.1,0,11.4,1.6,15.9,4.7c4.5,3.1,8.3,7,11.5,11.5v-15.1h6.2v70.9c0,6.2-1.5,11.5-4.6,15.8c-3,4.3-7.1,7.5-12.1,9.6
		c-5,2.1-10.4,3.1-16.2,3.1c-8.1,0-14.6-1.5-19.4-4.4c-4.8-2.9-8.6-6.8-11.6-11.7l4.6-3.1c2.8,4.6,6.5,8.1,11.3,10.3
		c4.7,2.2,9.8,3.4,15.1,3.4c4.7,0,9.1-0.9,13.1-2.6c4-1.7,7.1-4.3,9.5-7.7c2.4-3.4,3.6-7.6,3.6-12.5v-15.3
		c-2.8,4.6-6.5,8.2-11.3,10.9C627.4,1499.2,622.4,1500.6,617.2,1500.6z M618.8,1494.8c2.9,0,5.8-0.5,8.6-1.6
		c2.8-1.1,5.3-2.5,7.6-4.4c2.3-1.8,4.2-3.9,5.8-6.1c1.5-2.2,2.4-4.5,2.7-6.7v-22.9c-1.3-3.6-3.4-6.8-6.1-9.6c-2.7-2.8-5.8-5-9.2-6.6
		c-3.4-1.6-6.9-2.3-10.5-2.3c-4.2,0-8,0.9-11.3,2.7c-3.3,1.8-6.1,4.1-8.4,7c-2.3,2.9-4,6.2-5.2,9.8c-1.2,3.6-1.8,7.2-1.8,10.8
		c0,4,0.7,7.8,2.1,11.4c1.4,3.6,3.4,6.8,6,9.6c2.5,2.8,5.5,5,8.8,6.6C611.4,1494.1,615,1494.8,618.8,1494.8z"/>
	<path class="st1" d="M663.4,1479.2c0-4.2,1.2-7.8,3.8-10.9c2.5-3.1,5.9-5.5,10.3-7.2c4.4-1.7,9.4-2.6,15.1-2.6
		c3.6,0,7.3,0.3,11.1,0.9c3.8,0.6,7.3,1.5,10.3,2.5v-6.5c0-6.4-1.9-11.5-5.6-15.3c-3.7-3.8-8.8-5.7-15.3-5.7
		c-3.5,0-7.1,0.7-10.9,2.1c-3.8,1.4-7.6,3.5-11.5,6.2l-2.8-4.8c4.6-3,9-5.3,13.2-6.9c4.2-1.6,8.5-2.3,12.7-2.3
		c8.3,0,14.9,2.4,19.7,7.3c4.8,4.9,7.2,11.6,7.2,20v34.4c0,1.1,0.2,1.9,0.7,2.4c0.5,0.5,1.2,0.8,2.2,0.9v5.5c-0.8,0.1-1.5,0.1-2,0.1
		s-1,0-1.3,0c-1.7-0.3-3-1-4-2.1c-0.9-1.2-1.5-2.5-1.5-3.9v-5.5c-3.2,4-7.3,7.1-12.4,9.4c-5,2.2-10.3,3.3-15.9,3.3
		c-4.4,0-8.3-0.9-11.9-2.8c-3.5-1.9-6.3-4.4-8.3-7.7C664.4,1486.9,663.4,1483.2,663.4,1479.2z M711.4,1485c0.9-1.2,1.6-2.3,2-3.3
		c0.4-1.1,0.7-2,0.7-2.9v-11.5c-3.2-1.2-6.6-2.2-10-2.8c-3.5-0.6-7.1-0.9-10.7-0.9c-7,0-12.6,1.4-17,4.1c-4.3,2.8-6.5,6.5-6.5,11.2
		c0,2.9,0.8,5.6,2.3,8.1c1.5,2.5,3.6,4.5,6.4,6c2.7,1.5,5.9,2.3,9.4,2.3c5,0,9.6-1,13.9-2.9C706.1,1490.5,709.3,1488,711.4,1485z"/>
	<path class="st1" d="M769.8,1496.4c-0.4,0.2-1.3,0.6-2.7,1.3c-1.3,0.7-3,1.4-5.1,1.9c-2.1,0.6-4.3,0.9-6.8,0.9
		c-2.4,0-4.7-0.5-6.8-1.4c-2.1-0.9-3.8-2.4-5-4.2c-1.3-1.9-1.9-4.2-1.9-6.9v-52.9h-9.8v-5.5h9.8v-23.9h6.7v23.9h16.2v5.5h-16.2v51.3
		c0.2,2.6,1.1,4.6,2.8,5.9c1.7,1.3,3.7,2,5.9,2c2.8,0,5.2-0.5,7.2-1.4c2.1-0.9,3.3-1.5,3.6-1.8L769.8,1496.4z"/>
	<path class="st1" d="M808,1500.6c-4.9,0-9.5-1-13.7-2.9c-4.2-1.9-7.8-4.5-10.9-7.9s-5.5-7.2-7.2-11.6c-1.7-4.4-2.6-9.1-2.6-14
		c0-6.6,1.5-12.5,4.4-17.9c2.9-5.3,7-9.6,12.2-12.9c5.2-3.2,11-4.9,17.4-4.9c6.6,0,12.5,1.6,17.6,4.9c5.1,3.3,9.1,7.6,12.1,13
		c3,5.4,4.5,11.3,4.5,17.7c0,0.5,0,1.1,0,1.6c0,0.5,0,1-0.1,1.3h-61.1c0.4,5.2,1.8,10,4.4,14.3c2.6,4.3,5.9,7.6,10,10.1
		c4.1,2.4,8.5,3.7,13.3,3.7s9.4-1.2,13.7-3.8c4.3-2.5,7.3-5.7,9-9.6l5.9,1.6c-1.3,3.3-3.5,6.3-6.4,8.8c-2.9,2.6-6.3,4.6-10.2,6.1
		C816.4,1499.9,812.3,1500.6,808,1500.6z M780.3,1462h55.1c-0.4-5.4-1.8-10.2-4.3-14.4c-2.5-4.2-5.8-7.5-9.8-9.9
		c-4.1-2.4-8.6-3.6-13.5-3.6c-4.9,0-9.4,1.2-13.4,3.6s-7.3,5.7-9.8,9.9C782.1,1451.8,780.6,1456.6,780.3,1462z"/>
	<path class="st1" d="M854,1469.8v-40.1h6.7v39.2c0,8.6,1.5,15.1,4.4,19.3c2.9,4.2,7.3,6.4,13.2,6.4c3.9,0,7.7-0.9,11.3-2.6
		c3.6-1.7,6.8-4.2,9.6-7.4c2.8-3.2,4.8-6.8,6.2-11v-43.9h6.7v60.7c0,1.1,0.2,1.9,0.7,2.4c0.5,0.5,1.2,0.8,2.1,0.9v5.5
		c-0.9,0.1-1.6,0.1-2.1,0.1c-0.5,0-0.9,0-1.3-0.1c-1.5-0.2-2.8-0.8-3.8-1.9c-1-1.1-1.5-2.5-1.6-4.1l-0.1-10.4
		c-3,5.5-7.2,9.9-12.5,13c-5.3,3.2-11.1,4.7-17.2,4.7c-7.3,0-12.9-2.6-16.6-7.8C855.9,1487.7,854,1480,854,1469.8z"/>
	<path class="st1" d="M964.4,1435.6c-6.3,0.2-11.7,2-16.4,5.6c-4.7,3.5-8,8.4-9.8,14.5v43.5h-6.7v-69.5h6.4v17
		c2.4-4.9,5.6-8.9,9.6-12c4-3.1,8.3-4.8,12.7-5.3c0.9-0.1,1.7-0.1,2.4-0.1c0.7,0,1.3,0,1.7,0V1435.6z"/>
	<path class="st1" d="M999.8,1464.7c0-6.5,1.4-12.5,4.2-17.9c2.8-5.4,6.6-9.8,11.4-13.2c4.8-3.3,10.3-5,16.5-5
		c6.1,0,11.5,1.6,16.1,4.8c4.7,3.2,8.4,7.1,11.1,11.5v-43.5h6.7v89c0,1.1,0.2,1.9,0.7,2.4c0.5,0.5,1.2,0.9,2.1,0.9v5.5
		c-1.4,0.2-2.5,0.2-3.2,0.1c-1.6-0.3-2.9-1-4-2.3c-1.1-1.2-1.6-2.6-1.6-4v-7.8c-2.9,4.6-6.7,8.4-11.5,11.1
		c-4.8,2.8-9.8,4.2-14.9,4.2c-4.8,0-9.3-1-13.4-3c-4.1-2-7.7-4.7-10.7-8.1c-3-3.4-5.3-7.2-7-11.5
		C1000.6,1473.8,999.8,1469.3,999.8,1464.7z M1059,1475.9v-22.8c-1.3-3.4-3.3-6.5-6-9.3c-2.8-2.8-5.9-5-9.4-6.7
		c-3.5-1.6-6.9-2.5-10.3-2.5c-4,0-7.7,0.8-10.9,2.5c-3.3,1.7-6.1,4-8.4,6.8c-2.4,2.8-4.2,6.1-5.4,9.7c-1.3,3.6-1.9,7.3-1.9,11.1
		c0,3.9,0.7,7.7,2.1,11.3c1.4,3.6,3.4,6.8,6,9.6c2.5,2.8,5.5,5,8.8,6.5c3.4,1.6,7,2.3,10.9,2.3c2.4,0,5-0.5,7.7-1.5
		c2.7-1,5.3-2.3,7.8-4.1c2.5-1.7,4.5-3.7,6.2-6C1057.8,1480.8,1058.7,1478.4,1059,1475.9z"/>
	<path class="st1" d="M1114.7,1500.6c-4.9,0-9.5-1-13.7-2.9c-4.2-1.9-7.8-4.5-10.9-7.9s-5.5-7.2-7.2-11.6c-1.7-4.4-2.6-9.1-2.6-14
		c0-6.6,1.5-12.5,4.4-17.9c2.9-5.3,7-9.6,12.2-12.9c5.2-3.2,11-4.9,17.4-4.9c6.6,0,12.5,1.6,17.6,4.9c5.1,3.3,9.1,7.6,12.1,13
		c3,5.4,4.5,11.3,4.5,17.7c0,0.5,0,1.1,0,1.6c0,0.5,0,1-0.1,1.3h-61.1c0.4,5.2,1.8,10,4.4,14.3c2.6,4.3,5.9,7.6,10,10.1
		c4.1,2.4,8.5,3.7,13.3,3.7s9.4-1.2,13.7-3.8c4.3-2.5,7.3-5.7,9-9.6l5.9,1.6c-1.3,3.3-3.5,6.3-6.4,8.8c-2.9,2.6-6.3,4.6-10.2,6.1
		C1123.1,1499.9,1119,1500.6,1114.7,1500.6z M1087,1462h55.1c-0.4-5.4-1.8-10.2-4.3-14.4c-2.5-4.2-5.8-7.5-9.8-9.9
		c-4.1-2.4-8.6-3.6-13.5-3.6c-4.9,0-9.4,1.2-13.4,3.6s-7.3,5.7-9.8,9.9C1088.8,1451.8,1087.4,1456.6,1087,1462z"/>
	<path class="st1" d="M1226.9,1435.6c-6.3,0.2-11.7,2-16.4,5.6c-4.7,3.5-8,8.4-9.8,14.5v43.5h-6.7v-69.5h6.4v17
		c2.4-4.9,5.6-8.9,9.6-12c4-3.1,8.3-4.8,12.7-5.3c0.9-0.1,1.7-0.1,2.4-0.1c0.7,0,1.3,0,1.7,0V1435.6z"/>
	<path class="st1" d="M1264.7,1500.6c-4.9,0-9.5-1-13.7-2.9c-4.2-1.9-7.8-4.5-10.9-7.9s-5.5-7.2-7.2-11.6c-1.7-4.4-2.6-9.1-2.6-14
		c0-6.6,1.5-12.5,4.4-17.9c2.9-5.3,7-9.6,12.2-12.9c5.2-3.2,11-4.9,17.4-4.9c6.6,0,12.5,1.6,17.6,4.9c5.1,3.3,9.1,7.6,12.1,13
		c3,5.4,4.5,11.3,4.5,17.7c0,0.5,0,1.1,0,1.6c0,0.5,0,1-0.1,1.3h-61.1c0.4,5.2,1.8,10,4.4,14.3c2.6,4.3,5.9,7.6,10,10.1
		c4.1,2.4,8.5,3.7,13.3,3.7s9.4-1.2,13.7-3.8c4.3-2.5,7.3-5.7,9-9.6l5.9,1.6c-1.3,3.3-3.5,6.3-6.4,8.8c-2.9,2.6-6.3,4.6-10.2,6.1
		C1273.1,1499.9,1269,1500.6,1264.7,1500.6z M1236.9,1462h55.1c-0.4-5.4-1.8-10.2-4.3-14.4c-2.5-4.2-5.8-7.5-9.8-9.9
		c-4.1-2.4-8.6-3.6-13.5-3.6c-4.9,0-9.4,1.2-13.4,3.6s-7.3,5.7-9.8,9.9C1238.7,1451.8,1237.3,1456.6,1236.9,1462z M1266.4,1415
		l-4.7-2.1l8.2-11.4h7.8L1266.4,1415z"/>
	<path class="st1" d="M1310.6,1469.8v-40.1h6.7v39.2c0,8.6,1.5,15.1,4.4,19.3c2.9,4.2,7.3,6.4,13.2,6.4c3.9,0,7.7-0.9,11.3-2.6
		c3.6-1.7,6.8-4.2,9.6-7.4c2.8-3.2,4.8-6.8,6.2-11v-43.9h6.7v60.7c0,1.1,0.2,1.9,0.7,2.4c0.5,0.5,1.2,0.8,2.1,0.9v5.5
		c-0.9,0.1-1.6,0.1-2.1,0.1c-0.5,0-0.9,0-1.3-0.1c-1.5-0.2-2.8-0.8-3.8-1.9c-1-1.1-1.5-2.5-1.6-4.1l-0.1-10.4
		c-3,5.5-7.2,9.9-12.5,13c-5.3,3.2-11.1,4.7-17.2,4.7c-7.3,0-12.9-2.6-16.6-7.8C1312.5,1487.7,1310.6,1480,1310.6,1469.8z"/>
	<path class="st1" d="M1410.1,1500.6c-5.5,0-10.7-0.9-15.4-2.8c-4.7-1.9-8.9-4.7-12.5-8.6l3.1-4.7c3.8,3.7,7.7,6.3,11.7,8
		c3.9,1.7,8.2,2.5,12.9,2.5c6,0,10.8-1.2,14.5-3.7c3.7-2.5,5.6-6,5.6-10.4c0-3-0.9-5.4-2.6-7c-1.7-1.6-4.2-3-7.5-4
		c-3.3-1-7.2-2.1-11.9-3.3c-4.7-1.2-8.7-2.5-12-3.9c-3.3-1.3-5.7-3.1-7.3-5.2c-1.6-2.1-2.4-5-2.4-8.7c0-4.5,1.1-8.3,3.4-11.3
		c2.3-3,5.4-5.2,9.2-6.7c3.9-1.5,8.2-2.2,12.9-2.2c5.4,0,10.2,0.9,14.3,2.7c4.1,1.8,7.2,4.2,9.3,7.1l-3.6,4.3
		c-2.2-2.9-5.1-5-8.7-6.4c-3.6-1.4-7.5-2.1-11.8-2.1c-3.2,0-6.3,0.4-9.1,1.3c-2.9,0.9-5.2,2.3-6.9,4.3c-1.7,2-2.6,4.7-2.6,8.1
		c0,2.7,0.6,4.8,1.9,6.3c1.3,1.5,3.2,2.7,5.8,3.7c2.6,0.9,5.8,1.9,9.6,3c5.4,1.3,10.1,2.7,14.1,4.1c3.9,1.4,7,3.3,9.1,5.5
		s3.2,5.5,3.2,9.5c0,6.3-2.4,11.3-7.2,14.9C1424.4,1498.8,1418,1500.6,1410.1,1500.6z"/>
	<path class="st1" d="M1472.4,1500.6c-5.5,0-10.7-0.9-15.4-2.8c-4.7-1.9-8.9-4.7-12.5-8.6l3.1-4.7c3.8,3.7,7.7,6.3,11.7,8
		c3.9,1.7,8.2,2.5,12.9,2.5c6,0,10.8-1.2,14.5-3.7c3.7-2.5,5.6-6,5.6-10.4c0-3-0.9-5.4-2.6-7c-1.7-1.6-4.2-3-7.5-4
		c-3.3-1-7.2-2.1-11.9-3.3c-4.7-1.2-8.7-2.5-12-3.9c-3.3-1.3-5.7-3.1-7.3-5.2c-1.6-2.1-2.4-5-2.4-8.7c0-4.5,1.1-8.3,3.4-11.3
		c2.3-3,5.4-5.2,9.2-6.7c3.9-1.5,8.2-2.2,12.9-2.2c5.4,0,10.2,0.9,14.3,2.7c4.1,1.8,7.2,4.2,9.3,7.1l-3.6,4.3
		c-2.2-2.9-5.1-5-8.7-6.4c-3.6-1.4-7.5-2.1-11.8-2.1c-3.2,0-6.3,0.4-9.1,1.3c-2.9,0.9-5.2,2.3-6.9,4.3c-1.7,2-2.6,4.7-2.6,8.1
		c0,2.7,0.6,4.8,1.9,6.3c1.3,1.5,3.2,2.7,5.8,3.7c2.6,0.9,5.8,1.9,9.6,3c5.4,1.3,10.1,2.7,14.1,4.1c3.9,1.4,7,3.3,9.1,5.5
		s3.2,5.5,3.2,9.5c0,6.3-2.4,11.3-7.2,14.9C1486.7,1498.8,1480.3,1500.6,1472.4,1500.6z"/>
	<path class="st1" d="M1512.7,1413.8v-12.3h6.7v12.3H1512.7z M1512.7,1499.3v-69.7h6.7v69.7H1512.7z"/>
	<path class="st1" d="M1569.7,1496.4c-0.4,0.2-1.3,0.6-2.7,1.3c-1.3,0.7-3,1.4-5.1,1.9c-2.1,0.6-4.3,0.9-6.8,0.9
		c-2.4,0-4.7-0.5-6.8-1.4c-2.1-0.9-3.8-2.4-5-4.2c-1.3-1.9-1.9-4.2-1.9-6.9v-52.9h-9.8v-5.5h9.8v-23.9h6.7v23.9h16.2v5.5h-16.2v51.3
		c0.2,2.6,1.1,4.6,2.8,5.9c1.7,1.3,3.7,2,5.9,2c2.8,0,5.2-0.5,7.2-1.4c2.1-0.9,3.3-1.5,3.6-1.8L1569.7,1496.4z"/>
	<path class="st1" d="M1607.9,1500.6c-4.9,0-9.5-1-13.7-2.9c-4.2-1.9-7.8-4.5-10.9-7.9s-5.5-7.2-7.2-11.6c-1.7-4.4-2.6-9.1-2.6-14
		c0-6.6,1.5-12.5,4.4-17.9c2.9-5.3,7-9.6,12.2-12.9c5.2-3.2,11-4.9,17.4-4.9c6.6,0,12.5,1.6,17.6,4.9c5.1,3.3,9.1,7.6,12.1,13
		c3,5.4,4.5,11.3,4.5,17.7c0,0.5,0,1.1,0,1.6c0,0.5,0,1-0.1,1.3h-61.1c0.4,5.2,1.8,10,4.4,14.3c2.6,4.3,5.9,7.6,10,10.1
		c4.1,2.4,8.5,3.7,13.3,3.7s9.4-1.2,13.7-3.8c4.3-2.5,7.3-5.7,9-9.6l5.9,1.6c-1.3,3.3-3.5,6.3-6.4,8.8c-2.9,2.6-6.3,4.6-10.2,6.1
		C1616.2,1499.9,1612.1,1500.6,1607.9,1500.6z M1580.1,1462h55.1c-0.4-5.4-1.8-10.2-4.3-14.4c-2.5-4.2-5.8-7.5-9.8-9.9
		c-4.1-2.4-8.6-3.6-13.5-3.6c-4.9,0-9.4,1.2-13.4,3.6s-7.3,5.7-9.8,9.9C1581.9,1451.8,1580.5,1456.6,1580.1,1462z"/>
	<path class="st1" d="M1676.5,1500.6c-5.5,0-10.7-0.9-15.4-2.8c-4.7-1.9-8.9-4.7-12.5-8.6l3.1-4.7c3.8,3.7,7.7,6.3,11.7,8
		c3.9,1.7,8.2,2.5,12.9,2.5c6,0,10.8-1.2,14.5-3.7c3.7-2.5,5.6-6,5.6-10.4c0-3-0.9-5.4-2.6-7c-1.7-1.6-4.2-3-7.5-4
		c-3.3-1-7.2-2.1-11.9-3.3c-4.7-1.2-8.7-2.5-12-3.9c-3.3-1.3-5.7-3.1-7.3-5.2c-1.6-2.1-2.4-5-2.4-8.7c0-4.5,1.1-8.3,3.4-11.3
		c2.3-3,5.4-5.2,9.2-6.7c3.9-1.5,8.2-2.2,12.9-2.2c5.4,0,10.2,0.9,14.3,2.7c4.1,1.8,7.2,4.2,9.3,7.1l-3.6,4.3
		c-2.2-2.9-5.1-5-8.7-6.4c-3.6-1.4-7.5-2.1-11.8-2.1c-3.2,0-6.3,0.4-9.1,1.3c-2.9,0.9-5.2,2.3-6.9,4.3c-1.7,2-2.6,4.7-2.6,8.1
		c0,2.7,0.6,4.8,1.9,6.3c1.3,1.5,3.2,2.7,5.8,3.7c2.6,0.9,5.8,1.9,9.6,3c5.4,1.3,10.1,2.7,14.1,4.1c3.9,1.4,7,3.3,9.1,5.5
		s3.2,5.5,3.2,9.5c0,6.3-2.4,11.3-7.2,14.9C1690.8,1498.8,1684.4,1500.6,1676.5,1500.6z"/>
</g>
</svg>
