<svg width="101" height="84" viewBox="0 0 101 84" fill="none" xmlns="http://www.w3.org/2000/svg">
<path fill-rule="evenodd" clip-rule="evenodd" d="M2.54565 29.7518C2.54565 29.5212 2.60578 29.3404 2.72669 29.2089C2.84739 29.077 2.99181 29.0062 3.15975 28.9951H18.2349C18.4765 28.9951 18.6576 29.0662 18.7785 29.208C18.8992 29.3503 18.9595 29.5417 18.9595 29.782V33.8497C18.9595 34.0357 18.8967 34.2136 18.7706 34.3828C18.6445 34.5521 18.4607 34.637 18.2193 34.637H8.64182V39.7361H15.7146C15.9139 39.7361 16.0821 39.7937 16.2186 39.9086C16.3549 40.0238 16.4234 40.2079 16.4234 40.4597V44.3913C16.4234 44.5777 16.363 44.7561 16.2424 44.9258C16.1214 45.096 15.9562 45.181 15.746 45.181H8.64182V52.7145C8.64182 53.1859 8.39998 53.4219 7.9172 53.4219H3.11273C2.73461 53.3671 2.54565 53.137 2.54565 52.7308V29.7518Z" fill="#6A5BF9"/>
<path fill-rule="evenodd" clip-rule="evenodd" d="M26.3473 41.2164C26.3473 42.127 26.494 42.9766 26.7876 43.7666C27.0814 44.5558 27.493 45.2443 28.0227 45.8308C28.5523 46.4173 29.1791 46.878 29.9025 47.2121C30.6262 47.5468 31.4232 47.7144 32.294 47.7144C33.1642 47.7144 33.9639 47.5468 34.693 47.2121C35.4217 46.878 36.0511 46.4173 36.5807 45.8308C37.1105 45.2443 37.5218 44.5558 37.8157 43.7666C38.1093 42.9766 38.2562 42.127 38.2562 41.2164C38.2562 40.3179 38.1093 39.4706 37.8157 38.675C37.5218 37.8804 37.1105 37.1867 36.5807 36.5943C36.0511 36.0022 35.4217 35.5361 34.693 35.1962C33.9639 34.8568 33.1642 34.6864 32.294 34.6864C31.4232 34.6864 30.6262 34.8568 29.9025 35.1962C29.1791 35.5361 28.5523 36.0022 28.0227 36.5943C27.493 37.1867 27.0814 37.8804 26.7876 38.675C26.494 39.4706 26.3473 40.3179 26.3473 41.2164ZM20.2511 41.2331C20.2511 40.0708 20.3928 38.9551 20.6767 37.8858C20.9601 36.8164 21.3649 35.8133 21.8902 34.8754C22.4157 33.9379 23.0436 33.0852 23.7738 32.3177C24.5043 31.55 25.3162 30.895 26.2092 30.3522C27.1024 29.8094 28.0614 29.3869 29.0859 29.0853C30.1107 28.7841 31.18 28.6331 32.294 28.6331C33.397 28.6331 34.4638 28.7841 35.4935 29.0853C36.5233 29.3869 37.485 29.8094 38.3784 30.3522C39.2714 30.895 40.0858 31.55 40.8215 32.3177C41.5569 33.0852 42.1848 33.9379 42.7051 34.8754C43.2252 35.8133 43.63 36.8164 43.9188 37.8858C44.2079 38.9551 44.3523 40.0708 44.3523 41.2331C44.3523 42.3955 44.2079 43.5114 43.9188 44.5805C43.63 45.6494 43.2252 46.6478 42.7051 47.5741C42.1848 48.5012 41.5569 49.3454 40.8215 50.1075C40.0858 50.8698 39.2714 51.5248 38.3784 52.073C37.485 52.6215 36.5233 53.0435 35.4935 53.3393C34.4638 53.6357 33.397 53.7839 32.294 53.7839C31.18 53.7839 30.1107 53.6357 29.0859 53.3393C28.0614 53.0435 27.1024 52.6215 26.2092 52.073C25.3162 51.5248 24.5043 50.8698 23.7738 50.1075C23.0436 49.3454 22.4157 48.5012 21.8902 47.5741C21.3649 46.6478 20.9601 45.6494 20.6767 44.5805C20.3928 43.5114 20.2511 42.3955 20.2511 41.2331Z" fill="#6A5BF9"/>
<path fill-rule="evenodd" clip-rule="evenodd" d="M60.0985 37.0553C60.0985 36.7258 60.0406 36.3968 59.9251 36.068C59.8096 35.739 59.6469 35.4374 59.4369 35.1636C59.2267 34.8894 58.9745 34.6592 58.6806 34.4726C58.3866 34.2861 58.0609 34.1657 57.7042 34.1105C57.41 34.089 57.1342 34.0694 56.8772 34.0532C56.6198 34.0366 56.3386 34.0286 56.0342 34.0286H53.8604V40.0651H56.7588C56.9482 40.0651 57.1159 40.06 57.2631 40.0489C57.41 40.0378 57.5727 40.0215 57.7515 39.9995C58.1188 39.9559 58.4496 39.8431 58.7437 39.6623C59.0377 39.481 59.2846 39.2568 59.4841 38.9877C59.6835 38.7192 59.8358 38.4175 59.9409 38.0833C60.0458 37.7487 60.0985 37.4062 60.0985 37.0553ZM47.7644 29.7518C47.7644 29.5212 47.822 29.338 47.9375 29.2004C48.053 29.0638 48.2262 28.9951 48.4574 28.9951H58.6336C59.7151 28.9951 60.7284 29.2061 61.6738 29.6281C62.6188 30.0506 63.4433 30.6236 64.1467 31.3472C64.8502 32.0706 65.4042 32.9181 65.8088 33.8886C66.2129 34.8591 66.4154 35.8929 66.4154 36.9892C66.4154 37.7352 66.318 38.4449 66.1239 39.1194C65.9295 39.7937 65.6592 40.4243 65.3125 41.0113C64.966 41.5976 64.5537 42.1293 64.0761 42.6065C63.5981 43.0837 63.0758 43.4923 62.5085 43.8321L66.5569 51.7934C66.6304 51.9468 66.7248 52.128 66.8406 52.3362C66.9558 52.5448 67.0137 52.7256 67.0137 52.879C67.0137 53.0546 66.9588 53.1889 66.8485 53.2819C66.7382 53.3754 66.5886 53.4219 66.3994 53.4219H60.9964C60.8179 53.4219 60.6578 53.3671 60.5159 53.2574C60.3742 53.1481 60.2822 52.9999 60.2404 52.8134L56.4125 45.2961H53.8603V52.7145C53.8603 53.1859 53.619 53.4219 53.1357 53.4219H48.4574C48.2472 53.4219 48.0792 53.3643 47.9534 53.2493C47.8275 53.1342 47.7644 52.9557 47.7644 52.7145V29.7518Z" fill="#6A5BF9"/>
<path fill-rule="evenodd" clip-rule="evenodd" d="M17.5312 65.7005C16.9836 65.297 16.398 64.9833 15.7753 64.7586C15.1526 64.5346 14.487 64.4223 13.7782 64.4223C12.8868 64.4223 12.0706 64.5988 11.33 64.9519C10.5891 65.3054 9.95283 65.7843 9.42101 66.3899C8.88941 66.9955 8.47332 67.705 8.17271 68.5178C7.87188 69.3309 7.72181 70.1971 7.72181 71.1166C7.72181 72.0359 7.87188 72.8992 8.17271 73.7068C8.47332 74.5138 8.88941 75.218 9.42101 75.8175C9.95283 76.4172 10.5891 76.8914 11.33 77.2386C12.0706 77.5867 12.8868 77.7602 13.7782 77.7602C14.1538 77.7602 14.527 77.7323 14.8977 77.6759C15.2681 77.62 15.6627 77.5475 16.0815 77.4571V73.0507C16.0815 72.8381 16.1405 72.6611 16.2587 72.5209C16.3767 72.3809 16.5539 72.3103 16.7903 72.3103H21.1715C21.3324 72.3103 21.5039 72.3781 21.6868 72.5124C21.8694 72.6467 21.9607 72.8267 21.9607 73.0507V81.1911C21.9607 81.4937 21.8048 81.7408 21.4935 81.931C20.9886 82.29 20.4304 82.5984 19.8183 82.8562C19.2062 83.1141 18.5673 83.3275 17.9017 83.4955C17.2356 83.6638 16.5618 83.7898 15.8802 83.8736C15.198 83.9579 14.5351 84.0001 13.8907 84.0001C12.7527 84.0001 11.6599 83.8486 10.613 83.5456C9.56611 83.2432 8.5861 82.8116 7.67344 82.2508C6.76055 81.6903 5.93106 81.0205 5.18498 80.2409C4.43844 79.4618 3.79677 78.5985 3.26021 77.6509C2.72296 76.7035 2.3098 75.6828 2.01982 74.5898C1.72984 73.4966 1.58496 72.3554 1.58496 71.1671C1.58496 69.9785 1.72984 68.8376 2.01982 67.7442C2.3098 66.6507 2.72296 65.625 3.26021 64.6661C3.79677 63.7074 4.43844 62.8356 5.18498 62.0506C5.93106 61.2656 6.76055 60.596 7.67344 60.0409C8.5861 59.4858 9.56611 59.0539 10.613 58.7454C11.6599 58.4377 12.7527 58.2831 13.8907 58.2831C15.1795 58.2831 16.3957 58.4709 17.5391 58.8464C18.6828 59.2227 19.7593 59.7634 20.7687 60.4695C20.9511 60.5816 21.0908 60.7303 21.1875 60.9151C21.284 61.1004 21.2626 61.3107 21.1231 61.5462L18.5137 65.4818C18.374 65.6614 18.2344 65.782 18.0949 65.8438C17.9552 65.9049 17.7672 65.8575 17.5312 65.7005Z" fill="#36AE72"/>
<path fill-rule="evenodd" clip-rule="evenodd" d="M30.7802 71.1497C30.7802 72.0808 30.9302 72.9496 31.2304 73.7572C31.5308 74.5641 31.9516 75.2684 32.4934 75.8679C33.0349 76.4676 33.6759 76.9389 34.4157 77.2807C35.1556 77.6229 35.9704 77.794 36.8607 77.794C37.7506 77.794 38.5683 77.6229 39.3139 77.2807C40.0591 76.9389 40.7026 76.4676 41.2441 75.8679C41.7859 75.2684 42.2065 74.5641 42.5069 73.7572C42.807 72.9496 42.9573 72.0808 42.9573 71.1497C42.9573 70.2309 42.807 69.3645 42.5069 68.551C42.2065 67.7386 41.7859 67.0291 41.2441 66.4235C40.7026 65.8181 40.0591 65.3414 39.3139 64.9938C38.5683 64.6468 37.7506 64.4726 36.8607 64.4726C35.9704 64.4726 35.1556 64.6468 34.4157 64.9938C33.6759 65.3414 33.0349 65.8181 32.4934 66.4235C31.9516 67.0291 31.5308 67.7386 31.2304 68.551C30.9302 69.3645 30.7802 70.2309 30.7802 71.1497ZM24.5469 71.1671C24.5469 69.9785 24.6918 68.8376 24.9817 67.7442C25.2717 66.6507 25.6858 65.625 26.2228 64.6661C26.76 63.7074 27.4022 62.8356 28.1489 62.0506C28.8957 61.2656 29.7259 60.596 30.6392 60.0409C31.5523 59.4858 32.533 59.0539 33.5806 58.7454C34.6284 58.4377 35.7217 58.2831 36.8608 58.2831C37.9886 58.2831 39.0796 58.4377 40.1326 58.7454C41.1857 59.0539 42.1688 59.4858 43.0824 60.0409C43.9955 60.596 44.8284 61.2656 45.5806 62.0506C46.3325 62.8356 46.9747 63.7074 47.5065 64.6661C48.0383 65.625 48.4521 66.6507 48.7475 67.7442C49.0432 68.8376 49.1908 69.9785 49.1908 71.1671C49.1908 72.3554 49.0432 73.4966 48.7475 74.5898C48.4521 75.6828 48.0383 76.7035 47.5065 77.6509C46.9747 78.5985 46.3325 79.4618 45.5806 80.2409C44.8284 81.0205 43.9955 81.6903 43.0824 82.2508C42.1688 82.8116 41.1857 83.2432 40.1326 83.5456C39.0796 83.8486 37.9886 84.0001 36.8608 84.0001C35.7217 84.0001 34.6284 83.8486 33.5806 83.5456C32.533 83.2432 31.5523 82.8116 30.6392 82.2508C29.7259 81.6903 28.8957 81.0205 28.1489 80.2409C27.4022 79.4618 26.76 78.5985 26.2228 77.6509C25.6858 76.7035 25.2717 75.6828 24.9817 74.5898C24.6918 73.4966 24.5469 72.3554 24.5469 71.1671Z" fill="#36AE72"/>
<path fill-rule="evenodd" clip-rule="evenodd" d="M57.6823 71.1497C57.6823 72.0808 57.8324 72.9496 58.1326 73.7572C58.4329 74.5641 58.8538 75.2684 59.3955 75.8679C59.9371 76.4676 60.5781 76.9389 61.3178 77.2807C62.0578 77.6229 62.8726 77.794 63.7629 77.794C64.6527 77.794 65.4705 77.6229 66.2161 77.2807C66.9613 76.9389 67.6047 76.4676 68.1465 75.8679C68.6881 75.2684 69.1087 74.5641 69.4093 73.7572C69.7092 72.9496 69.8595 72.0808 69.8595 71.1497C69.8595 70.2309 69.7092 69.3645 69.4093 68.551C69.1087 67.7386 68.6881 67.0291 68.1465 66.4235C67.6047 65.8181 66.9613 65.3414 66.2161 64.9938C65.4705 64.6468 64.6527 64.4726 63.7629 64.4726C62.8726 64.4726 62.0578 64.6468 61.3178 64.9938C60.5781 65.3414 59.9371 65.8181 59.3955 66.4235C58.8538 67.0291 58.4329 67.7386 58.1326 68.551C57.8324 69.3645 57.6823 70.2309 57.6823 71.1497ZM51.449 71.1671C51.449 69.9785 51.5939 68.8376 51.8838 67.7442C52.1738 66.6507 52.5879 65.625 53.1249 64.6661C53.6621 63.7074 54.3043 62.8356 55.051 62.0506C55.7978 61.2656 56.628 60.596 57.5413 60.0409C58.4544 59.4858 59.4351 59.0539 60.4827 58.7454C61.5305 58.4377 62.6238 58.2831 63.7629 58.2831C64.8907 58.2831 65.9817 58.4377 67.0347 58.7454C68.088 59.0539 69.0712 59.4858 69.9845 60.0409C70.8976 60.596 71.7307 61.2656 72.4829 62.0506C73.2346 62.8356 73.877 63.7074 74.4088 64.6661C74.9404 65.625 75.3545 66.6507 75.6499 67.7442C75.9453 68.8376 76.0931 69.9785 76.0931 71.1671C76.0931 72.3554 75.9453 73.4966 75.6499 74.5898C75.3545 75.6828 74.9404 76.7035 74.4088 77.6509C73.877 78.5985 73.2346 79.4618 72.4829 80.2409C71.7307 81.0205 70.8976 81.6903 69.9845 82.2508C69.0712 82.8116 68.088 83.2432 67.0347 83.5456C65.9817 83.8486 64.8907 84.0001 63.7629 84.0001C62.6238 84.0001 61.5305 83.8486 60.4827 83.5456C59.4351 83.2432 58.4544 82.8116 57.5413 82.2508C56.628 81.6903 55.7978 81.0205 55.051 80.2409C54.3043 79.4618 53.6621 78.5985 53.1249 77.6509C52.5879 76.7035 52.1738 75.6828 51.8838 74.5898C51.5939 73.4966 51.449 72.3554 51.449 71.1671Z" fill="#36AE72"/>
<path fill-rule="evenodd" clip-rule="evenodd" d="M85.6834 64.6741V77.6084H87.0365C87.2831 77.6084 87.525 77.6001 87.7612 77.5836C87.9973 77.5664 88.2335 77.5473 88.4702 77.5246C89.2755 77.4571 90.0268 77.2525 90.7249 76.9108C91.4226 76.5685 92.032 76.1199 92.5532 75.565C93.0739 75.0099 93.4817 74.3568 93.7773 73.6056C94.0723 72.8544 94.2201 72.0356 94.2201 71.1496C94.2201 70.2077 94.051 69.3418 93.7131 68.5509C93.3745 67.7607 92.9153 67.0772 92.3358 66.499C91.756 65.9219 91.0766 65.4733 90.298 65.1537C89.5196 64.8339 88.6899 64.6741 87.8095 64.6741H85.6834ZM100.421 71.1669C100.421 72.3555 100.276 73.4851 99.9866 74.5559C99.6964 75.6266 99.2833 76.6245 98.7465 77.5497C98.2092 78.4746 97.5675 79.3132 96.8212 80.0642C96.0747 80.8154 95.2484 81.4548 94.3407 81.9813C93.4337 82.5086 92.4537 82.915 91.4013 83.2008C90.3488 83.4866 89.2589 83.6299 88.1315 83.6299H80.1906C79.9976 83.6299 79.8258 83.5853 79.6755 83.4956C79.5247 83.4057 79.4497 83.215 79.4497 82.9233V59.4269C79.4497 59.1911 79.5116 59.0009 79.635 58.8548C79.758 58.7092 79.9436 58.636 80.1906 58.636H88.1315C89.2589 58.636 90.3463 58.7821 91.3934 59.0733C92.4406 59.365 93.4172 59.7799 94.3249 60.3183C95.2319 60.8562 96.0616 61.5014 96.8133 62.2524C97.5651 63.0037 98.2065 63.8446 98.7381 64.7752C99.2695 65.7063 99.6833 66.7096 99.9785 67.7863C100.274 68.8625 100.421 69.9892 100.421 71.1669Z" fill="#36AE72"/>
<path fill-rule="evenodd" clip-rule="evenodd" d="M0 0.967203C0 0.772491 0.0630591 0.61625 0.189629 0.498715C0.316425 0.381652 0.473282 0.32312 0.660877 0.32312H15.789C15.9578 0.32312 16.1074 0.376931 16.2387 0.484318C16.37 0.591704 16.4449 0.75243 16.4638 0.967203V4.61244C16.4638 4.78804 16.4051 4.95632 16.288 5.11728C16.1707 5.27847 16.0046 5.35896 15.789 5.35896H10.9384V21.4346C10.9384 21.6107 10.8776 21.7697 10.7562 21.9123C10.6344 22.0541 10.4755 22.1252 10.2793 22.1252H6.15628C5.99717 22.1252 5.84777 22.0588 5.70741 21.9267C5.56728 21.7947 5.49721 21.6302 5.49721 21.4346V5.35896H0.660877C0.473282 5.35896 0.316425 5.2957 0.189629 5.16873C0.0630591 5.04199 0 4.85648 0 4.61244V0.967203Z" fill="#FF8924"/>
<path fill-rule="evenodd" clip-rule="evenodd" d="M23.08 11.2317C23.08 12.044 23.2108 12.8026 23.4728 13.5068C23.735 14.2118 24.1027 14.8262 24.5753 15.3496C25.0481 15.8734 25.6073 16.2843 26.2533 16.5831C26.8992 16.8818 27.6105 17.0308 28.3873 17.0308C29.1642 17.0308 29.8779 16.8818 30.5286 16.5831C31.1791 16.2843 31.7408 15.8734 32.2138 15.3496C32.6864 14.8262 33.0537 14.2118 33.3159 13.5068C33.5778 12.8026 33.7089 12.044 33.7089 11.2317C33.7089 10.429 33.5778 9.67327 33.3159 8.9631C33.0537 8.25388 32.6864 7.63434 32.2138 7.1059C31.7408 6.57747 31.1791 6.16185 30.5286 5.85833C29.8779 5.55482 29.1642 5.4033 28.3873 5.4033C27.6105 5.4033 26.8992 5.55482 26.2533 5.85833C25.6073 6.16185 25.0481 6.57747 24.5753 7.1059C24.1027 7.63434 23.735 8.25388 23.4728 8.9631C23.2108 9.67327 23.08 10.429 23.08 11.2317ZM17.6388 11.2461C17.6388 10.2088 17.7654 9.21305 18.0187 8.25861C18.2716 7.3044 18.6328 6.40873 19.1018 5.57206C19.5708 4.73492 20.1311 3.97424 20.7829 3.28909C21.4348 2.60394 22.1594 2.01887 22.9565 1.53456C23.7539 1.04979 24.6099 0.673349 25.5243 0.40382C26.4388 0.134764 27.3931 0 28.3873 0C29.3718 0 30.3241 0.134764 31.2433 0.40382C32.1625 0.673349 33.0207 1.04979 33.8179 1.53456C34.615 2.01887 35.3419 2.60394 35.9987 3.28909C36.6551 3.97424 37.2156 4.73492 37.68 5.57206C38.1441 6.40873 38.5052 7.3044 38.7634 8.25861C39.021 9.21305 39.1498 10.2088 39.1498 11.2461C39.1498 12.2838 39.021 13.2796 38.7634 14.2338C38.5052 15.1882 38.1441 16.0789 37.68 16.9057C37.2156 17.7334 36.6551 18.4868 35.9987 19.1672C35.3419 19.8471 34.615 20.432 33.8179 20.9212C33.0207 21.4107 32.1625 21.7877 31.2433 22.0518C30.3241 22.3161 29.3718 22.4485 28.3873 22.4485C27.3931 22.4485 26.4388 22.3161 25.5243 22.0518C24.6099 21.7877 23.7539 21.4107 22.9565 20.9212C22.1594 20.432 21.4348 19.8471 20.7829 19.1672C20.1311 18.4868 19.5708 17.7334 19.1018 16.9057C18.6328 16.0789 18.2716 15.1882 18.0187 14.2338C17.7654 13.2796 17.6388 12.2838 17.6388 11.2461Z" fill="#FF8924"/>
<path fill-rule="evenodd" clip-rule="evenodd" d="M42.229 0.969189C42.229 0.793123 42.2828 0.64113 42.3904 0.514154C42.498 0.387178 42.6498 0.323219 42.8463 0.323219H46.9971C47.1372 0.323219 47.2844 0.38175 47.4387 0.499285C47.5929 0.61682 47.6702 0.773534 47.6702 0.969189V8.97078C48.6918 7.60024 49.6946 6.24954 50.6789 4.91842C51.663 3.58777 52.6613 2.23706 53.6737 0.866523C53.7767 0.700133 53.9101 0.565369 54.0744 0.462939C54.2383 0.359801 54.3999 0.30835 54.5594 0.30835H59.902C60.1272 0.30835 60.2395 0.38175 60.2395 0.529023C60.2395 0.626733 60.188 0.744268 60.0849 0.88092L53.4626 9.99838L60.7878 21.5086C60.8909 21.675 60.9424 21.8074 60.9424 21.9051C60.9424 22.0519 60.8393 22.1253 60.633 22.1253H55.3186C55.1593 22.1253 55.0024 22.0762 54.8476 21.9785C54.6928 21.8805 54.5642 21.7484 54.4609 21.582C53.9641 20.8775 53.5121 20.2018 53.1043 19.556C52.6966 18.91 52.3004 18.2664 51.9161 17.6254C51.5317 16.9844 51.1427 16.3361 50.7492 15.6802C50.3555 15.0245 49.9242 14.3347 49.4557 13.6101L47.6702 15.7534V21.4793C47.6702 21.9098 47.4457 22.1253 46.9971 22.1253H42.8603C42.4394 22.1253 42.229 21.9098 42.229 21.4793V0.969189Z" fill="#FF8924"/>
<path fill-rule="evenodd" clip-rule="evenodd" d="M63.1411 0.998357C63.1411 0.793024 63.1947 0.629231 63.3023 0.506739C63.4098 0.384484 63.5617 0.32312 63.7584 0.32312H77.7071C77.913 0.32312 78.0726 0.386608 78.1851 0.513584C78.2972 0.640559 78.3535 0.810961 78.3535 1.02573V4.65611C78.3535 4.82249 78.2972 4.98062 78.1851 5.13215C78.0726 5.28319 77.9082 5.35896 77.6928 5.35896H68.5823V8.99995H75.6119C75.7898 8.99995 75.9374 9.04408 76.0547 9.13188C76.172 9.22015 76.2307 9.36671 76.2307 9.57252V12.7434C76.2307 12.8807 76.179 13.0129 76.0759 13.1401C75.9728 13.2676 75.8228 13.3308 75.6261 13.3308H68.5823V17.0893H78.0303C78.452 17.0893 78.6629 17.3143 78.6629 17.7624V21.4518C78.6629 21.5498 78.6254 21.6369 78.5506 21.7152C78.5128 21.9885 78.3207 22.1252 77.974 22.1252H63.7584C63.571 22.1252 63.4214 22.0737 63.3095 21.9711C63.1972 21.8681 63.1411 21.7093 63.1411 21.4936V0.998357Z" fill="#FF8924"/>
<path fill-rule="evenodd" clip-rule="evenodd" d="M82.0172 0.969091C82.0172 0.793024 82.0687 0.641031 82.1718 0.514056C82.2749 0.38708 82.4295 0.32312 82.6358 0.32312H87.2333C87.3643 0.32312 87.5006 0.357814 87.641 0.425786C87.7816 0.494466 87.9032 0.611766 88.0065 0.778156C89.1969 2.78498 90.3778 4.76207 91.5495 6.70966C92.7212 8.65749 93.9069 10.6346 95.1068 12.6409V0.880822C95.1439 0.704991 95.2192 0.567631 95.3317 0.469921C95.444 0.372211 95.5754 0.32312 95.7252 0.32312H99.7323C99.9292 0.32312 100.093 0.379764 100.224 0.49187C100.356 0.604685 100.421 0.763287 100.421 0.969091V21.5526C100.421 21.7483 100.365 21.8925 100.253 21.9854C100.14 22.0784 99.9852 22.1252 99.7886 22.1252H95.3035C95.1816 22.1252 95.0736 22.081 94.9803 21.9928C94.8862 21.905 94.7879 21.7874 94.6849 21.6409C93.4381 19.4872 92.2054 17.3586 90.9872 15.2541C89.7685 13.15 88.5315 11.0212 87.2755 8.86754V21.4792C87.2755 21.6944 87.2285 21.8561 87.1347 21.9635C87.0411 22.0714 86.8723 22.1252 86.6287 22.1252H82.6358C82.4202 22.1252 82.2631 22.0643 82.1648 21.9413C82.0663 21.8191 82.0172 21.6701 82.0172 21.4936V0.969091Z" fill="#FF8924"/>
<g clip-path="url(#clip0_433_4942)">
<path d="M100.8 40.6546V39.7784C100.8 39.594 100.651 39.4448 100.466 39.4448H100.464C100.289 39.4448 100.147 39.3104 100.132 39.1371C100.103 38.8103 100.061 38.4878 100.006 38.169C99.9768 37.9976 100.08 37.8318 100.248 37.7867C100.425 37.7393 100.531 37.5561 100.483 37.3785L100.256 36.5319C100.209 36.3544 100.026 36.2489 99.848 36.2964H99.8473C99.679 36.3414 99.507 36.2489 99.4472 36.0855C99.3349 35.7791 99.2104 35.4782 99.0741 35.1834C99.0007 35.0256 99.0575 34.8381 99.2079 34.7512C99.3676 34.6593 99.4219 34.4552 99.33 34.2961L98.8916 33.5371C98.7997 33.3774 98.5956 33.3231 98.4365 33.415H98.4359C98.2855 33.5026 98.095 33.4576 97.9951 33.3157C97.807 33.05 97.6078 32.7922 97.3994 32.5425C97.2878 32.4087 97.2934 32.2133 97.4167 32.0899L97.4185 32.0881C97.5486 31.958 97.5486 31.7471 97.4185 31.617L96.7988 30.9973C96.6687 30.8672 96.4579 30.8672 96.3278 30.9973L96.3259 30.9992C96.2026 31.1225 96.0071 31.128 95.8733 31.0164C95.6242 30.808 95.3665 30.6088 95.1001 30.4208C94.9583 30.3203 94.9133 30.1304 95.0002 29.9799C95.0921 29.8196 95.0378 29.6161 94.8781 29.5236L94.1191 29.0852C93.9594 28.9933 93.7559 29.0476 93.664 29.2073C93.5771 29.3584 93.3896 29.4145 93.2318 29.3411C92.9377 29.2048 92.6368 29.0803 92.3297 28.9681C92.1663 28.9083 92.0738 28.7356 92.1188 28.5679C92.1663 28.3897 92.0609 28.2066 91.8833 28.1591L91.0367 27.9322C90.8591 27.8847 90.676 27.9901 90.6285 28.1677C90.5835 28.3354 90.4176 28.4384 90.2462 28.4088C89.9274 28.3545 89.6049 28.3126 89.2781 28.2836C89.1049 28.2682 88.9704 28.1258 88.9704 27.9513V27.9488C88.9704 27.7645 88.8212 27.6152 88.6369 27.6152H87.7607C87.5763 27.6152 87.4277 27.7645 87.4277 27.9488V27.9513C87.4277 28.1258 87.2933 28.2682 87.12 28.2836C86.7932 28.3126 86.4707 28.3539 86.1519 28.4088C85.9805 28.4384 85.8147 28.3354 85.7696 28.1677C85.7222 27.9901 85.539 27.8847 85.3615 27.9322L84.5149 28.1591C84.3373 28.2066 84.2318 28.3897 84.2793 28.5673C84.3243 28.7362 84.2318 28.9083 84.0684 28.9681C83.762 29.0803 83.4611 29.2048 83.1663 29.3411C83.0085 29.4145 82.821 29.3578 82.7341 29.2073C82.6422 29.0476 82.4381 28.9933 82.2791 29.0852L81.52 29.5236C81.3603 29.6155 81.306 29.8196 81.3979 29.9787C81.4849 30.1297 81.4399 30.3203 81.298 30.4208C81.0323 30.6088 80.7745 30.808 80.5248 31.0164C80.391 31.128 80.1955 31.1225 80.0722 30.9992L80.0704 30.9973C79.9403 30.8672 79.7294 30.8672 79.5993 30.9973L78.9796 31.617C78.8495 31.7471 78.8495 31.958 78.9796 32.0881L78.9815 32.0899C79.1048 32.2133 79.1103 32.4087 78.9987 32.5425C78.7903 32.7916 78.5911 33.0494 78.4031 33.3157C78.3026 33.4576 78.1127 33.5026 77.9622 33.4156H77.9616C77.8019 33.3231 77.5984 33.378 77.5065 33.5371L77.0681 34.2961C76.9763 34.4558 77.0305 34.6593 77.1902 34.7512C77.3407 34.8381 77.3974 35.0256 77.324 35.1834C77.1878 35.4776 77.0632 35.7785 76.951 36.0855C76.8912 36.2489 76.7185 36.3414 76.5508 36.2964H76.5502C76.3726 36.2483 76.1895 36.3544 76.142 36.5319L75.9151 37.3785C75.8676 37.5561 75.973 37.7393 76.1506 37.7867C76.3183 37.8318 76.4213 37.9976 76.3917 38.169C76.3375 38.4878 76.2955 38.8103 76.2665 39.1371C76.2511 39.3104 76.1087 39.4448 75.9342 39.4448H75.9317C75.7474 39.4448 75.5981 39.594 75.5981 39.7784V40.6546C75.5981 40.8389 75.7474 40.9881 75.9317 40.9881H75.9342C76.1087 40.9881 76.2511 41.1226 76.2665 41.2958C76.2955 41.6226 76.3368 41.9451 76.3917 42.2639C76.4213 42.4353 76.3183 42.6012 76.1506 42.6462C75.973 42.6937 75.8676 42.8768 75.9151 43.0544L76.142 43.901C76.1895 44.0786 76.3726 44.184 76.5502 44.1365H76.5508C76.7191 44.0915 76.8912 44.184 76.951 44.3474C77.0632 44.6539 77.1878 44.9548 77.324 45.2495C77.3974 45.4074 77.3407 45.5948 77.1902 45.6817C77.0305 45.7736 76.9763 45.9777 77.0681 46.1368L77.5065 46.8958C77.5984 47.0555 77.8025 47.1098 77.9616 47.0179H77.9622C78.1127 46.9304 78.3032 46.9754 78.4031 47.1172C78.5911 47.383 78.7903 47.6407 78.9987 47.8904C79.1103 48.0242 79.1048 48.2197 78.9815 48.343L78.9796 48.3449C78.8495 48.475 78.8495 48.6858 78.9796 48.8159L79.5993 49.4356C79.7294 49.5657 79.9403 49.5657 80.0704 49.4356L80.0722 49.4338C80.1955 49.3105 80.391 49.3049 80.5248 49.4165C80.7739 49.6249 81.0317 49.8241 81.298 50.0122C81.4399 50.1127 81.4849 50.3026 81.3979 50.453C81.306 50.6133 81.3603 50.8168 81.52 50.9093L82.2791 51.3477C82.4388 51.4396 82.6422 51.3853 82.7341 51.2256C82.821 51.0746 83.0085 51.0184 83.1663 51.0918C83.4605 51.2281 83.7614 51.3526 84.0684 51.4649C84.2318 51.5247 84.3243 51.6973 84.2793 51.865C84.2318 52.0432 84.3373 52.2264 84.5149 52.2739L85.3615 52.5008C85.539 52.5482 85.7222 52.4428 85.7696 52.2652C85.8147 52.0975 85.9805 51.9945 86.1519 52.0241C86.4707 52.0784 86.7932 52.1203 87.12 52.1493C87.2933 52.1647 87.4277 52.3072 87.4277 52.4817V52.4841C87.4277 52.6685 87.5769 52.8171 87.7607 52.8171H88.6369C88.8212 52.8171 88.9704 52.6679 88.9704 52.4841V52.4817C88.9704 52.3072 89.1049 52.1647 89.2781 52.1493C89.6049 52.1203 89.9274 52.079 90.2462 52.0241C90.4176 51.9945 90.5835 52.0975 90.6285 52.2652C90.676 52.4428 90.8591 52.5482 91.0367 52.5008L91.8833 52.2739C92.0609 52.2264 92.1663 52.0432 92.1188 51.8657C92.0738 51.6967 92.1663 51.5247 92.3297 51.4649C92.6362 51.3526 92.9371 51.2281 93.2318 51.0918C93.3896 51.0184 93.5771 51.0752 93.664 51.2256C93.7559 51.3853 93.96 51.4396 94.1191 51.3477L94.8781 50.9093C95.0378 50.8174 95.0921 50.6133 95.0002 50.4543C94.9133 50.3032 94.9583 50.1127 95.1001 50.0122C95.3659 49.8241 95.6236 49.6249 95.8733 49.4165C96.0071 49.3049 96.2026 49.3105 96.3259 49.4338L96.3278 49.4356C96.4579 49.5657 96.6687 49.5657 96.7988 49.4356L97.4185 48.8159C97.5486 48.6858 97.5486 48.475 97.4185 48.3449L97.4167 48.343C97.2934 48.2197 97.2878 48.0242 97.3994 47.8904C97.6078 47.6413 97.807 47.3836 97.9951 47.1172C98.0956 46.9754 98.2855 46.9304 98.4359 47.0173H98.4365C98.5962 47.1098 98.7997 47.0549 98.8916 46.8958L99.33 46.1368C99.4219 45.9771 99.3676 45.7736 99.2079 45.6817C99.0569 45.5948 99.0007 45.4074 99.0741 45.2495C99.2104 44.9554 99.3349 44.6545 99.4472 44.3474C99.507 44.184 99.6796 44.0915 99.8473 44.1365H99.848C100.026 44.1846 100.209 44.0786 100.256 43.901L100.483 43.0544C100.531 42.8768 100.425 42.6937 100.248 42.6462C100.08 42.6012 99.9768 42.4353 100.006 42.2639C100.061 41.9451 100.103 41.6226 100.132 41.2958C100.147 41.1226 100.289 40.9881 100.464 40.9881H100.466C100.651 40.9881 100.8 40.8389 100.8 40.6546Z" fill="#F7A92F"/>
<path d="M97.075 49.0912C101.976 44.19 101.976 36.2436 97.075 31.3423C92.1738 26.4411 84.2273 26.4411 79.3261 31.3423C74.4249 36.2436 74.4249 44.19 79.3261 49.0912C84.2273 53.9925 92.1738 53.9925 97.075 49.0912Z" fill="#D16121"/>
<path d="M88.2003 50.8408C94.0678 50.8408 98.8244 46.0843 98.8244 40.2167C98.8244 34.3492 94.0678 29.5927 88.2003 29.5927C82.3327 29.5927 77.5762 34.3492 77.5762 40.2167C77.5762 46.0843 82.3327 50.8408 88.2003 50.8408Z" fill="#F7A92F"/>
<path d="M88.2003 48.0008C92.4993 48.0008 95.9843 44.5157 95.9843 40.2168C95.9843 35.9178 92.4993 32.4327 88.2003 32.4327C83.9013 32.4327 80.4163 35.9178 80.4163 40.2168C80.4163 44.5157 83.9013 48.0008 88.2003 48.0008Z" fill="#D16121"/>
<g style="mix-blend-mode:multiply" opacity="0.3">
<path d="M100.325 37.632C100.371 38.0623 100.395 38.4989 100.395 38.9398C100.395 45.8346 94.6419 51.5882 87.7471 51.5882C83.7268 51.5882 80.0969 49.6298 77.7667 46.6319C79.9292 50.1749 83.831 52.5402 88.286 52.5402C95.0878 52.5402 100.601 47.0265 100.601 40.2248C100.601 39.335 100.505 38.4681 100.325 37.632Z" fill="#D16121"/>
</g>
<g style="mix-blend-mode:multiply" opacity="0.3">
<path d="M88.6454 30.7365C92.3888 30.7365 95.7518 32.6412 97.81 35.5182C96.0743 32.0129 92.4622 29.6019 88.2853 29.6019C82.7057 29.6019 78.1336 33.9046 77.6982 39.372C78.9105 34.4651 83.4068 30.7365 88.6454 30.7365Z" fill="#F7A92F"/>
</g>
<g style="mix-blend-mode:overlay" opacity="0.3">
<path d="M81.4607 40.5325C81.2912 40.5325 81.1543 40.3956 81.1543 40.226C81.1543 36.2939 84.3532 33.095 88.2853 33.095C88.4549 33.095 88.5918 33.2319 88.5918 33.4014C88.5918 33.571 88.4549 33.7079 88.2853 33.7079C84.6911 33.7079 81.7672 36.6318 81.7672 40.226C81.7672 40.3956 81.6303 40.5325 81.4607 40.5325Z" fill="white"/>
</g>
<g style="mix-blend-mode:overlay" opacity="0.3">
<path d="M76.5723 40.5325C76.4028 40.5325 76.2659 40.3956 76.2659 40.226C76.2659 33.5981 81.6581 28.2065 88.2853 28.2065C88.4549 28.2065 88.5918 28.3434 88.5918 28.513C88.5918 28.6826 88.4549 28.8194 88.2853 28.8194C81.996 28.8194 76.8788 33.936 76.8788 40.226C76.8788 40.3956 76.7419 40.5325 76.5723 40.5325Z" fill="white"/>
</g>
<g style="mix-blend-mode:multiply" opacity="0.3">
<path d="M95.4244 37.1221C95.499 37.5599 95.5397 38.0081 95.5397 38.4644C95.5397 42.9428 91.8024 46.6801 87.324 46.6801C85.1924 46.6801 83.2304 45.8322 81.7579 44.4628C83.1459 46.5968 85.5507 48.0095 88.2859 48.0095C92.5849 48.0095 96.0699 44.5244 96.0699 40.2254C96.0699 39.1217 95.8387 38.0729 95.425 37.1215L95.4244 37.1221Z" fill="#D16121"/>
</g>
</g>
<defs>
<clipPath id="clip0_433_4942">
<rect width="25.2" height="25.2" fill="white" transform="translate(75.6 27.6165)"/>
</clipPath>
</defs>
</svg>
