<?xml version="1.0" encoding="utf-8"?>
<!-- Generator: Adobe Illustrator 26.5.0, SVG Export Plug-In . SVG Version: 6.00 Build 0)  -->
<svg version="1.1" id="Calque_1" xmlns="http://www.w3.org/2000/svg" xmlns:xlink="http://www.w3.org/1999/xlink" x="0px" y="0px"
	 viewBox="0 0 425.2 198.4" style="enable-background:new 0 0 425.2 198.4;" xml:space="preserve">
<style type="text/css">
	.st0{fill:#AC9CCC;}
	.st1{fill:#D8C1DE;}
	.st2{fill:#1B3155;}
	.st3{fill:#1B3156;}
	.st4{fill:#6AACDF;}
	.st5{fill:#F7C1B8;}
	.st6{fill:#EDD7E8;}
	.st7{fill:#D9DEF2;}
	.st8{fill:#FBDCDB;}
	.st9{fill:#FEF6F7;}
</style>
<g>
	<path class="st0" d="M329.3,46.2c-0.4-0.8-1.2-1.3-2.1-1.2c-3.3,0.2-6.5,1.6-8.9,4c0.4,0.8,0.8,1.6,1.1,2.5
		c1.6,4.9,0.8,10.3-2.1,14.5c0.1,0,0.1,0,0.2,0c4.5-0.3,8.7-2.7,11.1-6.8C331.1,55.1,331.2,50.3,329.3,46.2z"/>
	<path class="st1" d="M316.9,52.4c-0.1-0.4-0.3-0.7-0.4-1.1c-1.7-4-5.1-6.8-9-7.9c-0.2-0.1-0.4-0.1-0.6-0.1c-0.7,0-1.3,0.3-1.7,0.8
		c-2.7,3.5-3.7,8.3-2.2,12.9c1.5,4.6,5.1,7.8,9.4,9c0.2,0.1,0.4,0.1,0.6,0.1c0.7,0,1.3-0.3,1.7-0.8c0.2-0.3,0.4-0.6,0.6-0.8
		C317.6,61,318.3,56.6,316.9,52.4z"/>
	<path class="st2" d="M249.7,117.9c-8.8,4.7-18.8,7.1-29.9,7.1c-22.2,0-38.1-15.1-38.1-37.6c0-23.2,15.9-38.3,38.1-38.3
		c11,0,20.9,2.3,28.5,9.1l-9.5,9.6c-4.6-4.5-11.6-7-18.9-7c-14.9,0-24.8,11.4-24.8,25.8c0,15.4,9.9,26.8,24.8,26.8
		c6.5,0,12.4-1.2,16.9-3.8v-17H222V81h27.6V117.9z"/>
	<path class="st2" d="M289.7,116.5h-0.3c-3.5,5.5-9.2,8-15.7,8c-9.1,0-17.9-5-17.9-14.7c0-15.9,18.6-17,30.8-17h3.1v-1.3
		c0-6-4.7-9.2-11.2-9.2c-5.1,0-9.8,2-13.1,5.1l-6.4-6.4c5.4-5.5,13.1-7.9,20.8-7.9c20.9,0,20.9,15.1,20.9,22v28.2h-11V116.5z
		 M289,101.3h-2.6c-6.7,0-18.4,0.5-18.4,7.5c0,4.5,4.6,6.4,8.6,6.4c8.4,0,12.3-4.4,12.3-11.2V101.3z"/>
	<path class="st2" d="M309.7,74.3h12.2v49h-12.2V74.3z"/>
	<path class="st2" d="M361.3,116.5H361c-3.5,5.5-9.2,8-15.7,8c-9.1,0-17.9-5-17.9-14.7c0-15.9,18.6-17,30.8-17h3.1v-1.3
		c0-6-4.7-9.2-11.2-9.2c-5.1,0-9.8,2-13.1,5.1l-6.4-6.4c5.4-5.5,13.1-7.9,20.8-7.9c20.9,0,20.9,15.1,20.9,22v28.2h-11V116.5z
		 M360.6,101.3H358c-6.7,0-18.4,0.5-18.4,7.5c0,4.5,4.6,6.4,8.6,6.4c8.4,0,12.3-4.4,12.3-11.2V101.3z"/>
</g>
<g>
	<path class="st3" d="M164.7,57.6C149.5,31,115.7,21.8,89.1,37c-26.5,15.2-35.7,49-20.6,75.5c15.2,26.5,49,35.7,75.5,20.6
		C170.6,117.9,179.8,84.1,164.7,57.6z M144.8,117.7c-1.7,6-7.9,9.6-14,8c0,0-18.9-5.1-26.9-19.1c0,0,0,0,0,0
		c-16.2-0.1-29.9-14-29.9-14c-4.4-4.4-4.3-11.7,0.1-16.1c0,0,13.8-13.8,30-13.8c0.1,0,0.2,0,0.3,0c8.2-13.8,26.9-18.7,26.9-18.7
		c6-1.6,12.3,2.1,13.9,8.1c0,0,5.1,18.9-3.1,32.9c0,0,0,0,0,0C150,99.1,144.8,117.7,144.8,117.7z"/>
	<path class="st4" d="M122.4,101.3c-5.1,2.9-11.6,5.3-18.5,5.3c0,0,0,0,0,0c0,0,0,0,0,0c8.1,14.1,26.9,19.1,26.9,19.1
		c6,1.6,12.3-2,14-8c0,0,5.1-18.6-2.7-32.7C137.3,93.4,128.6,98.5,122.4,101.3z"/>
	<path class="st5" d="M145.2,52.2c-1.6-6-7.9-9.7-13.9-8.1c0,0-18.7,4.9-26.9,18.7c8.1,0.1,15.6,3.7,21,7.1
		c5.8,3,12.6,7.8,16.6,14.9c0,0.1,0.1,0.2,0.1,0.3c0,0,0,0,0,0C150.3,71,145.2,52.2,145.2,52.2z"/>
	<path class="st6" d="M125.4,69.9c5.3,3.4,8.7,6.8,8.7,6.8c4.4,4.4,4.3,11.7-0.1,16.1c0,0-4.6,4.6-11.6,8.4
		c6.2-2.8,14.9-7.9,19.7-16.2c0-0.1-0.1-0.2-0.1-0.3C137.9,77.7,131.1,72.9,125.4,69.9z"/>
	<path class="st1" d="M99.6,83.1c-0.1-6.2,0.9-13.7,4.6-20.2c0-0.1,0.1-0.2,0.2-0.2c-0.1,0-0.2,0-0.3,0c-16.2-0.1-30,13.8-30,13.8
		c-4.4,4.4-4.4,11.7-0.1,16.1c0,0,13.7,13.9,29.9,14C99.5,98.9,99.1,89.8,99.6,83.1z"/>
	<path class="st7" d="M122.4,101.3c-4.2,1.9-7.4,2.7-7.4,2.7c-6,1.6-12.3-2.1-13.9-8.1c0,0-1.5-5.5-1.5-12.7
		c-0.5,6.7,0,15.8,4.3,23.4c0,0,0,0,0,0C110.8,106.6,117.2,104.1,122.4,101.3z"/>
	<path class="st8" d="M99.6,83.1c0.4-5.6,1.5-9.5,1.5-9.5c1.7-6,8-9.6,14-8c0,0,4.6,1.2,10.3,4.2c-5.4-3.5-12.9-7-21-7.1
		c0,0.1-0.1,0.2-0.2,0.2C100.5,69.4,99.5,76.9,99.6,83.1z"/>
	<path class="st9" d="M101.1,73.7c0,0-1.1,3.9-1.5,9.5c0.1,7.2,1.5,12.7,1.5,12.7c1.6,6,7.9,9.7,13.9,8.1c0,0,3.1-0.8,7.4-2.7
		c7-3.9,11.6-8.4,11.6-8.4c4.4-4.4,4.4-11.7,0.1-16.1c0,0-3.3-3.4-8.7-6.8c-5.7-3-10.3-4.2-10.3-4.2C109,64.1,102.7,67.7,101.1,73.7
		z"/>
</g>
<g>
	<path class="st2" d="M189.7,128.9h2.5l-1.4,9.8h0.1c1.1-1.4,3-2.2,4.9-2.2c4.1,0,6.3,3,5.7,6.9c-0.5,3.9-3.6,6.9-7.7,6.9
		c-1.8,0-3.5-0.8-4.3-2.2h-0.1l-0.3,1.9h-2.5L189.7,128.9z M198.9,143.3c0.4-2.7-1-4.6-3.7-4.6s-4.6,1.9-5,4.6
		c-0.4,2.7,1,4.6,3.7,4.6S198.5,146,198.9,143.3z"/>
	<path class="st2" d="M204,136.7h2.9l2.5,10.3h0.1l5.2-10.3h2.7l-8.5,16.1c-1.2,2.3-2.3,3.8-5.1,3.8c-0.8,0-1.5-0.1-2.2-0.4l0.6-2.3
		c0.4,0.2,0.9,0.3,1.4,0.3c1.6,0,2.2-0.9,2.9-2.2l1.1-2.1L204,136.7z"/>
	<path class="st2" d="M227.1,138.3c1.6-1.3,3.7-2,5.5-2c3.9,0,5.2,2.1,4.9,4.4l-0.9,6.7c-0.1,0.9-0.2,1.7-0.2,2.4h-2.2
		c0-0.7,0.1-1.3,0.2-2h-0.1c-1.3,1.7-3,2.3-5,2.3c-2.5,0-4.4-1.4-4-4c0.5-3.4,3.9-4.6,7.9-4.6h1.8l0.1-0.6c0.2-1.4-0.6-2.8-2.8-2.8
		c-1.9,0-3,0.8-4,1.5L227.1,138.3z M233.5,143.6c-2.4,0-5.3,0.4-5.6,2.5c-0.2,1.5,0.8,2.1,2.5,2.1c2.8,0,4.1-2.1,4.3-3.8l0.1-0.8
		H233.5z"/>
	<path class="st2" d="M251.6,149.9h-2.5l0.3-2h-0.1c-0.8,1.4-2.6,2.4-4.7,2.4c-2.6,0-4.6-1.5-4.1-5l1.2-8.5h2.5l-1.1,7.8
		c-0.3,2.5,0.9,3.4,2.5,3.4c2.1,0,3.9-1.3,4.3-4.4l1-6.8h2.5L251.6,149.9z"/>
	<path class="st2" d="M268.6,149.9h-2.5l0.3-1.9h-0.1c-1.2,1.4-3.2,2.2-4.9,2.2c-4.1,0-6.3-3-5.7-6.9c0.6-4,3.6-6.9,7.7-6.9
		c1.9,0,3.6,0.9,4.3,2.2h0.1l1.4-9.8h2.5L268.6,149.9z M267.1,143.3c0.4-2.7-1-4.6-3.7-4.6c-2.7,0-4.6,1.9-5,4.6
		c-0.4,2.7,1,4.6,3.7,4.6C264.7,147.9,266.7,146,267.1,143.3z"/>
	<path class="st2" d="M275.1,144.2c-0.3,2.3,1.6,3.8,3.9,3.8c1.5,0,2.8-0.8,3.9-2l1.7,1.5c-1.6,1.8-3.7,2.7-6.2,2.7
		c-4.2,0-6.4-3-5.8-6.9c0.6-4,3.8-6.9,7.8-6.9c4.7,0,5.9,3.6,5.5,7l-0.1,0.9H275.1z M283.3,142.2c0.3-2.2-0.8-3.8-3.3-3.8
		c-2.5,0-4.4,2.1-4.6,3.8H283.3z"/>
	<path class="st2" d="M289.8,136.7h2.5l-0.3,2h0.1c0.8-1.4,2.6-2.4,4.7-2.4c2.6,0,4.6,1.5,4.1,5l-1.2,8.5h-2.5l1.1-7.8
		c0.4-2.5-0.9-3.4-2.5-3.4c-2.1,0-3.9,1.3-4.3,4.4l-0.9,6.8h-2.5L289.8,136.7z"/>
	<path class="st2" d="M314.2,140.2c-0.8-1-1.7-1.5-3.1-1.5c-2.7,0-4.4,2.2-4.8,4.7c-0.4,2.5,1,4.5,3.6,4.5c1.4,0,2.5-0.5,3.4-1.5
		l1.5,1.8c-1.5,1.4-3.4,2-5.3,2c-4.1,0-6.5-2.8-5.9-6.9c0.6-4.1,3.8-7,7.9-7c1.9,0,3.7,0.7,4.8,2.1L314.2,140.2z"/>
	<path class="st2" d="M318.9,136.7h2.5l-1.9,13.2h-2.5L318.9,136.7z M321.1,130.1c1,0,1.7,0.8,1.6,1.8c-0.2,1-1.1,1.8-2.1,1.8
		s-1.7-0.8-1.6-1.8C319.1,131,320.1,130.1,321.1,130.1z"/>
	<path class="st2" d="M325.2,138.3c1.6-1.3,3.7-2,5.5-2c3.9,0,5.2,2.1,4.9,4.4l-0.9,6.7c-0.1,0.9-0.2,1.7-0.2,2.4h-2.2
		c0-0.7,0.1-1.3,0.2-2h-0.1c-1.3,1.7-3,2.3-5,2.3c-2.5,0-4.4-1.4-4-4c0.5-3.4,3.9-4.6,7.9-4.6h1.8l0.1-0.6c0.2-1.4-0.6-2.8-2.8-2.8
		c-1.9,0-3,0.8-4,1.5L325.2,138.3z M331.6,143.6c-2.4,0-5.3,0.4-5.6,2.5c-0.2,1.5,0.8,2.1,2.5,2.1c2.8,0,4.1-2.1,4.3-3.8l0.1-0.8
		H331.6z"/>
</g>
</svg>
