<?xml version="1.0" encoding="utf-8"?>
<!-- Generator: Adobe Illustrator 26.5.0, SVG Export Plug-In . SVG Version: 6.00 Build 0)  -->
<svg version="1.1" id="Calque_2" xmlns="http://www.w3.org/2000/svg" xmlns:xlink="http://www.w3.org/1999/xlink" x="0px" y="0px"
	 viewBox="0 0 425.2 198.4" style="enable-background:new 0 0 425.2 198.4;" xml:space="preserve">
<style type="text/css">
	.st0{fill:#FFFFFF;}
	.st1{opacity:0.4;fill:#FFFFFF;}
	.st2{opacity:0.6;fill:#FFFFFF;}
	.st3{opacity:0.7;fill:#FFFFFF;}
	.st4{opacity:0.8;fill:#FFFFFF;}
</style>
<path class="st0" d="M328.8,45.6c-0.4-0.8-1.2-1.3-2.1-1.2c-3.3,0.2-6.5,1.6-8.9,4c0.4,0.8,0.8,1.6,1.1,2.5
	c1.6,4.9,0.8,10.3-2.1,14.5c0.1,0,0.1,0,0.2,0c4.5-0.3,8.7-2.7,11.1-6.8C330.7,54.5,330.7,49.6,328.8,45.6z"/>
<path class="st0" d="M316.4,51.7c-0.1-0.4-0.3-0.7-0.4-1.1c-1.7-4-5.1-6.8-9-7.9c-0.2-0.1-0.4-0.1-0.6-0.1c-0.7,0-1.3,0.3-1.7,0.8
	c-2.7,3.5-3.7,8.3-2.2,12.9c1.5,4.6,5.1,7.8,9.4,9c0.2,0.1,0.4,0.1,0.6,0.1c0.7,0,1.3-0.3,1.7-0.8c0.2-0.3,0.4-0.6,0.6-0.8
	C317.1,60.3,317.8,55.9,316.4,51.7z"/>
<path class="st0" d="M249.2,117.3c-8.8,4.7-18.8,7.1-29.9,7.1c-22.2,0-38.1-15.1-38.1-37.6c0-23.2,15.9-38.3,38.1-38.3
	c11,0,20.9,2.3,28.5,9.1l-9.5,9.6c-4.6-4.5-11.6-7-18.9-7c-14.9,0-24.8,11.4-24.8,25.8c0,15.4,9.9,26.8,24.8,26.8
	c6.5,0,12.4-1.2,16.9-3.8V92h-14.8V80.4h27.6V117.3z"/>
<path class="st0" d="M289.3,115.9h-0.3c-3.5,5.5-9.2,8-15.7,8c-9.1,0-17.9-5-17.9-14.7c0-15.9,18.6-17,30.8-17h3.1v-1.3
	c0-6-4.7-9.2-11.2-9.2c-5.1,0-9.8,2-13.1,5.1l-6.4-6.4c5.4-5.5,13.1-7.9,20.8-7.9c20.9,0,20.9,15.1,20.9,22v28.2h-11V115.9z
	 M288.5,100.7H286c-6.7,0-18.4,0.5-18.4,7.5c0,4.5,4.6,6.4,8.6,6.4c8.4,0,12.3-4.4,12.3-11.2V100.7z"/>
<path class="st0" d="M309.2,73.6h12.2v49h-12.2V73.6z"/>
<path class="st0" d="M360.8,115.9h-0.3c-3.5,5.5-9.2,8-15.7,8c-9.1,0-17.9-5-17.9-14.7c0-15.9,18.6-17,30.8-17h3.1v-1.3
	c0-6-4.7-9.2-11.2-9.2c-5.1,0-9.8,2-13.1,5.1l-6.4-6.4c5.4-5.5,13.1-7.9,20.8-7.9c20.9,0,20.9,15.1,20.9,22v28.2h-11V115.9z
	 M360.1,100.7h-2.6c-6.7,0-18.4,0.5-18.4,7.5c0,4.5,4.6,6.4,8.6,6.4c8.4,0,12.3-4.4,12.3-11.2V100.7z"/>
<path class="st1" d="M162.7,57.7c-14.8-25.9-47.9-34.9-73.8-20.1c-25.9,14.8-34.9,47.9-20.1,73.8c14.8,25.9,47.9,34.9,73.8,20.1
	C168.5,116.7,177.5,83.7,162.7,57.7z M143.3,116.5c-1.6,5.9-7.8,9.4-13.7,7.8c0,0-18.5-4.9-26.3-18.7c0,0,0,0,0,0
	C87.4,105.6,74,92,74,92c-4.3-4.3-4.2-11.4,0.1-15.7c0,0,13.5-13.5,29.4-13.4c0.1,0,0.2,0,0.3,0c8.1-13.5,26.3-18.3,26.3-18.3
	c5.9-1.5,12,2,13.6,7.9c0,0,4.9,18.5-3,32.2c0,0,0,0,0,0C148.3,98.4,143.3,116.5,143.3,116.5z"/>
<path class="st2" d="M121.3,100.5c-5,2.8-11.3,5.2-18.1,5.2c0,0,0,0,0,0c0,0,0,0,0,0c7.9,13.8,26.3,18.7,26.3,18.7
	c5.9,1.6,12-1.9,13.7-7.8c0,0,5-18.2-2.7-31.9C135.9,92.8,127.4,97.8,121.3,100.5z"/>
<path class="st2" d="M143.6,52.5c-1.6-5.9-7.7-9.5-13.6-7.9c0,0-18.3,4.7-26.3,18.3c7.9,0.1,15.2,3.6,20.5,7
	c5.6,3,12.3,7.6,16.2,14.6c0,0.1,0.1,0.2,0.1,0.2c0,0,0,0,0,0C148.6,70.9,143.6,52.5,143.6,52.5z"/>
<path class="st3" d="M124.2,69.8c5.2,3.4,8.5,6.7,8.5,6.7c4.3,4.3,4.2,11.4-0.1,15.7c0,0-4.5,4.5-11.3,8.3
	c6.1-2.7,14.5-7.7,19.3-15.9c0-0.1-0.1-0.2-0.1-0.2C136.5,77.4,129.8,72.7,124.2,69.8z"/>
<path class="st2" d="M99,82.8c-0.1-6.1,0.9-13.4,4.5-19.7c0-0.1,0.1-0.2,0.1-0.2c-0.1,0-0.2,0-0.3,0c-15.9-0.1-29.4,13.4-29.4,13.4
	C69.8,80.5,69.7,87.6,74,92c0,0,13.4,13.6,29.3,13.7C99,98.2,98.5,89.3,99,82.8z"/>
<path class="st4" d="M121.3,100.5c-4.2,1.9-7.2,2.6-7.2,2.6c-5.9,1.5-12-2-13.6-7.9c0,0-1.4-5.4-1.5-12.4c-0.5,6.5,0,15.4,4.2,22.9
	c0,0,0,0,0,0C110,105.7,116.3,103.3,121.3,100.5z"/>
<path class="st4" d="M99,82.8c0.4-5.5,1.5-9.3,1.5-9.3c1.6-5.9,7.8-9.4,13.7-7.8c0,0,4.5,1.2,10.1,4.1c-5.3-3.4-12.6-6.9-20.5-7
	c0,0.1-0.1,0.2-0.1,0.2C99.9,69.4,99,76.7,99,82.8z"/>
<path class="st0" d="M100.5,73.5c0,0-1.1,3.8-1.5,9.3c0.1,7.1,1.5,12.4,1.5,12.4c1.6,5.9,7.7,9.5,13.6,7.9c0,0,3-0.8,7.2-2.6
	c6.8-3.8,11.3-8.3,11.3-8.3c4.3-4.3,4.3-11.4,0.1-15.7c0,0-3.3-3.3-8.5-6.7c-5.5-2.9-10.1-4.1-10.1-4.1
	C108.3,64.1,102.1,67.6,100.5,73.5z"/>
<g>
	<path class="st0" d="M188.1,128.1h2.5l-1.4,9.8h0.1c1.1-1.4,3-2.2,4.9-2.2c4.1,0,6.3,3,5.7,6.9c-0.5,3.9-3.6,6.9-7.7,6.9
		c-1.8,0-3.5-0.8-4.3-2.2h-0.1l-0.3,1.9h-2.5L188.1,128.1z M197.3,142.6c0.4-2.7-1-4.6-3.7-4.6s-4.6,1.9-5,4.6
		c-0.4,2.7,1,4.6,3.7,4.6S196.9,145.3,197.3,142.6z"/>
	<path class="st0" d="M202.4,136h2.9l2.5,10.3h0.1l5.2-10.3h2.7l-8.5,16.1c-1.2,2.3-2.3,3.8-5.1,3.8c-0.8,0-1.5-0.1-2.2-0.4l0.6-2.3
		c0.4,0.2,0.9,0.3,1.4,0.3c1.6,0,2.2-0.9,2.9-2.2l1.1-2.1L202.4,136z"/>
	<path class="st0" d="M225.5,137.6c1.6-1.3,3.7-2,5.5-2c3.9,0,5.2,2.1,4.9,4.4l-0.9,6.7c-0.1,0.9-0.2,1.7-0.2,2.4h-2.2
		c0-0.7,0.1-1.3,0.2-2h-0.1c-1.3,1.7-3,2.3-5,2.3c-2.5,0-4.4-1.4-4-4c0.5-3.4,3.9-4.6,7.9-4.6h1.8l0.1-0.6c0.2-1.4-0.6-2.8-2.8-2.8
		c-1.9,0-3,0.8-4,1.5L225.5,137.6z M231.9,142.8c-2.4,0-5.3,0.4-5.6,2.5c-0.2,1.5,0.8,2.1,2.5,2.1c2.8,0,4.1-2.1,4.3-3.8l0.1-0.8
		H231.9z"/>
	<path class="st0" d="M250,149.2h-2.5l0.3-2h-0.1c-0.8,1.4-2.6,2.4-4.7,2.4c-2.6,0-4.6-1.5-4.1-5l1.2-8.5h2.5l-1.1,7.8
		c-0.3,2.5,0.9,3.4,2.5,3.4c2.1,0,3.9-1.3,4.3-4.4l1-6.8h2.5L250,149.2z"/>
	<path class="st0" d="M267,149.2h-2.5l0.3-1.9h-0.1c-1.2,1.4-3.2,2.2-4.9,2.2c-4.1,0-6.3-3-5.7-6.9c0.6-4,3.6-6.9,7.7-6.9
		c1.9,0,3.6,0.9,4.3,2.2h0.1l1.4-9.8h2.5L267,149.2z M265.5,142.6c0.4-2.7-1-4.6-3.7-4.6c-2.7,0-4.6,1.9-5,4.6
		c-0.4,2.7,1,4.6,3.7,4.6C263.1,147.2,265.1,145.3,265.5,142.6z"/>
	<path class="st0" d="M273.5,143.5c-0.3,2.3,1.6,3.8,3.9,3.8c1.5,0,2.8-0.8,3.9-2l1.7,1.5c-1.6,1.8-3.7,2.7-6.2,2.7
		c-4.2,0-6.4-3-5.8-6.9c0.6-4,3.8-6.9,7.8-6.9c4.7,0,5.9,3.6,5.5,7l-0.1,0.9H273.5z M281.7,141.5c0.3-2.2-0.8-3.8-3.3-3.8
		c-2.5,0-4.4,2.1-4.6,3.8H281.7z"/>
	<path class="st0" d="M288.2,136h2.5l-0.3,2h0.1c0.8-1.4,2.6-2.4,4.7-2.4c2.6,0,4.6,1.5,4.1,5l-1.2,8.5h-2.5l1.1-7.8
		c0.4-2.5-0.9-3.4-2.5-3.4c-2.1,0-3.9,1.3-4.3,4.4l-0.9,6.8h-2.5L288.2,136z"/>
	<path class="st0" d="M312.6,139.5c-0.8-1-1.7-1.5-3.1-1.5c-2.7,0-4.4,2.2-4.8,4.7c-0.4,2.5,1,4.5,3.6,4.5c1.4,0,2.5-0.5,3.4-1.5
		l1.5,1.8c-1.5,1.4-3.4,2-5.3,2c-4.1,0-6.5-2.8-5.9-6.9c0.6-4.1,3.8-7,7.9-7c1.9,0,3.7,0.7,4.8,2.1L312.6,139.5z"/>
	<path class="st0" d="M317.3,136h2.5l-1.9,13.2h-2.5L317.3,136z M319.5,129.4c1,0,1.7,0.8,1.6,1.8c-0.2,1-1.1,1.8-2.1,1.8
		s-1.7-0.8-1.6-1.8C317.5,130.2,318.5,129.4,319.5,129.4z"/>
	<path class="st0" d="M323.6,137.6c1.6-1.3,3.7-2,5.5-2c3.9,0,5.2,2.1,4.9,4.4l-0.9,6.7c-0.1,0.9-0.2,1.7-0.2,2.4h-2.2
		c0-0.7,0.1-1.3,0.2-2h-0.1c-1.3,1.7-3,2.3-5,2.3c-2.5,0-4.4-1.4-4-4c0.5-3.4,3.9-4.6,7.9-4.6h1.8l0.1-0.6c0.2-1.4-0.6-2.8-2.8-2.8
		c-1.9,0-3,0.8-4,1.5L323.6,137.6z M330,142.8c-2.4,0-5.3,0.4-5.6,2.5c-0.2,1.5,0.8,2.1,2.5,2.1c2.8,0,4.1-2.1,4.3-3.8l0.1-0.8H330z
		"/>
</g>
</svg>
