<svg width="83" height="77" viewBox="0 0 83 77" fill="none" xmlns="http://www.w3.org/2000/svg">
<g clip-path="url(#clip0_433_5075)">
<path d="M14.673 11.186L57.6895 0L82.4539 35.4727L40.671 47.982L14.673 11.186Z" fill="#7E7BFF"/>
<path d="M82.454 35.4727L23.5629 14.388L14.6717 11.1847L13.7257 13.8113C13.6588 13.9397 13.5972 14.0722 13.5464 14.2113L0.738708 49.7723C0.133915 51.4502 1.00498 53.3007 2.68288 53.9055L64.2754 76.0915C65.9533 76.6963 67.8038 75.8253 68.4086 74.1474L79.0232 44.6798L79.1249 44.7159L82.4553 35.4714L82.454 35.4727Z" fill="#4F2FD3"/>
<path d="M72.0627 19.4276L32.5271 5.18616L16.2215 50.452L55.757 64.6935L72.0627 19.4276Z" fill="white"/>
<path d="M82.454 35.4727L32.6148 64.6874L14.673 11.186L13.727 13.8126C13.6601 13.9411 13.5986 14.0735 13.5477 14.2127L0.738708 49.7723C0.133915 51.4502 1.00498 53.3007 2.68288 53.9055L64.2754 76.0915C65.9533 76.6963 67.8038 75.8253 68.4086 74.1474L79.0232 44.6798L79.1249 44.7159L82.4553 35.4714L82.454 35.4727Z" fill="#7E7BFF"/>
<path d="M44.6544 37.196L0.738708 50.4881C0.133915 52.166 1.00498 54.0165 2.68288 54.6213L64.2754 76.8073C65.9533 77.4121 67.8038 76.541 68.4086 74.8631L44.6544 37.196Z" fill="#7E7BFF"/>
<path d="M44.6531 37.1974L0.737362 50.4894C0.27574 51.7713 0.675813 53.1508 1.63652 54.0018L42.6554 41.5875L64.9725 76.9745C66.4377 77.1565 67.8867 76.3136 68.4072 74.8658L44.6531 37.1987V37.1974Z" fill="#4F2FD3"/>
<path d="M36.0356 13.021L36.9594 10.3186L44.9078 13.0358L43.9839 15.7382L41.5994 14.9231L37.5004 26.9138L34.321 25.8269L38.4201 13.8362L36.0356 13.021ZM51.8559 15.411L54.6946 16.3814L49.6717 31.0746L46.833 30.1042L48.8126 24.3132L46.1556 23.4049C44.2783 22.7631 43.6812 21.443 44.3644 19.4446L46.3829 13.54L49.1989 14.5027L47.2269 20.271C47.1855 20.3921 47.1872 20.511 47.2318 20.6277C47.2916 20.7496 47.382 20.8313 47.5032 20.8727L49.2972 21.486C49.4183 21.5274 49.5323 21.5156 49.639 21.4506C49.7609 21.3909 49.8426 21.3004 49.884 21.1793L51.8559 15.411ZM58.2254 27.4803L59.025 25.1412L63.2263 26.5774L61.3786 31.9823C60.6954 33.9808 59.4152 34.6591 57.5378 34.0173L54.6764 33.0391C52.7991 32.3974 52.202 31.0772 52.8852 29.0788L56.0138 19.9268C56.697 17.9283 57.9772 17.25 59.8546 17.8918L62.716 18.87C64.5933 19.5117 65.1904 20.8319 64.5072 22.8303L64.0337 24.2156L61.0133 23.1831L61.6188 21.4117C61.6602 21.2906 61.651 21.1691 61.5913 21.0472C61.5466 20.9305 61.4637 20.8514 61.3426 20.81L59.9119 20.3209C59.7908 20.2795 59.6693 20.2887 59.5474 20.3485C59.4406 20.4134 59.3666 20.5065 59.3251 20.6276L55.9403 30.529C55.8989 30.6501 55.9005 30.7691 55.9452 30.8858C56.005 31.0077 56.0954 31.0893 56.2165 31.1307L57.6472 31.6198C57.7684 31.6612 57.8823 31.6494 57.989 31.5845C58.1109 31.5247 58.1926 31.4342 58.234 31.3131L59.4063 27.884L58.2254 27.4803Z" fill="#372986"/>
</g>
<defs>
<clipPath id="clip0_433_5075">
<rect width="81.9079" height="77" fill="white" transform="translate(0.546021)"/>
</clipPath>
</defs>
</svg>
