
<svg width="440px" height="235px" viewBox="0 0 440 235" version="1.1" xmlns="http://www.w3.org/2000/svg" xmlns:xlink="http://www.w3.org/1999/xlink">
  <defs>
    <path d="M428,0.00133988581 C434.627417,0.00133988581 440,5.37392289 440,12.0013399 L440,188.00134 C440,194.628757 434.627417,200.00134 428,200.00134 L12,200.00134 C5.372583,200.00134 8.11624501e-16,194.628757 0,188.00134 L0,12.0013399 C-8.11624501e-16,5.37392289 5.372583,0.00133988581 12,0.00133988581 L176.179452,0.000450258909 C176.060678,1.3181874 176,2.65267762 176,4.00133989 C176,28.3018689 195.699471,48.0013399 220,48.0013399 C244.300529,48.0013399 264,28.3018689 264,4.00133989 C264,2.65267762 263.939322,1.3181874 263.820548,0.000450258909 L428,0.00133988581 Z" id="path-jdre2ika38-1"></path>
  </defs>
  <g id="TFG_design" stroke="none" stroke-width="1" fill="none" fill-rule="evenodd">
    <g id="ALU_onboarding_4_gift" transform="translate(-499.000000, -290.000000)">
      <g id="Group-3" transform="translate(499.000000, 290.000000)">
        <g id="Group-17-Copy" transform="translate(0.000000, 35.000000)">
          <mask id="mask-jdre2ika38-2" fill="white">
            <use xlink:href="#path-jdre2ika38-1"></use>
          </mask>
          <use id="Combined-Shape" fill="#F15F2B" xlink:href="#path-jdre2ika38-1"></use>
          <path d="M355.621711,115.288864 L355.621711,333.00268 C345.731294,331.871046 336.096272,329.936091 326.657169,327.498188 L326.657169,166.076181 C329.956307,162.534585 331.992466,157.805473 331.992466,152.590875 C331.992466,134.96323 310.095007,125.798391 297.675135,139.105569 C290.555575,146.71965 290.545079,158.444636 297.675135,166.076181 L297.675135,318.008529 C220.346562,285.725524 166,209.528832 166,120.622213 C166,118.823474 166.230905,117.077125 166.272887,115.288864 L355.621711,115.288864 Z M556.811257,0.111232403 C563.08197,9.19428977 568.515657,18.8574124 573.335526,28.8852466 L414.032228,28.8852466 L414.032228,330.39065 C404.58082,331.866863 394.965495,332.808167 385.154865,333.00268 L385.154865,86.4228548 L170.213816,86.4228548 C171.797188,76.6173209 173.833949,66.9611452 176.71471,57.652314 L360.602131,57.652314 C364.138562,60.934719 368.860778,62.9527903 374.064283,62.9527903 C384.980484,62.9527903 393.835512,54.1406616 393.835512,43.2687803 C393.835512,26.0474425 373.188895,17.2005793 360.602131,28.8852466 L188.255192,28.8852466 C193.085524,18.8574124 198.519212,9.19428977 204.786437,0.111232403 L556.811257,0.111232403 Z M583.488569,56.2954429 C586.377278,65.6222343 588.413695,75.2970404 589.999516,85.1214927 L490.218562,85.1214927 C477.399263,73.215913 456.9303,82.6157875 456.9303,99.5362576 C456.9303,116.693378 477.584392,125.689555 490.218562,113.954503 L592.734532,113.954503 C592.776448,115.736337 593,117.476411 593,119.268686 C593,215.40772 529.088633,296.613448 441.302632,323.170443 L441.302632,56.2954429 L583.488569,56.2954429 Z M320.506579,151.109479 C320.506579,163.286964 302.246711,163.269999 302.246711,151.109479 C302.246711,138.921815 320.506579,138.942173 320.506579,151.109479 Z M486.25,99.1339959 C486.25,111.316569 467.990132,111.302999 467.990132,99.1339959 C467.990132,86.9514227 486.25,86.9751704 486.25,99.1339959 Z M374.176428,33.8766074 C385.035308,35.0358522 385.004957,50.8698516 374.176428,52.0257166 C368.440107,52.6374464 364.049342,48.1390359 364.049342,42.9579215 C364.049342,37.7599084 368.446851,33.2716371 374.176428,33.8766074 Z M380.204049,-93.9973202 C439.88692,-93.9973202 493.803043,-69.7708158 532.601974,-30.7900834 L227.802632,-30.7900834 C266.598069,-69.7708158 320.521178,-93.9973202 380.204049,-93.9973202 Z" id="Combined-Shape-Copy" fill="#FFFFFF" opacity="0.12" mask="url(#mask-jdre2ika38-2)"></path>
        </g>
        <path d="M252.422168,16.3137255 C253.564116,17.9829465 254.553635,19.7587678 255.431373,21.6016133 L226.420937,21.6016133 L226.420937,77.0101754 C224.699759,77.2814637 222.948729,77.4544499 221.162133,77.4901961 L221.162133,32.175474 L182.019608,32.175474 C182.307953,30.3734813 182.678864,28.5989367 183.203474,26.8882245 L216.690879,26.8882245 C217.334892,27.491442 218.194846,27.8623091 219.142447,27.8623091 C221.130377,27.8623091 222.74295,26.2428775 222.74295,24.2449189 C222.74295,21.0801015 218.983032,19.4542866 216.690879,21.6016133 L185.30509,21.6016133 C186.184733,19.7587678 187.174252,17.9829465 188.315565,16.3137255 L252.422168,16.3137255 Z M215.666667,37.7254902 L215.666667,77.4901961 C213.858499,77.2835069 212.097023,76.9300939 210.371365,76.484819 L210.371365,47.001625 C210.974514,46.3547644 211.346765,45.4910076 211.346765,44.5385787 C211.346765,41.3189478 207.343469,39.6450205 205.072866,42.0755324 C203.771267,43.466219 203.769348,45.6077488 205.072866,47.001625 L205.072866,74.7515642 C190.935646,68.8551805 181,54.9381076 181,38.6996087 C181,38.371075 181.042214,38.0521102 181.049889,37.7254902 L215.666667,37.7254902 Z M256.764101,27.5294118 C257.288332,29.2398161 257.657892,31.0140414 257.945681,32.8157098 L239.837845,32.8157098 C237.511452,30.6323915 233.796829,32.3561982 233.796829,35.4591779 C233.796829,38.605556 237.545048,40.2553302 239.837845,38.1032843 L258.44202,38.1032843 C258.449627,38.4300481 258.490196,38.7491533 258.490196,39.0778318 C258.490196,56.7083984 246.891825,71.6004035 230.960784,76.4705882 L230.960784,27.5294118 L256.764101,27.5294118 Z M209.54902,44.3534741 C209.54902,46.3933999 206.490196,46.390558 206.490196,44.3534741 C206.490196,42.3118431 209.54902,42.3152534 209.54902,44.3534741 Z M239.117647,35.176151 C239.117647,37.2169292 236.058824,37.214656 236.058824,35.176151 C236.058824,33.1353728 239.117647,33.139351 239.117647,35.176151 Z M219.402333,22.4405606 C221.221371,22.6347529 221.216287,25.2872041 219.402333,25.4808302 C218.441406,25.5833048 217.705882,24.8297482 217.705882,23.9618277 C217.705882,23.0910764 218.442536,22.3392183 219.402333,22.4405606 Z M219.745414,0 C230.526502,0 240.265887,4.29882537 247.27451,11.2156863 L192.215686,11.2156863 C199.223678,4.29882537 208.964325,0 219.745414,0 Z" id="Combined-Shape" fill="#F15F2B"></path>
      </g>
    </g>
  </g>
</svg>
