<svg width="440px" height="295px" viewBox="0 0 440 295" version="1.1" xmlns="http://www.w3.org/2000/svg" xmlns:xlink="http://www.w3.org/1999/xlink">
  <defs>
    <path d="M428,0.000339465028 C434.627417,0.000339465028 440,5.37292247 440,12.0003395 L440,248.000339 C440,254.627756 434.627417,260.000339 428,260.000339 L12,260.000339 C5.372583,260.000339 8.11624501e-16,254.627756 0,248.000339 L0,12.0003395 C-8.11624501e-16,5.37292247 5.372583,0.000339465028 12,0.000339465028 L176.179452,-0.000550161875 C176.060678,1.31718697 176,2.65167719 176,4.00033947 C176,28.3008685 195.699471,48.0003395 220,48.0003395 C244.300529,48.0003395 264,28.3008685 264,4.00033947 C264,2.65167719 263.939322,1.31718697 263.820548,-0.000550161875 L428,0.000339465028 Z" id="path-5yjfl_hte--1"/>
  </defs>
  <g id="TFG_design" stroke="none" stroke-width="1" fill="none" fill-rule="evenodd">
    <g id="ALU_dashboard" transform="translate(-964.000000, -150.000000)">
      <g id="Group-17-Copy" transform="translate(964.000000, 185.000000)">
        <mask id="mask-5yjfl_hte--2" fill="white">
          <use xlink:href="#path-5yjfl_hte--1"/>
        </mask>
        <use id="Combined-Shape" fill="#F15F2B" xlink:href="#path-5yjfl_hte--1"/>
        <path d="M355.621711,115.287864 L355.621711,333.001679 C345.731294,331.870045 336.096272,329.935091 326.657169,327.497188 L326.657169,166.07518 C329.956307,162.533585 331.992466,157.804472 331.992466,152.589875 C331.992466,134.962229 310.095007,125.797391 297.675135,139.104569 C290.555575,146.71865 290.545079,158.443636 297.675135,166.07518 L297.675135,318.007528 C220.346562,285.724524 166,209.527832 166,120.621213 C166,118.822474 166.230905,117.076125 166.272887,115.287864 L355.621711,115.287864 Z M556.811257,0.110231982 C563.08197,9.19328935 568.515657,18.8564119 573.335526,28.8842462 L414.032228,28.8842462 L414.032228,330.389649 C404.58082,331.865863 394.965495,332.807166 385.154865,333.001679 L385.154865,86.4218543 L170.213816,86.4218543 C171.797188,76.6163205 173.833949,66.9601448 176.71471,57.6513136 L360.602131,57.6513136 C364.138562,60.9337186 368.860778,62.9517899 374.064283,62.9517899 C384.980484,62.9517899 393.835512,54.1396612 393.835512,43.2677799 C393.835512,26.0464421 373.188895,17.1995789 360.602131,28.8842462 L188.255192,28.8842462 C193.085524,18.8564119 198.519212,9.19328935 204.786437,0.110231982 L556.811257,0.110231982 Z M583.488569,56.2944425 C586.377278,65.6212339 588.413695,75.29604 589.999516,85.1204923 L490.218562,85.1204923 C477.399263,73.2149126 456.9303,82.6147871 456.9303,99.5352572 C456.9303,116.692377 477.584392,125.688555 490.218562,113.953502 L592.734532,113.953502 C592.776448,115.735337 593,117.47541 593,119.267685 C593,215.40672 529.088633,296.612448 441.302632,323.169443 L441.302632,56.2944425 L583.488569,56.2944425 Z M320.506579,151.108479 C320.506579,163.285964 302.246711,163.268999 302.246711,151.108479 C302.246711,138.920815 320.506579,138.941173 320.506579,151.108479 Z M486.25,99.1329955 C486.25,111.315569 467.990132,111.301999 467.990132,99.1329955 C467.990132,86.9504223 486.25,86.97417 486.25,99.1329955 Z M374.176428,33.875607 C385.035308,35.0348518 385.004957,50.8688511 374.176428,52.0247162 C368.440107,52.636446 364.049342,48.1380355 364.049342,42.956921 C364.049342,37.758908 368.446851,33.2706367 374.176428,33.875607 Z M380.204049,-93.9983206 C439.88692,-93.9983206 493.803043,-69.7718162 532.601974,-30.7910838 L227.802632,-30.7910838 C266.598069,-69.7718162 320.521178,-93.9983206 380.204049,-93.9983206 Z" id="Combined-Shape-Copy" fill="#FFFFFF" opacity="0.12" mask="url(#mask-5yjfl_hte--2)"/>
      </g>
      <g id="Group-4-Copy" transform="translate(1145.000000, 150.000000)" fill="#F15F2B">
        <path d="M11.1428571,11.5833624 C18.1508485,4.66650153 27.891496,0.367676156 38.6725844,0.367676156 C49.4536728,0.367676156 59.1930583,4.66650153 66.2016807,11.5833624 L11.1428571,11.5833624 Z" id="Fill-1"/>
        <path d="M2.1306448,27.2559007 L35.61805,27.2559007 C36.262063,27.8591182 37.1220172,28.2299853 38.0696182,28.2299853 C40.0575478,28.2299853 41.6701208,26.6105537 41.6701208,24.6125951 C41.6701208,21.4477776 37.9102027,19.8219627 35.61805,21.9692895 L4.23226115,21.9692895 C5.11190414,20.126444 6.10142311,18.3506226 7.24273607,16.6814016 L71.3493387,16.6814016 C72.4912868,18.3506226 73.4808058,20.126444 74.3585434,21.9692895 L45.3481082,21.9692895 L45.3481082,77.3778515 C43.6269295,77.6491398 41.8759001,77.822126 40.0893039,77.8578722 L40.0893039,32.5431502 L0.946778711,32.5431502 C1.23512378,30.7411575 1.60603461,28.9666128 2.1306448,27.2559007" id="Fill-3"/>
        <path d="M38.329504,25.8485063 C37.3685774,25.950981 36.6330532,25.1974244 36.6330532,24.3295038 C36.6330532,23.4587525 37.3697072,22.7068944 38.329504,22.8082367 C40.1485422,23.002429 40.143458,25.6548802 38.329504,25.8485063" id="Fill-5"/>
        <path d="M49.8879552,27.8970879 L75.6912718,27.8970879 C76.2155026,29.6074922 76.5850632,31.3817176 76.8728514,33.183386 L58.7650162,33.183386 C56.4386227,31.0000676 52.724,32.7238744 52.724,35.8268541 C52.724,38.9732321 56.4722192,40.6230064 58.7650162,38.4709604 L77.369191,38.4709604 C77.3767977,38.7977242 77.4173669,39.1168295 77.4173669,39.4455079 C77.4173669,57.0760745 65.8189961,71.9680796 49.8879552,76.8382644 L49.8879552,27.8970879 Z" id="Fill-7"/>
        <path d="M34.5938375,38.0931664 L34.5938375,77.8578722 C32.7856703,77.651183 31.0241942,77.29777 29.2985362,76.8524951 L29.2985362,47.3693012 C29.901685,46.7224405 30.2739359,45.8586838 30.2739359,44.9062549 C30.2739359,41.686624 26.2706395,40.0126966 24.0000368,42.4432085 C22.6984378,43.8338951 22.696519,45.9754249 24.0000368,47.3693012 L24.0000368,75.1192403 C9.86281662,69.2228567 -0.0728291317,55.3057838 -0.0728291317,39.0672849 C-0.0728291317,38.7387511 -0.0306151095,38.4197863 -0.0229398328,38.0931664 L34.5938375,38.0931664 Z" id="Fill-9"/>
        <path d="M54.9859944,35.5438272 C54.9859944,33.503049 58.0448179,33.5070271 58.0448179,35.5438272 C58.0448179,37.5846054 54.9859944,37.5823322 54.9859944,35.5438272" id="Fill-11"/>
        <path d="M25.4173669,44.7211502 C25.4173669,42.6795192 28.4761905,42.6829295 28.4761905,44.7211502 C28.4761905,46.7610761 25.4173669,46.7582342 25.4173669,44.7211502" id="Fill-13"/>
      </g>
    </g>
  </g>
</svg>
