<svg width="360" height="180" viewBox="0 0 360 180" fill="none" xmlns="http://www.w3.org/2000/svg">
<g clip-path="url(#clip0_20_1929)">
<path d="M105.85 99.81L114.22 132.14L136.47 115.35L105.85 99.81Z" fill="#05A6AA"/>
<g opacity="0.6">
<path d="M91.81 32.66C92.99 33.31 94.48 32.89 95.13 31.71C95.78 30.53 95.36 29.04 94.18 28.39C93.79 28.17 93.36 28.08 92.94 28.09C92.46 28.24 91.99 28.41 91.53 28.58C91.26 28.78 91.04 29.04 90.86 29.34C90.21 30.52 90.63 32.01 91.81 32.66Z" fill="#FAB84D"/>
<path d="M90.58 39.93C91.23 38.75 90.81 37.26 89.63 36.61C88.45 35.96 86.96 36.38 86.31 37.56C85.66 38.74 86.08 40.23 87.26 40.88C88.44 41.53 89.93 41.11 90.58 39.93Z" fill="#FAB84D"/>
<path d="M86.03 48.14C86.68 46.96 86.2601 45.47 85.0801 44.82C83.9001 44.17 82.4101 44.59 81.7601 45.77C81.1101 46.95 81.53 48.44 82.71 49.09C83.89 49.74 85.38 49.32 86.03 48.14Z" fill="#FAB84D"/>
<path d="M81.48 56.36C82.13 55.18 81.71 53.69 80.53 53.04C79.35 52.39 77.86 52.81 77.21 53.99C76.56 55.17 76.98 56.66 78.16 57.31C79.34 57.96 80.83 57.54 81.48 56.36Z" fill="#FAB84D"/>
<path d="M76.93 64.57C77.58 63.39 77.16 61.9 75.98 61.25C74.8 60.6 73.31 61.02 72.66 62.2C72.49 62.51 72.39 62.84 72.36 63.17C72.46 63.66 72.57 64.15 72.69 64.63C72.9 64.99 73.21 65.3 73.6 65.52C74.78 66.17 76.27 65.75 76.92 64.57H76.93Z" fill="#FAB84D"/>
<path d="M85.5299 31.76C85.5699 31.69 85.5999 31.62 85.6299 31.55C84.9299 32.01 84.2399 32.49 83.5699 33.01C84.3599 32.95 85.1099 32.51 85.5299 31.76Z" fill="#FAB84D"/>
<path d="M77.66 40.93C78.84 41.58 80.33 41.16 80.98 39.98C81.63 38.8 81.21 37.31 80.03 36.66C79.94 36.61 79.85 36.57 79.76 36.53C78.72 37.67 77.75 38.91 76.87 40.23C77.07 40.51 77.34 40.75 77.66 40.93Z" fill="#FAB84D"/>
<path d="M73.11 49.14C74.29 49.79 75.78 49.37 76.43 48.19C77.08 47.01 76.66 45.52 75.48 44.87C75.16 44.69 74.81 44.6 74.47 44.57C73.82 46.02 73.28 47.49 72.87 48.98C72.95 49.04 73.03 49.09 73.12 49.14H73.11Z" fill="#FAB84D"/>
<path d="M71.9 54.08C71.82 54.92 71.77 55.76 71.75 56.6C71.79 56.54 71.84 56.47 71.87 56.4C72.28 55.65 72.26 54.78 71.89 54.08H71.9Z" fill="#FAB84D"/>
<path d="M124.78 40.19C125.67 40.68 126.73 40.56 127.48 39.97C126.57 38.63 125.55 37.35 124.42 36.16C124.18 36.35 123.98 36.59 123.82 36.87C123.17 38.05 123.59 39.54 124.77 40.19H124.78Z" fill="#FAB84D"/>
<path d="M119.27 45.08C118.62 46.26 119.04 47.75 120.22 48.4C121.4 49.05 122.89 48.63 123.54 47.45C124.19 46.27 123.77 44.78 122.59 44.13C121.41 43.48 119.92 43.9 119.27 45.08Z" fill="#FAB84D"/>
<path d="M114.72 53.3C114.07 54.48 114.49 55.97 115.67 56.62C116.85 57.27 118.34 56.85 118.99 55.67C119.64 54.49 119.22 53 118.04 52.35C116.86 51.7 115.37 52.12 114.72 53.3Z" fill="#FAB84D"/>
<path d="M110.17 61.51C109.52 62.69 109.94 64.18 111.12 64.83C112.3 65.48 113.79 65.06 114.44 63.88C115.09 62.7 114.67 61.21 113.49 60.56C112.31 59.91 110.82 60.33 110.17 61.51Z" fill="#FAB84D"/>
<path d="M105.62 69.73C104.97 70.91 105.39 72.4 106.57 73.05C107.75 73.7 109.24 73.28 109.89 72.1C110.54 70.92 110.12 69.43 108.94 68.78C107.76 68.13 106.27 68.55 105.62 69.73Z" fill="#FAB84D"/>
<path d="M101.07 77.94C100.42 79.12 100.84 80.61 102.02 81.26C103.2 81.91 104.69 81.49 105.34 80.31C105.99 79.13 105.57 77.64 104.39 76.99C103.21 76.34 101.72 76.76 101.07 77.94Z" fill="#FAB84D"/>
<path d="M99.84 85.2C98.66 84.55 97.17 84.97 96.52 86.15C96.36 86.43 96.27 86.73 96.23 87.03C97.84 87.35 99.46 87.54 101.08 87.6C101.19 86.65 100.72 85.68 99.84 85.19V85.2Z" fill="#FAB84D"/>
<path d="M114.22 36.91C113.57 38.09 113.99 39.58 115.17 40.23C116.35 40.88 117.84 40.46 118.49 39.28C119.14 38.1 118.72 36.61 117.54 35.96C116.36 35.31 114.87 35.73 114.22 36.91Z" fill="#FAB84D"/>
<path d="M113.94 47.5C114.59 46.32 114.17 44.83 112.99 44.18C111.81 43.53 110.32 43.95 109.67 45.13C109.02 46.31 109.44 47.8 110.62 48.45C111.8 49.1 113.29 48.68 113.94 47.5Z" fill="#FAB84D"/>
<path d="M109.39 55.71C110.04 54.53 109.62 53.04 108.44 52.39C107.26 51.74 105.77 52.16 105.12 53.34C104.47 54.52 104.89 56.01 106.07 56.66C107.25 57.31 108.74 56.89 109.39 55.71Z" fill="#FAB84D"/>
<path d="M104.84 63.93C105.49 62.75 105.07 61.26 103.89 60.61C102.71 59.96 101.22 60.38 100.57 61.56C99.92 62.74 100.34 64.23 101.52 64.88C102.7 65.53 104.19 65.11 104.84 63.93Z" fill="#FAB84D"/>
<path d="M96.0201 69.78C95.3701 70.96 95.7901 72.45 96.9701 73.1C98.1501 73.75 99.6401 73.33 100.29 72.15C100.94 70.97 100.52 69.48 99.3401 68.83C98.1601 68.18 96.6701 68.6 96.0201 69.78Z" fill="#FAB84D"/>
<path d="M91.47 77.99C90.82 79.17 91.24 80.66 92.42 81.31C93.6 81.96 95.09 81.54 95.74 80.36C96.39 79.18 95.97 77.69 94.79 77.04C93.61 76.39 92.12 76.81 91.47 77.99Z" fill="#FAB84D"/>
<path d="M129.38 61.41C128.73 62.59 129.15 64.08 130.33 64.73C130.77 64.97 131.26 65.07 131.73 65.03C132.14 63.5 132.43 61.96 132.6 60.41C131.44 59.83 130.02 60.27 129.38 61.41Z" fill="#FAB84D"/>
<path d="M128.15 68.68C126.97 68.03 125.48 68.45 124.83 69.63C124.18 70.81 124.6 72.3 125.78 72.95C126.66 73.44 127.7 73.32 128.45 72.75C128.62 72.47 128.78 72.2 128.94 71.91C129.1 71.63 129.24 71.34 129.39 71.05C129.48 70.11 129.02 69.16 128.14 68.68H128.15Z" fill="#FAB84D"/>
<path d="M120.28 77.84C119.65 78.99 120.03 80.42 121.14 81.1C122.36 80.14 123.52 79.07 124.59 77.91C124.38 77.49 124.04 77.13 123.6 76.88C122.42 76.23 120.93 76.65 120.28 77.83V77.84Z" fill="#FAB84D"/>
<path d="M129.83 48.35C130.37 48.65 130.98 48.72 131.55 48.59C131.1 47.04 130.52 45.54 129.83 44.08C129.44 44.29 129.11 44.61 128.88 45.03C128.23 46.21 128.65 47.7 129.83 48.35Z" fill="#FAB84D"/>
<path d="M124.33 53.25C123.68 54.43 124.1 55.92 125.28 56.57C126.46 57.22 127.95 56.8 128.6 55.62C129.25 54.44 128.83 52.95 127.65 52.3C126.47 51.65 124.98 52.07 124.33 53.25Z" fill="#FAB84D"/>
<path d="M119.78 61.46C119.13 62.64 119.55 64.13 120.73 64.78C121.91 65.43 123.4 65.01 124.05 63.83C124.7 62.65 124.28 61.16 123.1 60.51C121.92 59.86 120.43 60.28 119.78 61.46Z" fill="#FAB84D"/>
<path d="M115.23 69.68C114.58 70.86 115 72.35 116.18 73C117.36 73.65 118.85 73.23 119.5 72.05C120.15 70.87 119.73 69.38 118.55 68.73C117.37 68.08 115.88 68.5 115.23 69.68Z" fill="#FAB84D"/>
<path d="M110.68 77.89C110.03 79.07 110.45 80.56 111.63 81.21C112.81 81.86 114.3 81.44 114.95 80.26C115.6 79.08 115.18 77.59 114 76.94C112.82 76.29 111.33 76.71 110.68 77.89Z" fill="#FAB84D"/>
<path d="M106.13 86.11C105.9 86.53 105.81 86.98 105.83 87.42C107.43 87.23 109.02 86.92 110.57 86.48C110.38 85.94 110 85.46 109.45 85.15C108.27 84.5 106.78 84.92 106.13 86.1V86.11Z" fill="#FAB84D"/>
<path d="M110.12 32.07C111.3 32.72 112.79 32.3 113.44 31.12C113.86 30.36 113.83 29.47 113.44 28.76C112.41 28.35 111.36 28 110.31 27.71C109.84 27.92 109.43 28.27 109.17 28.75C108.52 29.93 108.94 31.42 110.12 32.07Z" fill="#FAB84D"/>
<path d="M108.89 39.33C109.54 38.15 109.12 36.66 107.94 36.01C106.76 35.36 105.27 35.78 104.62 36.96C103.97 38.14 104.39 39.63 105.57 40.28C106.75 40.93 108.24 40.51 108.89 39.33Z" fill="#FAB84D"/>
<path d="M104.34 47.54C104.99 46.36 104.57 44.87 103.39 44.22C102.21 43.57 100.72 43.99 100.07 45.17C99.42 46.35 99.84 47.84 101.02 48.49C102.2 49.14 103.69 48.72 104.34 47.54Z" fill="#FAB84D"/>
<path d="M99.7901 55.76C100.44 54.58 100.02 53.09 98.8401 52.44C97.6601 51.79 96.1701 52.21 95.5201 53.39C94.8701 54.57 95.2901 56.06 96.4701 56.71C97.6501 57.36 99.1401 56.94 99.7901 55.76Z" fill="#FAB84D"/>
<path d="M95.24 63.98C95.89 62.8 95.47 61.31 94.29 60.66C93.11 60.01 91.62 60.43 90.97 61.61C90.32 62.79 90.74 64.28 91.92 64.93C93.1 65.58 94.59 65.16 95.24 63.98Z" fill="#FAB84D"/>
<path d="M89.2214 73.3502C90.5167 72.9783 91.2652 71.6268 90.8933 70.3316C90.5214 69.0363 89.1699 68.2878 87.8747 68.6597C86.5794 69.0316 85.8309 70.3831 86.2028 71.6783C86.5747 72.9736 87.9262 73.7221 89.2214 73.3502Z" fill="#FAB84D"/>
<path d="M86.1401 80.41C86.7901 79.23 86.3701 77.74 85.1901 77.09C84.0101 76.44 82.5201 76.86 81.8701 78.04C81.6001 78.52 81.5201 79.06 81.5901 79.56C82.3901 80.3 83.2401 81 84.1401 81.66C84.9501 81.62 85.7201 81.17 86.1501 80.41H86.1401Z" fill="#FAB84D"/>
<path d="M103.84 31.16C104.49 29.98 104.07 28.49 102.89 27.84C101.71 27.19 100.22 27.61 99.57 28.79C98.92 29.97 99.34 31.46 100.52 32.11C101.7 32.76 103.19 32.34 103.84 31.16Z" fill="#FAB84D"/>
<path d="M99.2901 39.38C99.9401 38.2 99.5201 36.71 98.3401 36.06C97.1601 35.41 95.6701 35.83 95.0201 37.01C94.3701 38.19 94.7901 39.68 95.9701 40.33C97.1501 40.98 98.6401 40.56 99.2901 39.38Z" fill="#FAB84D"/>
<path d="M94.74 47.59C95.39 46.41 94.97 44.92 93.79 44.27C92.61 43.62 91.12 44.04 90.47 45.22C89.82 46.4 90.24 47.89 91.42 48.54C92.6 49.19 94.09 48.77 94.74 47.59Z" fill="#FAB84D"/>
<path d="M90.19 55.81C90.84 54.63 90.42 53.14 89.24 52.49C88.06 51.84 86.57 52.26 85.92 53.44C85.27 54.62 85.69 56.11 86.87 56.76C88.05 57.41 89.54 56.99 90.19 55.81Z" fill="#FAB84D"/>
<path d="M85.64 64.02C86.29 62.84 85.87 61.35 84.69 60.7C83.51 60.05 82.02 60.47 81.37 61.65C80.72 62.83 81.14 64.32 82.32 64.97C83.5 65.62 84.99 65.2 85.64 64.02Z" fill="#FAB84D"/>
<path d="M81.09 72.24C81.74 71.06 81.32 69.57 80.14 68.92C78.96 68.27 77.47 68.69 76.82 69.87C76.17 71.05 76.59 72.54 77.77 73.19C78.95 73.84 80.44 73.42 81.09 72.24Z" fill="#FAB84D"/>
</g>
<g opacity="0.6">
<path d="M257.24 71.8C258.42 72.45 259.91 72.03 260.56 70.85C261.21 69.67 260.79 68.18 259.61 67.53C259.22 67.31 258.79 67.22 258.37 67.23C257.89 67.38 257.42 67.55 256.96 67.72C256.69 67.92 256.47 68.18 256.29 68.48C255.64 69.66 256.06 71.15 257.24 71.8Z" fill="#FAB84D"/>
<path d="M256.01 79.07C256.66 77.89 256.24 76.4 255.06 75.75C253.88 75.1 252.39 75.52 251.74 76.7C251.09 77.88 251.51 79.37 252.69 80.02C253.87 80.67 255.36 80.25 256.01 79.07Z" fill="#FAB84D"/>
<path d="M251.46 87.28C252.11 86.1 251.69 84.61 250.51 83.96C249.33 83.31 247.84 83.73 247.19 84.91C246.54 86.09 246.96 87.58 248.14 88.23C249.32 88.88 250.81 88.46 251.46 87.28Z" fill="#FAB84D"/>
<path d="M246.91 95.5C247.56 94.32 247.14 92.83 245.96 92.18C244.78 91.53 243.29 91.95 242.64 93.13C241.99 94.31 242.41 95.8 243.59 96.45C244.77 97.1 246.26 96.68 246.91 95.5Z" fill="#FAB84D"/>
<path d="M242.36 103.71C243.01 102.53 242.59 101.04 241.41 100.39C240.23 99.74 238.74 100.16 238.09 101.34C237.92 101.65 237.82 101.98 237.79 102.31C237.89 102.8 238 103.29 238.12 103.77C238.33 104.13 238.64 104.44 239.03 104.66C240.21 105.31 241.7 104.89 242.35 103.71H242.36Z" fill="#FAB84D"/>
<path d="M250.95 70.9C250.99 70.83 251.02 70.76 251.05 70.69C250.35 71.15 249.66 71.63 248.99 72.15C249.78 72.09 250.53 71.65 250.95 70.9Z" fill="#FAB84D"/>
<path d="M243.08 80.07C244.26 80.72 245.75 80.3 246.4 79.12C247.05 77.94 246.63 76.45 245.45 75.8C245.36 75.75 245.27 75.71 245.18 75.67C244.14 76.81 243.17 78.05 242.29 79.37C242.49 79.65 242.76 79.89 243.08 80.07Z" fill="#FAB84D"/>
<path d="M238.53 88.28C239.71 88.93 241.2 88.51 241.85 87.33C242.5 86.15 242.08 84.66 240.9 84.01C240.58 83.83 240.23 83.74 239.89 83.71C239.24 85.16 238.7 86.63 238.29 88.12C238.37 88.18 238.45 88.23 238.54 88.28H238.53Z" fill="#FAB84D"/>
<path d="M237.32 93.22C237.24 94.06 237.19 94.9 237.17 95.74C237.21 95.68 237.26 95.61 237.29 95.54C237.7 94.79 237.68 93.92 237.31 93.22H237.32Z" fill="#FAB84D"/>
<path d="M290.2 79.32C291.09 79.81 292.15 79.69 292.9 79.1C291.99 77.76 290.97 76.48 289.84 75.29C289.6 75.48 289.4 75.72 289.24 76C288.59 77.18 289.01 78.67 290.19 79.32H290.2Z" fill="#FAB84D"/>
<path d="M284.7 84.22C284.05 85.4 284.47 86.89 285.65 87.54C286.83 88.19 288.32 87.77 288.97 86.59C289.62 85.41 289.2 83.92 288.02 83.27C286.84 82.62 285.35 83.04 284.7 84.22Z" fill="#FAB84D"/>
<path d="M280.15 92.44C279.5 93.62 279.92 95.11 281.1 95.76C282.28 96.41 283.77 95.99 284.42 94.81C285.07 93.63 284.65 92.14 283.47 91.49C282.29 90.84 280.8 91.26 280.15 92.44Z" fill="#FAB84D"/>
<path d="M275.6 100.65C274.95 101.83 275.37 103.32 276.55 103.97C277.73 104.62 279.22 104.2 279.87 103.02C280.52 101.84 280.1 100.35 278.92 99.7C277.74 99.05 276.25 99.47 275.6 100.65Z" fill="#FAB84D"/>
<path d="M271.05 108.87C270.4 110.05 270.82 111.54 272 112.19C273.18 112.84 274.67 112.42 275.32 111.24C275.97 110.06 275.55 108.57 274.37 107.92C273.19 107.27 271.7 107.69 271.05 108.87Z" fill="#FAB84D"/>
<path d="M266.5 117.08C265.85 118.26 266.27 119.75 267.45 120.4C268.63 121.05 270.12 120.63 270.77 119.45C271.42 118.27 271 116.78 269.82 116.13C268.64 115.48 267.15 115.9 266.5 117.08Z" fill="#FAB84D"/>
<path d="M265.26 124.34C264.08 123.69 262.59 124.11 261.94 125.29C261.78 125.57 261.69 125.87 261.65 126.17C263.26 126.49 264.88 126.68 266.5 126.74C266.61 125.79 266.14 124.82 265.26 124.33V124.34Z" fill="#FAB84D"/>
<path d="M279.64 76.05C278.99 77.23 279.41 78.72 280.59 79.37C281.77 80.02 283.26 79.6 283.91 78.42C284.56 77.24 284.14 75.75 282.96 75.1C281.78 74.45 280.29 74.87 279.64 76.05Z" fill="#FAB84D"/>
<path d="M279.36 86.64C280.01 85.46 279.59 83.97 278.41 83.32C277.23 82.67 275.74 83.09 275.09 84.27C274.44 85.45 274.86 86.94 276.04 87.59C277.22 88.24 278.71 87.82 279.36 86.64Z" fill="#FAB84D"/>
<path d="M274.81 94.85C275.46 93.67 275.04 92.18 273.86 91.53C272.68 90.88 271.19 91.3 270.54 92.48C269.89 93.66 270.31 95.15 271.49 95.8C272.67 96.45 274.16 96.03 274.81 94.85Z" fill="#FAB84D"/>
<path d="M270.26 103.07C270.91 101.89 270.49 100.4 269.31 99.75C268.13 99.1 266.64 99.52 265.99 100.7C265.34 101.88 265.76 103.37 266.94 104.02C268.12 104.67 269.61 104.25 270.26 103.07Z" fill="#FAB84D"/>
<path d="M261.44 108.91C260.79 110.09 261.21 111.58 262.39 112.23C263.57 112.88 265.06 112.46 265.71 111.28C266.36 110.1 265.94 108.61 264.76 107.96C263.58 107.31 262.09 107.73 261.44 108.91Z" fill="#FAB84D"/>
<path d="M256.89 117.13C256.24 118.31 256.66 119.8 257.84 120.45C259.02 121.1 260.51 120.68 261.16 119.5C261.81 118.32 261.39 116.83 260.21 116.18C259.03 115.53 257.54 115.95 256.89 117.13Z" fill="#FAB84D"/>
<path d="M294.8 100.55C294.15 101.73 294.57 103.22 295.75 103.87C296.19 104.11 296.68 104.21 297.15 104.17C297.56 102.64 297.85 101.1 298.02 99.55C296.86 98.97 295.44 99.41 294.8 100.55Z" fill="#FAB84D"/>
<path d="M293.57 107.82C292.39 107.17 290.9 107.59 290.25 108.77C289.6 109.95 290.02 111.44 291.2 112.09C292.08 112.58 293.12 112.46 293.87 111.89C294.04 111.61 294.2 111.34 294.36 111.05C294.52 110.77 294.66 110.48 294.81 110.19C294.9 109.25 294.44 108.3 293.56 107.82H293.57Z" fill="#FAB84D"/>
<path d="M285.7 116.98C285.07 118.13 285.45 119.56 286.56 120.24C287.78 119.28 288.94 118.21 290.01 117.05C289.8 116.63 289.46 116.27 289.02 116.02C287.84 115.37 286.35 115.79 285.7 116.97V116.98Z" fill="#FAB84D"/>
<path d="M295.25 87.49C295.79 87.79 296.4 87.86 296.97 87.73C296.52 86.18 295.94 84.68 295.25 83.22C294.86 83.43 294.53 83.75 294.3 84.17C293.65 85.35 294.07 86.84 295.25 87.49Z" fill="#FAB84D"/>
<path d="M289.75 92.39C289.1 93.57 289.52 95.06 290.7 95.71C291.88 96.36 293.37 95.94 294.02 94.76C294.67 93.58 294.25 92.09 293.07 91.44C291.89 90.79 290.4 91.21 289.75 92.39Z" fill="#FAB84D"/>
<path d="M285.2 100.6C284.55 101.78 284.97 103.27 286.15 103.92C287.33 104.57 288.82 104.15 289.47 102.97C290.12 101.79 289.7 100.3 288.52 99.65C287.34 99 285.85 99.42 285.2 100.6Z" fill="#FAB84D"/>
<path d="M280.65 108.82C280 110 280.42 111.49 281.6 112.14C282.78 112.79 284.27 112.37 284.92 111.19C285.57 110.01 285.15 108.52 283.97 107.87C282.79 107.22 281.3 107.64 280.65 108.82Z" fill="#FAB84D"/>
<path d="M276.1 117.03C275.45 118.21 275.87 119.7 277.05 120.35C278.23 121 279.72 120.58 280.37 119.4C281.02 118.22 280.6 116.73 279.42 116.08C278.24 115.43 276.75 115.85 276.1 117.03Z" fill="#FAB84D"/>
<path d="M271.55 125.25C271.32 125.67 271.23 126.12 271.25 126.56C272.85 126.37 274.44 126.06 275.99 125.62C275.8 125.08 275.42 124.6 274.87 124.29C273.69 123.64 272.2 124.06 271.55 125.24V125.25Z" fill="#FAB84D"/>
<path d="M275.54 71.21C276.72 71.86 278.21 71.44 278.86 70.26C279.28 69.5 279.25 68.61 278.86 67.9C277.83 67.49 276.78 67.14 275.73 66.85C275.26 67.06 274.85 67.41 274.59 67.89C273.94 69.07 274.36 70.56 275.54 71.21Z" fill="#FAB84D"/>
<path d="M274.31 78.47C274.96 77.29 274.54 75.8 273.36 75.15C272.18 74.5 270.69 74.92 270.04 76.1C269.39 77.28 269.81 78.77 270.99 79.42C272.17 80.07 273.66 79.65 274.31 78.47Z" fill="#FAB84D"/>
<path d="M269.76 86.68C270.41 85.5 269.99 84.01 268.81 83.36C267.63 82.71 266.14 83.13 265.49 84.31C264.84 85.49 265.26 86.98 266.44 87.63C267.62 88.28 269.11 87.86 269.76 86.68Z" fill="#FAB84D"/>
<path d="M265.21 94.9C265.86 93.72 265.44 92.23 264.26 91.58C263.08 90.93 261.59 91.35 260.94 92.53C260.29 93.71 260.71 95.2 261.89 95.85C263.07 96.5 264.56 96.08 265.21 94.9Z" fill="#FAB84D"/>
<path d="M260.66 103.11C261.31 101.93 260.89 100.44 259.71 99.79C258.53 99.14 257.04 99.56 256.39 100.74C255.74 101.92 256.16 103.41 257.34 104.06C258.52 104.71 260.01 104.29 260.66 103.11Z" fill="#FAB84D"/>
<path d="M254.649 112.499C255.944 112.127 256.693 110.775 256.321 109.48C255.949 108.185 254.598 107.436 253.302 107.808C252.007 108.18 251.259 109.532 251.63 110.827C252.002 112.122 253.354 112.871 254.649 112.499Z" fill="#FAB84D"/>
<path d="M251.56 119.55C252.21 118.37 251.79 116.88 250.61 116.23C249.43 115.58 247.94 116 247.29 117.18C247.02 117.66 246.94 118.2 247.01 118.7C247.81 119.44 248.66 120.14 249.56 120.8C250.37 120.76 251.14 120.31 251.57 119.55H251.56Z" fill="#FAB84D"/>
<path d="M269.26 70.3C269.91 69.12 269.49 67.63 268.31 66.98C267.13 66.33 265.64 66.75 264.99 67.93C264.34 69.11 264.76 70.6 265.94 71.25C267.12 71.9 268.61 71.48 269.26 70.3Z" fill="#FAB84D"/>
<path d="M264.71 78.52C265.36 77.34 264.94 75.85 263.76 75.2C262.58 74.55 261.09 74.97 260.44 76.15C259.79 77.33 260.21 78.82 261.39 79.47C262.57 80.12 264.06 79.7 264.71 78.52Z" fill="#FAB84D"/>
<path d="M260.16 86.73C260.81 85.55 260.39 84.06 259.21 83.41C258.03 82.76 256.54 83.18 255.89 84.36C255.24 85.54 255.66 87.03 256.84 87.68C258.02 88.33 259.51 87.91 260.16 86.73Z" fill="#FAB84D"/>
<path d="M255.61 94.95C256.26 93.77 255.84 92.28 254.66 91.63C253.48 90.98 251.99 91.4 251.34 92.58C250.69 93.76 251.11 95.25 252.29 95.9C253.47 96.55 254.96 96.13 255.61 94.95Z" fill="#FAB84D"/>
<path d="M251.06 103.16C251.71 101.98 251.29 100.49 250.11 99.84C248.93 99.19 247.44 99.61 246.79 100.79C246.14 101.97 246.56 103.46 247.74 104.11C248.92 104.76 250.41 104.34 251.06 103.16Z" fill="#FAB84D"/>
<path d="M246.51 111.38C247.16 110.2 246.74 108.71 245.56 108.06C244.38 107.41 242.89 107.83 242.24 109.01C241.59 110.19 242.01 111.68 243.19 112.33C244.37 112.98 245.86 112.56 246.51 111.38Z" fill="#FAB84D"/>
</g>
<path d="M105.85 99.81L114.22 132.14L136.47 115.35L105.85 99.81Z" fill="#05A6AA"/>
<g opacity="0.6">
<path d="M56.4701 106.99C57.1301 107.36 57.9701 107.12 58.3401 106.45C58.7101 105.78 58.4701 104.95 57.8001 104.58C57.5801 104.46 57.3401 104.4 57.1001 104.41C56.8301 104.5 56.5701 104.59 56.3001 104.69C56.1501 104.8 56.0201 104.95 55.9301 105.12C55.5601 105.78 55.8001 106.62 56.4701 106.99Z" fill="#FAB84D"/>
<path d="M55.78 111.08C56.15 110.42 55.91 109.58 55.24 109.21C54.58 108.84 53.74 109.08 53.37 109.75C53 110.41 53.24 111.25 53.91 111.62C54.57 111.99 55.41 111.75 55.78 111.08Z" fill="#FAB84D"/>
<path d="M53.2201 115.71C53.5901 115.05 53.3501 114.21 52.6801 113.84C52.0201 113.47 51.1801 113.71 50.8101 114.38C50.4401 115.04 50.6801 115.88 51.3501 116.25C52.0101 116.62 52.8501 116.38 53.2201 115.71Z" fill="#FAB84D"/>
<path d="M50.65 120.34C51.02 119.68 50.78 118.84 50.11 118.47C49.45 118.1 48.61 118.34 48.24 119.01C47.87 119.67 48.11 120.51 48.78 120.88C49.44 121.25 50.28 121.01 50.65 120.34Z" fill="#FAB84D"/>
<path d="M48.09 124.97C48.46 124.31 48.22 123.47 47.55 123.1C46.89 122.73 46.05 122.97 45.68 123.64C45.58 123.81 45.53 124 45.51 124.19C45.57 124.47 45.63 124.74 45.7 125.01C45.82 125.21 45.99 125.39 46.22 125.51C46.88 125.88 47.72 125.64 48.09 124.97Z" fill="#FAB84D"/>
<path d="M52.9301 106.48C52.9301 106.48 52.9701 106.4 52.9901 106.36C52.5901 106.62 52.2001 106.89 51.8301 107.18C52.2801 107.15 52.7001 106.9 52.9301 106.47V106.48Z" fill="#FAB84D"/>
<path d="M48.5 111.64C49.16 112.01 50 111.77 50.37 111.1C50.74 110.44 50.5001 109.6 49.8301 109.23C49.8301 109.23 49.73 109.18 49.68 109.16C49.09 109.8 48.55 110.5 48.05 111.24C48.16 111.4 48.3101 111.53 48.4901 111.63L48.5 111.64Z" fill="#FAB84D"/>
<path d="M45.94 116.27C46.6 116.64 47.4401 116.4 47.8101 115.73C48.1801 115.07 47.9401 114.23 47.2701 113.86C47.09 113.76 46.8901 113.71 46.7001 113.69C46.3301 114.5 46.03 115.34 45.8 116.18C45.84 116.21 45.89 116.24 45.94 116.27Z" fill="#FAB84D"/>
<path d="M45.25 119.05C45.2 119.52 45.18 120 45.17 120.47C45.19 120.43 45.22 120.4 45.24 120.36C45.47 119.94 45.46 119.45 45.25 119.05Z" fill="#FAB84D"/>
<path d="M75.05 111.22C75.55 111.5 76.15 111.43 76.57 111.09C76.06 110.34 75.48 109.62 74.85 108.94C74.72 109.05 74.6 109.18 74.51 109.34C74.14 110 74.38 110.84 75.05 111.21V111.22Z" fill="#FAB84D"/>
<path d="M71.9501 113.98C71.5801 114.64 71.8201 115.48 72.4901 115.85C73.1501 116.22 73.9901 115.98 74.3601 115.31C74.7301 114.65 74.4901 113.81 73.8201 113.44C73.1601 113.07 72.3201 113.31 71.9501 113.98Z" fill="#FAB84D"/>
<path d="M69.38 118.61C69.01 119.27 69.25 120.11 69.92 120.48C70.58 120.85 71.42 120.61 71.79 119.94C72.16 119.28 71.92 118.44 71.25 118.07C70.59 117.7 69.75 117.94 69.38 118.61Z" fill="#FAB84D"/>
<path d="M66.8201 123.24C66.4501 123.9 66.6901 124.74 67.3601 125.11C68.0201 125.48 68.8601 125.24 69.2301 124.57C69.6001 123.91 69.3601 123.07 68.6901 122.7C68.0301 122.33 67.1901 122.57 66.8201 123.24Z" fill="#FAB84D"/>
<path d="M64.26 127.87C63.89 128.53 64.13 129.37 64.8 129.74C65.46 130.11 66.3 129.87 66.67 129.2C67.04 128.54 66.8 127.7 66.13 127.33C65.47 126.96 64.63 127.2 64.26 127.87Z" fill="#FAB84D"/>
<path d="M61.6901 132.5C61.3201 133.16 61.5601 134 62.2301 134.37C62.8901 134.74 63.7301 134.5 64.1001 133.83C64.4701 133.17 64.2301 132.33 63.5601 131.96C62.9001 131.59 62.0601 131.83 61.6901 132.5Z" fill="#FAB84D"/>
<path d="M61.0001 136.59C60.3401 136.22 59.5001 136.46 59.1301 137.13C59.0401 137.29 58.9901 137.46 58.9701 137.63C59.8801 137.81 60.7901 137.92 61.7001 137.95C61.7601 137.41 61.5001 136.87 61.0001 136.59Z" fill="#FAB84D"/>
<path d="M69.1 109.38C68.73 110.04 68.97 110.88 69.64 111.25C70.3 111.62 71.14 111.38 71.51 110.71C71.88 110.05 71.64 109.21 70.97 108.84C70.31 108.47 69.47 108.71 69.1 109.38Z" fill="#FAB84D"/>
<path d="M68.94 115.34C69.31 114.68 69.07 113.84 68.4 113.47C67.74 113.1 66.9 113.34 66.53 114.01C66.16 114.67 66.4 115.51 67.07 115.88C67.73 116.25 68.57 116.01 68.94 115.34Z" fill="#FAB84D"/>
<path d="M66.3801 119.97C66.7501 119.31 66.5101 118.47 65.8401 118.1C65.1801 117.73 64.3401 117.97 63.9701 118.64C63.6001 119.3 63.8401 120.14 64.5101 120.51C65.1701 120.88 66.0101 120.64 66.3801 119.97Z" fill="#FAB84D"/>
<path d="M63.82 124.6C64.19 123.94 63.95 123.1 63.28 122.73C62.62 122.36 61.78 122.6 61.41 123.27C61.04 123.93 61.28 124.77 61.95 125.14C62.61 125.51 63.45 125.27 63.82 124.6Z" fill="#FAB84D"/>
<path d="M58.8401 127.9C58.4701 128.56 58.7101 129.4 59.3801 129.77C60.0401 130.14 60.8801 129.9 61.2501 129.23C61.6201 128.57 61.3801 127.73 60.7101 127.36C60.0501 126.99 59.2101 127.23 58.8401 127.9Z" fill="#FAB84D"/>
<path d="M56.28 132.53C55.91 133.19 56.15 134.03 56.82 134.4C57.48 134.77 58.32 134.53 58.69 133.86C59.06 133.2 58.82 132.36 58.15 131.99C57.49 131.62 56.65 131.86 56.28 132.53Z" fill="#FAB84D"/>
<path d="M77.64 123.19C77.27 123.85 77.51 124.69 78.18 125.06C78.43 125.2 78.7 125.25 78.97 125.23C79.2 124.37 79.37 123.5 79.46 122.63C78.81 122.31 78 122.55 77.65 123.2L77.64 123.19Z" fill="#FAB84D"/>
<path d="M76.9501 127.28C76.2901 126.91 75.4501 127.15 75.0801 127.82C74.7101 128.48 74.9501 129.32 75.6201 129.69C76.1101 129.96 76.7001 129.9 77.1301 129.58C77.2201 129.42 77.3201 129.27 77.4101 129.11C77.5001 128.95 77.5801 128.79 77.6601 128.62C77.7101 128.09 77.4501 127.56 76.9601 127.28H76.9501Z" fill="#FAB84D"/>
<path d="M72.5201 132.45C72.1601 133.1 72.3801 133.9 73.0001 134.29C73.6901 133.75 74.3401 133.15 74.9501 132.49C74.8301 132.25 74.6401 132.05 74.3901 131.91C73.7301 131.54 72.8901 131.78 72.5201 132.45Z" fill="#FAB84D"/>
<path d="M77.9 115.83C78.21 116 78.55 116.04 78.87 115.97C78.62 115.1 78.29 114.25 77.9 113.43C77.68 113.55 77.49 113.73 77.36 113.97C76.99 114.63 77.23 115.47 77.9 115.84V115.83Z" fill="#FAB84D"/>
<path d="M74.8001 118.58C74.4301 119.24 74.67 120.08 75.34 120.45C76 120.82 76.8401 120.58 77.2101 119.91C77.5801 119.25 77.3401 118.41 76.6701 118.04C76.0101 117.67 75.1701 117.91 74.8001 118.58Z" fill="#FAB84D"/>
<path d="M72.2301 123.21C71.8601 123.87 72.1001 124.71 72.7701 125.08C73.4301 125.45 74.2701 125.21 74.6401 124.54C75.0101 123.88 74.7701 123.04 74.1001 122.67C73.4401 122.3 72.6001 122.54 72.2301 123.21Z" fill="#FAB84D"/>
<path d="M69.67 127.84C69.3 128.5 69.5401 129.34 70.2101 129.71C70.8701 130.08 71.7101 129.84 72.0801 129.17C72.4501 128.51 72.2101 127.67 71.5401 127.3C70.8801 126.93 70.04 127.17 69.67 127.84Z" fill="#FAB84D"/>
<path d="M67.1 132.47C66.73 133.13 66.97 133.97 67.64 134.34C68.3 134.71 69.14 134.47 69.51 133.8C69.88 133.14 69.64 132.3 68.97 131.93C68.31 131.56 67.47 131.8 67.1 132.47Z" fill="#FAB84D"/>
<path d="M64.54 137.1C64.41 137.33 64.36 137.59 64.37 137.84C65.27 137.73 66.17 137.56 67.04 137.31C66.93 137 66.72 136.73 66.41 136.56C65.75 136.19 64.91 136.43 64.54 137.1Z" fill="#FAB84D"/>
<path d="M66.79 106.65C67.45 107.02 68.29 106.78 68.66 106.11C68.9 105.68 68.88 105.18 68.66 104.78C68.08 104.55 67.49 104.35 66.9 104.19C66.64 104.31 66.41 104.51 66.26 104.78C65.89 105.44 66.13 106.28 66.8 106.65H66.79Z" fill="#FAB84D"/>
<path d="M66.1001 110.74C66.4701 110.08 66.2301 109.24 65.5601 108.87C64.9001 108.5 64.0601 108.74 63.6901 109.41C63.3201 110.07 63.5601 110.91 64.2301 111.28C64.8901 111.65 65.7301 111.41 66.1001 110.74Z" fill="#FAB84D"/>
<path d="M63.53 115.37C63.9 114.71 63.66 113.87 62.99 113.5C62.33 113.13 61.49 113.37 61.12 114.04C60.75 114.7 60.99 115.54 61.66 115.91C62.32 116.28 63.16 116.04 63.53 115.37Z" fill="#FAB84D"/>
<path d="M60.9701 120C61.3401 119.34 61.1001 118.5 60.4301 118.13C59.7701 117.76 58.9301 118 58.5601 118.67C58.1901 119.33 58.4301 120.17 59.1001 120.54C59.7601 120.91 60.6001 120.67 60.9701 120Z" fill="#FAB84D"/>
<path d="M58.4 124.63C58.77 123.97 58.53 123.13 57.86 122.76C57.2 122.39 56.36 122.63 55.99 123.3C55.62 123.96 55.86 124.8 56.53 125.17C57.19 125.54 58.03 125.3 58.4 124.63Z" fill="#FAB84D"/>
<path d="M54.64 129.97C55.4022 129.97 56.02 129.352 56.02 128.59C56.02 127.828 55.4022 127.21 54.64 127.21C53.8779 127.21 53.26 127.828 53.26 128.59C53.26 129.352 53.8779 129.97 54.64 129.97Z" fill="#FAB84D"/>
<path d="M53.28 133.89C53.65 133.23 53.41 132.39 52.74 132.02C52.08 131.65 51.24 131.89 50.87 132.56C50.72 132.83 50.67 133.13 50.71 133.42C51.16 133.84 51.64 134.23 52.14 134.6C52.6 134.58 53.03 134.32 53.27 133.89H53.28Z" fill="#FAB84D"/>
<path d="M63.2501 106.14C63.6201 105.48 63.3801 104.64 62.7101 104.27C62.0501 103.9 61.2101 104.14 60.8401 104.81C60.4701 105.47 60.7101 106.31 61.3801 106.68C62.0401 107.05 62.8801 106.81 63.2501 106.14Z" fill="#FAB84D"/>
<path d="M60.69 110.77C61.06 110.11 60.82 109.27 60.15 108.9C59.49 108.53 58.65 108.77 58.28 109.44C57.91 110.1 58.15 110.94 58.82 111.31C59.48 111.68 60.32 111.44 60.69 110.77Z" fill="#FAB84D"/>
<path d="M58.1201 115.4C58.4901 114.74 58.2501 113.9 57.5801 113.53C56.9201 113.16 56.0801 113.4 55.7101 114.07C55.3401 114.73 55.5801 115.57 56.2501 115.94C56.9101 116.31 57.7501 116.07 58.1201 115.4Z" fill="#FAB84D"/>
<path d="M55.56 120.03C55.93 119.37 55.69 118.53 55.02 118.16C54.36 117.79 53.52 118.03 53.15 118.7C52.78 119.36 53.02 120.2 53.69 120.57C54.35 120.94 55.19 120.7 55.56 120.03Z" fill="#FAB84D"/>
<path d="M52.9901 124.66C53.3601 124 53.1201 123.16 52.4501 122.79C51.7901 122.42 50.9501 122.66 50.5801 123.33C50.2101 123.99 50.4501 124.83 51.1201 125.2C51.7801 125.57 52.6201 125.33 52.9901 124.66Z" fill="#FAB84D"/>
<path d="M50.43 129.29C50.8 128.63 50.56 127.79 49.89 127.42C49.23 127.05 48.39 127.29 48.02 127.96C47.65 128.62 47.89 129.46 48.56 129.83C49.22 130.2 50.06 129.96 50.43 129.29Z" fill="#FAB84D"/>
</g>
<path opacity="0.6" d="M293.3 39.95C293.94 40.31 294.76 40.07 295.11 39.43C295.46 38.79 295.23 37.97 294.59 37.62C294.37 37.5 294.14 37.45 293.91 37.45C293.65 37.53 293.39 37.62 293.14 37.72C293 37.83 292.87 37.97 292.78 38.14C292.42 38.78 292.66 39.6 293.3 39.95Z" fill="#FAB84D"/>
<path opacity="0.6" d="M292.63 43.92C292.99 43.28 292.75 42.46 292.11 42.11C291.47 41.75 290.65 41.99 290.3 42.63C289.94 43.27 290.18 44.09 290.82 44.44C291.46 44.8 292.28 44.56 292.63 43.92Z" fill="#FAB84D"/>
<path opacity="0.6" d="M290.14 48.41C290.5 47.77 290.26 46.95 289.62 46.6C288.98 46.24 288.16 46.48 287.81 47.12C287.45 47.76 287.69 48.58 288.33 48.93C288.97 49.29 289.79 49.05 290.14 48.41Z" fill="#FAB84D"/>
<path opacity="0.6" d="M287.66 52.9C288.02 52.26 287.78 51.44 287.14 51.09C286.5 50.73 285.68 50.97 285.33 51.61C284.97 52.25 285.21 53.07 285.85 53.42C286.49 53.78 287.31 53.54 287.66 52.9Z" fill="#FAB84D"/>
<path opacity="0.6" d="M285.17 57.39C285.53 56.75 285.29 55.93 284.65 55.58C284.01 55.22 283.19 55.46 282.84 56.1C282.75 56.27 282.69 56.45 282.68 56.63C282.73 56.9 282.79 57.16 282.86 57.43C282.98 57.63 283.14 57.8 283.36 57.92C284 58.28 284.82 58.04 285.17 57.4V57.39Z" fill="#FAB84D"/>
<path opacity="0.6" d="M289.87 39.45C289.87 39.45 289.91 39.37 289.93 39.34C289.54 39.59 289.17 39.86 288.8 40.14C289.23 40.11 289.64 39.87 289.87 39.46V39.45Z" fill="#FAB84D"/>
<path opacity="0.6" d="M285.57 44.46C286.21 44.82 287.03 44.58 287.38 43.94C287.74 43.3 287.5 42.48 286.86 42.13C286.86 42.13 286.76 42.08 286.71 42.06C286.14 42.68 285.61 43.36 285.13 44.08C285.24 44.23 285.39 44.36 285.56 44.46H285.57Z" fill="#FAB84D"/>
<path opacity="0.6" d="M283.08 48.95C283.72 49.31 284.54 49.07 284.89 48.43C285.25 47.79 285.01 46.97 284.37 46.62C284.19 46.52 284.01 46.47 283.82 46.46C283.46 47.25 283.17 48.06 282.94 48.87C282.98 48.9 283.03 48.93 283.08 48.96V48.95Z" fill="#FAB84D"/>
<path d="M282.42 51.65C282.37 52.11 282.35 52.57 282.34 53.03C282.36 53 282.39 52.96 282.41 52.92C282.64 52.51 282.62 52.03 282.42 51.65Z" fill="#FAB84D"/>
<path opacity="0.6" d="M311.32 44.06C311.81 44.33 312.39 44.26 312.8 43.94C312.3 43.21 311.75 42.51 311.13 41.86C311 41.96 310.89 42.09 310.8 42.25C310.44 42.89 310.68 43.71 311.32 44.06Z" fill="#FAB84D"/>
<path opacity="0.6" d="M308.31 46.73C307.95 47.37 308.19 48.19 308.83 48.54C309.47 48.9 310.29 48.66 310.64 48.02C311 47.38 310.76 46.56 310.12 46.21C309.48 45.85 308.66 46.09 308.31 46.73Z" fill="#FAB84D"/>
<path opacity="0.6" d="M305.82 51.22C305.46 51.86 305.7 52.68 306.34 53.03C306.98 53.39 307.8 53.15 308.15 52.51C308.51 51.87 308.27 51.05 307.63 50.7C306.99 50.34 306.17 50.58 305.82 51.22Z" fill="#FAB84D"/>
<path opacity="0.6" d="M303.34 55.71C302.98 56.35 303.22 57.17 303.86 57.52C304.5 57.88 305.32 57.64 305.67 57C306.03 56.36 305.79 55.54 305.15 55.19C304.51 54.83 303.69 55.07 303.34 55.71Z" fill="#FAB84D"/>
<path opacity="0.6" d="M300.85 60.2C300.49 60.84 300.73 61.66 301.37 62.01C302.01 62.37 302.83 62.13 303.18 61.49C303.54 60.85 303.3 60.03 302.66 59.68C302.02 59.32 301.2 59.56 300.85 60.2Z" fill="#FAB84D"/>
<path opacity="0.6" d="M298.36 64.69C298 65.33 298.24 66.15 298.88 66.5C299.52 66.86 300.34 66.62 300.69 65.98C301.05 65.34 300.81 64.52 300.17 64.17C299.53 63.81 298.71 64.05 298.36 64.69Z" fill="#FAB84D"/>
<path opacity="0.6" d="M297.69 68.66C297.05 68.3 296.23 68.54 295.88 69.18C295.79 69.33 295.74 69.5 295.72 69.66C296.6 69.84 297.49 69.94 298.37 69.97C298.43 69.45 298.18 68.92 297.69 68.65V68.66Z" fill="#FAB84D"/>
<path opacity="0.6" d="M305.55 42.27C305.19 42.91 305.43 43.73 306.07 44.08C306.71 44.44 307.53 44.2 307.88 43.56C308.24 42.92 308 42.1 307.36 41.75C306.72 41.39 305.9 41.63 305.55 42.27Z" fill="#FAB84D"/>
<path opacity="0.6" d="M305.4 48.05C305.76 47.41 305.52 46.59 304.88 46.24C304.24 45.88 303.42 46.12 303.07 46.76C302.71 47.4 302.95 48.22 303.59 48.57C304.23 48.93 305.05 48.69 305.4 48.05Z" fill="#FAB84D"/>
<path opacity="0.6" d="M302.91 52.54C303.27 51.9 303.03 51.08 302.39 50.73C301.75 50.37 300.93 50.61 300.58 51.25C300.22 51.89 300.46 52.71 301.1 53.06C301.74 53.42 302.56 53.18 302.91 52.54Z" fill="#FAB84D"/>
<path opacity="0.6" d="M300.42 57.03C300.78 56.39 300.54 55.57 299.9 55.22C299.26 54.86 298.44 55.1 298.09 55.74C297.73 56.38 297.97 57.2 298.61 57.55C299.25 57.91 300.07 57.67 300.42 57.03Z" fill="#FAB84D"/>
<path opacity="0.6" d="M295.6 60.23C295.24 60.87 295.48 61.69 296.12 62.04C296.76 62.4 297.58 62.16 297.93 61.52C298.29 60.88 298.05 60.06 297.41 59.71C296.77 59.35 295.95 59.59 295.6 60.23Z" fill="#FAB84D"/>
<path opacity="0.6" d="M293.12 64.72C292.76 65.36 293 66.18 293.64 66.53C294.28 66.89 295.1 66.65 295.45 66.01C295.81 65.37 295.57 64.55 294.93 64.2C294.29 63.84 293.47 64.08 293.12 64.72Z" fill="#FAB84D"/>
<path opacity="0.6" d="M313.84 55.66C313.48 56.3 313.72 57.12 314.36 57.47C314.6 57.6 314.87 57.65 315.12 57.63C315.34 56.79 315.5 55.95 315.59 55.11C314.95 54.8 314.18 55.03 313.83 55.66H313.84Z" fill="#FAB84D"/>
<path opacity="0.6" d="M313.16 59.63C312.52 59.27 311.7 59.51 311.35 60.15C310.99 60.79 311.23 61.61 311.87 61.96C312.35 62.23 312.92 62.16 313.33 61.85C313.42 61.7 313.51 61.55 313.6 61.39C313.69 61.23 313.76 61.08 313.85 60.92C313.9 60.41 313.65 59.89 313.17 59.62L313.16 59.63Z" fill="#FAB84D"/>
<path opacity="0.6" d="M308.86 64.64C308.51 65.27 308.72 66.05 309.33 66.42C310 65.89 310.63 65.31 311.22 64.68C311.1 64.45 310.92 64.25 310.68 64.12C310.04 63.76 309.22 64 308.87 64.64H308.86Z" fill="#FAB84D"/>
<path opacity="0.6" d="M314.08 48.52C314.38 48.68 314.71 48.72 315.02 48.65C314.77 47.8 314.46 46.98 314.08 46.18C313.87 46.3 313.69 46.47 313.56 46.7C313.2 47.34 313.44 48.16 314.08 48.51V48.52Z" fill="#FAB84D"/>
<path opacity="0.6" d="M311.07 51.2C310.71 51.84 310.95 52.66 311.59 53.01C312.23 53.37 313.05 53.13 313.4 52.49C313.76 51.85 313.52 51.03 312.88 50.68C312.24 50.32 311.42 50.56 311.07 51.2Z" fill="#FAB84D"/>
<path opacity="0.6" d="M308.59 55.69C308.23 56.33 308.47 57.15 309.11 57.5C309.75 57.86 310.57 57.62 310.92 56.98C311.28 56.34 311.04 55.52 310.4 55.17C309.76 54.81 308.94 55.05 308.59 55.69Z" fill="#FAB84D"/>
<path opacity="0.6" d="M306.1 60.18C305.74 60.82 305.98 61.64 306.62 61.99C307.26 62.35 308.08 62.11 308.43 61.47C308.79 60.83 308.55 60.01 307.91 59.66C307.27 59.3 306.45 59.54 306.1 60.18Z" fill="#FAB84D"/>
<path opacity="0.6" d="M303.61 64.67C303.25 65.31 303.49 66.13 304.13 66.48C304.77 66.84 305.59 66.6 305.94 65.96C306.3 65.32 306.06 64.5 305.42 64.15C304.78 63.79 303.96 64.03 303.61 64.67Z" fill="#FAB84D"/>
<path opacity="0.6" d="M301.13 69.16C301 69.39 300.95 69.64 300.97 69.88C301.85 69.78 302.71 69.61 303.56 69.37C303.46 69.07 303.25 68.81 302.95 68.65C302.31 68.29 301.49 68.53 301.14 69.17L301.13 69.16Z" fill="#FAB84D"/>
<path opacity="0.6" d="M303.31 39.62C303.95 39.98 304.77 39.74 305.12 39.1C305.35 38.68 305.33 38.2 305.12 37.81C304.56 37.59 303.99 37.4 303.41 37.24C303.15 37.35 302.93 37.55 302.79 37.81C302.43 38.45 302.67 39.27 303.31 39.62Z" fill="#FAB84D"/>
<path opacity="0.6" d="M302.64 43.59C303 42.95 302.76 42.13 302.12 41.78C301.48 41.42 300.66 41.66 300.31 42.3C299.95 42.94 300.19 43.76 300.83 44.11C301.47 44.47 302.29 44.23 302.64 43.59Z" fill="#FAB84D"/>
<path opacity="0.6" d="M300.15 48.08C300.51 47.44 300.27 46.62 299.63 46.27C298.99 45.91 298.17 46.15 297.82 46.79C297.46 47.43 297.7 48.25 298.34 48.6C298.98 48.96 299.8 48.72 300.15 48.08Z" fill="#FAB84D"/>
<path opacity="0.6" d="M297.66 52.57C298.02 51.93 297.78 51.11 297.14 50.76C296.5 50.4 295.68 50.64 295.33 51.28C294.97 51.92 295.21 52.74 295.85 53.09C296.49 53.45 297.31 53.21 297.66 52.57Z" fill="#FAB84D"/>
<path opacity="0.6" d="M295.18 57.06C295.54 56.42 295.3 55.6 294.66 55.25C294.02 54.89 293.2 55.13 292.85 55.77C292.49 56.41 292.73 57.23 293.37 57.58C294.01 57.94 294.83 57.7 295.18 57.06Z" fill="#FAB84D"/>
<path opacity="0.6" d="M291.52 62.23C292.255 62.23 292.85 61.6345 292.85 60.9C292.85 60.1655 292.255 59.57 291.52 59.57C290.786 59.57 290.19 60.1655 290.19 60.9C290.19 61.6345 290.786 62.23 291.52 62.23Z" fill="#FAB84D"/>
<path opacity="0.6" d="M290.2 66.04C290.56 65.4 290.32 64.58 289.68 64.23C289.04 63.87 288.22 64.11 287.87 64.75C287.72 65.01 287.68 65.31 287.72 65.58C288.16 65.98 288.62 66.37 289.11 66.73C289.55 66.71 289.98 66.46 290.21 66.05L290.2 66.04Z" fill="#FAB84D"/>
<path opacity="0.6" d="M299.87 39.13C300.23 38.49 299.99 37.67 299.35 37.32C298.71 36.96 297.89 37.2 297.54 37.84C297.18 38.48 297.42 39.3 298.06 39.65C298.7 40.01 299.52 39.77 299.87 39.13Z" fill="#FAB84D"/>
<path opacity="0.6" d="M297.39 43.62C297.75 42.98 297.51 42.16 296.87 41.81C296.23 41.45 295.41 41.69 295.06 42.33C294.7 42.97 294.94 43.79 295.58 44.14C296.22 44.5 297.04 44.26 297.39 43.62Z" fill="#FAB84D"/>
<path opacity="0.6" d="M294.9 48.11C295.26 47.47 295.02 46.65 294.38 46.3C293.74 45.94 292.92 46.18 292.57 46.82C292.21 47.46 292.45 48.28 293.09 48.63C293.73 48.99 294.55 48.75 294.9 48.11Z" fill="#FAB84D"/>
<path opacity="0.6" d="M292.41 52.6C292.77 51.96 292.53 51.14 291.89 50.79C291.25 50.43 290.43 50.67 290.08 51.31C289.72 51.95 289.96 52.77 290.6 53.12C291.24 53.48 292.06 53.24 292.41 52.6Z" fill="#FAB84D"/>
<path opacity="0.6" d="M289.93 57.09C290.29 56.45 290.05 55.63 289.41 55.28C288.77 54.92 287.95 55.16 287.6 55.8C287.24 56.44 287.48 57.26 288.12 57.61C288.76 57.97 289.58 57.73 289.93 57.09Z" fill="#FAB84D"/>
<path opacity="0.6" d="M287.44 61.58C287.8 60.94 287.56 60.12 286.92 59.77C286.28 59.41 285.46 59.65 285.11 60.29C284.75 60.93 284.99 61.75 285.63 62.1C286.27 62.46 287.09 62.22 287.44 61.58Z" fill="#FAB84D"/>
<path d="M53.12 96.62L56.15 108.3L64.19 102.23L53.12 96.62Z" fill="#05A6AA"/>
<path d="M309.816 78.2817L307.622 87.6483L316.989 89.8418L319.182 80.4752L309.816 78.2817Z" fill="#F7BBBE"/>
<path d="M77.6976 115.658L75.5042 125.025L84.8707 127.218L87.0642 117.852L77.6976 115.658Z" fill="#F7BBBE"/>
<path d="M317.12 72.88L305.31 75.37L311.02 83.68L317.12 72.88Z" fill="#05A6AA"/>
<path d="M244.92 46.14H123.79C113.81 46.14 105.72 54.2302 105.72 64.21V132.46C105.72 142.44 113.81 150.53 123.79 150.53H244.92C254.9 150.53 262.99 142.44 262.99 132.46V64.21C262.99 54.2302 254.9 46.14 244.92 46.14Z" fill="#4D73B7"/>
<path d="M238.72 50.15H123.5C113.52 50.15 105.43 58.2402 105.43 68.22V132.54C105.43 142.52 113.52 150.61 123.5 150.61H238.72C248.7 150.61 256.79 142.52 256.79 132.54V68.22C256.79 58.2402 248.7 50.15 238.72 50.15Z" fill="#3D6092"/>
<path opacity="0.3" d="M183.3 171.04C237.568 171.04 281.56 164.468 281.56 156.36C281.56 148.252 237.568 141.68 183.3 141.68C129.033 141.68 85.04 148.252 85.04 156.36C85.04 164.468 129.033 171.04 183.3 171.04Z" fill="#E2DEDC"/>
<g style="mix-blend-mode:multiply" opacity="0.3">
<path d="M220.15 37.77C220.27 38.91 220.34 40.06 220.34 41.23C220.34 59.48 205.11 74.7 186.87 74.7C176.23 74.7 166.63 69.52 160.46 61.59C166.18 70.97 176.51 77.22 188.3 77.22C206.3 77.22 220.89 62.63 220.89 44.63C220.89 42.27 220.63 39.98 220.16 37.77H220.15Z" fill="#FBE35D"/>
</g>
<path d="M217.82 46.15V43.83C217.82 43.34 217.43 42.95 216.94 42.95C216.48 42.95 216.1 42.59 216.06 42.14C215.98 41.28 215.87 40.42 215.73 39.58C215.65 39.13 215.92 38.69 216.37 38.57C216.84 38.44 217.12 37.96 216.99 37.49L216.39 35.25C216.26 34.78 215.78 34.5 215.31 34.63C214.87 34.75 214.41 34.5 214.25 34.07C213.95 33.26 213.62 32.46 213.26 31.68C213.07 31.26 213.22 30.77 213.61 30.54C214.03 30.3 214.18 29.76 213.93 29.34L212.77 27.33C212.53 26.91 211.99 26.76 211.57 27.01C211.17 27.24 210.67 27.12 210.4 26.75C209.9 26.05 209.38 25.36 208.82 24.7C208.52 24.35 208.54 23.83 208.87 23.5C209.21 23.15 209.21 22.59 208.87 22.25L207.23 20.61C206.89 20.27 206.33 20.27 205.98 20.61C205.65 20.94 205.14 20.96 204.78 20.66C204.12 20.11 203.44 19.58 202.73 19.08C202.35 18.81 202.24 18.31 202.47 17.91C202.71 17.49 202.57 16.95 202.15 16.7L200.14 15.54C199.72 15.3 199.18 15.44 198.94 15.86C198.71 16.26 198.21 16.41 197.8 16.21C197.02 15.85 196.22 15.52 195.41 15.22C194.98 15.06 194.73 14.61 194.85 14.16C194.98 13.69 194.7 13.2 194.23 13.08L191.99 12.48C191.52 12.35 191.04 12.63 190.91 13.1C190.79 13.54 190.35 13.82 189.9 13.74C189.06 13.6 188.2 13.49 187.34 13.41C186.88 13.37 186.53 12.99 186.53 12.53C186.53 12.04 186.14 11.64 185.65 11.64H183.33C182.84 11.64 182.45 12.03 182.45 12.52C182.45 12.99 182.09 13.36 181.64 13.41C180.78 13.49 179.92 13.6 179.08 13.74C178.63 13.82 178.19 13.55 178.07 13.1C177.94 12.63 177.46 12.35 176.99 12.48L174.75 13.08C174.28 13.21 174 13.69 174.13 14.16C174.25 14.61 174 15.06 173.57 15.22C172.76 15.52 171.96 15.85 171.18 16.21C170.76 16.4 170.27 16.25 170.04 15.86C169.8 15.44 169.26 15.29 168.84 15.54L166.83 16.7C166.41 16.94 166.26 17.48 166.51 17.9C166.74 18.3 166.62 18.8 166.25 19.07C165.55 19.57 164.86 20.09 164.2 20.65C163.85 20.95 163.33 20.93 163 20.6C162.66 20.25 162.1 20.25 161.75 20.6L160.11 22.24C159.77 22.58 159.77 23.14 160.11 23.49C160.44 23.82 160.45 24.34 160.16 24.69C159.61 25.35 159.08 26.03 158.58 26.74C158.31 27.12 157.81 27.23 157.41 27C156.99 26.76 156.45 26.9 156.21 27.32L155.05 29.33C154.81 29.75 154.95 30.29 155.37 30.53C155.77 30.76 155.92 31.26 155.72 31.67C155.36 32.45 155.03 33.25 154.73 34.06C154.57 34.49 154.12 34.74 153.67 34.62C153.2 34.49 152.72 34.77 152.59 35.24L151.99 37.48C151.86 37.95 152.14 38.43 152.61 38.56C153.05 38.68 153.33 39.12 153.25 39.57C153.11 40.41 153 41.27 152.92 42.13C152.88 42.59 152.5 42.94 152.04 42.94C151.55 42.94 151.16 43.33 151.16 43.82V46.14C151.16 46.63 151.55 47.02 152.04 47.02C152.5 47.02 152.88 47.38 152.92 47.83C153 48.69 153.11 49.55 153.25 50.39C153.33 50.84 153.06 51.28 152.61 51.4C152.14 51.53 151.86 52.01 151.99 52.48L152.59 54.72C152.72 55.19 153.2 55.47 153.67 55.34C154.11 55.22 154.57 55.47 154.73 55.9C155.03 56.71 155.36 57.51 155.72 58.29C155.91 58.71 155.76 59.2 155.37 59.43C154.95 59.67 154.8 60.21 155.05 60.63L156.21 62.64C156.45 63.06 156.99 63.21 157.41 62.96C157.81 62.73 158.31 62.85 158.58 63.22C159.08 63.92 159.6 64.61 160.16 65.27C160.46 65.62 160.44 66.14 160.11 66.47C159.77 66.82 159.77 67.38 160.11 67.72L161.75 69.36C162.09 69.7 162.65 69.7 163 69.36C163.33 69.03 163.84 69.01 164.2 69.31C164.86 69.86 165.54 70.39 166.25 70.89C166.63 71.16 166.74 71.66 166.51 72.06C166.27 72.48 166.41 73.02 166.83 73.27L168.84 74.43C169.26 74.67 169.8 74.53 170.04 74.11C170.27 73.71 170.77 73.56 171.18 73.76C171.96 74.12 172.76 74.45 173.57 74.75C174 74.91 174.25 75.36 174.13 75.81C174 76.28 174.28 76.77 174.75 76.89L176.99 77.49C177.46 77.62 177.94 77.34 178.07 76.87C178.19 76.43 178.63 76.15 179.08 76.23C179.92 76.37 180.78 76.48 181.64 76.56C182.1 76.6 182.45 76.98 182.45 77.44C182.45 77.93 182.84 78.33 183.33 78.33H185.65C186.14 78.33 186.53 77.94 186.53 77.45C186.53 76.98 186.89 76.61 187.34 76.56C188.2 76.48 189.06 76.37 189.9 76.23C190.35 76.15 190.79 76.42 190.91 76.87C191.04 77.34 191.52 77.62 191.99 77.49L194.23 76.89C194.7 76.76 194.98 76.28 194.85 75.81C194.73 75.36 194.98 74.91 195.41 74.75C196.22 74.45 197.02 74.12 197.8 73.76C198.22 73.57 198.71 73.72 198.94 74.11C199.18 74.53 199.72 74.68 200.14 74.43L202.15 73.27C202.57 73.03 202.72 72.49 202.47 72.07C202.24 71.67 202.36 71.17 202.73 70.9C203.43 70.4 204.12 69.88 204.78 69.32C205.13 69.02 205.65 69.04 205.98 69.37C206.32 69.72 206.88 69.72 207.23 69.37L208.87 67.73C209.21 67.39 209.21 66.83 208.87 66.48C208.54 66.15 208.53 65.63 208.82 65.28C209.37 64.62 209.9 63.94 210.4 63.23C210.67 62.85 211.17 62.74 211.57 62.97C211.99 63.21 212.53 63.07 212.77 62.65L213.93 60.64C214.17 60.22 214.03 59.68 213.61 59.44C213.21 59.21 213.06 58.71 213.26 58.3C213.62 57.52 213.95 56.72 214.25 55.91C214.41 55.48 214.86 55.23 215.31 55.35C215.78 55.48 216.26 55.2 216.39 54.73L216.99 52.49C217.12 52.02 216.84 51.54 216.37 51.41C215.93 51.29 215.65 50.85 215.73 50.4C215.87 49.56 215.98 48.7 216.06 47.84C216.1 47.38 216.48 47.03 216.94 47.03C217.43 47.03 217.82 46.64 217.82 46.15Z" fill="#F8AA2F"/>
<path d="M207.963 68.4687C220.932 55.4994 220.932 34.472 207.963 21.5026C194.994 8.53333 173.966 8.53333 160.997 21.5026C148.027 34.472 148.027 55.4994 160.997 68.4687C173.966 81.438 194.994 81.438 207.963 68.4687Z" fill="#FBE35D"/>
<path d="M184.48 73.1C200.005 73.1 212.59 60.5147 212.59 44.99C212.59 29.4653 200.005 16.88 184.48 16.88C168.955 16.88 156.37 29.4653 156.37 44.99C156.37 60.5147 168.955 73.1 184.48 73.1Z" fill="#F8AA2F"/>
<path d="M184.48 65.59C195.857 65.59 205.08 56.3671 205.08 44.99C205.08 33.613 195.857 24.39 184.48 24.39C173.103 24.39 163.88 33.613 163.88 44.99C163.88 56.3671 173.103 65.59 184.48 65.59Z" fill="#FBE35D"/>
<g style="mix-blend-mode:multiply" opacity="0.3">
<path d="M185.66 19.91C195.56 19.91 204.46 24.95 209.91 32.56C205.32 23.28 195.76 16.9 184.71 16.9C169.94 16.9 157.85 28.28 156.7 42.75C159.91 29.77 171.8 19.9 185.67 19.9L185.66 19.91Z" fill="#F8AA2F"/>
</g>
<g style="mix-blend-mode:overlay" opacity="0.3">
<path d="M166.65 45.83C166.2 45.83 165.84 45.47 165.84 45.02C165.84 34.62 174.3 26.15 184.71 26.15C185.16 26.15 185.52 26.51 185.52 26.96C185.52 27.41 185.16 27.77 184.71 27.77C175.2 27.77 167.46 35.51 167.46 45.02C167.46 45.47 167.1 45.83 166.65 45.83Z" fill="white"/>
</g>
<g style="mix-blend-mode:overlay" opacity="0.3">
<path d="M153.71 45.83C153.26 45.83 152.9 45.47 152.9 45.02C152.9 27.48 167.17 13.21 184.71 13.21C185.16 13.21 185.52 13.57 185.52 14.02C185.52 14.47 185.16 14.83 184.71 14.83C168.07 14.83 154.53 28.37 154.53 45.01C154.53 45.46 154.17 45.82 153.72 45.82L153.71 45.83Z" fill="white"/>
</g>
<g style="mix-blend-mode:multiply" opacity="0.3">
<path d="M207.18 36.42C207.38 37.58 207.48 38.76 207.48 39.97C207.48 51.82 197.59 61.71 185.74 61.71C180.1 61.71 174.91 59.47 171.01 55.84C174.68 61.49 181.05 65.23 188.28 65.23C199.66 65.23 208.88 56.01 208.88 44.63C208.88 41.71 208.27 38.93 207.17 36.42H207.18Z" fill="#FBE35D"/>
</g>
<path d="M170.9 37.39V35.9901H175.44V37.39H173.96V44.2001H172.39V37.39H170.91H170.9Z" fill="#F8AA2F"/>
<path d="M175.87 40.27C175.89 39.48 176.04 38.81 176.32 38.24C176.6 37.67 176.95 37.22 177.38 36.88C177.81 36.54 178.27 36.3 178.77 36.14C179.27 35.99 179.76 35.91 180.22 35.91C180.86 35.91 181.44 36.04 181.98 36.29C182.52 36.54 182.98 36.88 183.36 37.3C183.74 37.72 184.03 38.16 184.23 38.64C184.43 39.11 184.53 39.57 184.53 40.01C184.53 40.12 184.53 40.24 184.5 40.37C184.45 40.82 184.34 41.27 184.17 41.73C184 42.19 183.75 42.62 183.41 43.02C183.07 43.42 182.62 43.75 182.06 44.01C181.5 44.26 180.83 44.39 180.04 44.39C179.32 44.39 178.69 44.25 178.15 43.96C177.61 43.67 177.17 43.31 176.84 42.88C176.51 42.45 176.26 42 176.1 41.53C175.93 41.06 175.85 40.64 175.85 40.28L175.87 40.27ZM177.44 40.27C177.47 40.86 177.62 41.36 177.89 41.75C178.16 42.14 178.5 42.43 178.89 42.62C179.28 42.8 179.67 42.89 180.06 42.89C180.42 42.89 180.77 42.81 181.11 42.66C181.45 42.51 181.75 42.29 182.02 42.02C182.29 41.75 182.49 41.45 182.64 41.11C182.79 40.78 182.86 40.44 182.86 40.09C182.86 39.65 182.76 39.22 182.55 38.82C182.34 38.41 182.04 38.08 181.64 37.82C181.24 37.56 180.78 37.41 180.25 37.39C179.92 37.39 179.59 37.44 179.28 37.53C178.97 37.62 178.68 37.78 178.41 38C178.14 38.22 177.93 38.51 177.75 38.9C177.58 39.28 177.48 39.74 177.46 40.28L177.44 40.27Z" fill="#F8AA2F"/>
<path d="M185.65 35.9901H187.13V39.4001L189.75 35.9901H191.58L188.44 40.01L191.5 44.2001H189.58L187.13 40.71V44.2001H185.65V35.9901Z" fill="#F8AA2F"/>
<path d="M192.47 35.9901H196.84V37.4701H193.96V39.48H196.75V40.8801H193.96V42.8H196.84V44.2001H192.47V35.9901Z" fill="#F8AA2F"/>
<path d="M198.23 35.9901H199.89L203.38 42.0201V35.9901H204.86V44.2001H203.2L199.79 38.26V44.2001H198.22V35.9901H198.23Z" fill="#F8AA2F"/>
<path d="M170.71 47.3201H173.17V48.2101H171.65V49.3101H173.12V50.2001H171.65V52.2401H170.71V47.3101V47.3201Z" fill="#F8AA2F"/>
<path d="M173.7 49.89C173.71 49.42 173.8 49.01 173.97 48.67C174.14 48.33 174.35 48.06 174.61 47.85C174.87 47.65 175.15 47.5 175.45 47.41C175.75 47.32 176.04 47.27 176.32 47.27C176.7 47.27 177.05 47.35 177.38 47.5C177.7 47.65 177.98 47.85 178.21 48.1C178.44 48.35 178.61 48.62 178.73 48.9C178.85 49.18 178.91 49.46 178.91 49.72C178.91 49.79 178.91 49.86 178.89 49.94C178.86 50.21 178.79 50.48 178.69 50.75C178.59 51.02 178.44 51.28 178.23 51.52C178.03 51.76 177.76 51.96 177.42 52.11C177.08 52.26 176.68 52.34 176.21 52.34C175.78 52.34 175.4 52.25 175.08 52.08C174.76 51.91 174.49 51.69 174.3 51.43C174.1 51.17 173.95 50.9 173.85 50.62C173.75 50.34 173.7 50.09 173.7 49.87V49.89ZM174.64 49.89C174.66 50.25 174.75 50.54 174.91 50.78C175.07 51.02 175.28 51.19 175.51 51.3C175.75 51.41 175.98 51.46 176.21 51.46C176.43 51.46 176.64 51.41 176.84 51.32C177.04 51.23 177.22 51.1 177.38 50.94C177.54 50.78 177.66 50.6 177.75 50.4C177.84 50.2 177.88 50 177.88 49.79C177.88 49.52 177.82 49.27 177.69 49.03C177.56 48.79 177.38 48.59 177.14 48.43C176.9 48.27 176.62 48.19 176.3 48.17C176.1 48.17 175.9 48.2 175.72 48.26C175.54 48.32 175.36 48.41 175.2 48.54C175.04 48.67 174.91 48.85 174.81 49.08C174.71 49.31 174.65 49.58 174.63 49.91L174.64 49.89Z" fill="#F8AA2F"/>
<path d="M180.83 47.3201C181.22 47.3201 181.56 47.3601 181.84 47.4501C182.13 47.5401 182.36 47.7101 182.54 47.9601C182.72 48.2201 182.81 48.5801 182.81 49.0501C182.81 49.2401 182.77 49.4301 182.68 49.6301C182.59 49.8301 182.46 50.0001 182.26 50.1401C182.07 50.2801 181.81 50.3701 181.5 50.4101L182.81 52.2401H181.71L180.4 50.3501V52.2401H179.51V47.3101H180.82L180.83 47.3201ZM180.41 48.2601V49.6701H180.67C180.73 49.6701 180.8 49.6701 180.87 49.6701C181.11 49.6701 181.3 49.6501 181.45 49.6201C181.6 49.5901 181.71 49.5101 181.8 49.4001C181.89 49.2901 181.93 49.1101 181.93 48.8901C181.93 48.6301 181.83 48.4601 181.62 48.3801C181.41 48.3001 181.14 48.2601 180.81 48.2601H180.58C180.53 48.2601 180.47 48.2601 180.4 48.2601H180.41Z" fill="#F8AA2F"/>
<path d="M187.53 47.27C187.77 47.27 188 47.28 188.2 47.31C188.4 47.34 188.62 47.4 188.84 47.5C189.06 47.6 189.28 47.75 189.49 47.96C189.7 48.17 189.88 48.45 190.04 48.79H188.89C188.76 48.59 188.58 48.44 188.36 48.33C188.14 48.23 187.9 48.17 187.64 48.17C187.37 48.17 187.11 48.23 186.85 48.35C186.6 48.47 186.4 48.65 186.24 48.88C186.08 49.12 186.01 49.4 186.01 49.72C186.01 50.07 186.11 50.37 186.27 50.63C186.43 50.89 186.65 51.08 186.9 51.22C187.16 51.35 187.43 51.42 187.71 51.42C187.89 51.42 188.07 51.39 188.25 51.33C188.43 51.27 188.59 51.18 188.73 51.06C188.87 50.94 188.99 50.79 189.09 50.61H187.05V49.77H190.25C190.25 49.77 190.25 49.8 190.25 49.81C190.25 49.82 190.25 49.84 190.25 49.86C190.25 50.17 190.19 50.48 190.06 50.77C189.93 51.06 189.75 51.33 189.52 51.56C189.29 51.79 189.01 51.98 188.69 52.12C188.37 52.26 188.03 52.33 187.67 52.35H187.58C187.23 52.35 186.89 52.28 186.57 52.14C186.25 52 185.98 51.8 185.74 51.55C185.5 51.3 185.32 51.02 185.19 50.7C185.06 50.38 185 50.06 185 49.73C185 49.4 185.07 49.09 185.21 48.79C185.35 48.49 185.54 48.23 185.78 48.01C186.02 47.78 186.3 47.61 186.6 47.48C186.9 47.35 187.21 47.28 187.52 47.27H187.53Z" fill="#F8AA2F"/>
<path d="M190.67 49.89C190.68 49.42 190.77 49.01 190.94 48.67C191.11 48.33 191.32 48.06 191.58 47.85C191.84 47.65 192.12 47.5 192.42 47.41C192.72 47.32 193.01 47.27 193.29 47.27C193.67 47.27 194.02 47.35 194.35 47.5C194.67 47.65 194.95 47.85 195.18 48.1C195.41 48.35 195.58 48.62 195.7 48.9C195.82 49.18 195.88 49.46 195.88 49.72C195.88 49.79 195.88 49.86 195.86 49.94C195.83 50.21 195.76 50.48 195.66 50.75C195.56 51.02 195.41 51.28 195.2 51.52C195 51.76 194.73 51.96 194.39 52.11C194.05 52.26 193.65 52.34 193.18 52.34C192.75 52.34 192.37 52.25 192.05 52.08C191.73 51.91 191.46 51.69 191.27 51.43C191.08 51.17 190.92 50.9 190.82 50.62C190.72 50.34 190.67 50.09 190.67 49.87V49.89ZM191.61 49.89C191.63 50.25 191.72 50.54 191.88 50.78C192.04 51.02 192.25 51.19 192.48 51.3C192.72 51.41 192.95 51.46 193.18 51.46C193.4 51.46 193.61 51.41 193.81 51.32C194.01 51.23 194.19 51.1 194.35 50.94C194.51 50.78 194.63 50.6 194.72 50.4C194.81 50.2 194.85 50 194.85 49.79C194.85 49.52 194.79 49.27 194.66 49.03C194.53 48.79 194.35 48.59 194.11 48.43C193.87 48.27 193.59 48.19 193.27 48.17C193.07 48.17 192.87 48.2 192.69 48.26C192.5 48.32 192.33 48.41 192.17 48.54C192.01 48.67 191.88 48.85 191.78 49.08C191.68 49.31 191.62 49.58 191.6 49.91L191.61 49.89Z" fill="#F8AA2F"/>
<path d="M196.28 49.89C196.29 49.42 196.38 49.01 196.55 48.67C196.72 48.33 196.93 48.06 197.19 47.85C197.45 47.65 197.73 47.5 198.03 47.41C198.33 47.32 198.62 47.27 198.9 47.27C199.28 47.27 199.63 47.35 199.96 47.5C200.28 47.65 200.56 47.85 200.79 48.1C201.02 48.35 201.19 48.62 201.31 48.9C201.43 49.18 201.49 49.46 201.49 49.72C201.49 49.79 201.49 49.86 201.47 49.94C201.44 50.21 201.37 50.48 201.27 50.75C201.17 51.02 201.02 51.28 200.81 51.52C200.61 51.76 200.34 51.96 200 52.11C199.66 52.26 199.26 52.34 198.79 52.34C198.36 52.34 197.98 52.25 197.66 52.08C197.34 51.91 197.07 51.69 196.88 51.43C196.69 51.17 196.53 50.9 196.43 50.62C196.33 50.34 196.28 50.09 196.28 49.87V49.89ZM197.22 49.89C197.24 50.25 197.33 50.54 197.49 50.78C197.65 51.02 197.86 51.19 198.09 51.3C198.33 51.41 198.56 51.46 198.79 51.46C199.01 51.46 199.22 51.41 199.42 51.32C199.62 51.23 199.8 51.1 199.96 50.94C200.12 50.78 200.24 50.6 200.33 50.4C200.42 50.2 200.46 50 200.46 49.79C200.46 49.52 200.4 49.27 200.27 49.03C200.14 48.79 199.96 48.59 199.72 48.43C199.48 48.27 199.2 48.19 198.88 48.17C198.68 48.17 198.48 48.2 198.3 48.26C198.11 48.32 197.94 48.41 197.78 48.54C197.62 48.67 197.49 48.85 197.39 49.08C197.29 49.31 197.23 49.58 197.21 49.91L197.22 49.89Z" fill="#F8AA2F"/>
<path d="M202.94 47.3201C203.32 47.3201 203.68 47.3401 204.01 47.3901C204.34 47.4401 204.66 47.5401 204.96 47.7001C205.27 47.8601 205.52 48.0901 205.72 48.3901C205.92 48.7001 206.04 49.0901 206.08 49.5701C206.08 49.6001 206.08 49.6601 206.08 49.7401C206.08 50.0201 206.04 50.3001 205.97 50.5801C205.9 50.8601 205.76 51.1301 205.56 51.3801C205.36 51.6301 205.09 51.8401 204.73 52.0001C204.37 52.1601 203.93 52.2401 203.41 52.2401H202.1V47.3101H202.94V47.3201ZM203.04 48.2101V51.3001C203.21 51.3301 203.37 51.3501 203.53 51.3501C204 51.3501 204.38 51.2201 204.68 50.9601C204.98 50.7001 205.13 50.3201 205.13 49.8301C205.13 49.2401 204.97 48.8201 204.64 48.5701C204.31 48.3301 203.78 48.2001 203.03 48.2001L203.04 48.2101Z" fill="#F8AA2F"/>
<g style="mix-blend-mode:multiply">
<path d="M245.04 52.21V49.92C245.04 49.73 244.97 49.57 244.88 49.43C244.8 47.63 244.57 45.87 244.22 44.16C244.28 44 244.3 43.82 244.26 43.64L243.69 41.42C243.64 41.24 243.54 41.1 243.41 40.99C242.89 39.29 242.23 37.65 241.46 36.08C241.48 35.91 241.46 35.73 241.37 35.56L240.27 33.57C240.18 33.41 240.04 33.3 239.88 33.23C238.96 31.74 237.92 30.33 236.79 29.02C236.76 28.85 236.7 28.68 236.57 28.55L235.02 26.93C234.89 26.8 234.73 26.73 234.57 26.7C233.31 25.51 231.96 24.44 230.53 23.47C230.46 23.31 230.36 23.16 230.2 23.07L228.3 21.92C228.14 21.83 227.97 21.81 227.8 21.82C226.3 21.01 224.73 20.33 223.1 19.78C222.99 19.65 222.86 19.54 222.69 19.49L220.57 18.9C220.4 18.85 220.23 18.88 220.07 18.94C218.43 18.57 216.74 18.34 215.02 18.25C214.88 18.15 214.73 18.08 214.55 18.08H212.35C212.17 18.08 212.01 18.15 211.88 18.25C210.16 18.34 208.47 18.58 206.83 18.94C206.67 18.88 206.51 18.85 206.33 18.9L204.21 19.49C204.04 19.54 203.91 19.65 203.8 19.78C202.17 20.33 200.6 21.01 199.1 21.82C198.93 21.8 198.76 21.82 198.6 21.92L196.7 23.07C196.54 23.17 196.44 23.31 196.37 23.47C194.94 24.44 193.59 25.51 192.33 26.7C192.17 26.73 192.01 26.79 191.88 26.93L190.33 28.55C190.2 28.68 190.14 28.85 190.11 29.02C188.97 30.33 187.94 31.74 187.02 33.23C186.87 33.3 186.72 33.41 186.63 33.57L185.53 35.56C185.44 35.72 185.42 35.9 185.44 36.08C184.67 37.65 184.01 39.29 183.49 40.99C183.36 41.1 183.26 41.24 183.21 41.42L182.64 43.64C182.59 43.82 182.62 44 182.68 44.16C182.33 45.87 182.1 47.63 182.02 49.43C181.92 49.57 181.86 49.74 181.86 49.92V52.21C181.86 52.4 181.93 52.56 182.02 52.7C182.1 54.5 182.33 56.26 182.68 57.97C182.62 58.13 182.6 58.31 182.64 58.49L183.21 60.71C183.26 60.89 183.36 61.03 183.49 61.14C184.01 62.84 184.67 64.48 185.44 66.05C185.42 66.22 185.44 66.4 185.53 66.57L186.63 68.56C186.72 68.72 186.86 68.83 187.02 68.9C187.94 70.39 188.98 71.8 190.11 73.11C190.14 73.28 190.2 73.45 190.33 73.58L191.88 75.2C192.01 75.33 192.17 75.4 192.33 75.43C193.59 76.62 194.94 77.69 196.37 78.66C196.44 78.82 196.54 78.97 196.7 79.06L198.6 80.21C198.76 80.3 198.93 80.32 199.1 80.31C200.6 81.12 202.17 81.8 203.8 82.35C203.91 82.48 204.04 82.59 204.21 82.64L206.33 83.23C206.5 83.28 206.67 83.25 206.83 83.19C208.47 83.56 210.16 83.79 211.88 83.88C212.02 83.98 212.17 84.05 212.35 84.05H214.55C214.73 84.05 214.89 83.98 215.02 83.88C216.74 83.79 218.43 83.55 220.07 83.19C220.23 83.25 220.39 83.28 220.57 83.23L222.69 82.64C222.86 82.59 222.99 82.48 223.1 82.35C224.73 81.8 226.3 81.12 227.8 80.31C227.97 80.33 228.14 80.31 228.3 80.21L230.2 79.06C230.36 78.96 230.46 78.82 230.53 78.66C231.96 77.69 233.31 76.62 234.57 75.43C234.73 75.4 234.89 75.34 235.02 75.2L236.57 73.58C236.7 73.45 236.76 73.28 236.79 73.11C237.93 71.8 238.96 70.39 239.88 68.9C240.03 68.83 240.18 68.72 240.27 68.56L241.37 66.57C241.46 66.41 241.48 66.23 241.46 66.05C242.23 64.48 242.89 62.84 243.41 61.14C243.54 61.03 243.64 60.89 243.69 60.71L244.26 58.49C244.31 58.31 244.28 58.13 244.22 57.97C244.57 56.26 244.8 54.5 244.88 52.7C244.98 52.56 245.04 52.39 245.04 52.21Z" fill="#D69230"/>
</g>
<path d="M243.6 52.31V49.98C243.6 49.49 243.2 49.1 242.72 49.1C242.26 49.1 241.88 48.74 241.84 48.28C241.76 47.41 241.65 46.56 241.51 45.71C241.43 45.26 241.71 44.81 242.15 44.69C242.62 44.56 242.9 44.08 242.78 43.61L242.18 41.36C242.05 40.89 241.57 40.61 241.1 40.73C240.65 40.85 240.2 40.6 240.04 40.17C239.74 39.36 239.41 38.56 239.05 37.78C238.86 37.36 239.01 36.86 239.41 36.63C239.83 36.39 239.98 35.84 239.73 35.42L238.57 33.41C238.33 32.99 237.78 32.84 237.36 33.09C236.96 33.32 236.46 33.2 236.19 32.83C235.69 32.12 235.16 31.44 234.61 30.78C234.31 30.43 234.33 29.91 234.66 29.58C235.01 29.23 235.01 28.67 234.66 28.32L233.02 26.68C232.67 26.33 232.11 26.33 231.77 26.68C231.44 27.01 230.92 27.03 230.57 26.73C229.91 26.18 229.22 25.65 228.52 25.15C228.14 24.88 228.02 24.38 228.26 23.98C228.5 23.55 228.36 23.01 227.94 22.77L225.93 21.61C225.51 21.37 224.97 21.51 224.72 21.93C224.49 22.33 223.99 22.48 223.57 22.29C222.79 21.93 221.99 21.6 221.18 21.3C220.75 21.14 220.5 20.68 220.62 20.24C220.75 19.77 220.47 19.28 219.99 19.15L217.74 18.55C217.27 18.42 216.78 18.7 216.66 19.18C216.54 19.63 216.1 19.9 215.64 19.82C214.79 19.68 213.94 19.56 213.07 19.49C212.61 19.45 212.25 19.07 212.25 18.61C212.25 18.11 211.85 17.72 211.37 17.72H209.04C208.55 17.72 208.16 18.12 208.16 18.6C208.16 19.07 207.8 19.45 207.34 19.49C206.47 19.57 205.62 19.68 204.77 19.82C204.32 19.9 203.87 19.62 203.75 19.18C203.62 18.71 203.14 18.43 202.67 18.55L200.42 19.15C199.95 19.28 199.67 19.76 199.79 20.23C199.91 20.68 199.66 21.14 199.23 21.29C198.42 21.59 197.62 21.92 196.84 22.28C196.42 22.47 195.92 22.32 195.69 21.92C195.45 21.5 194.9 21.35 194.48 21.6L192.47 22.76C192.05 23 191.9 23.55 192.15 23.97C192.38 24.37 192.26 24.88 191.89 25.14C191.18 25.64 190.5 26.17 189.84 26.72C189.49 27.02 188.97 27 188.64 26.67C188.29 26.32 187.73 26.32 187.39 26.67L185.75 28.31C185.4 28.66 185.4 29.22 185.75 29.56C186.08 29.89 186.09 30.41 185.8 30.77C185.25 31.43 184.72 32.12 184.22 32.82C183.95 33.2 183.45 33.32 183.05 33.08C182.63 32.83 182.09 32.98 181.84 33.4L180.68 35.41C180.44 35.83 180.58 36.37 181 36.62C181.4 36.85 181.55 37.35 181.36 37.77C181 38.55 180.67 39.35 180.37 40.16C180.21 40.59 179.75 40.84 179.31 40.72C178.84 40.59 178.35 40.87 178.23 41.35L177.63 43.6C177.5 44.07 177.78 44.56 178.26 44.68C178.71 44.8 178.98 45.24 178.9 45.7C178.76 46.55 178.64 47.4 178.57 48.27C178.53 48.73 178.15 49.09 177.69 49.09C177.2 49.09 176.81 49.49 176.81 49.97V52.3C176.81 52.79 177.21 53.18 177.69 53.18C178.15 53.18 178.53 53.54 178.57 54C178.65 54.87 178.76 55.72 178.9 56.57C178.98 57.02 178.71 57.47 178.26 57.59C177.79 57.72 177.51 58.2 177.63 58.67L178.23 60.92C178.36 61.39 178.84 61.67 179.31 61.55C179.76 61.43 180.21 61.68 180.37 62.11C180.67 62.92 181 63.72 181.36 64.5C181.55 64.92 181.4 65.42 181 65.65C180.58 65.89 180.43 66.44 180.68 66.86L181.84 68.87C182.08 69.29 182.63 69.44 183.05 69.19C183.45 68.96 183.95 69.08 184.22 69.45C184.72 70.16 185.25 70.84 185.8 71.5C186.1 71.85 186.08 72.37 185.75 72.7C185.4 73.05 185.4 73.61 185.75 73.96L187.39 75.6C187.74 75.95 188.3 75.95 188.64 75.6C188.97 75.27 189.49 75.25 189.84 75.55C190.5 76.1 191.19 76.63 191.89 77.13C192.27 77.4 192.39 77.9 192.15 78.3C191.91 78.73 192.05 79.27 192.47 79.51L194.48 80.67C194.9 80.91 195.44 80.77 195.69 80.35C195.92 79.95 196.42 79.8 196.84 79.99C197.62 80.35 198.42 80.68 199.23 80.98C199.66 81.14 199.91 81.6 199.79 82.04C199.66 82.51 199.94 83 200.42 83.13L202.67 83.73C203.14 83.86 203.63 83.58 203.75 83.1C203.87 82.65 204.31 82.38 204.77 82.46C205.62 82.6 206.47 82.72 207.34 82.79C207.8 82.83 208.16 83.21 208.16 83.67C208.16 84.17 208.56 84.56 209.04 84.56H211.37C211.86 84.56 212.25 84.16 212.25 83.68C212.25 83.21 212.61 82.83 213.07 82.79C213.94 82.71 214.79 82.6 215.64 82.46C216.09 82.38 216.54 82.65 216.66 83.1C216.79 83.57 217.27 83.85 217.74 83.73L219.99 83.13C220.46 83 220.74 82.52 220.62 82.05C220.5 81.6 220.75 81.14 221.18 80.99C221.99 80.69 222.79 80.36 223.57 80C223.99 79.81 224.49 79.96 224.72 80.36C224.96 80.78 225.51 80.93 225.93 80.68L227.94 79.52C228.36 79.28 228.51 78.73 228.26 78.31C228.03 77.91 228.15 77.4 228.52 77.14C229.23 76.64 229.91 76.11 230.57 75.56C230.92 75.26 231.44 75.28 231.77 75.61C232.12 75.96 232.68 75.96 233.02 75.61L234.66 73.97C235.01 73.62 235.01 73.06 234.66 72.72C234.33 72.39 234.32 71.87 234.61 71.51C235.16 70.85 235.69 70.16 236.19 69.46C236.46 69.08 236.96 68.96 237.36 69.2C237.78 69.45 238.32 69.3 238.57 68.88L239.73 66.87C239.97 66.45 239.83 65.91 239.41 65.66C239.01 65.43 238.86 64.93 239.05 64.51C239.41 63.73 239.74 62.93 240.04 62.12C240.2 61.69 240.66 61.44 241.1 61.56C241.57 61.69 242.06 61.41 242.18 60.93L242.78 58.68C242.91 58.21 242.63 57.72 242.15 57.6C241.7 57.48 241.43 57.04 241.51 56.58C241.65 55.73 241.77 54.88 241.84 54.01C241.88 53.55 242.26 53.19 242.72 53.19C243.21 53.19 243.6 52.79 243.6 52.31Z" fill="#F8AA2F"/>
<path d="M233.704 74.6967C246.712 61.6884 246.712 40.5976 233.704 27.5893C220.695 14.5809 199.605 14.5809 186.596 27.5893C173.588 40.5976 173.588 61.6884 186.596 74.6967C199.605 87.7051 220.695 87.7051 233.704 74.6967Z" fill="#FBE35D"/>
<path d="M210.15 79.34C225.724 79.34 238.35 66.7144 238.35 51.14C238.35 35.5656 225.724 22.94 210.15 22.94C194.576 22.94 181.95 35.5656 181.95 51.14C181.95 66.7144 194.576 79.34 210.15 79.34Z" fill="#F8AA2F"/>
<path d="M210.15 71.8C221.56 71.8 230.81 62.5502 230.81 51.14C230.81 39.7298 221.56 30.48 210.15 30.48C198.74 30.48 189.49 39.7298 189.49 51.14C189.49 62.5502 198.74 71.8 210.15 71.8Z" fill="#FBE35D"/>
<g style="mix-blend-mode:multiply" opacity="0.3">
<path d="M242.34 44.28C242.46 45.42 242.53 46.58 242.53 47.75C242.53 66.05 227.26 81.32 208.96 81.32C198.29 81.32 188.65 76.12 182.47 68.16C188.21 77.56 198.57 83.84 210.39 83.84C228.44 83.84 243.08 69.2 243.08 51.15C243.08 48.79 242.82 46.49 242.35 44.27L242.34 44.28Z" fill="#FBE35D"/>
</g>
<g style="mix-blend-mode:multiply" opacity="0.3">
<path d="M211.34 25.98C221.28 25.98 230.2 31.04 235.67 38.67C231.06 29.37 221.48 22.97 210.39 22.97C195.58 22.97 183.44 34.39 182.29 48.9C185.51 35.87 197.44 25.98 211.35 25.98H211.34Z" fill="#F8AA2F"/>
</g>
<g style="mix-blend-mode:overlay" opacity="0.3">
<path d="M192.27 51.98C191.82 51.98 191.46 51.62 191.46 51.17C191.46 40.73 199.95 32.2401 210.39 32.2401C210.84 32.2401 211.2 32.6 211.2 33.05C211.2 33.5 210.84 33.8601 210.39 33.8601C200.85 33.8601 193.09 41.62 193.09 51.16C193.09 51.6101 192.73 51.9701 192.28 51.9701L192.27 51.98Z" fill="white"/>
</g>
<g style="mix-blend-mode:overlay" opacity="0.3">
<path d="M179.29 51.98C178.84 51.98 178.48 51.62 178.48 51.17C178.48 33.58 192.79 19.27 210.38 19.27C210.83 19.27 211.19 19.63 211.19 20.08C211.19 20.53 210.83 20.89 210.38 20.89C193.69 20.89 180.1 34.47 180.1 51.17C180.1 51.62 179.74 51.98 179.29 51.98Z" fill="white"/>
</g>
<g style="mix-blend-mode:multiply" opacity="0.3">
<path d="M229.33 42.93C229.53 44.09 229.64 45.28 229.64 46.49C229.64 58.38 219.72 68.3 207.83 68.3C202.17 68.3 196.96 66.05 193.06 62.41C196.74 68.07 203.13 71.82 210.39 71.82C221.8 71.82 231.05 62.57 231.05 51.16C231.05 48.23 230.44 45.45 229.34 42.92L229.33 42.93Z" fill="#FBE35D"/>
</g>
<path d="M192.73 44.25V42.85H197.27V44.25H195.79V51.06H194.22V44.25H192.74H192.73Z" fill="#F8AA2F"/>
<path d="M197.71 47.13C197.73 46.34 197.88 45.67 198.16 45.1C198.44 44.53 198.79 44.08 199.22 43.74C199.65 43.4 200.11 43.16 200.61 43C201.11 42.85 201.6 42.77 202.06 42.77C202.7 42.77 203.28 42.9 203.82 43.15C204.36 43.4 204.82 43.74 205.2 44.16C205.58 44.58 205.87 45.02 206.07 45.5C206.27 45.97 206.37 46.43 206.37 46.87C206.37 46.98 206.37 47.1 206.34 47.23C206.29 47.68 206.18 48.13 206.01 48.59C205.84 49.05 205.59 49.48 205.25 49.88C204.91 50.28 204.46 50.61 203.9 50.87C203.34 51.12 202.67 51.25 201.88 51.25C201.16 51.25 200.53 51.11 199.99 50.82C199.45 50.53 199.01 50.17 198.68 49.74C198.35 49.31 198.1 48.86 197.94 48.39C197.77 47.92 197.69 47.5 197.69 47.14L197.71 47.13ZM199.28 47.13C199.31 47.72 199.46 48.22 199.73 48.61C200 49 200.34 49.29 200.73 49.48C201.12 49.66 201.51 49.75 201.9 49.75C202.26 49.75 202.61 49.67 202.95 49.52C203.29 49.37 203.59 49.15 203.86 48.88C204.13 48.61 204.33 48.31 204.48 47.97C204.63 47.64 204.7 47.3 204.7 46.95C204.7 46.51 204.6 46.08 204.39 45.68C204.18 45.27 203.88 44.94 203.48 44.68C203.08 44.42 202.62 44.27 202.09 44.25C201.76 44.25 201.43 44.3 201.12 44.39C200.81 44.48 200.52 44.64 200.25 44.86C199.98 45.08 199.77 45.37 199.59 45.76C199.42 46.14 199.32 46.6 199.3 47.14L199.28 47.13Z" fill="#F8AA2F"/>
<path d="M207.49 42.85H208.97V46.26L211.59 42.85H213.42L210.28 46.87L213.34 51.06H211.42L208.97 47.57V51.06H207.49V42.85Z" fill="#F8AA2F"/>
<path d="M214.3 42.85H218.67V44.33H215.79V46.34H218.58V47.74H215.79V49.66H218.67V51.06H214.3V42.85Z" fill="#F8AA2F"/>
<path d="M220.07 42.85H221.73L225.22 48.88V42.85H226.7V51.06H225.04L221.63 45.12V51.06H220.06V42.85H220.07Z" fill="#F8AA2F"/>
<path d="M192.55 54.18H195.01V55.07H193.49V56.17H194.96V57.06H193.49V59.1H192.55V54.17V54.18Z" fill="#F8AA2F"/>
<path d="M195.54 56.75C195.55 56.28 195.64 55.87 195.81 55.53C195.98 55.19 196.19 54.92 196.45 54.71C196.71 54.51 196.99 54.36 197.29 54.27C197.59 54.18 197.88 54.13 198.16 54.13C198.54 54.13 198.89 54.21 199.22 54.36C199.54 54.51 199.82 54.71 200.05 54.96C200.28 55.21 200.45 55.48 200.57 55.76C200.69 56.04 200.75 56.32 200.75 56.58C200.75 56.65 200.75 56.72 200.73 56.8C200.7 57.07 200.63 57.34 200.53 57.61C200.43 57.88 200.28 58.14 200.07 58.38C199.87 58.62 199.6 58.82 199.26 58.97C198.92 59.12 198.52 59.2 198.05 59.2C197.62 59.2 197.24 59.11 196.92 58.94C196.6 58.77 196.33 58.55 196.14 58.29C195.94 58.03 195.79 57.76 195.69 57.48C195.59 57.2 195.54 56.95 195.54 56.73V56.75ZM196.48 56.75C196.5 57.11 196.59 57.4 196.75 57.64C196.91 57.88 197.12 58.05 197.35 58.16C197.59 58.27 197.82 58.32 198.05 58.32C198.27 58.32 198.48 58.27 198.68 58.18C198.88 58.09 199.06 57.96 199.22 57.8C199.38 57.64 199.5 57.46 199.59 57.26C199.68 57.06 199.72 56.86 199.72 56.65C199.72 56.38 199.66 56.13 199.53 55.89C199.4 55.65 199.22 55.45 198.98 55.29C198.74 55.13 198.46 55.05 198.14 55.03C197.94 55.03 197.74 55.06 197.56 55.12C197.38 55.18 197.2 55.27 197.04 55.4C196.88 55.53 196.75 55.71 196.65 55.94C196.55 56.17 196.49 56.44 196.47 56.77L196.48 56.75Z" fill="#F8AA2F"/>
<path d="M202.66 54.18C203.05 54.18 203.39 54.22 203.67 54.31C203.96 54.4 204.19 54.57 204.37 54.82C204.55 55.08 204.64 55.44 204.64 55.91C204.64 56.1 204.6 56.29 204.51 56.49C204.42 56.69 204.29 56.86 204.09 57C203.9 57.14 203.64 57.23 203.33 57.27L204.64 59.1H203.54L202.23 57.21V59.1H201.34V54.17H202.65L202.66 54.18ZM202.24 55.12V56.53H202.5C202.56 56.53 202.63 56.53 202.7 56.53C202.94 56.53 203.13 56.51 203.28 56.48C203.43 56.45 203.54 56.37 203.63 56.26C203.72 56.15 203.76 55.97 203.76 55.75C203.76 55.49 203.66 55.32 203.45 55.24C203.24 55.16 202.97 55.12 202.64 55.12H202.41C202.36 55.12 202.3 55.12 202.23 55.12H202.24Z" fill="#F8AA2F"/>
<path d="M209.37 54.13C209.61 54.13 209.84 54.14 210.04 54.17C210.24 54.2 210.46 54.26 210.68 54.36C210.9 54.46 211.12 54.61 211.33 54.82C211.54 55.03 211.72 55.31 211.88 55.65H210.73C210.6 55.45 210.42 55.3 210.2 55.19C209.98 55.09 209.74 55.03 209.48 55.03C209.21 55.03 208.95 55.09 208.69 55.21C208.44 55.33 208.24 55.51 208.08 55.74C207.92 55.98 207.85 56.26 207.85 56.58C207.85 56.93 207.95 57.23 208.11 57.49C208.27 57.75 208.49 57.94 208.74 58.08C209 58.21 209.27 58.28 209.55 58.28C209.73 58.28 209.91 58.25 210.09 58.19C210.27 58.13 210.43 58.04 210.57 57.92C210.71 57.8 210.83 57.65 210.93 57.47H208.89V56.63H212.09C212.09 56.63 212.09 56.66 212.09 56.67C212.09 56.68 212.09 56.7 212.09 56.72C212.09 57.03 212.03 57.34 211.9 57.63C211.77 57.92 211.59 58.19 211.36 58.42C211.13 58.65 210.85 58.84 210.53 58.98C210.21 59.12 209.87 59.19 209.51 59.21H209.42C209.07 59.21 208.73 59.14 208.41 59C208.09 58.86 207.82 58.66 207.58 58.41C207.34 58.16 207.16 57.88 207.03 57.56C206.9 57.24 206.84 56.92 206.84 56.59C206.84 56.26 206.91 55.95 207.05 55.65C207.19 55.35 207.38 55.09 207.62 54.87C207.86 54.64 208.14 54.47 208.44 54.34C208.74 54.21 209.05 54.14 209.36 54.13H209.37Z" fill="#F8AA2F"/>
<path d="M212.51 56.75C212.52 56.28 212.61 55.87 212.78 55.53C212.95 55.19 213.16 54.92 213.42 54.71C213.68 54.51 213.96 54.36 214.26 54.27C214.56 54.18 214.85 54.13 215.13 54.13C215.51 54.13 215.86 54.21 216.19 54.36C216.51 54.51 216.79 54.71 217.02 54.96C217.25 55.21 217.42 55.48 217.54 55.76C217.66 56.04 217.72 56.32 217.72 56.58C217.72 56.65 217.72 56.72 217.7 56.8C217.67 57.07 217.6 57.34 217.5 57.61C217.4 57.88 217.25 58.14 217.04 58.38C216.84 58.62 216.57 58.82 216.23 58.97C215.89 59.12 215.49 59.2 215.02 59.2C214.59 59.2 214.21 59.11 213.89 58.94C213.57 58.77 213.3 58.55 213.11 58.29C212.92 58.03 212.76 57.76 212.66 57.48C212.56 57.2 212.51 56.95 212.51 56.73V56.75ZM213.45 56.75C213.47 57.11 213.56 57.4 213.72 57.64C213.88 57.88 214.09 58.05 214.32 58.16C214.56 58.27 214.79 58.32 215.02 58.32C215.24 58.32 215.45 58.27 215.65 58.18C215.85 58.09 216.03 57.96 216.19 57.8C216.35 57.64 216.47 57.46 216.56 57.26C216.65 57.06 216.69 56.86 216.69 56.65C216.69 56.38 216.63 56.13 216.5 55.89C216.37 55.65 216.19 55.45 215.95 55.29C215.71 55.13 215.43 55.05 215.11 55.03C214.91 55.03 214.71 55.06 214.53 55.12C214.34 55.18 214.17 55.27 214.01 55.4C213.85 55.53 213.72 55.71 213.62 55.94C213.52 56.17 213.46 56.44 213.44 56.77L213.45 56.75Z" fill="#F8AA2F"/>
<path d="M218.12 56.75C218.13 56.28 218.22 55.87 218.39 55.53C218.56 55.19 218.77 54.92 219.03 54.71C219.29 54.51 219.57 54.36 219.87 54.27C220.17 54.18 220.46 54.13 220.74 54.13C221.12 54.13 221.47 54.21 221.8 54.36C222.12 54.51 222.4 54.71 222.63 54.96C222.86 55.21 223.03 55.48 223.15 55.76C223.27 56.04 223.33 56.32 223.33 56.58C223.33 56.65 223.33 56.72 223.31 56.8C223.28 57.07 223.21 57.34 223.11 57.61C223.01 57.88 222.86 58.14 222.65 58.38C222.45 58.62 222.18 58.82 221.84 58.97C221.5 59.12 221.1 59.2 220.63 59.2C220.2 59.2 219.82 59.11 219.5 58.94C219.18 58.77 218.91 58.55 218.72 58.29C218.53 58.03 218.37 57.76 218.27 57.48C218.17 57.2 218.12 56.95 218.12 56.73V56.75ZM219.06 56.75C219.08 57.11 219.17 57.4 219.33 57.64C219.49 57.88 219.7 58.05 219.93 58.16C220.17 58.27 220.4 58.32 220.63 58.32C220.85 58.32 221.06 58.27 221.26 58.18C221.46 58.09 221.64 57.96 221.8 57.8C221.96 57.64 222.08 57.46 222.17 57.26C222.26 57.06 222.3 56.86 222.3 56.65C222.3 56.38 222.24 56.13 222.11 55.89C221.98 55.65 221.8 55.45 221.56 55.29C221.32 55.13 221.04 55.05 220.72 55.03C220.52 55.03 220.32 55.06 220.14 55.12C219.95 55.18 219.78 55.27 219.62 55.4C219.46 55.53 219.33 55.71 219.23 55.94C219.13 56.17 219.07 56.44 219.05 56.77L219.06 56.75Z" fill="#F8AA2F"/>
<path d="M224.77 54.18C225.15 54.18 225.51 54.2 225.84 54.25C226.17 54.3 226.49 54.4 226.79 54.56C227.1 54.72 227.35 54.95 227.55 55.25C227.75 55.56 227.87 55.95 227.91 56.43C227.91 56.46 227.91 56.52 227.91 56.6C227.91 56.88 227.87 57.16 227.8 57.44C227.73 57.72 227.59 57.99 227.39 58.24C227.19 58.49 226.92 58.7 226.56 58.86C226.2 59.02 225.76 59.1 225.24 59.1H223.93V54.17H224.77V54.18ZM224.87 55.07V58.16C225.04 58.19 225.2 58.21 225.36 58.21C225.83 58.21 226.21 58.08 226.51 57.82C226.81 57.56 226.96 57.18 226.96 56.69C226.96 56.1 226.8 55.68 226.47 55.43C226.14 55.19 225.61 55.06 224.86 55.06L224.87 55.07Z" fill="#F8AA2F"/>
<g style="mix-blend-mode:multiply">
<path d="M186.87 51.31V49.02C186.87 48.83 186.8 48.67 186.71 48.53C186.63 46.73 186.4 44.97 186.05 43.26C186.11 43.1 186.13 42.92 186.09 42.74L185.52 40.52C185.47 40.34 185.37 40.2 185.24 40.09C184.72 38.39 184.06 36.75 183.29 35.18C183.31 35.01 183.29 34.83 183.2 34.66L182.1 32.67C182.01 32.51 181.87 32.4 181.71 32.33C180.79 30.84 179.75 29.43 178.62 28.12C178.59 27.95 178.53 27.78 178.4 27.65L176.85 26.03C176.72 25.9 176.56 25.83 176.4 25.8C175.14 24.61 173.79 23.54 172.36 22.57C172.29 22.41 172.19 22.26 172.03 22.17L170.13 21.02C169.97 20.93 169.8 20.91 169.63 20.92C168.13 20.11 166.56 19.43 164.93 18.88C164.82 18.75 164.69 18.64 164.52 18.59L162.4 18C162.23 17.95 162.06 17.98 161.9 18.04C160.26 17.67 158.57 17.44 156.85 17.35C156.71 17.25 156.56 17.18 156.38 17.18H154.18C154 17.18 153.84 17.25 153.71 17.35C151.99 17.44 150.3 17.68 148.66 18.04C148.5 17.98 148.34 17.95 148.16 18L146.04 18.59C145.87 18.64 145.74 18.75 145.63 18.88C144 19.43 142.43 20.11 140.93 20.92C140.76 20.9 140.59 20.92 140.43 21.02L138.53 22.17C138.37 22.27 138.27 22.41 138.2 22.57C136.77 23.54 135.42 24.61 134.16 25.8C134 25.83 133.84 25.89 133.71 26.03L132.16 27.65C132.03 27.78 131.97 27.95 131.94 28.12C130.8 29.43 129.77 30.84 128.85 32.33C128.7 32.4 128.55 32.51 128.46 32.67L127.36 34.66C127.27 34.82 127.25 35 127.27 35.18C126.5 36.75 125.84 38.39 125.32 40.09C125.19 40.2 125.09 40.34 125.04 40.52L124.47 42.74C124.42 42.92 124.45 43.1 124.51 43.26C124.16 44.97 123.93 46.73 123.85 48.53C123.75 48.67 123.69 48.84 123.69 49.02V51.31C123.69 51.5 123.76 51.66 123.85 51.8C123.93 53.6 124.16 55.36 124.51 57.07C124.45 57.23 124.43 57.41 124.47 57.59L125.04 59.81C125.09 59.99 125.19 60.13 125.32 60.24C125.84 61.94 126.5 63.58 127.27 65.15C127.25 65.32 127.27 65.5 127.36 65.67L128.46 67.66C128.55 67.82 128.69 67.93 128.85 68C129.77 69.49 130.81 70.9 131.94 72.21C131.97 72.38 132.03 72.55 132.16 72.68L133.71 74.3C133.84 74.43 134 74.5 134.16 74.53C135.42 75.72 136.77 76.79 138.2 77.76C138.27 77.92 138.37 78.07 138.53 78.16L140.43 79.31C140.59 79.4 140.76 79.42 140.93 79.41C142.43 80.22 144 80.9 145.63 81.45C145.74 81.58 145.87 81.69 146.04 81.74L148.16 82.33C148.33 82.38 148.5 82.35 148.66 82.29C150.3 82.66 151.99 82.89 153.71 82.98C153.85 83.08 154 83.15 154.18 83.15H156.38C156.56 83.15 156.72 83.08 156.85 82.98C158.57 82.89 160.26 82.65 161.9 82.29C162.06 82.35 162.22 82.38 162.4 82.33L164.52 81.74C164.69 81.69 164.82 81.58 164.93 81.45C166.56 80.9 168.13 80.22 169.63 79.41C169.8 79.43 169.97 79.41 170.13 79.31L172.03 78.16C172.19 78.06 172.29 77.92 172.36 77.76C173.79 76.79 175.14 75.72 176.4 74.53C176.56 74.5 176.72 74.44 176.85 74.3L178.4 72.68C178.53 72.55 178.59 72.38 178.62 72.21C179.76 70.9 180.79 69.49 181.71 68C181.86 67.93 182.01 67.82 182.1 67.66L183.2 65.67C183.29 65.51 183.31 65.33 183.29 65.15C184.06 63.58 184.72 61.94 185.24 60.24C185.37 60.13 185.47 59.99 185.52 59.81L186.09 57.59C186.14 57.41 186.11 57.23 186.05 57.07C186.4 55.36 186.63 53.6 186.71 51.8C186.81 51.66 186.87 51.49 186.87 51.31Z" fill="#D69230"/>
</g>
<path d="M185.83 52.67V50.34C185.83 49.85 185.43 49.46 184.95 49.46C184.49 49.46 184.11 49.1 184.07 48.64C183.99 47.77 183.88 46.92 183.74 46.07C183.66 45.62 183.94 45.17 184.38 45.05C184.85 44.92 185.13 44.44 185.01 43.97L184.41 41.72C184.28 41.25 183.8 40.97 183.33 41.09C182.88 41.21 182.43 40.96 182.27 40.53C181.97 39.72 181.64 38.92 181.28 38.14C181.09 37.72 181.24 37.22 181.64 36.99C182.06 36.75 182.21 36.2 181.96 35.78L180.8 33.77C180.56 33.35 180.01 33.2 179.59 33.45C179.19 33.68 178.69 33.56 178.42 33.19C177.92 32.48 177.39 31.8 176.84 31.14C176.54 30.79 176.56 30.27 176.89 29.94C177.24 29.59 177.24 29.03 176.89 28.68L175.25 27.04C174.9 26.69 174.34 26.69 174 27.04C173.67 27.37 173.15 27.39 172.8 27.09C172.14 26.54 171.45 26.01 170.75 25.51C170.37 25.24 170.25 24.74 170.49 24.34C170.73 23.91 170.59 23.37 170.17 23.13L168.16 21.97C167.74 21.73 167.2 21.87 166.95 22.29C166.72 22.69 166.22 22.84 165.8 22.65C165.02 22.29 164.22 21.96 163.41 21.66C162.98 21.5 162.73 21.04 162.85 20.6C162.98 20.13 162.7 19.64 162.22 19.51L159.97 18.91C159.5 18.78 159.01 19.06 158.89 19.54C158.77 19.99 158.33 20.26 157.87 20.18C157.02 20.04 156.17 19.92 155.3 19.85C154.84 19.81 154.48 19.43 154.48 18.97C154.48 18.47 154.08 18.08 153.6 18.08H151.27C150.78 18.08 150.39 18.48 150.39 18.96C150.39 19.43 150.03 19.81 149.57 19.85C148.7 19.93 147.85 20.04 147 20.18C146.55 20.26 146.1 19.98 145.98 19.54C145.85 19.07 145.37 18.79 144.9 18.91L142.65 19.51C142.18 19.64 141.9 20.12 142.02 20.59C142.14 21.04 141.89 21.5 141.46 21.65C140.65 21.95 139.85 22.28 139.07 22.64C138.65 22.83 138.15 22.68 137.92 22.28C137.68 21.86 137.13 21.71 136.71 21.96L134.7 23.12C134.28 23.36 134.13 23.91 134.38 24.33C134.61 24.73 134.49 25.24 134.12 25.5C133.41 26 132.73 26.53 132.07 27.08C131.72 27.38 131.2 27.36 130.87 27.03C130.52 26.68 129.96 26.68 129.62 27.03L127.98 28.67C127.63 29.02 127.63 29.58 127.98 29.92C128.31 30.25 128.32 30.77 128.03 31.13C127.48 31.79 126.95 32.48 126.45 33.18C126.18 33.56 125.68 33.68 125.28 33.44C124.86 33.19 124.32 33.34 124.07 33.76L122.91 35.77C122.67 36.19 122.81 36.73 123.23 36.98C123.63 37.21 123.78 37.71 123.59 38.13C123.23 38.91 122.9 39.71 122.6 40.52C122.44 40.95 121.98 41.2 121.54 41.08C121.07 40.95 120.58 41.23 120.46 41.71L119.86 43.96C119.73 44.43 120.01 44.92 120.49 45.04C120.94 45.16 121.21 45.6 121.13 46.06C120.99 46.91 120.87 47.76 120.8 48.63C120.76 49.09 120.38 49.45 119.92 49.45C119.43 49.45 119.04 49.85 119.04 50.33V52.66C119.04 53.15 119.44 53.54 119.92 53.54C120.38 53.54 120.76 53.9 120.8 54.36C120.88 55.23 120.99 56.08 121.13 56.93C121.21 57.38 120.94 57.83 120.49 57.95C120.02 58.08 119.74 58.56 119.86 59.03L120.46 61.28C120.59 61.75 121.07 62.03 121.54 61.91C121.99 61.79 122.44 62.04 122.6 62.47C122.9 63.28 123.23 64.08 123.59 64.86C123.78 65.28 123.63 65.78 123.23 66.01C122.81 66.25 122.66 66.8 122.91 67.22L124.07 69.23C124.31 69.65 124.86 69.8 125.28 69.55C125.68 69.32 126.18 69.44 126.45 69.81C126.95 70.52 127.48 71.2 128.03 71.86C128.33 72.21 128.31 72.73 127.98 73.06C127.63 73.41 127.63 73.97 127.98 74.32L129.62 75.96C129.97 76.31 130.53 76.31 130.87 75.96C131.2 75.63 131.72 75.61 132.07 75.91C132.73 76.46 133.42 76.99 134.12 77.49C134.5 77.76 134.62 78.26 134.38 78.66C134.14 79.09 134.28 79.63 134.7 79.87L136.71 81.03C137.13 81.27 137.67 81.13 137.92 80.71C138.15 80.31 138.65 80.16 139.07 80.35C139.85 80.71 140.65 81.04 141.46 81.34C141.89 81.5 142.14 81.96 142.02 82.4C141.89 82.87 142.17 83.36 142.65 83.49L144.9 84.09C145.37 84.22 145.86 83.94 145.98 83.46C146.1 83.01 146.54 82.74 147 82.82C147.85 82.96 148.7 83.08 149.57 83.15C150.03 83.19 150.39 83.57 150.39 84.03C150.39 84.53 150.79 84.92 151.27 84.92H153.6C154.09 84.92 154.48 84.52 154.48 84.04C154.48 83.57 154.84 83.19 155.3 83.15C156.17 83.07 157.02 82.96 157.87 82.82C158.32 82.74 158.77 83.01 158.89 83.46C159.02 83.93 159.5 84.21 159.97 84.09L162.22 83.49C162.69 83.36 162.97 82.88 162.85 82.41C162.73 81.96 162.98 81.5 163.41 81.35C164.22 81.05 165.02 80.72 165.8 80.36C166.22 80.17 166.72 80.32 166.95 80.72C167.19 81.14 167.74 81.29 168.16 81.04L170.17 79.88C170.59 79.64 170.74 79.09 170.49 78.67C170.26 78.27 170.38 77.76 170.75 77.5C171.46 77 172.14 76.47 172.8 75.92C173.15 75.62 173.67 75.64 174 75.97C174.35 76.32 174.91 76.32 175.25 75.97L176.89 74.33C177.24 73.98 177.24 73.42 176.89 73.08C176.56 72.75 176.55 72.23 176.84 71.87C177.39 71.21 177.92 70.52 178.42 69.82C178.69 69.44 179.19 69.32 179.59 69.56C180.01 69.81 180.55 69.66 180.8 69.24L181.96 67.23C182.2 66.81 182.06 66.27 181.64 66.02C181.24 65.79 181.09 65.29 181.28 64.87C181.64 64.09 181.97 63.29 182.27 62.48C182.43 62.05 182.89 61.8 183.33 61.92C183.8 62.05 184.29 61.77 184.41 61.29L185.01 59.04C185.14 58.57 184.86 58.08 184.38 57.96C183.93 57.84 183.66 57.4 183.74 56.94C183.88 56.09 184 55.24 184.07 54.37C184.11 53.91 184.49 53.55 184.95 53.55C185.44 53.55 185.83 53.15 185.83 52.67Z" fill="#F8AA2F"/>
<path d="M175.936 75.0679C188.944 62.0595 188.944 40.9688 175.936 27.9604C162.927 14.9521 141.837 14.9521 128.828 27.9604C115.82 40.9688 115.82 62.0595 128.828 75.0679C141.837 88.0762 162.927 88.0762 175.936 75.0679Z" fill="#FBE35D"/>
<path d="M152.38 79.71C167.954 79.71 180.58 67.0844 180.58 51.51C180.58 35.9356 167.954 23.31 152.38 23.31C136.806 23.31 124.18 35.9356 124.18 51.51C124.18 67.0844 136.806 79.71 152.38 79.71Z" fill="#F8AA2F"/>
<path d="M152.38 72.17C163.79 72.17 173.04 62.9202 173.04 51.51C173.04 40.0998 163.79 30.85 152.38 30.85C140.97 30.85 131.72 40.0998 131.72 51.51C131.72 62.9202 140.97 72.17 152.38 72.17Z" fill="#FBE35D"/>
<g style="mix-blend-mode:multiply" opacity="0.3">
<path d="M184.56 44.65C184.68 45.79 184.75 46.95 184.75 48.12C184.75 66.42 169.48 81.69 151.18 81.69C140.51 81.69 130.87 76.49 124.69 68.53C130.43 77.93 140.79 84.21 152.61 84.21C170.66 84.21 185.3 69.57 185.3 51.52C185.3 49.16 185.04 46.86 184.57 44.64L184.56 44.65Z" fill="#FBE35D"/>
</g>
<g style="mix-blend-mode:multiply" opacity="0.3">
<path d="M153.56 26.34C163.5 26.34 172.42 31.4 177.89 39.03C173.28 29.73 163.7 23.33 152.61 23.33C137.8 23.33 125.66 34.75 124.51 49.26C127.73 36.23 139.66 26.34 153.57 26.34H153.56Z" fill="#F8AA2F"/>
</g>
<g style="mix-blend-mode:overlay" opacity="0.3">
<path d="M134.49 52.35C134.04 52.35 133.68 51.99 133.68 51.54C133.68 41.1 142.17 32.61 152.61 32.61C153.06 32.61 153.42 32.97 153.42 33.42C153.42 33.87 153.06 34.23 152.61 34.23C143.07 34.23 135.31 41.99 135.31 51.53C135.31 51.98 134.95 52.34 134.5 52.34L134.49 52.35Z" fill="white"/>
</g>
<g style="mix-blend-mode:overlay" opacity="0.3">
<path d="M121.52 52.35C121.07 52.35 120.71 51.99 120.71 51.54C120.71 33.95 135.02 19.64 152.61 19.64C153.06 19.64 153.42 20 153.42 20.45C153.42 20.9 153.06 21.26 152.61 21.26C135.92 21.26 122.33 34.84 122.33 51.54C122.33 51.99 121.97 52.35 121.52 52.35Z" fill="white"/>
</g>
<g style="mix-blend-mode:multiply" opacity="0.3">
<path d="M171.56 43.29C171.76 44.45 171.87 45.64 171.87 46.85C171.87 58.74 161.95 68.66 150.06 68.66C144.4 68.66 139.19 66.41 135.29 62.77C138.97 68.43 145.36 72.18 152.62 72.18C164.03 72.18 173.28 62.93 173.28 51.52C173.28 48.59 172.67 45.81 171.57 43.28L171.56 43.29Z" fill="#FBE35D"/>
</g>
<path d="M134.96 44.61V43.21H139.5V44.61H138.02V51.42H136.45V44.61H134.97H134.96Z" fill="#F8AA2F"/>
<path d="M139.94 47.49C139.96 46.7 140.11 46.03 140.39 45.46C140.67 44.89 141.02 44.44 141.45 44.1C141.88 43.76 142.34 43.52 142.84 43.36C143.34 43.21 143.83 43.13 144.29 43.13C144.93 43.13 145.51 43.26 146.05 43.51C146.59 43.76 147.05 44.1 147.43 44.52C147.81 44.94 148.1 45.38 148.3 45.86C148.5 46.33 148.6 46.79 148.6 47.23C148.6 47.34 148.6 47.46 148.57 47.59C148.52 48.04 148.41 48.49 148.24 48.95C148.07 49.41 147.82 49.84 147.48 50.24C147.14 50.64 146.69 50.97 146.13 51.23C145.57 51.48 144.9 51.61 144.11 51.61C143.39 51.61 142.76 51.47 142.22 51.18C141.68 50.89 141.24 50.53 140.91 50.1C140.58 49.67 140.33 49.22 140.17 48.75C140 48.28 139.92 47.86 139.92 47.5L139.94 47.49ZM141.51 47.49C141.54 48.08 141.69 48.58 141.96 48.97C142.23 49.36 142.57 49.65 142.96 49.84C143.35 50.02 143.74 50.11 144.13 50.11C144.49 50.11 144.84 50.03 145.18 49.88C145.52 49.73 145.82 49.51 146.09 49.24C146.36 48.97 146.56 48.67 146.71 48.33C146.86 48 146.93 47.66 146.93 47.31C146.93 46.87 146.83 46.44 146.62 46.04C146.41 45.63 146.11 45.3 145.71 45.04C145.31 44.78 144.85 44.63 144.32 44.61C143.99 44.61 143.66 44.66 143.35 44.75C143.04 44.84 142.75 45 142.48 45.22C142.21 45.44 142 45.73 141.82 46.12C141.65 46.5 141.55 46.96 141.53 47.5L141.51 47.49Z" fill="#F8AA2F"/>
<path d="M149.72 43.22H151.2V46.63L153.82 43.22H155.65L152.51 47.24L155.57 51.43H153.65L151.2 47.94V51.43H149.72V43.22Z" fill="#F8AA2F"/>
<path d="M156.53 43.22H160.9V44.7H158.02V46.71H160.81V48.11H158.02V50.03H160.9V51.43H156.53V43.22Z" fill="#F8AA2F"/>
<path d="M162.29 43.22H163.95L167.44 49.25V43.22H168.92V51.43H167.26L163.85 45.49V51.43H162.28V43.22H162.29Z" fill="#F8AA2F"/>
<path d="M134.78 54.55H137.24V55.44H135.72V56.54H137.19V57.43H135.72V59.47H134.78V54.54V54.55Z" fill="#F8AA2F"/>
<path d="M137.76 57.11C137.77 56.64 137.86 56.23 138.03 55.89C138.2 55.55 138.41 55.28 138.67 55.07C138.93 54.87 139.21 54.72 139.51 54.63C139.81 54.54 140.1 54.49 140.38 54.49C140.76 54.49 141.11 54.57 141.44 54.72C141.76 54.87 142.04 55.07 142.27 55.32C142.5 55.57 142.67 55.84 142.79 56.12C142.91 56.4 142.97 56.68 142.97 56.94C142.97 57.01 142.97 57.08 142.95 57.16C142.92 57.43 142.85 57.7 142.75 57.97C142.65 58.24 142.5 58.5 142.29 58.74C142.09 58.98 141.82 59.18 141.48 59.33C141.14 59.48 140.74 59.56 140.27 59.56C139.84 59.56 139.46 59.47 139.14 59.3C138.82 59.13 138.55 58.91 138.36 58.65C138.16 58.39 138.01 58.12 137.91 57.84C137.81 57.56 137.76 57.31 137.76 57.09V57.11ZM138.7 57.11C138.72 57.47 138.81 57.76 138.97 58C139.13 58.24 139.34 58.41 139.57 58.52C139.81 58.63 140.04 58.68 140.27 58.68C140.49 58.68 140.7 58.63 140.9 58.54C141.1 58.45 141.28 58.32 141.44 58.16C141.6 58 141.72 57.82 141.81 57.62C141.9 57.42 141.94 57.22 141.94 57.01C141.94 56.74 141.88 56.49 141.75 56.25C141.62 56.01 141.44 55.81 141.2 55.65C140.96 55.49 140.68 55.41 140.36 55.39C140.16 55.39 139.96 55.42 139.78 55.48C139.6 55.54 139.42 55.63 139.26 55.76C139.1 55.89 138.97 56.07 138.87 56.3C138.77 56.53 138.71 56.8 138.69 57.13L138.7 57.11Z" fill="#F8AA2F"/>
<path d="M144.89 54.55C145.28 54.55 145.62 54.59 145.9 54.68C146.19 54.77 146.42 54.94 146.6 55.19C146.78 55.45 146.87 55.81 146.87 56.28C146.87 56.47 146.83 56.66 146.74 56.86C146.65 57.06 146.52 57.23 146.32 57.37C146.13 57.51 145.87 57.6 145.56 57.64L146.87 59.47H145.77L144.46 57.58V59.47H143.57V54.54H144.88L144.89 54.55ZM144.47 55.49V56.9H144.73C144.79 56.9 144.86 56.9 144.93 56.9C145.17 56.9 145.36 56.88 145.51 56.85C145.66 56.82 145.77 56.74 145.86 56.63C145.95 56.52 145.99 56.34 145.99 56.12C145.99 55.86 145.89 55.69 145.68 55.61C145.47 55.53 145.2 55.49 144.87 55.49H144.64C144.59 55.49 144.53 55.49 144.46 55.49H144.47Z" fill="#F8AA2F"/>
<path d="M151.59 54.49C151.83 54.49 152.06 54.5 152.26 54.53C152.46 54.56 152.68 54.62 152.9 54.72C153.12 54.82 153.34 54.97 153.55 55.18C153.76 55.39 153.94 55.67 154.1 56.01H152.95C152.82 55.81 152.64 55.66 152.42 55.55C152.2 55.45 151.96 55.39 151.7 55.39C151.43 55.39 151.17 55.45 150.91 55.57C150.66 55.69 150.46 55.87 150.3 56.1C150.14 56.34 150.07 56.62 150.07 56.94C150.07 57.29 150.17 57.59 150.33 57.85C150.49 58.11 150.71 58.3 150.96 58.44C151.22 58.57 151.49 58.64 151.77 58.64C151.95 58.64 152.13 58.61 152.31 58.55C152.49 58.49 152.65 58.4 152.79 58.28C152.93 58.16 153.05 58.01 153.15 57.83H151.11V56.99H154.31C154.31 56.99 154.31 57.02 154.31 57.03C154.31 57.04 154.31 57.06 154.31 57.08C154.31 57.39 154.25 57.7 154.12 57.99C153.99 58.28 153.81 58.55 153.58 58.78C153.35 59.01 153.07 59.2 152.75 59.34C152.43 59.48 152.09 59.55 151.73 59.57H151.64C151.29 59.57 150.95 59.5 150.63 59.36C150.31 59.22 150.04 59.02 149.8 58.77C149.56 58.52 149.38 58.24 149.25 57.92C149.12 57.6 149.06 57.28 149.06 56.95C149.06 56.62 149.13 56.31 149.27 56.01C149.41 55.71 149.6 55.45 149.84 55.23C150.08 55 150.36 54.83 150.66 54.7C150.96 54.57 151.27 54.5 151.58 54.49H151.59Z" fill="#F8AA2F"/>
<path d="M154.74 57.11C154.75 56.64 154.84 56.23 155.01 55.89C155.18 55.55 155.39 55.28 155.65 55.07C155.91 54.87 156.19 54.72 156.49 54.63C156.79 54.54 157.08 54.49 157.36 54.49C157.74 54.49 158.09 54.57 158.42 54.72C158.74 54.87 159.02 55.07 159.25 55.32C159.48 55.57 159.65 55.84 159.77 56.12C159.89 56.4 159.95 56.68 159.95 56.94C159.95 57.01 159.95 57.08 159.93 57.16C159.9 57.43 159.83 57.7 159.73 57.97C159.63 58.24 159.48 58.5 159.27 58.74C159.07 58.98 158.8 59.18 158.46 59.33C158.12 59.48 157.72 59.56 157.25 59.56C156.82 59.56 156.44 59.47 156.12 59.3C155.8 59.13 155.53 58.91 155.34 58.65C155.15 58.39 154.99 58.12 154.89 57.84C154.79 57.56 154.74 57.31 154.74 57.09V57.11ZM155.68 57.11C155.7 57.47 155.79 57.76 155.95 58C156.11 58.24 156.32 58.41 156.55 58.52C156.79 58.63 157.02 58.68 157.25 58.68C157.47 58.68 157.68 58.63 157.88 58.54C158.08 58.45 158.26 58.32 158.42 58.16C158.58 58 158.7 57.82 158.79 57.62C158.88 57.42 158.92 57.22 158.92 57.01C158.92 56.74 158.86 56.49 158.73 56.25C158.6 56.01 158.42 55.81 158.18 55.65C157.94 55.49 157.66 55.41 157.34 55.39C157.14 55.39 156.94 55.42 156.76 55.48C156.57 55.54 156.4 55.63 156.24 55.76C156.08 55.89 155.95 56.07 155.85 56.3C155.75 56.53 155.69 56.8 155.67 57.13L155.68 57.11Z" fill="#F8AA2F"/>
<path d="M160.34 57.11C160.35 56.64 160.44 56.23 160.61 55.89C160.78 55.55 160.99 55.28 161.25 55.07C161.51 54.87 161.79 54.72 162.09 54.63C162.39 54.54 162.68 54.49 162.96 54.49C163.34 54.49 163.69 54.57 164.02 54.72C164.34 54.87 164.62 55.07 164.85 55.32C165.08 55.57 165.25 55.84 165.37 56.12C165.49 56.4 165.55 56.68 165.55 56.94C165.55 57.01 165.55 57.08 165.53 57.16C165.5 57.43 165.43 57.7 165.33 57.97C165.23 58.24 165.08 58.5 164.87 58.74C164.67 58.98 164.4 59.18 164.06 59.33C163.72 59.48 163.32 59.56 162.85 59.56C162.42 59.56 162.04 59.47 161.72 59.3C161.4 59.13 161.13 58.91 160.94 58.65C160.75 58.39 160.59 58.12 160.49 57.84C160.39 57.56 160.34 57.31 160.34 57.09V57.11ZM161.28 57.11C161.3 57.47 161.39 57.76 161.55 58C161.71 58.24 161.92 58.41 162.15 58.52C162.39 58.63 162.62 58.68 162.85 58.68C163.07 58.68 163.28 58.63 163.48 58.54C163.68 58.45 163.86 58.32 164.02 58.16C164.18 58 164.3 57.82 164.39 57.62C164.48 57.42 164.52 57.22 164.52 57.01C164.52 56.74 164.46 56.49 164.33 56.25C164.2 56.01 164.02 55.81 163.78 55.65C163.54 55.49 163.26 55.41 162.94 55.39C162.74 55.39 162.54 55.42 162.36 55.48C162.17 55.54 162 55.63 161.84 55.76C161.68 55.89 161.55 56.07 161.45 56.3C161.35 56.53 161.29 56.8 161.27 57.13L161.28 57.11Z" fill="#F8AA2F"/>
<path d="M167 54.55C167.38 54.55 167.74 54.57 168.07 54.62C168.4 54.67 168.72 54.77 169.02 54.93C169.33 55.09 169.58 55.32 169.78 55.62C169.98 55.93 170.1 56.32 170.14 56.8C170.14 56.83 170.14 56.89 170.14 56.97C170.14 57.25 170.1 57.53 170.03 57.81C169.96 58.09 169.82 58.36 169.62 58.61C169.42 58.86 169.15 59.07 168.79 59.23C168.43 59.39 167.99 59.47 167.47 59.47H166.16V54.54H167V54.55ZM167.1 55.44V58.53C167.27 58.56 167.43 58.58 167.59 58.58C168.06 58.58 168.44 58.45 168.74 58.19C169.04 57.93 169.19 57.55 169.19 57.06C169.19 56.47 169.03 56.05 168.7 55.8C168.37 55.56 167.84 55.43 167.09 55.43L167.1 55.44Z" fill="#F8AA2F"/>
<path d="M123.79 54.3H234.64C244.61 54.3 252.71 62.4 252.71 72.37V140.62C252.71 150.59 244.61 158.69 234.64 158.69H123.79C113.82 158.69 105.72 150.59 105.72 140.62V72.37C105.72 62.4 113.82 54.3 123.79 54.3Z" fill="#709BD2"/>
<path d="M257.08 120.75H211.47C203.59 120.75 197.21 114.36 197.21 106.49C197.21 98.61 203.6 92.23 211.47 92.23H257.08V120.75Z" fill="#4D73B7"/>
<path d="M211.47 117.67C217.645 117.67 222.65 112.665 222.65 106.49C222.65 100.315 217.645 95.31 211.47 95.31C205.296 95.31 200.29 100.315 200.29 106.49C200.29 112.665 205.296 117.67 211.47 117.67Z" fill="#E9F2FC"/>
<g style="mix-blend-mode:multiply" opacity="0.15">
<path d="M233.78 50.15H121.69C121.69 50.15 121.64 50.15 121.61 50.15C121.58 50.19 121.56 50.24 121.56 50.29V51.74C121.56 51.86 121.64 51.96 121.76 52.05C121.83 52.78 121.97 53.49 122.17 54.2H233.78C236.6 54.2 239.58 54.46 242.03 55.02C242.23 54.31 242.18 53.84 242.25 53.11C242.37 53.02 242.45 52.92 242.45 52.8L242.35 51.19C239.74 50.53 236.85 50.15 233.78 50.15Z" fill="#7D7060"/>
</g>
<path d="M209.443 100.705L205.968 108.221L213.484 111.696L216.958 104.18L209.443 100.705Z" fill="#05A6AA"/>
</g>
<defs>
<clipPath id="clip0_20_1929">
<rect width="360" height="180" fill="white"/>
</clipPath>
</defs>
</svg>
