<svg width="360" height="180" viewBox="0 0 360 180" fill="none" xmlns="http://www.w3.org/2000/svg">
<path d="M99.11 94.69L107.48 127.03L129.73 110.23L99.11 94.69Z" fill="#05A6AA"/>
<g opacity="0.6">
<path d="M85.0799 27.55C86.2599 28.2 87.7499 27.78 88.3999 26.6C89.0499 25.42 88.6299 23.93 87.4499 23.28C87.0599 23.06 86.6299 22.97 86.2099 22.98C85.7299 23.13 85.2599 23.3 84.7999 23.47C84.5299 23.67 84.3099 23.93 84.1299 24.23C83.4799 25.41 83.8999 26.9 85.0799 27.55Z" fill="#FAB84D"/>
<path d="M83.8499 34.81C84.4999 33.63 84.0799 32.14 82.8999 31.49C81.7199 30.84 80.2299 31.26 79.5799 32.44C78.9299 33.62 79.3499 35.11 80.5299 35.76C81.7099 36.41 83.1999 35.99 83.8499 34.81Z" fill="#FAB84D"/>
<path d="M79.3 43.03C79.95 41.85 79.5299 40.36 78.3499 39.71C77.1699 39.06 75.6799 39.48 75.0299 40.66C74.3799 41.84 74.8 43.33 75.98 43.98C77.16 44.63 78.65 44.21 79.3 43.03Z" fill="#FAB84D"/>
<path d="M74.7499 51.24C75.3999 50.06 74.9799 48.57 73.7999 47.92C72.6199 47.27 71.1299 47.69 70.4799 48.87C69.8299 50.05 70.2499 51.54 71.4299 52.19C72.6099 52.84 74.0999 52.42 74.7499 51.24Z" fill="#FAB84D"/>
<path d="M70.1999 59.46C70.8499 58.28 70.4299 56.79 69.2499 56.14C68.0699 55.49 66.5799 55.91 65.9299 57.09C65.7599 57.4 65.6599 57.73 65.6299 58.06C65.7299 58.55 65.8399 59.04 65.9599 59.52C66.1699 59.88 66.4799 60.19 66.8699 60.41C68.0499 61.06 69.5399 60.64 70.1899 59.46H70.1999Z" fill="#FAB84D"/>
<path d="M78.79 26.64C78.83 26.57 78.86 26.5 78.89 26.43C78.19 26.89 77.5 27.37 76.83 27.89C77.62 27.83 78.37 27.39 78.79 26.64Z" fill="#FAB84D"/>
<path d="M70.9199 35.81C72.0999 36.46 73.5899 36.04 74.2399 34.86C74.8899 33.68 74.4699 32.19 73.2899 31.54C73.1999 31.49 73.1099 31.45 73.0199 31.41C71.9799 32.55 71.0099 33.79 70.1299 35.11C70.3299 35.39 70.5999 35.63 70.9199 35.81Z" fill="#FAB84D"/>
<path d="M66.3699 44.03C67.5499 44.68 69.0399 44.26 69.6899 43.08C70.3399 41.9 69.9199 40.41 68.7399 39.76C68.4199 39.58 68.0699 39.49 67.7299 39.46C67.0799 40.91 66.5399 42.38 66.1299 43.87C66.2099 43.93 66.2899 43.98 66.3799 44.03H66.3699Z" fill="#FAB84D"/>
<path d="M65.1699 48.97C65.0899 49.81 65.0399 50.65 65.0199 51.49C65.0599 51.43 65.1099 51.36 65.1399 51.29C65.5499 50.54 65.5299 49.67 65.1599 48.97H65.1699Z" fill="#FAB84D"/>
<path d="M118.04 35.07C118.93 35.56 119.99 35.44 120.74 34.85C119.83 33.51 118.81 32.23 117.68 31.04C117.44 31.23 117.24 31.47 117.08 31.75C116.43 32.93 116.85 34.42 118.03 35.07H118.04Z" fill="#FAB84D"/>
<path d="M112.54 39.97C111.89 41.15 112.31 42.64 113.49 43.29C114.67 43.94 116.16 43.52 116.81 42.34C117.46 41.16 117.04 39.67 115.86 39.02C114.68 38.37 113.19 38.79 112.54 39.97Z" fill="#FAB84D"/>
<path d="M107.99 48.18C107.34 49.36 107.76 50.85 108.94 51.5C110.12 52.15 111.61 51.73 112.26 50.55C112.91 49.37 112.49 47.88 111.31 47.23C110.13 46.58 108.64 47 107.99 48.18Z" fill="#FAB84D"/>
<path d="M103.44 56.4C102.79 57.58 103.21 59.07 104.39 59.72C105.57 60.37 107.06 59.95 107.71 58.77C108.36 57.59 107.94 56.1 106.76 55.45C105.58 54.8 104.09 55.22 103.44 56.4Z" fill="#FAB84D"/>
<path d="M98.8899 64.61C98.2399 65.79 98.6599 67.28 99.8399 67.93C101.02 68.58 102.51 68.16 103.16 66.98C103.81 65.8 103.39 64.31 102.21 63.66C101.03 63.01 99.5399 63.43 98.8899 64.61Z" fill="#FAB84D"/>
<path d="M94.3399 72.83C93.6899 74.01 94.1099 75.5 95.2899 76.15C96.4699 76.8 97.9599 76.38 98.6099 75.2C99.2599 74.02 98.8399 72.53 97.6599 71.88C96.4799 71.23 94.9899 71.65 94.3399 72.83Z" fill="#FAB84D"/>
<path d="M93.1099 80.09C91.9299 79.44 90.4399 79.86 89.7899 81.04C89.6299 81.32 89.5399 81.62 89.4999 81.92C91.1099 82.24 92.7299 82.43 94.3499 82.49C94.4599 81.54 93.9899 80.57 93.1099 80.08V80.09Z" fill="#FAB84D"/>
<path d="M107.48 31.8C106.83 32.98 107.25 34.47 108.43 35.12C109.61 35.77 111.1 35.35 111.75 34.17C112.4 32.99 111.98 31.5 110.8 30.85C109.62 30.2 108.13 30.62 107.48 31.8Z" fill="#FAB84D"/>
<path d="M107.21 42.38C107.86 41.2 107.44 39.71 106.26 39.06C105.08 38.41 103.59 38.83 102.94 40.01C102.29 41.19 102.71 42.68 103.89 43.33C105.07 43.98 106.56 43.56 107.21 42.38Z" fill="#FAB84D"/>
<path d="M102.66 50.6C103.31 49.42 102.89 47.93 101.71 47.28C100.53 46.63 99.0399 47.05 98.3899 48.23C97.7399 49.41 98.1599 50.9 99.3399 51.55C100.52 52.2 102.01 51.78 102.66 50.6Z" fill="#FAB84D"/>
<path d="M98.1099 58.81C98.7599 57.63 98.3399 56.14 97.1599 55.49C95.9799 54.84 94.4899 55.26 93.8399 56.44C93.1899 57.62 93.6099 59.11 94.7899 59.76C95.9699 60.41 97.4599 59.99 98.1099 58.81Z" fill="#FAB84D"/>
<path d="M89.2799 64.66C88.6299 65.84 89.05 67.33 90.23 67.98C91.41 68.63 92.9 68.21 93.55 67.03C94.2 65.85 93.7799 64.36 92.5999 63.71C91.4199 63.06 89.9299 63.48 89.2799 64.66Z" fill="#FAB84D"/>
<path d="M84.7299 72.88C84.0799 74.06 84.4999 75.55 85.6799 76.2C86.8599 76.85 88.3499 76.43 88.9999 75.25C89.6499 74.07 89.2299 72.58 88.0499 71.93C86.8699 71.28 85.3799 71.7 84.7299 72.88Z" fill="#FAB84D"/>
<path d="M122.64 56.3C121.99 57.48 122.41 58.97 123.59 59.62C124.03 59.86 124.52 59.96 124.99 59.92C125.4 58.39 125.69 56.85 125.86 55.3C124.7 54.72 123.28 55.16 122.64 56.3Z" fill="#FAB84D"/>
<path d="M121.41 63.56C120.23 62.91 118.74 63.33 118.09 64.51C117.44 65.69 117.86 67.18 119.04 67.83C119.92 68.32 120.96 68.2 121.71 67.63C121.88 67.35 122.04 67.08 122.2 66.79C122.36 66.51 122.5 66.22 122.65 65.93C122.74 64.99 122.28 64.04 121.4 63.56H121.41Z" fill="#FAB84D"/>
<path d="M113.54 72.73C112.91 73.88 113.29 75.31 114.4 75.99C115.62 75.03 116.78 73.96 117.85 72.8C117.64 72.38 117.3 72.02 116.86 71.77C115.68 71.12 114.19 71.54 113.54 72.72V72.73Z" fill="#FAB84D"/>
<path d="M123.09 43.24C123.63 43.54 124.24 43.61 124.81 43.48C124.36 41.93 123.78 40.43 123.09 38.97C122.7 39.18 122.37 39.5 122.14 39.92C121.49 41.1 121.91 42.59 123.09 43.24Z" fill="#FAB84D"/>
<path d="M117.59 48.13C116.94 49.31 117.36 50.8 118.54 51.45C119.72 52.1 121.21 51.68 121.86 50.5C122.51 49.32 122.09 47.83 120.91 47.18C119.73 46.53 118.24 46.95 117.59 48.13Z" fill="#FAB84D"/>
<path d="M113.04 56.35C112.39 57.53 112.81 59.02 113.99 59.67C115.17 60.32 116.66 59.9 117.31 58.72C117.96 57.54 117.54 56.05 116.36 55.4C115.18 54.75 113.69 55.17 113.04 56.35Z" fill="#FAB84D"/>
<path d="M108.49 64.56C107.84 65.74 108.26 67.23 109.44 67.88C110.62 68.53 112.11 68.11 112.76 66.93C113.41 65.75 112.99 64.26 111.81 63.61C110.63 62.96 109.14 63.38 108.49 64.56Z" fill="#FAB84D"/>
<path d="M103.94 72.78C103.29 73.96 103.71 75.45 104.89 76.1C106.07 76.75 107.56 76.33 108.21 75.15C108.86 73.97 108.44 72.48 107.26 71.83C106.08 71.18 104.59 71.6 103.94 72.78Z" fill="#FAB84D"/>
<path d="M99.3899 80.99C99.1599 81.41 99.0699 81.86 99.0899 82.3C100.69 82.11 102.28 81.8 103.83 81.36C103.64 80.82 103.26 80.34 102.71 80.03C101.53 79.38 100.04 79.8 99.3899 80.98V80.99Z" fill="#FAB84D"/>
<path d="M103.38 26.95C104.56 27.6 106.05 27.18 106.7 26C107.12 25.24 107.09 24.35 106.7 23.64C105.67 23.23 104.62 22.88 103.57 22.59C103.1 22.8 102.69 23.15 102.43 23.63C101.78 24.81 102.2 26.3 103.38 26.95Z" fill="#FAB84D"/>
<path d="M102.15 34.21C102.8 33.03 102.38 31.54 101.2 30.89C100.02 30.24 98.5299 30.66 97.8799 31.84C97.2299 33.02 97.6499 34.51 98.8299 35.16C100.01 35.81 101.5 35.39 102.15 34.21Z" fill="#FAB84D"/>
<path d="M97.5999 42.43C98.2499 41.25 97.8299 39.76 96.6499 39.11C95.4699 38.46 93.9799 38.88 93.3299 40.06C92.6799 41.24 93.0999 42.73 94.2799 43.38C95.4599 44.03 96.9499 43.61 97.5999 42.43Z" fill="#FAB84D"/>
<path d="M93.05 50.64C93.7 49.46 93.2799 47.97 92.0999 47.32C90.9199 46.67 89.4299 47.09 88.7799 48.27C88.1299 49.45 88.55 50.94 89.73 51.59C90.91 52.24 92.4 51.82 93.05 50.64Z" fill="#FAB84D"/>
<path d="M88.4999 58.86C89.1499 57.68 88.7299 56.19 87.5499 55.54C86.3699 54.89 84.8799 55.31 84.2299 56.49C83.5799 57.67 83.9999 59.16 85.1799 59.81C86.3599 60.46 87.8499 60.04 88.4999 58.86Z" fill="#FAB84D"/>
<path d="M82.4897 68.2363C83.785 67.8644 84.5335 66.5129 84.1616 65.2177C83.7897 63.9225 82.4382 63.1739 81.143 63.5458C79.8477 63.9177 79.0992 65.2692 79.4711 66.5645C79.843 67.8597 81.1945 68.6082 82.4897 68.2363Z" fill="#FAB84D"/>
<path d="M79.3999 75.29C80.0499 74.11 79.6299 72.62 78.4499 71.97C77.2699 71.32 75.7799 71.74 75.1299 72.92C74.8599 73.4 74.7799 73.94 74.8499 74.44C75.6499 75.18 76.4999 75.88 77.3999 76.54C78.2099 76.5 78.9799 76.05 79.4099 75.29H79.3999Z" fill="#FAB84D"/>
<path d="M97.0999 26.05C97.7499 24.87 97.3299 23.38 96.1499 22.73C94.9699 22.08 93.4799 22.5 92.8299 23.68C92.1799 24.86 92.5999 26.35 93.7799 27C94.9599 27.65 96.4499 27.23 97.0999 26.05Z" fill="#FAB84D"/>
<path d="M92.55 34.26C93.2 33.08 92.7799 31.59 91.5999 30.94C90.4199 30.29 88.9299 30.71 88.2799 31.89C87.6299 33.07 88.05 34.56 89.23 35.21C90.41 35.86 91.9 35.44 92.55 34.26Z" fill="#FAB84D"/>
<path d="M87.9999 42.48C88.6499 41.3 88.2299 39.81 87.0499 39.16C85.8699 38.51 84.3799 38.93 83.7299 40.11C83.0799 41.29 83.4999 42.78 84.6799 43.43C85.8599 44.08 87.3499 43.66 87.9999 42.48Z" fill="#FAB84D"/>
<path d="M83.4498 50.69C84.0998 49.51 83.6799 48.02 82.4999 47.37C81.3199 46.72 79.8299 47.14 79.1799 48.32C78.5299 49.5 78.9498 50.99 80.1298 51.64C81.3098 52.29 82.7998 51.87 83.4498 50.69Z" fill="#FAB84D"/>
<path d="M78.8999 58.91C79.5499 57.73 79.1299 56.24 77.9499 55.59C76.7699 54.94 75.2799 55.36 74.6299 56.54C73.9799 57.72 74.3999 59.21 75.5799 59.86C76.7599 60.51 78.2499 60.09 78.8999 58.91Z" fill="#FAB84D"/>
<path d="M74.3499 67.12C74.9999 65.94 74.5799 64.45 73.3999 63.8C72.2199 63.15 70.7299 63.57 70.0799 64.75C69.4299 65.93 69.8499 67.42 71.0299 68.07C72.2099 68.72 73.6999 68.3 74.3499 67.12Z" fill="#FAB84D"/>
</g>
<g opacity="0.6">
<path d="M250.5 66.69C251.68 67.34 253.17 66.92 253.82 65.74C254.47 64.56 254.05 63.07 252.87 62.42C252.48 62.2 252.05 62.11 251.63 62.12C251.15 62.27 250.68 62.44 250.22 62.61C249.95 62.81 249.73 63.07 249.55 63.37C248.9 64.55 249.32 66.04 250.5 66.69Z" fill="#FAB84D"/>
<path d="M249.27 73.95C249.92 72.77 249.5 71.28 248.32 70.63C247.14 69.98 245.65 70.4 245 71.58C244.35 72.76 244.77 74.25 245.95 74.9C247.13 75.55 248.62 75.13 249.27 73.95Z" fill="#FAB84D"/>
<path d="M244.72 82.17C245.37 80.99 244.95 79.5 243.77 78.85C242.59 78.2 241.1 78.62 240.45 79.8C239.8 80.98 240.22 82.47 241.4 83.12C242.58 83.77 244.07 83.35 244.72 82.17Z" fill="#FAB84D"/>
<path d="M240.17 90.38C240.82 89.2 240.4 87.71 239.22 87.06C238.04 86.41 236.55 86.83 235.9 88.01C235.25 89.19 235.67 90.68 236.85 91.33C238.03 91.98 239.52 91.56 240.17 90.38Z" fill="#FAB84D"/>
<path d="M235.62 98.6C236.27 97.42 235.85 95.93 234.67 95.28C233.49 94.63 232 95.05 231.35 96.23C231.18 96.54 231.08 96.87 231.05 97.2C231.15 97.69 231.26 98.18 231.38 98.66C231.59 99.02 231.9 99.33 232.29 99.55C233.47 100.2 234.96 99.78 235.61 98.6H235.62Z" fill="#FAB84D"/>
<path d="M244.22 65.78C244.26 65.71 244.29 65.64 244.32 65.57C243.62 66.03 242.93 66.51 242.26 67.03C243.05 66.97 243.8 66.53 244.22 65.78Z" fill="#FAB84D"/>
<path d="M236.35 74.95C237.53 75.6 239.02 75.18 239.67 74C240.32 72.82 239.9 71.33 238.72 70.68C238.63 70.63 238.54 70.59 238.45 70.55C237.41 71.69 236.44 72.93 235.56 74.25C235.76 74.53 236.03 74.77 236.35 74.95Z" fill="#FAB84D"/>
<path d="M231.8 83.17C232.98 83.82 234.47 83.4 235.12 82.22C235.77 81.04 235.35 79.55 234.17 78.9C233.85 78.72 233.5 78.63 233.16 78.6C232.51 80.05 231.97 81.52 231.56 83.01C231.64 83.07 231.72 83.12 231.81 83.17H231.8Z" fill="#FAB84D"/>
<path d="M230.59 88.11C230.51 88.95 230.46 89.79 230.44 90.63C230.48 90.57 230.53 90.5 230.56 90.43C230.97 89.68 230.95 88.81 230.58 88.11H230.59Z" fill="#FAB84D"/>
<path d="M283.46 74.21C284.35 74.7 285.41 74.58 286.16 73.99C285.25 72.65 284.23 71.37 283.1 70.18C282.86 70.37 282.66 70.61 282.5 70.89C281.85 72.07 282.27 73.56 283.45 74.21H283.46Z" fill="#FAB84D"/>
<path d="M277.96 79.11C277.31 80.29 277.73 81.78 278.91 82.43C280.09 83.08 281.58 82.66 282.23 81.48C282.88 80.3 282.46 78.81 281.28 78.16C280.1 77.51 278.61 77.93 277.96 79.11Z" fill="#FAB84D"/>
<path d="M273.41 87.32C272.76 88.5 273.18 89.99 274.36 90.64C275.54 91.29 277.03 90.87 277.68 89.69C278.33 88.51 277.91 87.02 276.73 86.37C275.55 85.72 274.06 86.14 273.41 87.32Z" fill="#FAB84D"/>
<path d="M268.86 95.54C268.21 96.72 268.63 98.21 269.81 98.86C270.99 99.51 272.48 99.09 273.13 97.91C273.78 96.73 273.36 95.24 272.18 94.59C271 93.94 269.51 94.36 268.86 95.54Z" fill="#FAB84D"/>
<path d="M264.31 103.75C263.66 104.93 264.08 106.42 265.26 107.07C266.44 107.72 267.93 107.3 268.58 106.12C269.23 104.94 268.81 103.45 267.63 102.8C266.45 102.15 264.96 102.57 264.31 103.75Z" fill="#FAB84D"/>
<path d="M259.76 111.97C259.11 113.15 259.53 114.64 260.71 115.29C261.89 115.94 263.38 115.52 264.03 114.34C264.68 113.16 264.26 111.67 263.08 111.02C261.9 110.37 260.41 110.79 259.76 111.97Z" fill="#FAB84D"/>
<path d="M258.53 119.23C257.35 118.58 255.86 119 255.21 120.18C255.05 120.46 254.96 120.76 254.92 121.06C256.53 121.38 258.15 121.57 259.77 121.63C259.88 120.68 259.41 119.71 258.53 119.22V119.23Z" fill="#FAB84D"/>
<path d="M272.91 70.94C272.26 72.12 272.68 73.61 273.86 74.26C275.04 74.91 276.53 74.49 277.18 73.31C277.83 72.13 277.41 70.64 276.23 69.99C275.05 69.34 273.56 69.76 272.91 70.94Z" fill="#FAB84D"/>
<path d="M272.63 81.52C273.28 80.34 272.86 78.85 271.68 78.2C270.5 77.55 269.01 77.97 268.36 79.15C267.71 80.33 268.13 81.82 269.31 82.47C270.49 83.12 271.98 82.7 272.63 81.52Z" fill="#FAB84D"/>
<path d="M268.08 89.74C268.73 88.56 268.31 87.07 267.13 86.42C265.95 85.77 264.46 86.19 263.81 87.37C263.16 88.55 263.58 90.04 264.76 90.69C265.94 91.34 267.43 90.92 268.08 89.74Z" fill="#FAB84D"/>
<path d="M263.53 97.95C264.18 96.77 263.76 95.28 262.58 94.63C261.4 93.98 259.91 94.4 259.26 95.58C258.61 96.76 259.03 98.25 260.21 98.9C261.39 99.55 262.88 99.13 263.53 97.95Z" fill="#FAB84D"/>
<path d="M254.71 103.8C254.06 104.98 254.48 106.47 255.66 107.12C256.84 107.77 258.33 107.35 258.98 106.17C259.63 104.99 259.21 103.5 258.03 102.85C256.85 102.2 255.36 102.62 254.71 103.8Z" fill="#FAB84D"/>
<path d="M250.16 112.01C249.51 113.19 249.93 114.68 251.11 115.33C252.29 115.98 253.78 115.56 254.43 114.38C255.08 113.2 254.66 111.71 253.48 111.06C252.3 110.41 250.81 110.83 250.16 112.01Z" fill="#FAB84D"/>
<path d="M288.07 95.44C287.42 96.62 287.84 98.11 289.02 98.76C289.46 99 289.95 99.1 290.42 99.06C290.83 97.53 291.12 95.99 291.29 94.44C290.13 93.86 288.71 94.3 288.07 95.44Z" fill="#FAB84D"/>
<path d="M286.84 102.7C285.66 102.05 284.17 102.47 283.52 103.65C282.87 104.83 283.29 106.32 284.47 106.97C285.35 107.46 286.39 107.34 287.14 106.77C287.31 106.49 287.47 106.22 287.63 105.93C287.79 105.65 287.93 105.36 288.08 105.07C288.17 104.13 287.71 103.18 286.83 102.7H286.84Z" fill="#FAB84D"/>
<path d="M278.97 111.87C278.34 113.02 278.72 114.45 279.83 115.13C281.05 114.17 282.21 113.1 283.28 111.94C283.07 111.52 282.73 111.16 282.29 110.91C281.11 110.26 279.62 110.68 278.97 111.86V111.87Z" fill="#FAB84D"/>
<path d="M288.52 82.38C289.06 82.68 289.67 82.75 290.24 82.62C289.79 81.07 289.21 79.57 288.52 78.11C288.13 78.32 287.8 78.64 287.57 79.06C286.92 80.24 287.34 81.73 288.52 82.38Z" fill="#FAB84D"/>
<path d="M283.01 87.27C282.36 88.45 282.78 89.94 283.96 90.59C285.14 91.24 286.63 90.82 287.28 89.64C287.93 88.46 287.51 86.97 286.33 86.32C285.15 85.67 283.66 86.09 283.01 87.27Z" fill="#FAB84D"/>
<path d="M278.46 95.49C277.81 96.67 278.23 98.16 279.41 98.81C280.59 99.46 282.08 99.04 282.73 97.86C283.38 96.68 282.96 95.19 281.78 94.54C280.6 93.89 279.11 94.31 278.46 95.49Z" fill="#FAB84D"/>
<path d="M273.91 103.7C273.26 104.88 273.68 106.37 274.86 107.02C276.04 107.67 277.53 107.25 278.18 106.07C278.83 104.89 278.41 103.4 277.23 102.75C276.05 102.1 274.56 102.52 273.91 103.7Z" fill="#FAB84D"/>
<path d="M269.36 111.92C268.71 113.1 269.13 114.59 270.31 115.24C271.49 115.89 272.98 115.47 273.63 114.29C274.28 113.11 273.86 111.62 272.68 110.97C271.5 110.32 270.01 110.74 269.36 111.92Z" fill="#FAB84D"/>
<path d="M264.81 120.13C264.58 120.55 264.49 121 264.51 121.44C266.11 121.25 267.7 120.94 269.25 120.5C269.06 119.96 268.68 119.48 268.13 119.17C266.95 118.52 265.46 118.94 264.81 120.12V120.13Z" fill="#FAB84D"/>
<path d="M268.81 66.09C269.99 66.74 271.48 66.32 272.13 65.14C272.55 64.38 272.52 63.49 272.13 62.78C271.1 62.37 270.05 62.02 269 61.73C268.53 61.94 268.12 62.29 267.86 62.77C267.21 63.95 267.63 65.44 268.81 66.09Z" fill="#FAB84D"/>
<path d="M267.58 73.35C268.23 72.17 267.81 70.68 266.63 70.03C265.45 69.38 263.96 69.8 263.31 70.98C262.66 72.16 263.08 73.65 264.26 74.3C265.44 74.95 266.93 74.53 267.58 73.35Z" fill="#FAB84D"/>
<path d="M263.03 81.57C263.68 80.39 263.26 78.9 262.08 78.25C260.9 77.6 259.41 78.02 258.76 79.2C258.11 80.38 258.53 81.87 259.71 82.52C260.89 83.17 262.38 82.75 263.03 81.57Z" fill="#FAB84D"/>
<path d="M258.48 89.78C259.13 88.6 258.71 87.11 257.53 86.46C256.35 85.81 254.86 86.23 254.21 87.41C253.56 88.59 253.98 90.08 255.16 90.73C256.34 91.38 257.83 90.96 258.48 89.78Z" fill="#FAB84D"/>
<path d="M253.93 98C254.58 96.82 254.16 95.33 252.98 94.68C251.8 94.03 250.31 94.45 249.66 95.63C249.01 96.81 249.43 98.3 250.61 98.95C251.79 99.6 253.28 99.18 253.93 98Z" fill="#FAB84D"/>
<path d="M247.917 107.375C249.213 107.003 249.961 105.652 249.589 104.356C249.217 103.061 247.866 102.313 246.571 102.684C245.275 103.056 244.527 104.408 244.899 105.703C245.271 106.998 246.622 107.747 247.917 107.375Z" fill="#FAB84D"/>
<path d="M244.83 114.43C245.48 113.25 245.06 111.76 243.88 111.11C242.7 110.46 241.21 110.88 240.56 112.06C240.29 112.54 240.21 113.08 240.28 113.58C241.08 114.32 241.93 115.02 242.83 115.68C243.64 115.64 244.41 115.19 244.84 114.43H244.83Z" fill="#FAB84D"/>
<path d="M262.52 65.19C263.17 64.01 262.75 62.52 261.57 61.87C260.39 61.22 258.9 61.64 258.25 62.82C257.6 64 258.02 65.49 259.2 66.14C260.38 66.79 261.87 66.37 262.52 65.19Z" fill="#FAB84D"/>
<path d="M257.97 73.4C258.62 72.22 258.2 70.73 257.02 70.08C255.84 69.43 254.35 69.85 253.7 71.03C253.05 72.21 253.47 73.7 254.65 74.35C255.83 75 257.32 74.58 257.97 73.4Z" fill="#FAB84D"/>
<path d="M253.42 81.62C254.07 80.44 253.65 78.95 252.47 78.3C251.29 77.65 249.8 78.07 249.15 79.25C248.5 80.43 248.92 81.92 250.1 82.57C251.28 83.22 252.77 82.8 253.42 81.62Z" fill="#FAB84D"/>
<path d="M248.87 89.83C249.52 88.65 249.1 87.16 247.92 86.51C246.74 85.86 245.25 86.28 244.6 87.46C243.95 88.64 244.37 90.13 245.55 90.78C246.73 91.43 248.22 91.01 248.87 89.83Z" fill="#FAB84D"/>
<path d="M244.32 98.05C244.97 96.87 244.55 95.38 243.37 94.73C242.19 94.08 240.7 94.5 240.05 95.68C239.4 96.86 239.82 98.35 241 99C242.18 99.65 243.67 99.23 244.32 98.05Z" fill="#FAB84D"/>
<path d="M239.77 106.26C240.42 105.08 240 103.59 238.82 102.94C237.64 102.29 236.15 102.71 235.5 103.89C234.85 105.07 235.27 106.56 236.45 107.21C237.63 107.86 239.12 107.44 239.77 106.26Z" fill="#FAB84D"/>
</g>
<path d="M99.11 94.69L107.48 127.03L129.73 110.23L99.11 94.69Z" fill="#05A6AA"/>
<g opacity="0.6">
<path d="M49.74 101.87C50.4 102.24 51.24 102 51.61 101.33C51.98 100.66 51.74 99.83 51.07 99.46C50.85 99.34 50.61 99.28 50.37 99.29C50.1 99.38 49.84 99.47 49.57 99.57C49.42 99.68 49.29 99.83 49.2 100C48.83 100.66 49.07 101.5 49.74 101.87Z" fill="#FAB84D"/>
<path d="M49.0499 105.96C49.4199 105.3 49.1799 104.46 48.5099 104.09C47.8499 103.72 47.0099 103.96 46.6399 104.63C46.2699 105.29 46.5099 106.13 47.1799 106.5C47.8399 106.87 48.6799 106.63 49.0499 105.96Z" fill="#FAB84D"/>
<path d="M46.48 110.59C46.85 109.93 46.61 109.09 45.94 108.72C45.28 108.35 44.44 108.59 44.07 109.26C43.7 109.92 43.94 110.76 44.61 111.13C45.27 111.5 46.11 111.26 46.48 110.59Z" fill="#FAB84D"/>
<path d="M43.9199 115.22C44.2899 114.56 44.0499 113.72 43.3799 113.35C42.7199 112.98 41.8799 113.22 41.5099 113.89C41.1399 114.55 41.3799 115.39 42.0499 115.76C42.7099 116.13 43.5499 115.89 43.9199 115.22Z" fill="#FAB84D"/>
<path d="M41.3499 119.85C41.7199 119.19 41.4799 118.35 40.8099 117.98C40.1499 117.61 39.3099 117.85 38.9399 118.52C38.8399 118.69 38.7899 118.88 38.7699 119.07C38.8299 119.35 38.8899 119.62 38.9599 119.89C39.0799 120.09 39.2499 120.27 39.4799 120.39C40.1399 120.76 40.9799 120.52 41.3499 119.85Z" fill="#FAB84D"/>
<path d="M46.2 101.36C46.2 101.36 46.24 101.28 46.26 101.24C45.86 101.5 45.47 101.77 45.1 102.06C45.55 102.03 45.97 101.78 46.2 101.35V101.36Z" fill="#FAB84D"/>
<path d="M41.7599 106.53C42.4199 106.9 43.2599 106.66 43.6299 105.99C43.9999 105.33 43.7599 104.49 43.0899 104.12C43.0899 104.12 42.9899 104.07 42.9399 104.05C42.3499 104.69 41.8099 105.39 41.3099 106.13C41.4199 106.29 41.5699 106.42 41.7499 106.52L41.7599 106.53Z" fill="#FAB84D"/>
<path d="M39.1999 111.16C39.8599 111.53 40.6999 111.29 41.0699 110.62C41.4399 109.96 41.1999 109.12 40.5299 108.75C40.3499 108.65 40.1499 108.6 39.9599 108.58C39.5899 109.39 39.2899 110.23 39.0599 111.07C39.0999 111.1 39.1499 111.13 39.1999 111.16Z" fill="#FAB84D"/>
<path d="M38.5199 113.94C38.4699 114.41 38.4499 114.89 38.4399 115.36C38.4599 115.32 38.4899 115.29 38.5099 115.25C38.7399 114.83 38.7299 114.34 38.5199 113.94Z" fill="#FAB84D"/>
<path d="M68.3099 106.11C68.8099 106.39 69.4099 106.32 69.8299 105.98C69.3199 105.23 68.7399 104.51 68.1099 103.83C67.9799 103.94 67.8599 104.07 67.7699 104.23C67.3999 104.89 67.6399 105.73 68.3099 106.1V106.11Z" fill="#FAB84D"/>
<path d="M65.21 108.87C64.84 109.53 65.08 110.37 65.75 110.74C66.41 111.11 67.25 110.87 67.62 110.2C67.99 109.54 67.75 108.7 67.08 108.33C66.42 107.96 65.58 108.2 65.21 108.87Z" fill="#FAB84D"/>
<path d="M62.6499 113.5C62.2799 114.16 62.5199 115 63.1899 115.37C63.8499 115.74 64.6899 115.5 65.0599 114.83C65.4299 114.17 65.1899 113.33 64.5199 112.96C63.8599 112.59 63.0199 112.83 62.6499 113.5Z" fill="#FAB84D"/>
<path d="M60.08 118.13C59.71 118.79 59.95 119.63 60.62 120C61.28 120.37 62.12 120.13 62.49 119.46C62.86 118.8 62.62 117.96 61.95 117.59C61.29 117.22 60.45 117.46 60.08 118.13Z" fill="#FAB84D"/>
<path d="M57.5199 122.76C57.1499 123.42 57.3899 124.26 58.0599 124.63C58.7199 125 59.5599 124.76 59.9299 124.09C60.2999 123.43 60.0599 122.59 59.3899 122.22C58.7299 121.85 57.8899 122.09 57.5199 122.76Z" fill="#FAB84D"/>
<path d="M54.96 127.39C54.59 128.05 54.83 128.89 55.5 129.26C56.16 129.63 57 129.39 57.37 128.72C57.74 128.06 57.5 127.22 56.83 126.85C56.17 126.48 55.33 126.72 54.96 127.39Z" fill="#FAB84D"/>
<path d="M54.26 131.48C53.6 131.11 52.76 131.35 52.39 132.02C52.3 132.18 52.25 132.35 52.23 132.52C53.14 132.7 54.05 132.81 54.96 132.84C55.02 132.3 54.76 131.76 54.26 131.48Z" fill="#FAB84D"/>
<path d="M62.36 104.27C61.99 104.93 62.23 105.77 62.9 106.14C63.56 106.51 64.4 106.27 64.77 105.6C65.14 104.94 64.9 104.1 64.23 103.73C63.57 103.36 62.73 103.6 62.36 104.27Z" fill="#FAB84D"/>
<path d="M62.2099 110.23C62.5799 109.57 62.3399 108.73 61.6699 108.36C61.0099 107.99 60.1699 108.23 59.7999 108.9C59.4299 109.56 59.6699 110.4 60.3399 110.77C60.9999 111.14 61.8399 110.9 62.2099 110.23Z" fill="#FAB84D"/>
<path d="M59.64 114.86C60.01 114.2 59.77 113.36 59.1 112.99C58.44 112.62 57.6 112.86 57.23 113.53C56.86 114.19 57.1 115.03 57.77 115.4C58.43 115.77 59.27 115.53 59.64 114.86Z" fill="#FAB84D"/>
<path d="M57.0799 119.49C57.4499 118.83 57.2099 117.99 56.5399 117.62C55.8799 117.25 55.0399 117.49 54.6699 118.16C54.2999 118.82 54.5399 119.66 55.2099 120.03C55.8699 120.4 56.7099 120.16 57.0799 119.49Z" fill="#FAB84D"/>
<path d="M52.11 122.78C51.74 123.44 51.98 124.28 52.65 124.65C53.31 125.02 54.15 124.78 54.52 124.11C54.89 123.45 54.65 122.61 53.98 122.24C53.32 121.87 52.48 122.11 52.11 122.78Z" fill="#FAB84D"/>
<path d="M49.5399 127.41C49.1699 128.07 49.4099 128.91 50.0799 129.28C50.7399 129.65 51.5799 129.41 51.9499 128.74C52.3199 128.08 52.0799 127.24 51.4099 126.87C50.7499 126.5 49.9099 126.74 49.5399 127.41Z" fill="#FAB84D"/>
<path d="M70.9099 118.07C70.5399 118.73 70.7799 119.57 71.4499 119.94C71.6999 120.08 71.9699 120.13 72.2399 120.11C72.4699 119.25 72.6399 118.38 72.7299 117.51C72.0799 117.19 71.2699 117.43 70.9199 118.08L70.9099 118.07Z" fill="#FAB84D"/>
<path d="M70.21 122.16C69.55 121.79 68.71 122.03 68.34 122.7C67.97 123.36 68.21 124.2 68.88 124.57C69.37 124.84 69.96 124.78 70.39 124.46C70.48 124.3 70.58 124.15 70.67 123.99C70.76 123.83 70.84 123.67 70.92 123.5C70.97 122.97 70.71 122.44 70.22 122.16H70.21Z" fill="#FAB84D"/>
<path d="M65.78 127.33C65.42 127.98 65.64 128.78 66.26 129.17C66.95 128.63 67.6 128.03 68.21 127.37C68.09 127.13 67.9 126.93 67.65 126.79C66.99 126.42 66.15 126.66 65.78 127.33Z" fill="#FAB84D"/>
<path d="M71.16 110.71C71.47 110.88 71.81 110.92 72.13 110.85C71.88 109.98 71.55 109.13 71.16 108.31C70.94 108.43 70.75 108.61 70.62 108.85C70.25 109.51 70.49 110.35 71.16 110.72V110.71Z" fill="#FAB84D"/>
<path d="M68.0599 113.47C67.6899 114.13 67.9299 114.97 68.5999 115.34C69.2599 115.71 70.0999 115.47 70.4699 114.8C70.8399 114.14 70.5999 113.3 69.9299 112.93C69.2699 112.56 68.4299 112.8 68.0599 113.47Z" fill="#FAB84D"/>
<path d="M65.4999 118.1C65.1299 118.76 65.3699 119.6 66.0399 119.97C66.6999 120.34 67.5399 120.1 67.9099 119.43C68.2799 118.77 68.0399 117.93 67.3699 117.56C66.7099 117.19 65.8699 117.43 65.4999 118.1Z" fill="#FAB84D"/>
<path d="M62.9299 122.73C62.5599 123.39 62.7999 124.23 63.4699 124.6C64.1299 124.97 64.9699 124.73 65.3399 124.06C65.7099 123.4 65.4699 122.56 64.7999 122.19C64.1399 121.82 63.2999 122.06 62.9299 122.73Z" fill="#FAB84D"/>
<path d="M60.37 127.36C60 128.02 60.24 128.86 60.91 129.23C61.57 129.6 62.41 129.36 62.78 128.69C63.15 128.03 62.91 127.19 62.24 126.82C61.58 126.45 60.74 126.69 60.37 127.36Z" fill="#FAB84D"/>
<path d="M57.7999 131.99C57.6699 132.22 57.6199 132.48 57.6299 132.73C58.5299 132.62 59.4299 132.45 60.2999 132.2C60.1899 131.89 59.9799 131.62 59.6699 131.45C59.0099 131.08 58.1699 131.32 57.7999 131.99Z" fill="#FAB84D"/>
<path d="M60.0499 101.53C60.7099 101.9 61.5499 101.66 61.9199 100.99C62.1599 100.56 62.1399 100.06 61.9199 99.66C61.3399 99.43 60.7499 99.23 60.1599 99.07C59.8999 99.19 59.6699 99.39 59.5199 99.66C59.1499 100.32 59.3899 101.16 60.0599 101.53H60.0499Z" fill="#FAB84D"/>
<path d="M59.36 105.63C59.73 104.97 59.49 104.13 58.82 103.76C58.16 103.39 57.32 103.63 56.95 104.3C56.58 104.96 56.82 105.8 57.49 106.17C58.15 106.54 58.99 106.3 59.36 105.63Z" fill="#FAB84D"/>
<path d="M56.7999 110.26C57.1699 109.6 56.9299 108.76 56.2599 108.39C55.5999 108.02 54.7599 108.26 54.3899 108.93C54.0199 109.59 54.2599 110.43 54.9299 110.8C55.5899 111.17 56.4299 110.93 56.7999 110.26Z" fill="#FAB84D"/>
<path d="M54.23 114.89C54.6 114.23 54.36 113.39 53.69 113.02C53.03 112.65 52.19 112.89 51.82 113.56C51.45 114.22 51.69 115.06 52.36 115.43C53.02 115.8 53.86 115.56 54.23 114.89Z" fill="#FAB84D"/>
<path d="M51.6699 119.51C52.0399 118.85 51.7999 118.01 51.1299 117.64C50.4699 117.27 49.6299 117.51 49.2599 118.18C48.8899 118.84 49.1299 119.68 49.7999 120.05C50.4599 120.42 51.2999 120.18 51.6699 119.51Z" fill="#FAB84D"/>
<path d="M47.8999 124.86C48.6621 124.86 49.2799 124.242 49.2799 123.48C49.2799 122.718 48.6621 122.1 47.8999 122.1C47.1377 122.1 46.5199 122.718 46.5199 123.48C46.5199 124.242 47.1377 124.86 47.8999 124.86Z" fill="#FAB84D"/>
<path d="M46.5399 128.77C46.9099 128.11 46.6699 127.27 45.9999 126.9C45.3399 126.53 44.4999 126.77 44.1299 127.44C43.9799 127.71 43.9299 128.01 43.9699 128.3C44.4199 128.72 44.8999 129.11 45.3999 129.48C45.8599 129.46 46.2899 129.2 46.5299 128.77H46.5399Z" fill="#FAB84D"/>
<path d="M56.51 101.02C56.88 100.36 56.64 99.52 55.97 99.15C55.31 98.78 54.47 99.02 54.1 99.69C53.73 100.35 53.97 101.19 54.64 101.56C55.3 101.93 56.14 101.69 56.51 101.02Z" fill="#FAB84D"/>
<path d="M53.9499 105.65C54.3199 104.99 54.0799 104.15 53.4099 103.78C52.7499 103.41 51.9099 103.65 51.5399 104.32C51.1699 104.98 51.4099 105.82 52.0799 106.19C52.7399 106.56 53.5799 106.32 53.9499 105.65Z" fill="#FAB84D"/>
<path d="M51.39 110.28C51.76 109.62 51.52 108.78 50.85 108.41C50.19 108.04 49.35 108.28 48.98 108.95C48.61 109.61 48.85 110.45 49.52 110.82C50.18 111.19 51.02 110.95 51.39 110.28Z" fill="#FAB84D"/>
<path d="M48.8199 114.91C49.1899 114.25 48.9499 113.41 48.2799 113.04C47.6199 112.67 46.7799 112.91 46.4099 113.58C46.0399 114.24 46.2799 115.08 46.9499 115.45C47.6099 115.82 48.4499 115.58 48.8199 114.91Z" fill="#FAB84D"/>
<path d="M46.26 119.54C46.63 118.88 46.39 118.04 45.72 117.67C45.06 117.3 44.22 117.54 43.85 118.21C43.48 118.87 43.72 119.71 44.39 120.08C45.05 120.45 45.89 120.21 46.26 119.54Z" fill="#FAB84D"/>
<path d="M43.6899 124.17C44.0599 123.51 43.8199 122.67 43.1499 122.3C42.4899 121.93 41.6499 122.17 41.2799 122.84C40.9099 123.5 41.1499 124.34 41.8199 124.71C42.4799 125.08 43.3199 124.84 43.6899 124.17Z" fill="#FAB84D"/>
</g>
<path opacity="0.6" d="M286.57 34.83C287.21 35.19 288.03 34.95 288.38 34.31C288.73 33.67 288.5 32.85 287.86 32.5C287.64 32.38 287.41 32.33 287.18 32.33C286.92 32.41 286.66 32.5 286.41 32.6C286.27 32.71 286.14 32.85 286.05 33.02C285.69 33.66 285.93 34.48 286.57 34.83Z" fill="#FAB84D"/>
<path opacity="0.6" d="M285.9 38.8C286.26 38.16 286.02 37.34 285.38 36.99C284.74 36.63 283.92 36.87 283.57 37.51C283.21 38.15 283.45 38.97 284.09 39.32C284.73 39.68 285.55 39.44 285.9 38.8Z" fill="#FAB84D"/>
<path opacity="0.6" d="M283.41 43.29C283.77 42.65 283.53 41.83 282.89 41.48C282.25 41.12 281.43 41.36 281.08 42C280.72 42.64 280.96 43.46 281.6 43.81C282.24 44.17 283.06 43.93 283.41 43.29Z" fill="#FAB84D"/>
<path opacity="0.6" d="M280.92 47.78C281.28 47.14 281.04 46.32 280.4 45.97C279.76 45.61 278.94 45.85 278.59 46.49C278.23 47.13 278.47 47.95 279.11 48.3C279.75 48.66 280.57 48.42 280.92 47.78Z" fill="#FAB84D"/>
<path opacity="0.6" d="M278.43 52.27C278.79 51.63 278.55 50.81 277.91 50.46C277.27 50.1 276.45 50.34 276.1 50.98C276.01 51.15 275.95 51.33 275.94 51.51C275.99 51.78 276.05 52.04 276.12 52.31C276.24 52.51 276.4 52.68 276.62 52.8C277.26 53.16 278.08 52.92 278.43 52.28V52.27Z" fill="#FAB84D"/>
<path opacity="0.6" d="M283.13 34.34C283.13 34.34 283.17 34.26 283.19 34.23C282.8 34.48 282.43 34.75 282.06 35.03C282.49 35 282.9 34.76 283.13 34.35V34.34Z" fill="#FAB84D"/>
<path opacity="0.6" d="M278.83 39.35C279.47 39.71 280.29 39.47 280.64 38.83C281 38.19 280.76 37.37 280.12 37.02C280.12 37.02 280.02 36.97 279.97 36.95C279.4 37.57 278.87 38.25 278.39 38.97C278.5 39.12 278.65 39.25 278.82 39.35H278.83Z" fill="#FAB84D"/>
<path opacity="0.6" d="M276.35 43.84C276.99 44.2 277.81 43.96 278.16 43.32C278.52 42.68 278.28 41.86 277.64 41.51C277.46 41.41 277.28 41.36 277.09 41.35C276.73 42.14 276.44 42.95 276.21 43.76C276.25 43.79 276.3 43.82 276.35 43.85V43.84Z" fill="#FAB84D"/>
<path d="M275.68 46.54C275.63 47 275.61 47.46 275.6 47.92C275.62 47.89 275.65 47.85 275.67 47.81C275.9 47.4 275.88 46.92 275.68 46.54Z" fill="#FAB84D"/>
<path opacity="0.6" d="M304.58 38.94C305.07 39.21 305.65 39.14 306.06 38.82C305.56 38.09 305.01 37.39 304.39 36.74C304.26 36.84 304.15 36.97 304.06 37.13C303.7 37.77 303.94 38.59 304.58 38.94Z" fill="#FAB84D"/>
<path opacity="0.6" d="M301.58 41.62C301.22 42.26 301.46 43.08 302.1 43.43C302.74 43.79 303.56 43.55 303.91 42.91C304.27 42.27 304.03 41.45 303.39 41.1C302.75 40.74 301.93 40.98 301.58 41.62Z" fill="#FAB84D"/>
<path opacity="0.6" d="M299.09 46.11C298.73 46.75 298.97 47.57 299.61 47.92C300.25 48.28 301.07 48.04 301.42 47.4C301.78 46.76 301.54 45.94 300.9 45.59C300.26 45.23 299.44 45.47 299.09 46.11Z" fill="#FAB84D"/>
<path opacity="0.6" d="M296.6 50.6C296.24 51.24 296.48 52.06 297.12 52.41C297.76 52.77 298.58 52.53 298.93 51.89C299.29 51.25 299.05 50.43 298.41 50.08C297.77 49.72 296.95 49.96 296.6 50.6Z" fill="#FAB84D"/>
<path opacity="0.6" d="M294.11 55.09C293.75 55.73 293.99 56.55 294.63 56.9C295.27 57.26 296.09 57.02 296.44 56.38C296.8 55.74 296.56 54.92 295.92 54.57C295.28 54.21 294.46 54.45 294.11 55.09Z" fill="#FAB84D"/>
<path opacity="0.6" d="M291.63 59.58C291.27 60.22 291.51 61.04 292.15 61.39C292.79 61.75 293.61 61.51 293.96 60.87C294.32 60.23 294.08 59.41 293.44 59.06C292.8 58.7 291.98 58.94 291.63 59.58Z" fill="#FAB84D"/>
<path opacity="0.6" d="M290.96 63.55C290.32 63.19 289.5 63.43 289.15 64.07C289.06 64.22 289.01 64.39 288.99 64.55C289.87 64.73 290.76 64.83 291.64 64.86C291.7 64.34 291.45 63.81 290.96 63.54V63.55Z" fill="#FAB84D"/>
<path opacity="0.6" d="M298.81 37.15C298.45 37.79 298.69 38.61 299.33 38.96C299.97 39.32 300.79 39.08 301.14 38.44C301.5 37.8 301.26 36.98 300.62 36.63C299.98 36.27 299.16 36.51 298.81 37.15Z" fill="#FAB84D"/>
<path opacity="0.6" d="M298.66 42.94C299.02 42.3 298.78 41.48 298.14 41.13C297.5 40.77 296.68 41.01 296.33 41.65C295.97 42.29 296.21 43.11 296.85 43.46C297.49 43.82 298.31 43.58 298.66 42.94Z" fill="#FAB84D"/>
<path opacity="0.6" d="M296.18 47.43C296.54 46.79 296.3 45.97 295.66 45.62C295.02 45.26 294.2 45.5 293.85 46.14C293.49 46.78 293.73 47.6 294.37 47.95C295.01 48.31 295.83 48.07 296.18 47.43Z" fill="#FAB84D"/>
<path opacity="0.6" d="M293.69 51.92C294.05 51.28 293.81 50.46 293.17 50.11C292.53 49.75 291.71 49.99 291.36 50.63C291 51.27 291.24 52.09 291.88 52.44C292.52 52.8 293.34 52.56 293.69 51.92Z" fill="#FAB84D"/>
<path opacity="0.6" d="M288.87 55.11C288.51 55.75 288.75 56.57 289.39 56.92C290.03 57.28 290.85 57.04 291.2 56.4C291.56 55.76 291.32 54.94 290.68 54.59C290.04 54.23 289.22 54.47 288.87 55.11Z" fill="#FAB84D"/>
<path opacity="0.6" d="M286.38 59.6C286.02 60.24 286.26 61.06 286.9 61.41C287.54 61.77 288.36 61.53 288.71 60.89C289.07 60.25 288.83 59.43 288.19 59.08C287.55 58.72 286.73 58.96 286.38 59.6Z" fill="#FAB84D"/>
<path opacity="0.6" d="M307.1 50.54C306.74 51.18 306.98 52 307.62 52.35C307.86 52.48 308.13 52.53 308.38 52.51C308.6 51.67 308.76 50.83 308.85 49.99C308.21 49.68 307.44 49.91 307.09 50.54H307.1Z" fill="#FAB84D"/>
<path opacity="0.6" d="M306.43 54.51C305.79 54.15 304.97 54.39 304.62 55.03C304.26 55.67 304.5 56.49 305.14 56.84C305.62 57.11 306.19 57.04 306.6 56.73C306.69 56.58 306.78 56.43 306.87 56.27C306.96 56.11 307.03 55.96 307.12 55.8C307.17 55.29 306.92 54.77 306.44 54.5L306.43 54.51Z" fill="#FAB84D"/>
<path opacity="0.6" d="M302.13 59.52C301.78 60.15 301.99 60.93 302.6 61.3C303.27 60.77 303.9 60.19 304.49 59.56C304.37 59.33 304.19 59.13 303.95 59C303.31 58.64 302.49 58.88 302.14 59.52H302.13Z" fill="#FAB84D"/>
<path opacity="0.6" d="M307.35 43.41C307.65 43.57 307.98 43.61 308.29 43.54C308.04 42.69 307.73 41.87 307.35 41.07C307.14 41.19 306.96 41.36 306.83 41.59C306.47 42.23 306.71 43.05 307.35 43.4V43.41Z" fill="#FAB84D"/>
<path opacity="0.6" d="M304.34 46.08C303.98 46.72 304.22 47.54 304.86 47.89C305.5 48.25 306.32 48.01 306.67 47.37C307.03 46.73 306.79 45.91 306.15 45.56C305.51 45.2 304.69 45.44 304.34 46.08Z" fill="#FAB84D"/>
<path opacity="0.6" d="M301.85 50.57C301.49 51.21 301.73 52.03 302.37 52.38C303.01 52.74 303.83 52.5 304.18 51.86C304.54 51.22 304.3 50.4 303.66 50.05C303.02 49.69 302.2 49.93 301.85 50.57Z" fill="#FAB84D"/>
<path opacity="0.6" d="M299.36 55.06C299 55.7 299.24 56.52 299.88 56.87C300.52 57.23 301.34 56.99 301.69 56.35C302.05 55.71 301.81 54.89 301.17 54.54C300.53 54.18 299.71 54.42 299.36 55.06Z" fill="#FAB84D"/>
<path opacity="0.6" d="M296.88 59.55C296.52 60.19 296.76 61.01 297.4 61.36C298.04 61.72 298.86 61.48 299.21 60.84C299.57 60.2 299.33 59.38 298.69 59.03C298.05 58.67 297.23 58.91 296.88 59.55Z" fill="#FAB84D"/>
<path opacity="0.6" d="M294.39 64.04C294.26 64.27 294.21 64.52 294.23 64.76C295.11 64.66 295.97 64.49 296.82 64.25C296.72 63.95 296.51 63.69 296.21 63.53C295.57 63.17 294.75 63.41 294.4 64.05L294.39 64.04Z" fill="#FAB84D"/>
<path opacity="0.6" d="M296.57 34.51C297.21 34.87 298.03 34.63 298.38 33.99C298.61 33.57 298.59 33.09 298.38 32.7C297.82 32.48 297.25 32.29 296.67 32.13C296.41 32.24 296.19 32.44 296.05 32.7C295.69 33.34 295.93 34.16 296.57 34.51Z" fill="#FAB84D"/>
<path opacity="0.6" d="M295.9 38.47C296.26 37.83 296.02 37.01 295.38 36.66C294.74 36.3 293.92 36.54 293.57 37.18C293.21 37.82 293.45 38.64 294.09 38.99C294.73 39.35 295.55 39.11 295.9 38.47Z" fill="#FAB84D"/>
<path opacity="0.6" d="M293.41 42.96C293.77 42.32 293.53 41.5 292.89 41.15C292.25 40.79 291.43 41.03 291.08 41.67C290.72 42.31 290.96 43.13 291.6 43.48C292.24 43.84 293.06 43.6 293.41 42.96Z" fill="#FAB84D"/>
<path opacity="0.6" d="M290.93 47.45C291.29 46.81 291.05 45.99 290.41 45.64C289.77 45.28 288.95 45.52 288.6 46.16C288.24 46.8 288.48 47.62 289.12 47.97C289.76 48.33 290.58 48.09 290.93 47.45Z" fill="#FAB84D"/>
<path opacity="0.6" d="M288.44 51.94C288.8 51.3 288.56 50.48 287.92 50.13C287.28 49.77 286.46 50.01 286.11 50.65C285.75 51.29 285.99 52.11 286.63 52.46C287.27 52.82 288.09 52.58 288.44 51.94Z" fill="#FAB84D"/>
<path opacity="0.6" d="M284.79 57.12C285.525 57.12 286.12 56.5245 286.12 55.79C286.12 55.0555 285.525 54.46 284.79 54.46C284.055 54.46 283.46 55.0555 283.46 55.79C283.46 56.5245 284.055 57.12 284.79 57.12Z" fill="#FAB84D"/>
<path opacity="0.6" d="M283.47 60.92C283.83 60.28 283.59 59.46 282.95 59.11C282.31 58.75 281.49 58.99 281.14 59.63C280.99 59.89 280.95 60.19 280.99 60.46C281.43 60.86 281.89 61.25 282.38 61.61C282.82 61.59 283.25 61.34 283.48 60.93L283.47 60.92Z" fill="#FAB84D"/>
<path opacity="0.6" d="M293.14 34.01C293.5 33.37 293.26 32.55 292.62 32.2C291.98 31.84 291.16 32.08 290.81 32.72C290.45 33.36 290.69 34.18 291.33 34.53C291.97 34.89 292.79 34.65 293.14 34.01Z" fill="#FAB84D"/>
<path opacity="0.6" d="M290.65 38.5C291.01 37.86 290.77 37.04 290.13 36.69C289.49 36.33 288.67 36.57 288.32 37.21C287.96 37.85 288.2 38.67 288.84 39.02C289.48 39.38 290.3 39.14 290.65 38.5Z" fill="#FAB84D"/>
<path opacity="0.6" d="M288.16 42.99C288.52 42.35 288.28 41.53 287.64 41.18C287 40.82 286.18 41.06 285.83 41.7C285.47 42.34 285.71 43.16 286.35 43.51C286.99 43.87 287.81 43.63 288.16 42.99Z" fill="#FAB84D"/>
<path opacity="0.6" d="M285.68 47.48C286.04 46.84 285.8 46.02 285.16 45.67C284.52 45.31 283.7 45.55 283.35 46.19C282.99 46.83 283.23 47.65 283.87 48C284.51 48.36 285.33 48.12 285.68 47.48Z" fill="#FAB84D"/>
<path opacity="0.6" d="M283.19 51.97C283.55 51.33 283.31 50.51 282.67 50.16C282.03 49.8 281.21 50.04 280.86 50.68C280.5 51.32 280.74 52.14 281.38 52.49C282.02 52.85 282.84 52.61 283.19 51.97Z" fill="#FAB84D"/>
<path opacity="0.6" d="M280.7 56.46C281.06 55.82 280.82 55 280.18 54.65C279.54 54.29 278.72 54.53 278.37 55.17C278.01 55.81 278.25 56.63 278.89 56.98C279.53 57.34 280.35 57.1 280.7 56.46Z" fill="#FAB84D"/>
<path d="M46.3899 91.5L49.4099 103.19L57.4499 97.12L46.3899 91.5Z" fill="#05A6AA"/>
<path d="M303.076 73.157L300.882 82.5236L310.249 84.7171L312.442 75.3505L303.076 73.157Z" fill="#F7BBBE"/>
<path d="M70.9675 110.546L68.774 119.913L78.1406 122.106L80.3341 112.739L70.9675 110.546Z" fill="#F7BBBE"/>
<path d="M310.39 67.76L298.58 70.26L304.28 78.56L310.39 67.76Z" fill="#05A6AA"/>
<path d="M238.19 41.02H117.06C107.08 41.02 98.99 49.1102 98.99 59.09V127.34C98.99 137.32 107.08 145.41 117.06 145.41H238.19C248.17 145.41 256.26 137.32 256.26 127.34V59.09C256.26 49.1102 248.17 41.02 238.19 41.02Z" fill="#4D73B7"/>
<path d="M231.98 45.03H116.76C106.78 45.03 98.6899 53.1202 98.6899 63.1V127.42C98.6899 137.4 106.78 145.49 116.76 145.49H231.98C241.96 145.49 250.05 137.4 250.05 127.42V63.1C250.05 53.1202 241.96 45.03 231.98 45.03Z" fill="#3D6092"/>
<path opacity="0.3" d="M176.56 165.92C230.827 165.92 274.82 159.348 274.82 151.24C274.82 143.132 230.827 136.56 176.56 136.56C122.292 136.56 78.2999 143.132 78.2999 151.24C78.2999 159.348 122.292 165.92 176.56 165.92Z" fill="#E2DEDC"/>
<path d="M117.06 49.18H227.91C237.88 49.18 245.98 57.28 245.98 67.25V135.5C245.98 145.47 237.88 153.57 227.91 153.57H117.06C107.09 153.57 98.99 145.47 98.99 135.5V67.25C98.99 57.28 107.09 49.18 117.06 49.18Z" fill="#709BD2"/>
<path d="M250.34 115.64H204.73C196.85 115.64 190.47 109.25 190.47 101.38C190.47 93.5 196.86 87.12 204.73 87.12H250.34V115.64Z" fill="#4D73B7"/>
<path d="M204.73 112.56C210.904 112.56 215.91 107.555 215.91 101.38C215.91 95.2054 210.904 90.2 204.73 90.2C198.555 90.2 193.55 95.2054 193.55 101.38C193.55 107.555 198.555 112.56 204.73 112.56Z" fill="#E9F2FC"/>
<g style="mix-blend-mode:multiply" opacity="0.15">
<path d="M227.04 45.03H114.95C114.95 45.03 114.9 45.03 114.87 45.03C114.84 45.07 114.82 45.12 114.82 45.17V46.62C114.82 46.74 114.9 46.84 115.02 46.93C115.09 47.66 115.23 48.37 115.43 49.08H227.04C229.86 49.08 232.84 49.34 235.29 49.9C235.49 49.19 235.44 48.72 235.51 47.99C235.63 47.9 235.71 47.8 235.71 47.68L235.61 46.07C233 45.41 230.11 45.03 227.04 45.03Z" fill="#7D7060"/>
</g>
<path d="M202.716 95.599L199.242 103.115L206.757 106.589L210.232 99.0734L202.716 95.599Z" fill="#05A6AA"/>
</svg>
